<?xml version="1.0" encoding="utf-8"?>
<!-- Generator: Adobe Illustrator 23.0.1, SVG Export Plug-In . SVG Version: 6.00 Build 0)  -->
<svg version="1.1" id="communityImage" xmlns="http://www.w3.org/2000/svg" xmlns:xlink="http://www.w3.org/1999/xlink" x="0px"
	 y="0px" viewBox="0 0 443.7 436.9" style="enable-background:new 0 0 443.7 436.9;" xml:space="preserve">
<g id="face">
	<g id="eyes">
		<g>
			<circle cx="92.4" cy="80.5" r="55.5"/>
		</g>
		<g>
			<circle cx="351.3" cy="80.5" r="55.5"/>
		</g>
	</g>
	<path id="smile" d="M221.8,436.9c-59.3,0-115-23.1-156.9-65C23.1,330,0,274.3,0,215c0-10.2,8.3-18.5,18.5-18.5S37,204.8,37,215
		c0,102,82.9,184.9,184.8,184.9c102,0,184.9-82.9,184.9-184.9c0-10.2,8.3-18.5,18.5-18.5s18.5,8.3,18.5,18.5
		c0,59.3-23.1,115-65,156.9C336.8,413.8,281.1,436.9,221.8,436.9z"/>
	<path id="meh" d="M406.8,322.1H36.9c-10.2,0-18.5-8.3-18.5-18.5s8.3-18.5,18.5-18.5h369.9c10.2,0,18.5,8.3,18.5,18.5
		S417,322.1,406.8,322.1z"/>
</g>
</svg>
