<?xml version="1.0" encoding="utf-8"?>
<!-- Generator: Adobe Illustrator 23.0.1, SVG Export Plug-In . SVG Version: 6.00 Build 0)  -->
<svg version="1.1" id="Food" xmlns="http://www.w3.org/2000/svg" xmlns:xlink="http://www.w3.org/1999/xlink" x="0px" y="0px"
	 viewBox="0 0 170.6 203.9" style="enable-background:new 0 0 170.6 203.9;" xml:space="preserve">
<g id="outercirc">
	<path style="fill:#F15A24;" d="M90.8,200.9c-2.7,0-5.3-0.6-7.8-1.7l-8.2-3.8c-1.6-0.8-3.4-1.2-5.2-1.2c-0.4,0-0.7,0-1.1,0l-9,0.8
		c-0.5,0-1,0.1-1.6,0.1c-6,0-11.6-2.9-15-7.8l-5.2-7.4c-1.2-1.8-2.9-3.2-4.9-4.1l-8.2-3.8c-5.9-2.8-9.9-8.5-10.5-15l-0.8-9
		c-0.2-2.2-0.9-4.2-2.2-6l-5.2-7.4c-3.7-5.4-4.3-12.3-1.6-18.3l3.8-8.2c0.9-2,1.3-4.1,1.1-6.3l-0.8-9c-0.6-6.5,2.4-12.9,7.8-16.6
		l7.4-5.2c1.8-1.2,3.2-2.9,4.1-4.9l3.8-8.2c2.8-5.9,8.5-9.9,15-10.5l9-0.8c2.2-0.2,4.2-0.9,6-2.2l7.4-5.2c3.1-2.2,6.7-3.3,10.5-3.3
		c2.7,0,5.3,0.6,7.8,1.7l8.2,3.8c1.6,0.8,3.4,1.2,5.2,1.2c0.4,0,0.7,0,1.1,0l9-0.8c0.5,0,1-0.1,1.6-0.1c6,0,11.6,2.9,15,7.8l5.2,7.4
		c1.2,1.8,2.9,3.2,4.9,4.1l8.2,3.8c5.9,2.8,9.9,8.5,10.5,15l0.8,9c0.2,2.2,0.9,4.2,2.2,6l5.2,7.4c3.7,5.4,4.3,12.3,1.6,18.3
		l-3.8,8.2c-0.9,2-1.3,4.1-1.1,6.3l0.8,9c0.6,6.5-2.4,12.9-7.8,16.6l-7.4,5.2c-1.8,1.2-3.2,2.9-4.1,4.9l-3.8,8.2
		c-2.8,5.9-8.5,9.9-15,10.5l-9,0.8c-2.2,0.2-4.2,0.9-6,2.2l-7.4,5.2C98.2,199.8,94.6,200.9,90.8,200.9z"/>
	<path style="fill:#FFFFFF;" d="M79.8,39.3c2.2,0,4.4,0.5,6.5,1.4l8.2,3.8c2,1,4.3,1.4,6.5,1.4c0.4,0,0.9,0,1.3-0.1l9-0.8
		c0.4,0,0.9-0.1,1.3-0.1c5,0,9.7,2.4,12.6,6.6l5.2,7.4c1.5,2.2,3.6,4,6.1,5.1l8.2,3.8c5,2.3,8.3,7.1,8.8,12.6l0.8,9
		c0.2,2.7,1.2,5.3,2.7,7.5l5.2,7.4c3.1,4.5,3.6,10.3,1.3,15.3l-3.8,8.2c-1.1,2.4-1.6,5.1-1.4,7.8l0.8,9c0.5,5.5-2,10.7-6.5,13.9
		l-7.4,5.2c-2.2,1.5-4,3.6-5.1,6.1l-3.8,8.2c-2.3,5-7.1,8.3-12.6,8.8l-9,0.8c-2.7,0.2-5.3,1.2-7.5,2.7l-7.4,5.2
		c-2.6,1.8-5.7,2.8-8.8,2.8c-2.2,0-4.4-0.5-6.5-1.4l-8.2-3.8c-2-1-4.3-1.4-6.5-1.4c-0.4,0-0.9,0-1.3,0.1l-9,0.8
		c-0.4,0-0.9,0.1-1.3,0.1c-5,0-9.7-2.4-12.6-6.6l-5.2-7.4c-1.5-2.2-3.6-4-6.1-5.1l-8.2-3.8c-5-2.3-8.3-7.1-8.8-12.6l-0.8-9
		c-0.2-2.7-1.2-5.3-2.7-7.5l-5.2-7.4C5.5,128.8,5,123,7.3,118l3.8-8.2c1.1-2.4,1.6-5.1,1.4-7.8l-0.8-9c-0.5-5.5,2-10.7,6.5-13.9
		l7.4-5.2c2.2-1.5,4-3.6,5.1-6.1l3.8-8.2c2.3-5,7.1-8.3,12.6-8.8l9-0.8c2.7-0.2,5.3-1.2,7.5-2.7l7.4-5.2
		C73.7,40.2,76.8,39.3,79.8,39.3 M79.8,33.3c-4.4,0-8.6,1.3-12.2,3.8l-7.4,5.2c-1.3,0.9-2.9,1.5-4.5,1.6l-9,0.8
		c-7.6,0.6-14.3,5.3-17.5,12.2L25.4,65c-0.7,1.5-1.8,2.8-3.1,3.7l-7.4,5.2c-6.2,4.3-9.7,11.7-9,19.3l0.8,9c0.1,1.6-0.2,3.3-0.8,4.7
		L2,115c-3.2,6.9-2.5,15,1.8,21.2l5.2,7.4c0.9,1.3,1.5,2.9,1.6,4.5l0.8,9c0.6,7.6,5.3,14.3,12.2,17.5l8.2,3.8
		c1.5,0.7,2.8,1.8,3.7,3.1l5.2,7.4c4,5.7,10.5,9.1,17.5,9.1c0.6,0,1.2,0,1.8-0.1l9-0.8c0.3,0,0.5,0,0.8,0c1.4,0,2.7,0.3,4,0.9
		l8.2,3.8c2.9,1.3,5.9,2,9,2c4.4,0,8.6-1.3,12.2-3.8l7.4-5.2c1.3-0.9,2.9-1.5,4.5-1.6l9-0.8c7.6-0.6,14.3-5.3,17.5-12.2l3.8-8.2
		c0.7-1.5,1.8-2.8,3.1-3.7l7.4-5.2c6.2-4.3,9.7-11.7,9-19.3l-0.8-9c-0.1-1.6,0.2-3.3,0.8-4.7l3.8-8.2c3.2-6.9,2.5-15-1.8-21.2
		l-5.2-7.4c-0.9-1.3-1.5-2.9-1.6-4.5l-0.8-9c-0.6-7.6-5.3-14.3-12.2-17.5l-8.2-3.8c-1.5-0.7-2.8-1.8-3.7-3.1L130,48
		c-4-5.7-10.5-9.1-17.5-9.1c-0.6,0-1.2,0-1.8,0.1l-9,0.8c-0.3,0-0.5,0-0.8,0c-1.4,0-2.7-0.3-4-0.9l-8.2-3.8
		C86,33.9,83,33.3,79.8,33.3L79.8,33.3z"/>
</g>
<path id="innercirc" style="fill:#FBB03B;" d="M140.7,150.2l-7.5,5.2c-1.5,1-2.6,2.4-3.4,4l-3.9,8.3c-1.5,3.3-4.7,5.5-8.4,5.8
	l-9.1,0.8c-1.8,0.2-3.5,0.8-5,1.8l-7.5,5.2c-3,2.1-6.9,2.4-10.2,0.9l-8.3-3.9c-1.6-0.8-3.4-1.1-5.2-0.9l-9.1,0.8
	c-3.6,0.3-7.2-1.3-9.2-4.3l-5.2-7.5c-1-1.5-2.4-2.6-4-3.4l-8.3-3.9c-3.3-1.5-5.5-4.7-5.8-8.4l-0.8-9.1c-0.2-1.8-0.8-3.5-1.8-5
	l-5.2-7.5c-2.1-3-2.4-6.9-0.9-10.2l3.9-8.3c0.8-1.6,1.1-3.4,0.9-5.2l-0.8-9.1C25.3,92.6,27,89.1,30,87l7.5-5.2c1.5-1,2.6-2.4,3.4-4
	l3.9-8.3c1.5-3.3,4.7-5.5,8.4-5.8l9.1-0.8c1.8-0.2,3.5-0.8,5-1.8l7.5-5.2c3-2.1,6.9-2.4,10.2-0.9l8.3,3.9c1.6,0.8,3.4,1.1,5.2,0.9
	l9.1-0.8c3.6-0.3,7.2,1.3,9.2,4.3l5.2,7.5c1,1.5,2.4,2.6,4,3.4l8.3,3.9c3.3,1.5,5.5,4.7,5.8,8.4l0.8,9.1c0.2,1.8,0.8,3.5,1.8,5
	l5.2,7.5c2.1,3,2.4,6.9,0.9,10.2l-3.9,8.3c-0.8,1.6-1.1,3.4-0.9,5.2l0.8,9.1C145.3,144.6,143.7,148.1,140.7,150.2z"/>
<g>
	<g>
		<path style="fill:#FFFFFF;" d="M115.1,90.7c0-0.1,0-0.1,0-0.2v-0.2l0,0c-0.1-3.4-46.9-3.4-47,0l0,0v36.1l0,0
			c0,3.5,2.3,6.9,6.9,9.6c9.2,5.3,24.1,5.3,33.3,0c4.6-2.7,6.9-6.1,6.9-9.6l0,0L115.1,90.7z"/>
		<path style="fill:#009BDA;" d="M114.6,87.8c-0.9-2.5-3-5-6.4-6.9c-9.2-5.3-24.1-5.3-33.3,0c-3.4,2-5.6,4.4-6.4,6.9h-0.4v2.5
			c0,0.1,0,0.2,0,0.3V91l0,0c0.2,3.3,2.5,6.5,6.9,9.1c9.2,5.3,24.1,5.3,33.3,0c4.4-2.5,6.6-5.8,6.9-9.1l0,0v-3.2H114.6z"/>
		<ellipse style="fill:#29ABE2;" cx="91.6" cy="87.8" rx="23.5" ry="13.6"/>
		<path style="fill:#009BDA;" d="M115,102.4c-0.5,3.1-2.7,6.1-6.8,8.4c-9.2,5.3-24.1,5.3-33.3,0c-4.1-2.4-6.3-5.4-6.8-8.4H68v15.7
			l0,0c0,3.5,2.3,6.9,6.9,9.6c9.2,5.3,24.1,5.3,33.3,0c4.6-2.7,6.9-6.1,6.9-9.6L115,102.4L115,102.4z"/>
	</g>
	<g>
		<path style="fill:#FFFFFF;" d="M74.1,94.6L74.1,94.6v-0.2l0,0c-0.1-2.6-35.6-2.6-35.7,0l0,0v46.9l0,0c0,2.6,1.7,5.3,5.2,7.3
			c7,4,18.3,4,25.3,0c3.5-2,5.2-4.7,5.2-7.3l0,0L74.1,94.6z"/>
		<path style="fill:#00A99D;" d="M73.8,92.4c-0.7-1.9-2.3-3.8-4.9-5.3c-7-4-18.3-4-25.3,0c-2.6,1.5-4.2,3.3-4.9,5.3h-0.3v1.9
			c0,0.1,0,0.1,0,0.2v0.3l0,0c0.2,2.5,1.9,5,5.2,6.9c7,4,18.3,4,25.3,0c3.3-1.9,5-4.4,5.2-6.9l0,0v-2.4H73.8z"/>
		<ellipse style="fill:#5EC9C1;" cx="56.2" cy="92.4" rx="17.9" ry="10.3"/>
		<path style="fill:#00A99D;" d="M74,103.5c-0.3,2.3-2.1,4.6-5.2,6.4c-7,4-18.3,4-25.3,0c-3.1-1.8-4.8-4.1-5.2-6.4h-0.1V135l0,0
			c0,2.6,1.7,5.3,5.2,7.3c7,4,18.3,4,25.3,0c3.5-2,5.2-4.7,5.2-7.3L74,103.5L74,103.5z"/>
	</g>
	<g>
		<g>
			<path style="opacity:0.92;fill:#FFFFFF;enable-background:new    ;" d="M142.8,146.9c-11.9,9.4-24.2,19.3-49.3,15
				s-47.7,5.9-45.4-7.6c2.3-13.4,27.4-37.8,52.5-33.5C125.6,125.2,153.5,138.5,142.8,146.9z"/>
			<path style="opacity:0.6;fill:#E6E6E6;enable-background:new    ;" d="M69.5,132.6c0.5,5.7,10.4,9.6,22.2,8.6s21.1-6.3,20.6-12
				s-10.4-9.6-22.2-8.6c-6.3,0.5-10.1,2.5-15,4.8C71.5,127,69.2,129.9,69.5,132.6z"/>
			<g style="opacity:0.57;">
				<g>
					<path style="fill:#666666;" d="M92.2,130.7c-1,0-2.1-0.2-2.9-0.7c-0.9-0.5-1.3-1.2-1.3-1.9s0.5-1.4,1.3-1.9
						c1.6-0.9,4.2-0.9,5.8,0c0.9,0.5,1.3,1.2,1.3,1.9c0,0.7-0.5,1.4-1.3,1.9C94.3,130.5,93.2,130.7,92.2,130.7z M92.2,126.2
						c-0.9,0-1.8,0.2-2.5,0.6c-0.6,0.3-0.9,0.8-0.9,1.2c0,0.5,0.3,0.9,0.9,1.2c1.4,0.8,3.7,0.8,5.1,0c0.6-0.3,0.9-0.8,0.9-1.2
						c0-0.5-0.3-0.9-0.9-1.2C94,126.4,93.1,126.2,92.2,126.2z"/>
				</g>
				<g>
					<path style="fill:#808080;" d="M92.2,130.4c-1,0-2.1-0.2-2.9-0.7c-0.9-0.5-1.3-1.2-1.3-1.9c0-0.7,0.5-1.4,1.3-1.9
						c1.6-0.9,4.2-0.9,5.8,0c0.9,0.5,1.3,1.2,1.3,1.9s-0.5,1.4-1.3,1.9C94.3,130.1,93.2,130.4,92.2,130.4z M92.2,125.9
						c-0.9,0-1.8,0.2-2.5,0.6c-0.6,0.3-0.9,0.8-0.9,1.2c0,0.5,0.3,0.9,0.9,1.2c1.4,0.8,3.7,0.8,5.1,0c0.6-0.3,0.9-0.8,0.9-1.2
						c0-0.5-0.3-0.9-0.9-1.2C94,126.1,93.1,125.9,92.2,125.9z"/>
				</g>
				<g>
					<path style="fill:#666666;" d="M92.2,129.9c-1,0-2.1-0.2-2.9-0.7c-0.9-0.5-1.3-1.2-1.3-1.9c0-0.7,0.5-1.4,1.3-1.9
						c1.6-0.9,4.2-0.9,5.8,0c0.9,0.5,1.3,1.2,1.3,1.9c0,0.7-0.5,1.4-1.3,1.9C94.3,129.7,93.2,129.9,92.2,129.9z M92.2,125.5
						c-0.9,0-1.8,0.2-2.5,0.6c-0.6,0.3-0.9,0.8-0.9,1.2s0.3,0.9,0.9,1.2c1.4,0.8,3.7,0.8,5.1,0c0.6-0.3,0.9-0.8,0.9-1.2
						s-0.3-0.9-0.9-1.2C94,125.7,93.1,125.5,92.2,125.5z"/>
				</g>
				<g>
					<path style="fill:#808080;" d="M92.2,129.6c-1,0-2.1-0.2-2.9-0.7c-0.9-0.5-1.3-1.2-1.3-1.9c0-0.7,0.5-1.4,1.3-1.9
						c1.6-0.9,4.2-0.9,5.8,0c0.9,0.5,1.3,1.2,1.3,1.9c0,0.7-0.5,1.4-1.3,1.9C94.3,129.3,93.2,129.6,92.2,129.6z M92.2,125.1
						c-0.9,0-1.8,0.2-2.5,0.6c-0.6,0.3-0.9,0.8-0.9,1.2c0,0.5,0.3,0.9,0.9,1.2c1.4,0.8,3.7,0.8,5.1,0c0.6-0.3,0.9-0.8,0.9-1.2
						c0-0.5-0.3-0.9-0.9-1.2C94,125.3,93.1,125.1,92.2,125.1z"/>
				</g>
				<g>
					<path style="fill:#808080;" d="M92.2,129.6c-0.8,0-1.6-0.2-2.2-0.5c-0.6-0.4-1-0.3-1-0.8s0.3-0.8,1-1.1c1.2-0.7,3.1-0.7,4.3,0
						c0.6,0.4,1,0.6,1,1.1s-0.3,0.5-1,0.8C93.8,129.4,93,129.6,92.2,129.6z M92.2,127.1c-0.7,0-1.4-0.1-1.9,0.2
						c-0.4,0.3-0.7,0.6-0.7,0.9s0.2,0.1,0.7,0.4c1,0.6,2.7,0.6,3.8,0c0.4-0.3,0.7,0,0.7-0.4c0-0.3-0.2-0.7-0.7-0.9
						C93.6,127,92.9,127.1,92.2,127.1z"/>
				</g>
				<path style="opacity:0.56;fill:#E6E6E6;enable-background:new    ;" d="M88.7,127c0-2.2-10.9-9.1-9.5-13.9
					c1.7-5.7,21.6-5.5,23.8,0c1.5,3.7-7.4,11.5-7.4,14.2C95.7,129.7,88.7,129.2,88.7,127z"/>
				<ellipse style="opacity:0.64;fill:#E6E6E6;enable-background:new    ;" cx="91.2" cy="112.8" rx="11.7" ry="3.9"/>
			</g>
		</g>
		<g style="opacity:0.26;">
			<path style="fill:#C1272D;" d="M62.9,154.8c-0.5,0-1.3-0.4-1.3-0.7c0-0.4-0.1-0.7-0.2-0.9c-0.1-0.1-0.2-0.2-0.3-0.2
				c-0.4,0-0.8,0.5-0.8,1.1c0,0.1-0.1,0.2-0.2,0.2S60,154.1,60,154c0-0.8,0.6-1.4,1.1-1.4c0.2,0,0.5,0.1,0.6,0.4
				c0.2,0.2,0.2,0.6,0.2,1.1c0,0.1,0.5,0.4,1,0.4c0.1,0,0.2,0,0.3-0.1s0.1-0.2,0.1-0.4c0-0.1,0.1-0.2,0.2-0.2c0.1,0,0.2,0.1,0.2,0.2
				c0,0.3-0.1,0.4-0.2,0.6C63.3,154.7,63.1,154.8,62.9,154.8z"/>
			<path style="fill:#C1272D;" d="M63.1,151.6c-0.3-0.4-1.1-0.7-1.4-0.5c-0.3,0.2-0.6,0.4-0.8,0.4s-0.3,0-0.4-0.1
				c-0.2-0.3-0.1-0.9,0.4-1.3c0.1-0.1,0.1-0.1,0-0.2s-0.1-0.1-0.2,0c-0.6,0.5-0.7,1.3-0.4,1.7c0.2,0.2,0.4,0.3,0.7,0.2
				c0.3,0,0.6-0.2,1-0.5c0.1-0.1,0.6,0.1,1,0.5c0.1,0.1,0.1,0.2,0.1,0.3s-0.1,0.2-0.2,0.3c-0.1,0.1-0.1,0.1,0,0.2
				c0.1,0.1,0.1,0.1,0.2,0c0.2-0.2,0.3-0.3,0.3-0.5C63.3,152,63.3,151.8,63.1,151.6z"/>
			<path style="fill:#C1272D;" d="M72.9,152.1c-0.6-0.7-1.8-1.2-2.3-0.8s-1,0.7-1.4,0.7c-0.3,0-0.5,0-0.6-0.2
				c-0.4-0.5-0.2-1.5,0.6-2.2c0.1-0.1,0.1-0.2,0-0.4c-0.1-0.1-0.2-0.1-0.4,0c-1.1,0.8-1.2,2.2-0.7,2.9c0.3,0.3,0.6,0.5,1.1,0.4
				s1-0.3,1.6-0.8c0.2-0.1,1.1,0.1,1.6,0.8c0.1,0.1,0.2,0.3,0.2,0.5s-0.1,0.4-0.3,0.5c-0.1,0.1-0.1,0.2,0,0.4s0.2,0.1,0.4,0
				c0.3-0.3,0.5-0.6,0.5-0.9C73.2,152.6,73.1,152.3,72.9,152.1z"/>
			<path style="fill:#C1272D;" d="M70.9,150.7c-0.9,0-2.1,0.5-2.1,1.1c0,0.7-0.2,1.2-0.4,1.5c-0.2,0.2-0.4,0.4-0.6,0.3
				c-0.6,0-1.3-0.9-1.2-1.9c0-0.1-0.1-0.3-0.2-0.3s-0.3,0.1-0.3,0.2c-0.1,1.4,0.8,2.4,1.7,2.4c0.4,0,0.8-0.2,1-0.6
				c0.3-0.4,0.4-1,0.5-1.7c0-0.2,0.8-0.7,1.6-0.7c0.2,0,0.4,0,0.5,0.2c0.1,0.1,0.2,0.3,0.2,0.6c0,0.1,0.1,0.3,0.2,0.3
				s0.3-0.1,0.3-0.2c0-0.4-0.1-0.7-0.3-1C71.5,150.9,71.2,150.8,70.9,150.7z"/>
			<path style="fill:#C1272D;" d="M67.1,155c-0.2-0.2-0.5-0.4-0.7-0.3c-0.2,0.1-0.3,0.2-0.4,0.2s-0.2,0-0.2-0.1
				c-0.1-0.1-0.1-0.5,0.2-0.7V154h-0.1c-0.3,0.3-0.4,0.7-0.2,0.9c0.1,0.1,0.2,0.1,0.3,0.1c0.1,0,0.3-0.1,0.5-0.2
				C66.5,154.8,66.8,154.8,67.1,155c-0.1,0,0,0.1,0,0.2c0,0.1,0,0.1-0.1,0.2v0.1h0.1c0.1-0.1,0.2-0.2,0.2-0.3
				C67.2,155.2,67.2,155.1,67.1,155z"/>
			<path style="fill:#C1272D;" d="M62.7,143.5c-0.3,0-0.6,0.3-0.6,0.5s0,0.4,0,0.5s-0.1,0.1-0.2,0.1c-0.2,0-0.4-0.2-0.5-0.5
				c0,0,0-0.1-0.1-0.1c0,0-0.1,0-0.1,0.1c0.1,0.4,0.4,0.7,0.6,0.6c0.1,0,0.2-0.1,0.3-0.2c0.1-0.1,0.1-0.3,0-0.5
				c0-0.1,0.2-0.3,0.4-0.3c0.1,0,0.1,0,0.2,0c0,0,0.1,0.1,0.1,0.2c0,0,0,0.1,0.1,0.1c0,0,0.1,0,0.1-0.1s-0.1-0.2-0.2-0.3
				C62.9,143.5,62.8,143.5,62.7,143.5z"/>
			<path style="fill:#C1272D;" d="M74.4,152.5c0.5,0,1.3-0.4,1.3-0.7c0-0.4,0.1-0.7,0.2-0.9c0.1-0.1,0.2-0.2,0.3-0.2
				c0.4,0,0.8,0.5,0.8,1.1c0,0.1,0.1,0.2,0.2,0.2s0.2-0.1,0.2-0.2c0-0.8-0.6-1.4-1.1-1.4c-0.2,0-0.5,0.1-0.6,0.4
				c-0.2,0.2-0.2,0.6-0.2,1.1c0,0.1-0.5,0.4-1,0.4c-0.1,0-0.2,0-0.3-0.1c-0.1-0.1-0.1-0.2-0.1-0.4c0-0.1-0.1-0.2-0.2-0.2
				s-0.2,0.1-0.2,0.2c0,0.3,0.1,0.4,0.2,0.6C74,152.4,74.2,152.5,74.4,152.5z"/>
			<path style="fill:#C1272D;" d="M74.1,149.4c0.3-0.4,1.1-0.7,1.4-0.5s0.6,0.4,0.8,0.4c0.2,0,0.3,0,0.4-0.1
				c0.2-0.3,0.1-0.9-0.4-1.3c-0.1-0.1-0.1-0.1,0-0.2s0.1-0.1,0.2,0c0.6,0.5,0.7,1.3,0.4,1.7c-0.2,0.2-0.4,0.3-0.7,0.2
				c-0.3,0-0.6-0.2-1-0.5c-0.1-0.1-0.6,0.1-1,0.5c-0.1,0.1-0.1,0.2-0.1,0.3s0.1,0.2,0.2,0.3s0.1,0.1,0,0.2c-0.1,0.1-0.1,0.1-0.2,0
				c-0.2-0.2-0.3-0.3-0.3-0.5C73.9,149.7,74,149.5,74.1,149.4z"/>
			<path style="fill:#C1272D;" d="M65.3,144.6c0.5,0,1.3-0.4,1.3-0.7c0-0.4,0.1-0.7,0.2-0.9c0.1-0.1,0.2-0.2,0.3-0.2
				c0.4,0,0.8,0.5,0.8,1.1c0,0.1,0.1,0.2,0.2,0.2s0.2-0.1,0.2-0.2c0-0.8-0.6-1.4-1.1-1.4c-0.2,0-0.5,0.1-0.6,0.4
				c-0.2,0.2-0.2,0.6-0.2,1.1c0,0.1-0.5,0.4-1,0.4c-0.1,0-0.2,0-0.3-0.1c-0.1-0.1-0.1-0.2-0.1-0.4c0-0.1-0.1-0.2-0.2-0.2
				s-0.2,0.1-0.2,0.2c0,0.3,0.1,0.4,0.2,0.6C64.9,144.5,65.1,144.6,65.3,144.6z"/>
			<path style="fill:#C1272D;" d="M65,141.4c0.3-0.4,1.1-0.7,1.4-0.5s0.6,0.4,0.8,0.4c0.2,0,0.3,0,0.4-0.1c0.2-0.3,0.1-0.9-0.4-1.3
				c-0.1-0.1-0.1-0.1,0-0.2s0.1-0.1,0.2,0c0.6,0.5,0.7,1.3,0.4,1.7c-0.2,0.2-0.4,0.3-0.7,0.2c-0.3,0-0.6-0.2-1-0.5
				c-0.1-0.1-0.6,0.1-1,0.5c-0.1,0.1-0.1,0.2-0.1,0.3s0.1,0.2,0.2,0.3s0.1,0.1,0,0.2c-0.1,0.1-0.1,0.1-0.2,0
				c-0.2-0.2-0.3-0.3-0.3-0.5C64.8,141.8,64.9,141.6,65,141.4z"/>
			<path style="fill:#C1272D;" d="M60.4,145.8c0.6-0.7,1.8-1.2,2.3-0.8s1,0.7,1.4,0.7c0.3,0,0.5,0,0.6-0.2c0.4-0.5,0.2-1.5-0.6-2.2
				c-0.1-0.1-0.1-0.2,0-0.4s0.2-0.1,0.4,0c1.1,0.8,1.2,2.2,0.7,2.9c-0.3,0.3-0.6,0.5-1.1,0.4s-1-0.3-1.6-0.8
				c-0.2-0.1-1.1,0.1-1.6,0.8c-0.1,0.1-0.2,0.3-0.2,0.5s0.1,0.4,0.3,0.5c0.1,0.1,0.1,0.2,0,0.4s-0.2,0.1-0.4,0
				c-0.3-0.3-0.5-0.6-0.5-0.9C60,146.3,60.1,146,60.4,145.8z"/>
			<path style="fill:#C1272D;" d="M66.4,148.5c0.9,0,2.1,0.5,2.1,1.1c0,0.7,0.2,1.2,0.4,1.5c0.2,0.2,0.4,0.4,0.6,0.3
				c0.6,0,1.3-0.9,1.2-1.9c0-0.1,0.1-0.3,0.2-0.3s0.3,0.1,0.3,0.2c0.1,1.4-0.8,2.4-1.7,2.4c-0.4,0-0.8-0.2-1-0.6
				c-0.3-0.4-0.4-1-0.5-1.7c0-0.2-0.8-0.7-1.6-0.7c-0.2,0-0.4,0-0.5,0.2c-0.1,0.1-0.2,0.3-0.2,0.6c0,0.1-0.1,0.3-0.2,0.3
				s-0.3-0.1-0.3-0.2c0-0.4,0.1-0.7,0.3-1C65.8,148.6,66.1,148.5,66.4,148.5z"/>
			<path style="fill:#C1272D;" d="M70.2,152.7c0.2-0.2,0.5-0.4,0.7-0.3c0.2,0.1,0.3,0.2,0.4,0.2s0.2,0,0.2-0.1
				c0.1-0.1,0.1-0.5-0.2-0.7v-0.1h0.1c0.3,0.3,0.4,0.7,0.2,0.9c-0.1,0.1-0.2,0.1-0.3,0.1c-0.1,0-0.3-0.1-0.5-0.2
				C70.8,152.5,70.5,152.5,70.2,152.7c0.1,0,0,0.1,0,0.2c0,0.1,0,0.1,0.1,0.2v0.1h-0.1c-0.1-0.1-0.2-0.2-0.2-0.3
				C70.1,152.9,70.1,152.8,70.2,152.7z"/>
			<path style="fill:#C1272D;" d="M70.5,145.3c0.3,0,0.6,0.3,0.6,0.5s0,0.4,0,0.5s0.1,0.1,0.2,0.1c0.2,0,0.4-0.2,0.5-0.5
				c0,0,0-0.1,0.1-0.1c0,0,0.1,0,0.1,0.1c-0.1,0.4-0.4,0.7-0.6,0.6c-0.1,0-0.2-0.1-0.3-0.2c-0.1-0.1-0.1-0.3,0-0.5
				c0-0.1-0.2-0.3-0.4-0.3c-0.1,0-0.1,0-0.2,0c0,0-0.1,0.1-0.1,0.2c0,0,0,0.1-0.1,0.1c0,0-0.1,0-0.1-0.1s0.1-0.2,0.2-0.3
				C70.3,145.3,70.4,145.3,70.5,145.3z"/>
			<path style="fill:#C1272D;" d="M65.3,142.8c-0.6-0.7-1.8-1.2-2.3-0.8s-1,0.7-1.4,0.7c-0.3,0-0.5,0-0.6-0.2
				c-0.4-0.5-0.2-1.5,0.6-2.2c0.1-0.1,0.1-0.2,0-0.4s-0.2-0.1-0.4,0c-1.1,0.8-1.2,2.2-0.7,2.9c0.3,0.3,0.6,0.5,1.1,0.4
				s1-0.3,1.6-0.8c0.2-0.1,1.1,0.1,1.6,0.8c0.1,0.1,0.2,0.3,0.2,0.5s-0.1,0.4-0.3,0.5c-0.1,0.1-0.1,0.2,0,0.4c0.1,0.1,0.2,0.1,0.4,0
				c0.3-0.3,0.5-0.6,0.5-0.9C65.7,143.4,65.6,143.1,65.3,142.8z"/>
			<path style="fill:#C1272D;" d="M63.3,141.5c-0.9,0-2.1,0.5-2.1,1.1c0,0.7-0.2,1.2-0.4,1.5c-0.2,0.2-0.4,0.4-0.6,0.3
				c-0.6,0-1.3-0.9-1.2-1.9c0-0.1-0.1-0.3-0.2-0.3c-0.1,0-0.3,0.1-0.3,0.2c-0.1,1.4,0.8,2.4,1.7,2.4c0.4,0,0.8-0.2,1-0.6
				c0.3-0.4,0.4-1,0.5-1.7c0-0.2,0.8-0.7,1.6-0.7c0.2,0,0.4,0,0.5,0.2c0.1,0.1,0.2,0.3,0.2,0.6c0,0.1,0.1,0.3,0.2,0.3
				s0.3-0.1,0.3-0.2c0-0.4-0.1-0.7-0.3-1C64,141.6,63.7,141.5,63.3,141.5z"/>
			<path style="fill:#C1272D;" d="M71,147.3c0.5,0,1.3-0.4,1.3-0.7c0-0.4,0.1-0.7,0.2-0.9c0.1-0.1,0.2-0.2,0.3-0.2
				c0.4,0,0.8,0.5,0.8,1.1c0,0.1,0.1,0.2,0.2,0.2s0.2-0.1,0.2-0.2c0-0.8-0.6-1.4-1.1-1.4c-0.2,0-0.5,0.1-0.6,0.4
				c-0.2,0.2-0.2,0.6-0.2,1.1c0,0.1-0.5,0.4-1,0.4c-0.1,0-0.2,0-0.3-0.1c-0.1-0.1-0.1-0.2-0.1-0.4c0-0.1-0.1-0.2-0.2-0.2
				s-0.2,0.1-0.2,0.2c0,0.3,0.1,0.4,0.2,0.6C70.6,147.2,70.7,147.3,71,147.3z"/>
			<path style="fill:#C1272D;" d="M70.7,144.2c0.3-0.4,1.1-0.7,1.4-0.5s0.6,0.4,0.8,0.4c0.2,0,0.3,0,0.4-0.1
				c0.2-0.3,0.1-0.9-0.4-1.3c-0.1-0.1-0.1-0.1,0-0.2c0.1-0.1,0.1-0.1,0.2,0c0.6,0.5,0.7,1.3,0.4,1.7c-0.2,0.2-0.4,0.3-0.7,0.2
				c-0.3,0-0.6-0.2-1-0.5c-0.1-0.1-0.6,0.1-1,0.5c-0.1,0.1-0.1,0.2-0.1,0.3s0.1,0.2,0.2,0.3s0.1,0.1,0,0.2s-0.1,0.1-0.2,0
				c-0.2-0.2-0.3-0.3-0.3-0.5C70.5,144.5,70.5,144.3,70.7,144.2z"/>
			<path style="fill:#C1272D;" d="M59.1,150.8c0.6-0.7,1.8-1.2,2.3-0.8s1,0.7,1.4,0.7c0.3,0,0.5,0,0.6-0.2c0.4-0.5,0.2-1.5-0.6-2.2
				c-0.1-0.1-0.1-0.2,0-0.4s0.2-0.1,0.4,0c1.1,0.8,1.2,2.2,0.7,2.9c-0.3,0.3-0.6,0.5-1.1,0.4s-1-0.3-1.6-0.8
				c-0.2-0.1-1.1,0.1-1.6,0.8c-0.1,0.1-0.2,0.3-0.2,0.5s0.1,0.4,0.3,0.5c0.1,0.1,0.1,0.2,0,0.4c-0.1,0.1-0.2,0.1-0.4,0
				c-0.3-0.3-0.5-0.6-0.5-0.9C58.8,151.4,58.9,151.1,59.1,150.8z"/>
			<path style="fill:#C1272D;" d="M79.7,146.9c0.5,0.8,1.6,1.5,2.1,1.2c0.6-0.3,1.1-0.5,1.4-0.5s0.5,0.1,0.6,0.3
				c0.3,0.5,0,1.5-0.9,2.1c-0.1,0.1-0.2,0.2-0.1,0.3s0.2,0.2,0.3,0.1c1.2-0.7,1.6-2,1.1-2.7c-0.2-0.3-0.6-0.5-1-0.5
				c-0.5,0-1.1,0.2-1.7,0.6c-0.2,0.1-1-0.3-1.5-1c-0.1-0.1-0.2-0.4-0.1-0.6c0-0.2,0.2-0.3,0.4-0.5c0.1-0.1,0.2-0.2,0.1-0.3
				s-0.2-0.2-0.3-0.1c-0.4,0.2-0.6,0.5-0.6,0.8C79.4,146.3,79.5,146.6,79.7,146.9z"/>
			<path style="fill:#C1272D;" d="M62.7,143.5c0.2-0.2,0.5-0.4,0.7-0.3c0.2,0.1,0.3,0.2,0.4,0.2c0.1,0,0.2,0,0.2-0.1
				c0.1-0.1,0.1-0.5-0.2-0.7v-0.1h0.1c0.3,0.3,0.4,0.7,0.2,0.9c-0.1,0.1-0.2,0.1-0.3,0.1s-0.3-0.1-0.5-0.2
				C63.3,143.3,63,143.3,62.7,143.5c0.1,0,0,0.1,0,0.2c0,0.1,0,0.1,0.1,0.2v0.1h-0.1c-0.1-0.1-0.2-0.2-0.2-0.3
				C62.6,143.7,62.6,143.6,62.7,143.5z"/>
			<path style="fill:#C1272D;" d="M116,144.8c-0.8-0.4-2.1-0.4-2.4,0.2c-0.3,0.6-0.6,1-0.9,1.2c-0.2,0.2-0.5,0.2-0.7,0.1
				c-0.5-0.3-0.8-1.3-0.3-2.2c0.1-0.1,0-0.3-0.1-0.3c-0.1-0.1-0.3,0-0.3,0.1c-0.6,1.2-0.2,2.5,0.6,2.9c0.4,0.2,0.8,0.1,1.2-0.1
				c0.4-0.3,0.8-0.7,1.1-1.4c0.1-0.2,1-0.3,1.8,0c0.1,0.1,0.3,0.2,0.4,0.4s0,0.4-0.1,0.6c-0.1,0.1,0,0.3,0.1,0.3
				c0.1,0.1,0.3,0,0.3-0.1c0.2-0.4,0.2-0.7,0.1-1C116.5,145.2,116.3,144.9,116,144.8z"/>
			<path style="fill:#C1272D;" d="M87.7,152.4c-0.3,0-0.6,0.3-0.6,0.5s0,0.4,0,0.5s-0.1,0.1-0.2,0.1c-0.2,0-0.4-0.2-0.5-0.5
				c0,0,0-0.1-0.1-0.1c0,0-0.1,0-0.1,0.1c0.1,0.4,0.4,0.7,0.6,0.6c0.1,0,0.2-0.1,0.3-0.2c0.1-0.1,0.1-0.3,0-0.5
				c0-0.1,0.2-0.3,0.4-0.3c0.1,0,0.1,0,0.2,0c0,0,0.1,0.1,0.1,0.2c0,0,0,0.1,0.1,0.1c0,0,0.1,0,0.1-0.1s-0.1-0.2-0.2-0.3
				C87.9,152.4,87.8,152.4,87.7,152.4z"/>
			<path style="fill:#C1272D;" d="M95.4,157.4c0.5,0,1.3-0.4,1.3-0.7c0-0.4,0.1-0.7,0.2-0.9c0.1-0.1,0.2-0.2,0.3-0.2
				c0.4,0,0.8,0.5,0.8,1.1c0,0.1,0.1,0.2,0.2,0.2s0.2-0.1,0.2-0.2c0-0.8-0.6-1.4-1.1-1.4c-0.2,0-0.5,0.1-0.6,0.4
				c-0.2,0.2-0.2,0.6-0.2,1.1c0,0.1-0.5,0.4-1,0.4c-0.1,0-0.2,0-0.3-0.1c-0.1-0.1-0.1-0.2-0.1-0.4c0-0.1-0.1-0.2-0.2-0.2
				s-0.2,0.1-0.2,0.2c0,0.3,0.1,0.4,0.2,0.6C95,157.3,95.2,157.4,95.4,157.4z"/>
			<path style="fill:#C1272D;" d="M101.4,149.1c0.3,0.4,1.1,0.7,1.4,0.5s0.6-0.4,0.8-0.4c0.2,0,0.3,0,0.4,0.1
				c0.2,0.3,0.1,0.9-0.4,1.3c-0.1,0.1-0.1,0.1,0,0.2s0.1,0.1,0.2,0c0.6-0.5,0.7-1.3,0.4-1.7c-0.2-0.2-0.4-0.3-0.7-0.2
				c-0.3,0-0.6,0.2-1,0.5c-0.1,0.1-0.6-0.1-1-0.5c-0.1-0.1-0.1-0.2-0.1-0.3s0.1-0.2,0.2-0.3s0.1-0.1,0-0.2c-0.1-0.1-0.1-0.1-0.2,0
				c-0.2,0.2-0.3,0.3-0.3,0.5C101.2,148.8,101.3,149,101.4,149.1z"/>
			<path style="fill:#C1272D;" d="M119.8,148.5c0.5,0,1.3-0.4,1.3-0.7c0-0.4,0.1-0.7,0.2-0.9c0.1-0.1,0.2-0.2,0.3-0.2
				c0.4,0,0.8,0.5,0.8,1.1c0,0.1,0.1,0.2,0.2,0.2s0.2-0.1,0.2-0.2c0-0.8-0.6-1.4-1.1-1.4c-0.2,0-0.5,0.1-0.6,0.4
				c-0.2,0.2-0.2,0.6-0.2,1.1c0,0.1-0.5,0.4-1,0.4c-0.1,0-0.2,0-0.3-0.1c-0.1-0.1-0.1-0.2-0.1-0.4c0-0.1-0.1-0.2-0.2-0.2
				s-0.2,0.1-0.2,0.2c0,0.3,0.1,0.4,0.2,0.6C119.4,148.5,119.6,148.5,119.8,148.5z"/>
			<path style="fill:#C1272D;" d="M114,149.7c0.3-0.4,1.1-0.7,1.4-0.5s0.6,0.4,0.8,0.4c0.2,0,0.3,0,0.4-0.1c0.2-0.3,0.1-0.9-0.4-1.3
				c-0.1-0.1-0.1-0.1,0-0.2s0.1-0.1,0.2,0c0.6,0.5,0.7,1.3,0.4,1.7c-0.2,0.2-0.4,0.3-0.7,0.2c-0.3,0-0.6-0.2-1-0.5
				c-0.1-0.1-0.6,0.1-1,0.5c-0.1,0.1-0.1,0.2-0.1,0.3s0.1,0.2,0.2,0.3s0.1,0.1,0,0.2c-0.1,0.1-0.1,0.1-0.2,0
				c-0.2-0.2-0.3-0.3-0.3-0.5C113.8,150,113.9,149.8,114,149.7z"/>
			<path style="fill:#C1272D;" d="M85.4,154.7c0.6-0.7,1.8-1.2,2.3-0.8s1,0.7,1.4,0.7c0.3,0,0.5,0,0.6-0.2c0.4-0.5,0.2-1.5-0.6-2.2
				c-0.1-0.1-0.1-0.2,0-0.4c0.1-0.1,0.2-0.1,0.4,0c1.1,0.8,1.2,2.2,0.7,2.9c-0.3,0.3-0.6,0.5-1.1,0.4s-1-0.3-1.6-0.8
				c-0.2-0.1-1.1,0.1-1.6,0.8c-0.1,0.1-0.2,0.3-0.2,0.5s0.1,0.4,0.3,0.5c0.1,0.1,0.1,0.2,0,0.4s-0.2,0.1-0.4,0
				c-0.3-0.3-0.5-0.6-0.5-0.9C85,155.2,85.1,155,85.4,154.7z"/>
			<path style="fill:#C1272D;" d="M87.4,153.4c0.9,0,2.1,0.5,2.1,1.1c0,0.7,0.2,1.2,0.4,1.5c0.2,0.2,0.4,0.4,0.6,0.3
				c0.6,0,1.3-0.9,1.2-1.9c0-0.1,0.1-0.3,0.2-0.3s0.3,0.1,0.3,0.2c0.1,1.4-0.8,2.4-1.7,2.4c-0.4,0-0.8-0.2-1-0.6
				c-0.3-0.4-0.4-1-0.5-1.7c0-0.2-0.8-0.7-1.6-0.7c-0.2,0-0.4,0-0.5,0.2c-0.1,0.1-0.2,0.3-0.2,0.6c0,0.1-0.1,0.3-0.2,0.3
				s-0.3-0.1-0.3-0.2c0-0.4,0.1-0.7,0.3-1C86.7,153.5,87,153.4,87.4,153.4z"/>
			<path style="fill:#C1272D;" d="M115.5,149.5c0.3,0,0.6,0.3,0.6,0.5s0,0.4,0,0.5s0.1,0.1,0.2,0.1c0.2,0,0.4-0.2,0.5-0.5
				c0,0,0-0.1,0.1-0.1c0,0,0.1,0,0.1,0.1c-0.1,0.4-0.4,0.7-0.6,0.6c-0.1,0-0.2-0.1-0.3-0.2c-0.1-0.1-0.1-0.3,0-0.5
				c0-0.1-0.2-0.3-0.4-0.3c-0.1,0-0.1,0-0.2,0c0,0-0.1,0.1-0.1,0.2c0,0,0,0.1-0.1,0.1c0,0-0.1,0-0.1-0.1s0.1-0.2,0.2-0.3
				C115.2,149.5,115.3,149.4,115.5,149.5z"/>
			<path style="fill:#C1272D;" d="M90.4,151.7c-0.6-0.7-1.8-1.2-2.3-0.8s-1,0.7-1.4,0.7c-0.3,0-0.5,0-0.6-0.2
				c-0.4-0.5-0.2-1.5,0.6-2.2c0.1-0.1,0.1-0.2,0-0.4c-0.1-0.1-0.2-0.1-0.4,0c-1.1,0.8-1.2,2.2-0.7,2.9c0.3,0.3,0.6,0.5,1.1,0.4
				s1-0.3,1.6-0.8c0.2-0.1,1.1,0.1,1.6,0.8c0.1,0.1,0.2,0.3,0.2,0.5s-0.1,0.4-0.3,0.5c-0.1,0.1-0.1,0.2,0,0.4s0.2,0.1,0.4,0
				c0.3-0.3,0.5-0.6,0.5-0.9C90.7,152.3,90.6,152,90.4,151.7z"/>
			<path style="fill:#C1272D;" d="M88.3,150.4c-0.9,0-2.1,0.5-2.1,1.1c0,0.7-0.2,1.2-0.4,1.5c-0.2,0.2-0.4,0.4-0.6,0.3
				c-0.6,0-1.3-0.9-1.2-1.9c0-0.1-0.1-0.3-0.2-0.3s-0.3,0.1-0.3,0.2c-0.1,1.4,0.8,2.4,1.7,2.4c0.4,0,0.8-0.2,1-0.6
				c0.3-0.4,0.4-1,0.5-1.7c0-0.2,0.8-0.7,1.6-0.7c0.2,0,0.4,0,0.5,0.2c0.1,0.1,0.2,0.3,0.2,0.6c0,0.1,0.1,0.3,0.2,0.3
				s0.3-0.1,0.3-0.2c0-0.4-0.1-0.7-0.3-1C89,150.6,88.7,150.4,88.3,150.4z"/>
			<path style="fill:#C1272D;" d="M115.9,151.5c0.5,0,1.3-0.4,1.3-0.7c0-0.4,0.1-0.7,0.2-0.9c0.1-0.1,0.2-0.2,0.3-0.2
				c0.4,0,0.8,0.5,0.8,1.1c0,0.1,0.1,0.2,0.2,0.2s0.2-0.1,0.2-0.2c0-0.8-0.6-1.4-1.1-1.4c-0.2,0-0.5,0.1-0.6,0.4
				c-0.2,0.2-0.2,0.6-0.2,1.1c0,0.1-0.5,0.4-1,0.4c-0.1,0-0.2,0-0.3-0.1c-0.1-0.1-0.1-0.2-0.1-0.4c0-0.1-0.1-0.2-0.2-0.2
				s-0.2,0.1-0.2,0.2c0,0.3,0.1,0.4,0.2,0.6C115.5,151.4,115.7,151.5,115.9,151.5z"/>
			<path style="fill:#C1272D;" d="M87.7,152.4c0.2-0.2,0.5-0.4,0.7-0.3c0.2,0.1,0.3,0.2,0.4,0.2s0.2,0,0.2-0.1
				c0.1-0.1,0.1-0.5-0.2-0.7v-0.1h0.1c0.3,0.3,0.4,0.7,0.2,0.9c-0.1,0.1-0.2,0.1-0.3,0.1c-0.1,0-0.3-0.1-0.5-0.2
				C88.3,152.2,88,152.2,87.7,152.4c0.1,0,0,0.1,0,0.2c0,0.1,0,0.1,0.1,0.2v0.1h-0.1c-0.1-0.1-0.2-0.2-0.2-0.3
				C87.6,152.6,87.6,152.5,87.7,152.4z"/>
			<path style="fill:#C1272D;" d="M67,140.1c0.3,0,0.6,0.3,0.6,0.5s0,0.4,0,0.5s0.1,0.1,0.2,0.1c0.2,0,0.4-0.2,0.5-0.5
				c0,0,0-0.1,0.1-0.1s0.1,0,0.1,0.1c-0.1,0.4-0.4,0.7-0.6,0.6c-0.1,0-0.2-0.1-0.3-0.2c-0.1-0.1-0.1-0.3,0-0.5
				c0-0.1-0.2-0.3-0.4-0.3c-0.1,0-0.1,0-0.2,0c0,0-0.1,0.1-0.1,0.2c0,0,0,0.1-0.1,0.1c0,0-0.1,0-0.1-0.1s0.1-0.2,0.2-0.3
				C66.8,140.1,66.9,140.1,67,140.1z"/>
			<path style="fill:#C1272D;" d="M104.2,147c-0.6,0.7-1.8,1.2-2.3,0.8s-1-0.7-1.4-0.7c-0.3,0-0.5,0-0.6,0.2
				c-0.4,0.5-0.2,1.5,0.6,2.2c0.1,0.1,0.1,0.2,0,0.4s-0.2,0.1-0.4,0c-1.1-0.8-1.2-2.2-0.7-2.9c0.3-0.3,0.6-0.5,1.1-0.4
				s1,0.3,1.6,0.8c0.2,0.1,1.1-0.1,1.6-0.8c0.1-0.1,0.2-0.3,0.2-0.5s-0.1-0.4-0.3-0.5c-0.1-0.1-0.1-0.2,0-0.4s0.2-0.1,0.4,0
				c0.3,0.3,0.5,0.6,0.5,0.9C104.6,146.5,104.5,146.8,104.2,147z"/>
			<path style="fill:#C1272D;" d="M130.9,145.8c-0.9,0-2.1,0.5-2.1,1.1c0,0.7-0.2,1.2-0.4,1.5c-0.2,0.2-0.4,0.4-0.6,0.3
				c-0.6,0-1.3-0.9-1.2-1.9c0-0.1-0.1-0.3-0.2-0.3s-0.3,0.1-0.3,0.2c-0.1,1.4,0.8,2.4,1.7,2.4c0.4,0,0.8-0.2,1-0.6
				c0.3-0.4,0.4-1,0.5-1.7c0-0.2,0.8-0.7,1.6-0.7c0.2,0,0.4,0,0.5,0.2c0.1,0.1,0.2,0.3,0.2,0.6c0,0.1,0.1,0.3,0.2,0.3
				c0.1,0,0.3-0.1,0.3-0.2c0-0.4-0.1-0.7-0.3-1C131.6,145.9,131.3,145.8,130.9,145.8z"/>
			<path style="fill:#C1272D;" d="M121.4,146.8c-0.3,0-0.6,0.3-0.6,0.5s0,0.4,0,0.5s-0.1,0.1-0.2,0.1c-0.2,0-0.4-0.2-0.5-0.5
				c0,0,0-0.1-0.1-0.1c0,0-0.1,0-0.1,0.1c0.1,0.4,0.4,0.7,0.6,0.6c0.1,0,0.2-0.1,0.3-0.2c0.1-0.1,0.1-0.3,0-0.5
				c0-0.1,0.2-0.3,0.4-0.3c0.1,0,0.1,0,0.2,0c0,0,0.1,0.1,0.1,0.2c0,0,0,0.1,0.1,0.1c0,0,0.1,0,0.1-0.1s-0.1-0.2-0.2-0.3
				C121.6,146.8,121.5,146.8,121.4,146.8z"/>
			<path style="fill:#C1272D;" d="M134.5,147.5c0.5,0,1.3-0.4,1.3-0.7c0-0.4,0.1-0.7,0.2-0.9c0.1-0.1,0.2-0.2,0.3-0.2
				c0.4,0,0.8,0.5,0.8,1.1c0,0.1,0.1,0.2,0.2,0.2c0.1,0,0.2-0.1,0.2-0.2c0-0.8-0.6-1.4-1.1-1.4c-0.2,0-0.5,0.1-0.6,0.4
				c-0.2,0.2-0.2,0.6-0.2,1.1c0,0.1-0.5,0.4-1,0.4c-0.1,0-0.2,0-0.3-0.1s-0.1-0.2-0.1-0.4c0-0.1-0.1-0.2-0.2-0.2s-0.2,0.1-0.2,0.2
				c0,0.3,0.1,0.4,0.2,0.6C134.1,147.4,134.3,147.5,134.5,147.5z"/>
			<path style="fill:#C1272D;" d="M134.2,144.4c0.3-0.4,1.1-0.7,1.4-0.5c0.3,0.2,0.6,0.4,0.8,0.4s0.3,0,0.4-0.1
				c0.2-0.3,0.1-0.9-0.4-1.3c-0.1-0.1-0.1-0.1,0-0.2s0.1-0.1,0.2,0c0.6,0.5,0.7,1.3,0.4,1.7c-0.2,0.2-0.4,0.3-0.7,0.2
				c-0.3,0-0.6-0.2-1-0.5c-0.1-0.1-0.6,0.1-1,0.5c-0.1,0.1-0.1,0.2-0.1,0.3s0.1,0.2,0.2,0.3c0.1,0.1,0.1,0.1,0,0.2
				c-0.1,0.1-0.1,0.1-0.2,0c-0.2-0.2-0.3-0.3-0.3-0.5C134,144.7,134.1,144.5,134.2,144.4z"/>
			<path style="fill:#C1272D;" d="M129.4,143.6c0.5,0,1.3-0.4,1.3-0.7c0-0.4,0.1-0.7,0.2-0.9c0.1-0.1,0.2-0.2,0.3-0.2
				c0.4,0,0.8,0.5,0.8,1.1c0,0.1,0.1,0.2,0.2,0.2s0.2-0.1,0.2-0.2c0-0.8-0.6-1.4-1.1-1.4c-0.2,0-0.5,0.1-0.6,0.4
				c-0.2,0.2-0.2,0.6-0.2,1.1c0,0.1-0.5,0.4-1,0.4c-0.1,0-0.2,0-0.3-0.1s-0.1-0.2-0.1-0.4c0-0.1-0.1-0.2-0.2-0.2s-0.2,0.1-0.2,0.2
				c0,0.3,0.1,0.4,0.2,0.6C129,143.6,129.2,143.6,129.4,143.6z"/>
			<path style="fill:#C1272D;" d="M129.1,140.5c0.3-0.4,1.1-0.7,1.4-0.5c0.3,0.2,0.6,0.4,0.8,0.4s0.3,0,0.4-0.1
				c0.2-0.3,0.1-0.9-0.4-1.3c-0.1-0.1-0.1-0.1,0-0.2s0.1-0.1,0.2,0c0.6,0.5,0.7,1.3,0.4,1.7c-0.2,0.2-0.4,0.3-0.7,0.2
				c-0.3,0-0.6-0.2-1-0.5c-0.1-0.1-0.6,0.1-1,0.5c-0.1,0.1-0.1,0.2-0.1,0.3s0.1,0.2,0.2,0.3c0.1,0.1,0.1,0.1,0,0.2
				c-0.1,0.1-0.1,0.1-0.2,0c-0.2-0.2-0.3-0.3-0.3-0.5C128.9,140.8,129,140.7,129.1,140.5z"/>
			<path style="fill:#C1272D;" d="M95.8,149.3c0.6,0.7,1.8,1.2,2.3,0.8s1-0.7,1.4-0.7c0.3,0,0.5,0,0.6,0.2c0.4,0.5,0.2,1.5-0.6,2.2
				c-0.1,0.1-0.1,0.2,0,0.4s0.2,0.1,0.4,0c1.1-0.8,1.2-2.2,0.7-2.9c-0.3-0.3-0.6-0.5-1.1-0.4s-1,0.3-1.6,0.8
				c-0.2,0.1-1.1-0.1-1.6-0.8c-0.1-0.1-0.2-0.3-0.2-0.5s0.1-0.4,0.3-0.5c0.1-0.1,0.1-0.2,0-0.4s-0.2-0.1-0.4,0
				c-0.3,0.3-0.5,0.6-0.5,0.9C95.4,148.7,95.6,149,95.8,149.3z"/>
			<path style="fill:#C1272D;" d="M105.8,158.6c0.9,0,2.1-0.5,2.1-1.1c0-0.7,0.2-1.2,0.4-1.5c0.2-0.2,0.4-0.4,0.6-0.3
				c0.6,0,1.3,0.9,1.2,1.9c0,0.1,0.1,0.3,0.2,0.3s0.3-0.1,0.3-0.2c0.1-1.4-0.8-2.4-1.7-2.4c-0.4,0-0.8,0.2-1,0.6
				c-0.3,0.4-0.4,1-0.5,1.7c0,0.2-0.8,0.7-1.6,0.7c-0.2,0-0.4,0-0.5-0.2c-0.1-0.1-0.2-0.3-0.2-0.6c0-0.1-0.1-0.3-0.2-0.3
				s-0.3,0.1-0.3,0.2c0,0.4,0.1,0.7,0.3,1C105.1,158.4,105.4,158.6,105.8,158.6z"/>
			<path style="fill:#C1272D;" d="M130.6,140.3c0.3,0,0.6,0.3,0.6,0.5s0,0.4,0,0.5s0.1,0.1,0.2,0.1c0.2,0,0.4-0.2,0.5-0.5
				c0,0,0-0.1,0.1-0.1c0,0,0.1,0,0.1,0.1c-0.1,0.4-0.4,0.7-0.6,0.6c-0.1,0-0.2-0.1-0.3-0.2c-0.1-0.1-0.1-0.3,0-0.5
				c0-0.1-0.2-0.3-0.4-0.3c-0.1,0-0.1,0-0.2,0c0,0-0.1,0.1-0.1,0.2c0,0,0,0.1-0.1,0.1c0,0-0.1,0-0.1-0.1s0.1-0.2,0.2-0.3
				C130.4,140.3,130.5,140.3,130.6,140.3z"/>
			<path style="fill:#C1272D;" d="M102.3,153.3c-0.6-0.7-1.8-1.2-2.3-0.8s-1,0.7-1.4,0.7c-0.3,0-0.5,0-0.6-0.2
				c-0.4-0.5-0.2-1.5,0.6-2.2c0.1-0.1,0.1-0.2,0-0.4s-0.2-0.1-0.4,0c-1.1,0.8-1.2,2.2-0.7,2.9c0.3,0.3,0.6,0.5,1.1,0.4
				s1-0.3,1.6-0.8c0.2-0.1,1.1,0.1,1.6,0.8c0.1,0.1,0.2,0.3,0.2,0.5s-0.1,0.4-0.3,0.5c-0.1,0.1-0.1,0.2,0,0.4s0.2,0.1,0.4,0
				c0.3-0.3,0.5-0.6,0.5-0.9C102.7,153.9,102.5,153.6,102.3,153.3z"/>
			<path style="fill:#C1272D;" d="M114.1,151.2c-0.9,0-2.1,0.5-2.1,1.1c0,0.7-0.2,1.2-0.4,1.5c-0.2,0.2-0.4,0.4-0.6,0.3
				c-0.6,0-1.3-0.9-1.2-1.9c0-0.1-0.1-0.3-0.2-0.3s-0.3,0.1-0.3,0.2c-0.1,1.4,0.8,2.4,1.7,2.4c0.4,0,0.8-0.2,1-0.6
				c0.3-0.4,0.4-1,0.5-1.7c0-0.2,0.8-0.7,1.6-0.7c0.2,0,0.4,0,0.5,0.2c0.1,0.1,0.2,0.3,0.2,0.6c0,0.1,0.1,0.3,0.2,0.3
				s0.3-0.1,0.3-0.2c0-0.4-0.1-0.7-0.3-1C114.8,151.3,114.5,151.2,114.1,151.2z"/>
			<path style="fill:#C1272D;" d="M131,142.3c0.5,0,1.3-0.4,1.3-0.7c0-0.4,0.1-0.7,0.2-0.9c0.1-0.1,0.2-0.2,0.3-0.2
				c0.4,0,0.8,0.5,0.8,1.1c0,0.1,0.1,0.2,0.2,0.2s0.2-0.1,0.2-0.2c0-0.8-0.6-1.4-1.1-1.4c-0.2,0-0.5,0.1-0.6,0.4
				c-0.2,0.2-0.2,0.6-0.2,1.1c0,0.1-0.5,0.4-1,0.4c-0.1,0-0.2,0-0.3-0.1s-0.1-0.2-0.1-0.4c0-0.1-0.1-0.2-0.2-0.2s-0.2,0.1-0.2,0.2
				c0,0.3,0.1,0.4,0.2,0.6C130.6,142.2,130.8,142.3,131,142.3z"/>
			<path style="fill:#C1272D;" d="M130.8,139.2c0.3-0.4,1.1-0.7,1.4-0.5c0.3,0.2,0.6,0.4,0.8,0.4s0.3,0,0.4-0.1
				c0.2-0.3,0.1-0.9-0.4-1.3c-0.1-0.1-0.1-0.1,0-0.2c0.1-0.1,0.1-0.1,0.2,0c0.6,0.5,0.7,1.3,0.4,1.7c-0.2,0.2-0.4,0.3-0.7,0.2
				c-0.3,0-0.6-0.2-1-0.5c-0.1-0.1-0.6,0.1-1,0.5c-0.1,0.1-0.1,0.2-0.1,0.3s0.1,0.2,0.2,0.3c0.1,0.1,0.1,0.1,0,0.2s-0.1,0.1-0.2,0
				c-0.2-0.2-0.3-0.3-0.3-0.5C130.6,139.5,130.6,139.3,130.8,139.2z"/>
			<path style="fill:#C1272D;" d="M115.4,157c-0.5,0-1.3-0.4-1.3-0.7c0-0.4-0.1-0.7-0.2-0.9c-0.1-0.1-0.2-0.2-0.3-0.2
				c-0.4,0-0.8,0.5-0.8,1.1c0,0.1-0.1,0.2-0.2,0.2s-0.2-0.1-0.2-0.2c0-0.8,0.6-1.4,1.1-1.4c0.2,0,0.5,0.1,0.6,0.4
				c0.2,0.2,0.2,0.6,0.2,1.1c0,0.1,0.5,0.4,1,0.4c0.1,0,0.2,0,0.3-0.1c0.1-0.1,0.1-0.2,0.1-0.4c0-0.1,0.1-0.2,0.2-0.2
				s0.2,0.1,0.2,0.2c0,0.3-0.1,0.4-0.2,0.6C115.8,157,115.6,157,115.4,157z"/>
			<path style="fill:#C1272D;" d="M115.7,153.9c-0.3-0.4-1.1-0.7-1.4-0.5s-0.6,0.4-0.8,0.4c-0.2,0-0.3,0-0.4-0.1
				c-0.2-0.3-0.1-0.9,0.4-1.3c0.1-0.1,0.1-0.1,0-0.2c-0.1-0.1-0.1-0.1-0.2,0c-0.6,0.5-0.7,1.3-0.4,1.7c0.2,0.2,0.4,0.3,0.7,0.2
				c0.3,0,0.6-0.2,1-0.5c0.1-0.1,0.6,0.1,1,0.5c0.1,0.1,0.1,0.2,0.1,0.3s-0.1,0.2-0.2,0.3s-0.1,0.1,0,0.2s0.1,0.1,0.2,0
				c0.2-0.2,0.3-0.3,0.3-0.5C115.9,154.2,115.8,154.1,115.7,153.9z"/>
			<path style="fill:#C1272D;" d="M114.2,153.7c-0.3,0-0.6,0.3-0.6,0.5s0,0.4,0,0.5s-0.1,0.1-0.2,0.1c-0.2,0-0.4-0.2-0.5-0.5
				c0,0,0-0.1-0.1-0.1s-0.1,0-0.1,0.1c0.1,0.4,0.4,0.7,0.6,0.6c0.1,0,0.2-0.1,0.3-0.2c0.1-0.1,0.1-0.3,0-0.5c0-0.1,0.2-0.3,0.4-0.3
				c0.1,0,0.1,0,0.2,0c0,0,0.1,0.1,0.1,0.2c0,0,0,0.1,0.1,0.1c0,0,0.1,0,0.1-0.1s-0.1-0.2-0.2-0.3
				C114.4,153.7,114.3,153.7,114.2,153.7z"/>
			<path style="fill:#C1272D;" d="M113.7,155.7c-0.5,0-1.3-0.4-1.3-0.7c0-0.4-0.1-0.7-0.2-0.9c-0.1-0.1-0.2-0.2-0.3-0.2
				c-0.4,0-0.8,0.5-0.8,1.1c0,0.1-0.1,0.2-0.2,0.2s-0.2-0.1-0.2-0.2c0-0.8,0.6-1.4,1.1-1.4c0.2,0,0.5,0.1,0.6,0.4
				c0.2,0.2,0.2,0.6,0.2,1.1c0,0.1,0.5,0.4,1,0.4c0.1,0,0.2,0,0.3-0.1c0.1-0.1,0.1-0.2,0.1-0.4c0-0.1,0.1-0.2,0.2-0.2
				s0.2,0.1,0.2,0.2c0,0.3-0.1,0.4-0.2,0.6C114.1,155.6,114,155.7,113.7,155.7z"/>
			<path style="fill:#C1272D;" d="M114,152.6c-0.3-0.4-1.1-0.7-1.4-0.5s-0.6,0.4-0.8,0.4c-0.2,0-0.3,0-0.4-0.1
				c-0.2-0.3-0.1-0.9,0.4-1.3c0.1-0.1,0.1-0.1,0-0.2s-0.1-0.1-0.2,0c-0.6,0.5-0.7,1.3-0.4,1.7c0.2,0.2,0.4,0.3,0.7,0.2
				c0.3,0,0.6-0.2,1-0.5c0.1-0.1,0.6,0.1,1,0.5c0.1,0.1,0.1,0.2,0.1,0.3s-0.1,0.2-0.2,0.3s-0.1,0.1,0,0.2c0.1,0.1,0.1,0.1,0.2,0
				c0.2-0.2,0.3-0.3,0.3-0.5C114.2,152.9,114.2,152.7,114,152.6z"/>
			<path style="fill:#C1272D;" d="M121.3,146.8c0.2-0.2,0.5-0.4,0.7-0.3c0.2,0.1,0.3,0.2,0.4,0.2s0.2,0,0.2-0.1
				c0.1-0.1,0.1-0.5-0.2-0.7v-0.1h0.1c0.3,0.3,0.4,0.7,0.2,0.9c-0.1,0.1-0.2,0.1-0.3,0.1c-0.1,0-0.3-0.1-0.5-0.2
				C121.9,146.6,121.6,146.6,121.3,146.8c0.1,0,0,0.1,0,0.2c0,0.1,0,0.1,0.1,0.2v0.1h-0.1c-0.1-0.1-0.2-0.2-0.2-0.3
				C121.2,147,121.2,146.9,121.3,146.8z"/>
			<path style="fill:#C1272D;" d="M125.3,132.3c0.3,0,0.6,0.3,0.6,0.5s0,0.4,0,0.5s0.1,0.1,0.2,0.1c0.2,0,0.4-0.2,0.5-0.5
				c0,0,0-0.1,0.1-0.1s0.1,0,0.1,0.1c-0.1,0.4-0.4,0.7-0.6,0.6c-0.1,0-0.2-0.1-0.3-0.2c-0.1-0.1-0.1-0.3,0-0.5
				c0-0.1-0.2-0.3-0.4-0.3c-0.1,0-0.1,0-0.2,0c0,0-0.1,0.1-0.1,0.2c0,0,0,0.1-0.1,0.1c0,0-0.1,0-0.1-0.1s0.1-0.2,0.2-0.3
				C125.1,132.3,125.2,132.3,125.3,132.3z"/>
		</g>
		<path style="opacity:0.17;fill:#C1272D;enable-background:new    ;" d="M81,131.6c-12.6-1.1-12.2,4.2-11.6,7.1s-2.5,2.6-2.8,6.1
			s-2.3,5.7,4.6,5.7s4.6-5.3,12.8,0.1s4.8,7.5,11.2,6.9c6.4-0.7,8.9-2.1,16.3-5.7c7.4-3.6,8.4-1.1,10.9-5.5s5.1-5.2-1.3-7.2
			s-21.9,0.4-28.5-1.8C86.1,135,87,132.1,81,131.6z"/>
	</g>
</g>
<g id="food-words">
	<g>
		<g style="enable-background:new    ;">
			<path style="fill:#FBB03B;" d="M40,36.8l-12.3,6.7L25,38.6l2.1-1.2l-5.7-10.6l-2.2,1.2l-2.6-4.9l20-10.8l3.6,6.7L34.8,22l-1-1.8
				l-4.5,2.5l1.7,3.1l3.5-1.9l2.2,4.1l-3.5,1.9l1.8,3.3l2.4-1.3L40,36.8z"/>
		</g>
		<g style="enable-background:new    ;">
			<path style="fill:none;stroke:#F15A24;stroke-linejoin:round;stroke-miterlimit:10;" d="M40,36.8l-12.3,6.7L25,38.6l2.1-1.2
				l-5.7-10.6l-2.2,1.2l-2.6-4.9l20-10.8l3.6,6.7L34.8,22l-1-1.8l-4.5,2.5l1.7,3.1l3.5-1.9l2.2,4.1l-3.5,1.9l1.8,3.3l2.4-1.3
				L40,36.8z"/>
		</g>
	</g>
	<g>
		<g style="enable-background:new    ;">
			<path style="fill:#FBB03B;" d="M138,41l-9.2-5.6l2.9-4.7l1.5,0.9l6.3-10.3l-1.5-0.9l2.9-4.7l9.4,5.8c2.2,1.3,3.8,2.5,5,3.6
				c1.2,1.1,2.2,2.4,2.9,4c0.7,1.6,0.9,3.3,0.8,5.1c-0.1,0.9-0.3,1.8-0.6,2.7c-0.3,0.9-0.7,1.7-1.2,2.6c-1,1.7-2.4,3-4,4
				c-1.6,1-3.1,1.5-4.7,1.5c-1.5,0.1-3-0.2-4.4-0.7C142.7,43.7,140.7,42.6,138,41z M147.2,26l-6.3,10.3l0.7,0.4
				c1.8,1.1,3.2,1.3,4.4,0.7c1.1-0.6,2.1-1.7,3-3.1c0.5-0.9,0.9-1.8,1.2-2.8c0.3-1,0.3-1.9,0-2.7c-0.3-0.8-1.2-1.7-2.7-2.6L147.2,26
				z"/>
		</g>
		<g style="enable-background:new    ;">
			<path style="fill:none;stroke:#F15A24;stroke-linejoin:round;stroke-miterlimit:10;" d="M138,41l-9.2-5.6l2.9-4.7l1.5,0.9
				l6.3-10.3l-1.5-0.9l2.9-4.7l9.4,5.8c2.2,1.3,3.8,2.5,5,3.6c1.2,1.1,2.2,2.4,2.9,4c0.7,1.6,0.9,3.3,0.8,5.1
				c-0.1,0.9-0.3,1.8-0.6,2.7c-0.3,0.9-0.7,1.7-1.2,2.6c-1,1.7-2.4,3-4,4c-1.6,1-3.1,1.5-4.7,1.5c-1.5,0.1-3-0.2-4.4-0.7
				C142.7,43.7,140.7,42.6,138,41z M147.2,26l-6.3,10.3l0.7,0.4c1.8,1.1,3.2,1.3,4.4,0.7c1.1-0.6,2.1-1.7,3-3.1
				c0.5-0.9,0.9-1.8,1.2-2.8c0.3-1,0.3-1.9,0-2.7c-0.3-0.8-1.2-1.7-2.7-2.6L147.2,26z"/>
		</g>
	</g>
	<g>
		<g style="enable-background:new    ;">
			<path style="fill:#FBB03B;" d="M93.4,17.4c0-1.9,0.5-3.8,1.4-5.6c0.9-1.8,2.4-3.3,4.3-4.5c0.7-0.4,1.4-0.8,2.2-1
				c0.7-0.3,1.5-0.5,2.4-0.6c0.9-0.1,1.8-0.2,2.7-0.2c4.1,0,7.3,1.2,9.6,3.6c1.1,1.2,2,2.5,2.6,3.9s0.9,2.9,0.9,4.4
				c0,3.2-1.2,6-3.5,8.4s-5.5,3.6-9.5,3.6c-3.9,0-7-1.1-9.4-3.4C94.6,23.8,93.4,21,93.4,17.4z M103.4,17.4c0,2.6,0.2,4.3,0.7,5.2
				c0.5,0.9,1.2,1.4,2.2,1.4c1,0,1.8-0.4,2.3-1.3c0.5-0.9,0.7-2.6,0.7-5.2c0-2.5-0.2-4.3-0.7-5.2c-0.5-0.9-1.2-1.4-2.3-1.4
				c-1,0-1.7,0.4-2.2,1.3S103.4,14.8,103.4,17.4z"/>
		</g>
		<g style="enable-background:new    ;">
			<path style="fill:none;stroke:#F15A24;stroke-linejoin:round;stroke-miterlimit:10;" d="M93.4,17.4c0-1.9,0.5-3.8,1.4-5.6
				c0.9-1.8,2.4-3.3,4.3-4.5c0.7-0.4,1.4-0.8,2.2-1c0.7-0.3,1.5-0.5,2.4-0.6c0.9-0.1,1.8-0.2,2.7-0.2c4.1,0,7.3,1.2,9.6,3.6
				c1.1,1.2,2,2.5,2.6,3.9s0.9,2.9,0.9,4.4c0,3.2-1.2,6-3.5,8.4s-5.5,3.6-9.5,3.6c-3.9,0-7-1.1-9.4-3.4C94.6,23.8,93.4,21,93.4,17.4
				z M103.4,17.4c0,2.6,0.2,4.3,0.7,5.2c0.5,0.9,1.2,1.4,2.2,1.4c1,0,1.8-0.4,2.3-1.3c0.5-0.9,0.7-2.6,0.7-5.2
				c0-2.5-0.2-4.3-0.7-5.2c-0.5-0.9-1.2-1.4-2.3-1.4c-1,0-1.7,0.4-2.2,1.3S103.4,14.8,103.4,17.4z"/>
		</g>
	</g>
	<g>
		<g style="enable-background:new    ;">
			<path style="fill:#FBB03B;" d="M54.3,17.4c0-1.9,0.5-3.8,1.4-5.6c0.9-1.8,2.4-3.3,4.3-4.5c0.7-0.4,1.4-0.8,2.1-1
				c0.7-0.3,1.5-0.5,2.4-0.6c0.9-0.1,1.8-0.2,2.7-0.2c4.1,0,7.3,1.2,9.6,3.6c1.1,1.2,2,2.5,2.6,3.9c0.6,1.4,0.9,2.9,0.9,4.4
				c0,3.2-1.2,6-3.5,8.4c-2.3,2.4-5.5,3.6-9.5,3.6c-3.9,0-7-1.1-9.4-3.4C55.5,23.8,54.3,21,54.3,17.4z M64.3,17.4
				c0,2.6,0.2,4.3,0.7,5.2c0.5,0.9,1.2,1.4,2.2,1.4c1,0,1.8-0.4,2.3-1.3c0.5-0.9,0.7-2.6,0.7-5.2c0-2.5-0.2-4.3-0.7-5.2
				c-0.5-0.9-1.2-1.4-2.3-1.4c-1,0-1.7,0.4-2.2,1.3S64.3,14.8,64.3,17.4z"/>
		</g>
		<g style="enable-background:new    ;">
			<path style="fill:none;stroke:#F15A24;stroke-linejoin:round;stroke-miterlimit:10;" d="M54.3,17.4c0-1.9,0.5-3.8,1.4-5.6
				c0.9-1.8,2.4-3.3,4.3-4.5c0.7-0.4,1.4-0.8,2.1-1c0.7-0.3,1.5-0.5,2.4-0.6c0.9-0.1,1.8-0.2,2.7-0.2c4.1,0,7.3,1.2,9.6,3.6
				c1.1,1.2,2,2.5,2.6,3.9c0.6,1.4,0.9,2.9,0.9,4.4c0,3.2-1.2,6-3.5,8.4c-2.3,2.4-5.5,3.6-9.5,3.6c-3.9,0-7-1.1-9.4-3.4
				C55.5,23.8,54.3,21,54.3,17.4z M64.3,17.4c0,2.6,0.2,4.3,0.7,5.2c0.5,0.9,1.2,1.4,2.2,1.4c1,0,1.8-0.4,2.3-1.3
				c0.5-0.9,0.7-2.6,0.7-5.2c0-2.5-0.2-4.3-0.7-5.2c-0.5-0.9-1.2-1.4-2.3-1.4c-1,0-1.7,0.4-2.2,1.3S64.3,14.8,64.3,17.4z"/>
		</g>
	</g>
</g>
</svg>
