<?xml version="1.0" encoding="utf-8"?>
<!-- Generator: Adobe Illustrator 23.0.1, SVG Export Plug-In . SVG Version: 6.00 Build 0)  -->
<svg version="1.1" id="Layer_1" xmlns="http://www.w3.org/2000/svg" xmlns:xlink="http://www.w3.org/1999/xlink" x="0px" y="0px"
	 viewBox="0 0 1234.9 1604.1" style="enable-background:new 0 0 1234.9 1604.1;" xml:space="preserve">
<g id="rating-badge">
	<g>
		<polygon style="fill:#DB1919;" points="317.4,1604.1 193.5,1455 0,1442.5 356.6,742.3 674,903.9 		"/>
		<polygon style="fill:#DB1919;" points="917.5,1604.1 1041.4,1455 1234.9,1442.5 878.2,742.3 560.9,903.9 		"/>
	</g>
	<g>
		<path style="fill:#F6BC27;" d="M1162,651.9c29.4-4.3,52.2-29.4,52.4-60.1c0.3-30.7-22-56.3-51.3-61.1
			c27.7-10.7,44.2-40.4,37.7-70.3c-6.6-29.9-34-49.9-63.7-48c24.6-16.7,34.1-49.2,21-77c-13.1-27.7-44.3-41-72.8-32.6
			c20.3-21.8,22.2-55.6,3.2-79.7s-52.4-30.1-78.3-15.4c14.9-25.7,9.2-59.2-14.7-78.4s-57.8-17.6-79.7,2.5
			c8.7-28.4-4.3-59.7-31.9-73.1c-27.6-13.4-60.2-4.2-77.1,20.3c2.2-29.7-17.6-57.3-47.4-64.1c-29.9-6.9-59.7,9.4-70.7,37
			C684.2,22.5,658.8,0,628.2,0c-22.3,0-41.8,11.9-52.6,29.8c-13.9-15.5-35.3-23.6-57.2-19.4c-30.1,5.7-50.8,32.6-49.8,62.3
			c-16-25.1-48.3-35.5-76.3-23.1c-28.1,12.3-42.3,43.1-34.6,71.9c-21.2-20.9-55-23.8-79.6-5.5s-31.5,51.5-17.6,77.8
			c-25.3-15.6-58.9-10.8-78.8,12.5s-19.2,57.3,0.2,79.8c-28.2-9.5-59.8,2.6-74,29.8C93.8,343.1,102,376,126,393.6
			c-29.6-3-57.7,15.9-65.4,45.6s7.7,59.9,35,71.7C66.1,514.6,42.9,539.4,42,570c-0.9,30.6,20.9,56.7,50.2,62
			c-27.9,10.2-45,39.5-39,69.6s33.1,50.5,62.8,49.2c-24.9,16.2-35,48.6-22.4,76.5s43.5,41.9,72.2,33.9
			c-20.7,21.4-23.2,55.2-4.7,79.6c18.5,24.4,51.8,31,77.9,16.9c-15.4,25.5-10.3,59,13.2,78.7s57.4,18.7,79.8-1
			c-9.3,28.2,3.2,59.8,30.5,73.7c27.3,13.9,60.2,5.3,77.5-18.8c-2.7,29.6,16.5,57.6,46.2,65c29.7,7.4,59.8-8.3,71.3-35.7
			c4,29.5,28.9,52.4,59.6,53c30.6,0.6,56.5-21.4,61.5-50.7c10.5,27.8,40,44.6,69.9,38.3s50.2-33.5,48.6-63.2
			c16.4,24.8,48.9,34.5,76.8,21.7s41.4-43.9,33.2-72.5c21.6,20.5,55.4,22.7,79.7,4c24.2-18.8,30.6-52.1,16.2-78.1
			c25.6,15.1,59.1,9.7,78.5-14c19.4-23.7,18.1-57.6-1.7-79.7c28.3,9,59.8-3.7,73.4-31.2s4.8-60.2-19.5-77.3
			c29.6,2.4,57.4-17,64.6-46.8C1205.5,693.1,1189.5,663.1,1162,651.9z"/>
		
			<radialGradient id="SVGID_1_" cx="628.3" cy="1017.7" r="525" gradientTransform="matrix(1 0 0 -1 0 1604)" gradientUnits="userSpaceOnUse">
			<stop  offset="0" style="stop-color:#F7B828"/>
			<stop  offset="1" style="stop-color:#FFD03A"/>
		</radialGradient>
		<circle style="fill:url(#SVGID_1_);" cx="628.3" cy="586.3" r="525"/>
		<path style="fill:#FFFFFF;" d="M628.3,1040.2c-60.6,0-119.4-11.9-174.7-35.3c-53.5-22.6-101.5-55-142.7-96.2
			s-73.6-89.2-96.2-142.7c-23.4-55.3-35.3-114.1-35.3-174.7s11.9-119.4,35.3-174.7c22.6-53.5,55-101.5,96.2-142.7
			s89.2-73.6,142.7-96.2c55.3-23.4,114.1-35.3,174.7-35.3s119.4,11.9,174.7,35.3c53.5,22.6,101.5,55,142.7,96.2
			s73.6,89.2,96.2,142.7c23.4,55.3,35.3,114.1,35.3,174.7s-11.9,119.4-35.3,174.7c-22.6,53.5-55,101.5-96.2,142.7
			s-89.2,73.6-142.7,96.2C747.6,1028.3,688.8,1040.2,628.3,1040.2z M628.3,162.5c-236.5,0-428.9,192.4-428.9,428.9
			s192.4,428.9,428.9,428.9s428.9-192.4,428.9-428.9S864.7,162.5,628.3,162.5z"/>
	</g>
	<g id="rating-B">
		<path style="fill:#FFFFFF;" d="M490.3,323.5c30.4-6.4,78.4-11.2,127.2-11.2c69.6,0,114.4,12,148,39.2c28,20.8,44.8,52.8,44.8,95.2
			c0,52-34.4,97.6-91.2,118.4v1.6c51.2,12.8,111.2,55.2,111.2,135.2c0,46.4-18.4,81.6-45.6,108c-37.6,34.4-98.4,50.4-186.4,50.4
			c-48,0-84.8-3.2-108-6.4L490.3,323.5L490.3,323.5z M559.9,544.3h63.2c73.6,0,116.8-38.4,116.8-90.4c0-63.2-48-88-118.4-88
			c-32,0-50.4,2.4-61.6,4.8V544.3z M559.9,802.7c13.6,2.4,33.6,3.2,58.4,3.2c72,0,138.4-26.4,138.4-104.8c0-73.6-63.2-104-139.2-104
			h-57.6L559.9,802.7L559.9,802.7z"/>
	</g>
	<g id="rating-A">
		<path style="fill:#FFFFFF;" d="M531.5,670.1l-56,169.6h-72l183.2-539.2h84l184,539.2h-74.4l-57.6-169.6H531.5z M708.3,615.7
			l-52.8-155.2c-12-35.2-20-67.2-28-98.4h-1.6c-8,32-16.8,64.8-27.2,97.6l-52.8,156H708.3z"/>
	</g>
</g>
</svg>
