<?xml version="1.0" encoding="utf-8"?>
<!-- Generator: Adobe Illustrator 23.0.1, SVG Export Plug-In . SVG Version: 6.00 Build 0)  -->
<svg version="1.1" id="star-rating" xmlns="http://www.w3.org/2000/svg" xmlns:xlink="http://www.w3.org/1999/xlink" x="0px"
	 y="0px" viewBox="0 0 21.1 20.2" style="enable-background:new 0 0 21.1 20.2;" xml:space="preserve">
<path style="fill:#FCEE21;" d="M12,1.4l1.8,3.7c0.2,0.5,0.7,0.8,1.2,0.9l4.1,0.6c1.3,0.2,1.9,1.8,0.9,2.8l-3,2.9
	c-0.4,0.4-0.6,0.9-0.5,1.4l0.7,4.1c0.2,1.3-1.2,2.3-2.4,1.7l-3.7-1.9c-0.5-0.2-1-0.2-1.5,0l-3.7,1.9c-1.2,0.6-2.6-0.4-2.4-1.7
	l0.7-4.1c0.1-0.5-0.1-1.1-0.5-1.4L1,9.4c-1-0.9-0.4-2.6,0.9-2.8L6,6c0.5-0.1,1-0.4,1.2-0.9l1.8-3.7C9.7,0.2,11.4,0.2,12,1.4z"/>
</svg>
