<?xml version="1.0" encoding="utf-8"?>
<!-- Generator: Adobe Illustrator 23.0.1, SVG Export Plug-In . SVG Version: 6.00 Build 0)  -->
<svg version="1.1" id="Tanks" xmlns="http://www.w3.org/2000/svg" xmlns:xlink="http://www.w3.org/1999/xlink" x="0px" y="0px"
	 viewBox="0 0 189.6 206.4" style="enable-background:new 0 0 189.6 206.4;" xml:space="preserve">
<g id="outercirc">
	<path style="fill:#0071BC;" d="M98.9,203.4c-2.7,0-5.3-0.6-7.8-1.7l-8.2-3.8c-1.6-0.8-3.4-1.2-5.2-1.2c-0.4,0-0.7,0-1.1,0l-9,0.8
		c-0.5,0-1,0.1-1.6,0.1c-6,0-11.6-2.9-15-7.8l-5.2-7.4c-1.2-1.8-2.9-3.2-4.9-4.1l-8.2-3.8c-5.9-2.8-9.9-8.5-10.5-15l-0.8-9
		c-0.2-2.2-0.9-4.2-2.2-6l-5.2-7.4c-3.7-5.4-4.3-12.3-1.6-18.3l3.8-8.2c0.9-2,1.3-4.1,1.1-6.3l-0.8-9c-0.6-6.5,2.4-12.9,7.8-16.6
		l7.4-5.2c1.8-1.2,3.2-2.9,4.1-4.9l3.8-8.2c2.8-5.9,8.5-9.9,15-10.5l9-0.8c2.2-0.2,4.2-0.9,6-2.2l7.4-5.2c3.1-2.2,6.7-3.3,10.5-3.3
		c2.7,0,5.3,0.6,7.8,1.7l8.2,3.8c1.6,0.8,3.4,1.2,5.2,1.2c0.3,0,0.7,0,1.1,0l9-0.8c0.5,0,1-0.1,1.6-0.1c6,0,11.6,2.9,15,7.8l5.2,7.4
		c1.2,1.8,2.9,3.2,4.9,4.1l8.2,3.8c5.9,2.8,9.9,8.5,10.5,15l0.8,9c0.2,2.2,0.9,4.2,2.2,6l5.2,7.4c3.7,5.3,4.3,12.3,1.6,18.3
		l-3.8,8.2c-0.9,2-1.3,4.1-1.1,6.3l0.8,9c0.6,6.5-2.4,12.9-7.8,16.6l-7.4,5.2c-1.8,1.2-3.2,2.9-4.1,4.9l-3.8,8.2
		c-2.8,5.9-8.5,9.9-15,10.5l-9,0.8c-2.2,0.2-4.2,0.9-6,2.2l-7.4,5.2C106.3,202.3,102.7,203.4,98.9,203.4z"/>
	<path style="fill:#FFFFFF;" d="M87.9,41.7c2.2,0,4.4,0.5,6.5,1.4l8.2,3.8c2,1,4.3,1.4,6.5,1.4c0.4,0,0.9,0,1.3-0.1l9-0.8
		c0.4,0,0.9-0.1,1.3-0.1c5,0,9.7,2.4,12.6,6.6l5.2,7.4c1.5,2.2,3.6,4,6.1,5.1l8.2,3.8c5,2.3,8.3,7.1,8.8,12.6l0.8,9
		c0.2,2.7,1.2,5.3,2.7,7.5l5.2,7.4c3.1,4.5,3.6,10.3,1.3,15.3l-3.8,8.2c-1.1,2.4-1.6,5.1-1.4,7.8l0.8,9c0.5,5.5-2,10.7-6.5,13.9
		l-7.4,5.2c-2.2,1.5-4,3.6-5.1,6.1l-3.8,8.2c-2.3,5-7.1,8.3-12.6,8.8l-9,0.8c-2.7,0.2-5.3,1.2-7.5,2.7l-7.4,5.2
		c-2.6,1.8-5.7,2.8-8.8,2.8c-2.2,0-4.4-0.5-6.5-1.4l-8.2-3.8c-2-1-4.3-1.4-6.5-1.4c-0.4,0-0.9,0-1.3,0.1l-9,0.8
		c-0.4,0-0.9,0.1-1.3,0.1c-5,0-9.7-2.4-12.6-6.6l-5.2-7.4c-1.5-2.2-3.6-4-6.1-5.1l-8.2-3.8c-5-2.3-8.3-7.1-8.8-12.6l-0.8-9
		c-0.2-2.7-1.2-5.3-2.7-7.5l-5.2-7.4c-3.1-4.5-3.6-10.3-1.3-15.3l3.8-8.2c1.1-2.4,1.6-5.1,1.4-7.8l-0.8-9c-0.5-5.5,2-10.7,6.5-13.9
		l7.4-5.2c2.2-1.5,4-3.6,5.1-6.1l3.8-8.2c2.3-5,7.1-8.3,12.6-8.8l9-0.8c2.7-0.2,5.3-1.2,7.5-2.7l7.4-5.2
		C81.8,42.7,84.8,41.7,87.9,41.7 M87.9,35.7c-4.4,0-8.6,1.3-12.2,3.8l-7.4,5.2c-1.3,0.9-2.9,1.5-4.5,1.6l-9,0.8
		c-7.6,0.6-14.3,5.3-17.5,12.2l-3.8,8.2c-0.7,1.5-1.8,2.8-3.1,3.7L23,76.3c-6.2,4.3-9.7,11.7-9,19.3l0.8,9c0.1,1.6-0.2,3.3-0.8,4.7
		l-3.8,8.2c-3.2,6.9-2.5,15,1.8,21.2l5.2,7.4c0.9,1.3,1.5,2.9,1.6,4.5l0.8,9c0.6,7.6,5.3,14.3,12.2,17.5l8.2,3.8
		c1.5,0.7,2.8,1.8,3.7,3.1l5.2,7.4c4,5.7,10.5,9.1,17.5,9.1c0.6,0,1.2,0,1.8-0.1l9-0.8c0.3,0,0.5,0,0.8,0c1.4,0,2.7,0.3,4,0.9
		l8.2,3.8c2.9,1.3,5.9,2,9,2c4.4,0,8.6-1.3,12.2-3.8l7.4-5.2c1.3-0.9,2.9-1.5,4.5-1.6l9-0.8c7.6-0.6,14.3-5.3,17.5-12.2l3.8-8.2
		c0.7-1.5,1.8-2.8,3.1-3.7l7.4-5.2c6.2-4.3,9.7-11.7,9-19.3l-0.8-9c-0.1-1.6,0.2-3.3,0.8-4.7l3.8-8.2c3.2-6.9,2.5-15-1.8-21.2
		l-5.2-7.4c-0.9-1.3-1.5-2.9-1.6-4.5l-0.8-9c-0.6-7.6-5.3-14.3-12.2-17.5l-8.2-3.8c-1.5-0.7-2.8-1.8-3.7-3.1l-5.2-7.4
		c-4-5.7-10.5-9.1-17.5-9.1c-0.6,0-1.2,0-1.8,0.1l-9,0.8c-0.3,0-0.5,0-0.8,0c-1.4,0-2.7-0.3-4-0.9L97,37.8
		C94.1,36.4,91.1,35.7,87.9,35.7L87.9,35.7z"/>
</g>
<path id="innercirc" style="fill:#29ABE2;" d="M148.8,152.6l-7.5,5.2c-1.5,1-2.6,2.4-3.4,4l-3.9,8.3c-1.5,3.3-4.7,5.5-8.4,5.8
	l-9.1,0.8c-1.8,0.2-3.5,0.8-5,1.8l-7.5,5.2c-3,2.1-6.9,2.4-10.2,0.9l-8.3-3.9c-1.6-0.8-3.4-1.1-5.2-0.9l-9.1,0.8
	c-3.6,0.3-7.2-1.3-9.2-4.3l-5.2-7.5c-1-1.5-2.4-2.6-4-3.4l-8.3-3.9c-3.3-1.5-5.5-4.7-5.8-8.4l-0.8-9.1c-0.2-1.8-0.8-3.5-1.8-5
	l-5.2-7.5c-2.1-3-2.4-6.9-0.9-10.2l3.9-8.3c0.8-1.6,1.1-3.4,0.9-5.2L34,98.7c-0.3-3.6,1.3-7.2,4.3-9.2l7.5-5.2c1.5-1,2.6-2.4,3.4-4
	l3.9-8.3c1.5-3.3,4.7-5.5,8.4-5.8l9.1-0.8c1.8-0.2,3.5-0.8,5-1.8l7.5-5.2c3-2.1,6.9-2.4,10.2-0.9l8.3,3.9c1.6,0.8,3.4,1.1,5.2,0.9
	l9.1-0.8c3.6-0.3,7.2,1.3,9.2,4.3l5.2,7.5c1,1.5,2.4,2.6,4,3.4l8.3,3.9c3.3,1.5,5.5,4.7,5.8,8.4l0.8,9.1c0.2,1.8,0.8,3.5,1.8,5
	l5.2,7.5c2.1,3,2.4,6.9,0.9,10.2l-3.9,8.3c-0.8,1.6-1.1,3.4-0.9,5.2l0.8,9.1C153.4,147,151.8,150.6,148.8,152.6z"/>
<g>
	<polygon style="fill:#C69C6D;" points="130.4,116.6 129.2,115.8 129.2,115.8 129.1,115.8 86.4,91.1 86.4,91.1 86.4,91.1 85.1,90.4 
		85.1,90.4 85.1,90.4 85.1,90.4 83.8,91.1 83.8,91.1 57.7,106.3 57.6,106.3 56.4,107 56.4,107 56.4,107 56.4,109.3 56.4,113.5 
		56.4,162.5 56.4,162.5 56.4,164.8 56.4,167.1 101.7,193.3 130.5,176.7 130.5,174.4 130.5,174.3 130.5,171.9 130.5,123.1 
		130.5,118.9 130.5,116.6 	"/>
	<g id="fish-tank-medium">
		<g id="base_1_">
			<polygon style="fill:#4D4D4D;" points="101.7,134.3 56.4,108.1 85.1,91.5 130.5,117.7 			"/>
			<polygon style="fill:#C69C6D;" points="101.7,132 56.4,105.8 85.1,89.2 130.5,115.3 			"/>
			<polygon style="fill:#4D4D4D;" points="56.4,105.8 56.4,108.1 101.7,134.3 101.7,132 			"/>
			<polygon style="fill:#666666;" points="101.7,134.3 130.5,117.7 130.5,115.3 101.7,132 			"/>
		</g>
		<g id="water_1_">
			<polygon style="opacity:0.89;fill:#66C3EA;enable-background:new    ;" points="101.7,98.8 56.4,72.6 85.1,56 130.5,82.2 			"/>
			<polygon style="opacity:0.89;fill:#29ABE2;enable-background:new    ;" points="56.4,105.8 56.4,72.6 101.7,98.8 101.7,132 			
				"/>
			<polygon style="opacity:0.89;fill:#0071BC;enable-background:new    ;" points="101.7,98.8 130.5,82.2 130.5,115.3 101.7,132 			
				"/>
		</g>
		<g id="gravel_1_" style="opacity:0.65;">
			<polygon style="fill:#4D4D4D;" points="101.7,131.8 56.4,105.7 85.1,89.1 130.5,115.2 			"/>
			<polygon style="fill:#D4C4B1;" points="101.7,129.5 56.4,103.4 85.1,86.8 130.5,112.9 			"/>
			<polygon style="fill:#998675;" points="56.4,103.5 56.4,105.8 101.7,132 101.7,129.5 			"/>
			<polygon style="fill:#C7B299;" points="101.7,132 130.5,115.2 130.5,112.9 101.7,129.5 			"/>
		</g>
		<g id="glass_1_">
			<polygon style="opacity:0.47;fill:#F2F2F2;enable-background:new    ;" points="85.1,51.9 56.4,68.5 56.4,103.4 85.1,86.8 
				130.5,112.9 130.5,78.1 			"/>
			<polygon style="opacity:0.47;fill:#F2F2F2;enable-background:new    ;" points="56.4,105.8 56.4,68.5 101.7,94.7 101.7,132 			
				"/>
			<polygon style="opacity:0.47;fill:#F2F2F2;enable-background:new    ;" points="76.8,117.6 88.3,124.2 77.6,80.7 66.1,74.1 			
				"/>
			<polygon style="opacity:0.47;fill:#F2F2F2;enable-background:new    ;" points="70.4,113.9 74.3,116.1 63.6,72.7 59.6,70.4 			
				"/>
			<polygon style="opacity:0.47;fill:#F2F2F2;enable-background:new    ;" points="101.7,94.7 130.5,78.1 130.5,115.3 101.7,132 			
				"/>
		</g>
		<g id="topper_1_">
			<polygon style="fill:#808080;" points="56.4,68.5 85.1,51.9 85.1,49.6 56.4,66.2 			"/>
			<polygon style="fill:#666666;" points="57.6,69.2 86.4,52.6 86.4,50.3 57.6,66.9 			"/>
			<polygon style="fill:#4D4D4D;" points="85.1,51 85.1,53.3 129.2,78.8 129.2,76.4 			"/>
			<polygon style="fill:#808080;" points="100.4,93.9 129.2,77.3 129.2,75 100.4,91.6 			"/>
			<polygon style="fill:#666666;" points="101.7,94.7 130.5,78.1 130.5,75.7 101.7,92.3 			"/>
			<polygon style="fill:#4D4D4D;" points="56.4,66.2 56.4,68.5 101.7,94.7 101.7,92.3 			"/>
			<polygon style="fill:#808080;" points="56.4,66.2 57.6,65.4 103,91.6 101.7,92.3 			"/>
			<polygon style="fill:#808080;" points="83.8,50.3 85.1,49.6 130.5,75.7 129.2,76.5 			"/>
		</g>
	</g>
	<polygon style="fill:#BF966D;" points="101.7,134.3 101.7,193.3 101.7,193.3 130.5,176.7 130.5,174.4 130.5,174.3 130.5,171.9 
		130.5,117.7 	"/>
	<polygon style="fill:#D6C4B1;" points="78.1,177 58,165.8 58,111.6 78.1,122.8 	"/>
	<polygon style="fill:#D6C4B1;" points="100.1,189.5 80,178.4 80,124.2 100.1,135.3 	"/>
	<g>
		<line style="fill:none;" x1="70.7" y1="57.1" x2="116.5" y2="83.9"/>
	</g>
</g>
<g id="words">
	<g>
		<g style="enable-background:new    ;">
			<path style="fill:#29ABE2;" d="M34.1,48.1l-9.6,8.7l-3.7-4.1l1.5-1.3l-8.1-8.9l-2,1.8l2.8,3.1l-3.2,2.9L5.3,43l17-15.3l6.5,7.2
				l-3.2,2.9l-2.8-3.1l-2,1.8l8.1,8.9l1.5-1.4L34.1,48.1z"/>
		</g>
		<g style="enable-background:new    ;">
			<path style="fill:none;stroke:#0071BC;stroke-linejoin:round;stroke-miterlimit:10;" d="M34.1,48.1l-9.6,8.7l-3.7-4.1l1.5-1.3
				l-8.1-8.9l-2,1.8l2.8,3.1l-3.2,2.9L5.3,43l17-15.3l6.5,7.2l-3.2,2.9l-2.8-3.1l-2,1.8l8.1,8.9l1.5-1.4L34.1,48.1z"/>
		</g>
	</g>
	<g>
		<g style="enable-background:new    ;">
			<path style="fill:#29ABE2;" d="M159,49.9l-3.9-3.5l5-5.5l3.9,3.5c-0.9,1.9-0.7,3.4,0.6,4.6c0.9,0.8,1.7,0.9,2.4,0.1
				c0.3-0.4,0.5-0.9,0.4-1.4c-0.1-0.6-0.5-1.6-1.1-3.1c-0.8-1.9-1.4-3.4-1.6-4.4c-0.2-1-0.2-2,0-3.2c0.2-1.1,0.7-2.1,1.5-3
				c1.4-1.6,3.1-2.4,4.9-2.3c1.8,0,3.5,0.7,5,2.1c1.5,1.4,2.4,2.9,2.7,4.7l1-1.1l3.9,3.5l-4.4,4.9l-3.8-3.5c0.7-1.8,0.5-3.2-0.7-4.3
				c-0.8-0.8-1.6-0.8-2.2-0.1c-0.3,0.3-0.4,0.7-0.3,1.1c0.1,0.4,0.5,1.5,1.2,3.2c0.9,2.4,1.5,4,1.7,4.9c0.1,0.4,0.2,1,0.2,1.6
				c0,0.6-0.1,1.2-0.2,1.7c-0.3,1.2-0.8,2.3-1.7,3.2c-1.3,1.4-2.9,2.2-4.9,2.2c-2,0-3.8-0.7-5.4-2.1c-1.5-1.4-2.5-3-2.9-5L159,49.9z
				"/>
		</g>
		<g style="enable-background:new    ;">
			<path style="fill:none;stroke:#0071BC;stroke-linejoin:round;stroke-miterlimit:10;" d="M159,49.9l-3.9-3.5l5-5.5l3.9,3.5
				c-0.9,1.9-0.7,3.4,0.6,4.6c0.9,0.8,1.7,0.9,2.4,0.1c0.3-0.4,0.5-0.9,0.4-1.4c-0.1-0.6-0.5-1.6-1.1-3.1c-0.8-1.9-1.4-3.4-1.6-4.4
				c-0.2-1-0.2-2,0-3.2c0.2-1.1,0.7-2.1,1.5-3c1.4-1.6,3.1-2.4,4.9-2.3c1.8,0,3.5,0.7,5,2.1c1.5,1.4,2.4,2.9,2.7,4.7l1-1.1l3.9,3.5
				l-4.4,4.9l-3.8-3.5c0.7-1.8,0.5-3.2-0.7-4.3c-0.8-0.8-1.6-0.8-2.2-0.1c-0.3,0.3-0.4,0.7-0.3,1.1c0.1,0.4,0.5,1.5,1.2,3.2
				c0.9,2.4,1.5,4,1.7,4.9c0.1,0.4,0.2,1,0.2,1.6c0,0.6-0.1,1.2-0.2,1.7c-0.3,1.2-0.8,2.3-1.7,3.2c-1.3,1.4-2.9,2.2-4.9,2.2
				c-2,0-3.8-0.7-5.4-2.1c-1.5-1.4-2.5-3-2.9-5L159,49.9z"/>
		</g>
	</g>
	<g>
		<g style="enable-background:new    ;">
			<path style="fill:#29ABE2;" d="M130.1,34.5l-11.8-4.2l1.8-5.2l1.7,0.6l4-11.4l-1.7-0.6l1.8-5.2l11.9,4.2l-1.8,5.2l-1.7-0.6
				l-4,11.4l1.7,0.6L130.1,34.5z M143.6,39.3l-11.3-4l1.8-5.2l1,0.4l-2.6-7.9l7.4-3.2l-1.8-0.6l1.8-5.2l10.7,3.8l-1.8,5.2l-1.7-0.6
				l-5.9,2.6l3,9.2l1.1,0.4L143.6,39.3z"/>
		</g>
		<g style="enable-background:new    ;">
			<path style="fill:none;stroke:#0071BC;stroke-linejoin:round;stroke-miterlimit:10;" d="M130.1,34.5l-11.8-4.2l1.8-5.2l1.7,0.6
				l4-11.4l-1.7-0.6l1.8-5.2l11.9,4.2l-1.8,5.2l-1.7-0.6l-4,11.4l1.7,0.6L130.1,34.5z M143.6,39.3l-11.3-4l1.8-5.2l1,0.4l-2.6-7.9
				l7.4-3.2l-1.8-0.6l1.8-5.2l10.7,3.8l-1.8,5.2l-1.7-0.6l-5.9,2.6l3,9.2l1.1,0.4L143.6,39.3z"/>
		</g>
	</g>
	<g>
		<g style="enable-background:new    ;">
			<path style="fill:#29ABE2;" d="M89.8,29h-9.5v-5.5h2v-12h-2V6h10.9L99.7,18v-6.5h-1.9V6h9.3v5.5h-2v17.9h-7.6l-9.7-14v8.1h2V29z"
				/>
		</g>
		<g style="enable-background:new    ;">
			<path style="fill:none;stroke:#0071BC;stroke-linejoin:round;stroke-miterlimit:10;" d="M89.8,29h-9.5v-5.5h2v-12h-2V6h10.9
				L99.7,18v-6.5h-1.9V6h9.3v5.5h-2v17.9h-7.6l-9.7-14v8.1h2V29z"/>
		</g>
	</g>
	<g>
		<g style="enable-background:new    ;">
			<path style="fill:#29ABE2;" d="M54.7,35.8l-8.6,3l-1.8-5.2l1.7-0.6L46,20.2l-1.8,0.6l-1.8-5.2l15.7-5.5l1.8,5.2l-1.8,0.6l8.2,9.9
				l1.6-0.6l1.8,5.2l-11.4,4l-1.7-4.8l1.9-0.7l-1.8-2.4l-5.6,2l0,3.1l1.8-0.6L54.7,35.8z M51.1,18.8l0.1,6.8l3.9-1.4L51.1,18.8z"/>
		</g>
		<g style="enable-background:new    ;">
			<path style="fill:none;stroke:#0071BC;stroke-linejoin:round;stroke-miterlimit:10;" d="M54.7,35.8l-8.6,3l-1.8-5.2l1.7-0.6
				L46,20.2l-1.8,0.6l-1.8-5.2l15.7-5.5l1.8,5.2l-1.8,0.6l8.2,9.9l1.6-0.6l1.8,5.2l-11.4,4l-1.7-4.8l1.9-0.7l-1.8-2.4l-5.6,2l0,3.1
				l1.8-0.6L54.7,35.8z M51.1,18.8l0.1,6.8l3.9-1.4L51.1,18.8z"/>
		</g>
	</g>
</g>
<path style="fill:#A67C52;" d="M81.2,150v6.6c1.6,0.9,2.9,0.2,2.9-1.7C84,153.1,82.8,150.9,81.2,150z"/>
<path style="fill:#A67C52;" d="M77.1,148.2c-1.6-0.9-2.8-0.2-2.8,1.6s1.3,4,2.8,4.9V148.2z"/>
</svg>
