<?xml version="1.0" encoding="utf-8"?>
<!-- Generator: Adobe Illustrator 23.0.1, SVG Export Plug-In . SVG Version: 6.00 Build 0)  -->
<svg version="1.1" id="top-shelf" xmlns="http://www.w3.org/2000/svg" xmlns:xlink="http://www.w3.org/1999/xlink" x="0px" y="0px"
	 viewBox="0 0 1106 602" style="enable-background:new 0 0 1106 602;" xml:space="preserve">
<g id="bg">
	<rect style="fill:#5B3E25;" width="1106" height="602"/>
	<rect x="76" y="31" style="fill:#543A25;" width="954" height="465"/>
	<polygon style="fill:#422D1A;" points="1106,0 1030,31 76,31 0,0 	"/>
	<polygon style="fill:#644931;" points="1106,602 1030,496 76,496 0,602 	"/>
</g>
<linearGradient id="SVGID_1_" gradientUnits="userSpaceOnUse" x1="550.5" y1="454" x2="550.5" y2="488" gradientTransform="matrix(1 0 0 -1 0 604)">
	<stop  offset="0" style="stop-color:#999999"/>
	<stop  offset="1" style="stop-color:#4D4D4D"/>
</linearGradient>
<path style="fill:url(#SVGID_1_);" d="M1067,150H34c-2.2,0-4-1.8-4-4v-26c0-2.2,1.8-4,4-4h1033c2.2,0,4,1.8,4,4v26
	C1071,148.2,1069.2,150,1067,150z"/>
<g>
	<path style="fill:#7C7C7C;enable-background:new    ;" d="M904.4,25.4c-14.3,5.3-43.1,8.9-76.3,8.9c-32.3,0-60.5-3.4-75.2-8.5
		l-10.8,0l0-8.1c0-9.2,38.5-12.2,86-12.2c47.5,0,86,3,86,12.2v7.6L904.4,25.4z"/>
	<path id="floor-light_4_" style="fill:#9B9B9B;enable-background:new    ;" d="M914.1,25.3c0-9.2-38.5-12.2-86-12.2
		c-47.5,0-86,3-86,12.2s38.5,16.6,86,16.6C875.6,41.9,914.1,34.5,914.1,25.3z"/>
</g>
<g>
	<path style="fill:#7C7C7C;enable-background:new    ;" d="M724.7,27.9c-12.6,4.7-37.8,7.8-66.9,7.8c-28.4,0-53.1-3-66-7.5l-9.5,0
		l0-7.1c0-8.1,33.8-10.7,75.4-10.7c41.6,0,75.4,2.6,75.4,10.7v6.7L724.7,27.9z"/>
	<path id="floor-light_1_" style="fill:#9B9B9B;enable-background:new    ;" d="M733.2,27.9c0-8.1-33.8-10.7-75.4-10.7
		c-41.6,0-75.4,2.6-75.4,10.7s33.8,14.6,75.4,14.6C699.4,42.4,733.2,35.9,733.2,27.9z"/>
</g>
<g>
	<path style="fill:#7C7C7C;enable-background:new    ;" d="M807,18.3c-9.5,3.5-28.7,5.9-50.7,5.9c-21.5,0-40.2-2.3-50-5.7l-7.2,0
		l0-5.4c0-6.1,25.6-8.1,57.2-8.1s57.2,2,57.2,8.1v5.1L807,18.3z"/>
	<path id="floor-light_3_" style="fill:#A8A8A8;enable-background:new    ;" d="M813.5,18.2c0-6.1-25.6-8.1-57.2-8.1
		s-57.2,2-57.2,8.1s25.6,11,57.2,11S813.5,24.3,813.5,18.2z"/>
</g>
<g>
	<path style="fill:#7C7C7C;enable-background:new    ;" d="M1017.3,24.9c-14.3,5.3-43.1,8.9-76.3,8.9c-32.3,0-60.5-3.4-75.2-8.5
		l-10.8,0l0-8.1c0-9.2,38.5-12.2,86-12.2c47.5,0,86,3,86,12.2v7.6L1017.3,24.9z"/>
	<path id="floor-light_5_" style="fill:#A8A8A8;enable-background:new    ;" d="M1027,24.9c0-9.2-38.5-12.2-86-12.2
		c-47.5,0-86,3-86,12.2s38.5,16.6,86,16.6C988.5,41.5,1027,34,1027,24.9z"/>
</g>
<g>
	<path style="fill:#7C7C7C;enable-background:new    ;" d="M344.9,23.5c-16.4,6-49.2,10.2-86.9,10.2c-36.8,0-68.9-3.9-85.7-9.7
		l-12.3,0l0-9.2c0-10.5,43.9-13.9,98-13.9s98,3.4,98,13.9v8.7L344.9,23.5z"/>
	<path id="floor-light_2_" style="fill:#9B9B9B;enable-background:new    ;" d="M356,23.5c0-10.5-43.9-13.9-98-13.9s-98,3.4-98,13.9
		s43.9,18.9,98,18.9S356,33.9,356,23.5z"/>
</g>
<g id="blood-worms-group">
	<g id="blood-worms">
		<g>
			<path style="fill:#F2E0B8;" d="M908.2,517.1c0,12.4-35.8,22.5-80,22.5s-80-10.1-80-22.5c0-0.8-0.3-3.8,0-4.5
				c4-11.4,38.5-18,80-18c42,0,76.7,6.4,80,18C908.3,513.2,908.2,516.4,908.2,517.1z"/>
			<path style="fill:#CCBD9F;" d="M908.2,275.7c0,12.4-35.8,16.5-80,16.5s-80-4.1-80-16.5s35.8-22.5,80-22.5
				S908.2,263.3,908.2,275.7z"/>
			<ellipse style="fill:#87444C;" cx="828.2" cy="279.7" rx="78.7" ry="18.5"/>
			<g>
				<path style="fill:#F2E0B8;" d="M828.2,306c-31.8,0-58.6-6.3-65.2-15.4c-1.1-1.6-1.7-3.2-1.7-4.9c0-0.1,0-0.4,0-0.7
					c-0.1-2-0.1-2.9,0.1-3.6c4.1-11.8,37.2-16,66.8-16c30.1,0,63.5,4.2,66.9,16.1c0.2,0.5,0.2,1.3,0.1,3.6c0,0.3,0,0.5,0,0.6
					C895.1,298.9,860.6,306,828.2,306z M765.1,282.6c0,0.4,0,1.7,0,2.2c0,0.4,0,0.7,0,0.9c0,0.8,0.3,1.6,0.9,2.5l0,0
					c4.9,6.7,28.2,13.8,62,13.8c37.1,0,62.9-8.6,62.9-16.3c0-0.1,0-0.4,0-0.8c0-0.5,0.1-2,0-2.4c-2.1-6.5-24.3-13.1-63-13.1
					C790,269.5,767.6,276.1,765.1,282.6z"/>
			</g>
			<path style="fill:#C1272D;" d="M828.2,292.2c-44.2,0-80-4.1-80-16.5c0,8.6,0,236.2,0,236.3c0,12.4,35.8,22.5,80,22.5
				s80-10.1,80-22.5c0-0.2,0-227.7,0-236.3C908.2,288.2,872.3,292.2,828.2,292.2z"/>
			<path style="fill:#A0242D;" d="M828.2,292.2c-39.9-0.3-58.1-2.8-73-8.3c0,0-0.1,237.3,0,237.4c8.9,5.6,32.7,13.6,73,13.6
				s65.4-8.4,73-13.6c0.1-0.1,0-237.4,0-237.4C889.3,289.8,858.9,292.4,828.2,292.2z"/>
			<g>
				<circle style="fill:#B3B3B3;" cx="828.2" cy="375.8" r="52"/>
				<g>
					<path style="fill:#333333;" d="M828.2,328.8c25.9,0,47,21.1,47,47s-21.1,47-47,47s-47-21.1-47-47S802.2,328.8,828.2,328.8
						 M828.2,318.8c-31.5,0-57,25.5-57,57s25.5,57,57,57s57-25.5,57-57S859.6,318.8,828.2,318.8L828.2,318.8z"/>
				</g>
			</g>
			<g>
				<path style="fill:#999999;" d="M828.6,519.1c-38.7,0-69.1-5.5-69.1-12.6v-30.3c0-0.9,0.8-1.5,1.5-1.5c0.2,0,0.4,0,0.6,0.1
					c11.7,5,42.2,6.8,67,6.8s55.3-1.8,67-6.8c0.2-0.1,0.4-0.1,0.6-0.1c0.7,0,1.5,0.6,1.5,1.5v30.3
					C897.7,513.6,867.3,519.1,828.6,519.1z"/>
				<g>
					<path style="fill:#333333;" d="M896.2,476.1L896.2,476.1v30.4c0,1.2-3.5,4.8-19.6,7.6c-12.6,2.2-29.7,3.5-48,3.5
						s-35.4-1.2-48-3.5c-16.1-2.9-19.6-6.5-19.6-7.6v-30.4c11.9,5.1,42.7,6.9,67.6,6.9C853.5,483.1,884.3,481.3,896.2,476.1
						 M896.2,473.1c-0.4,0-0.8,0.1-1.2,0.2c-10.4,4.5-38.4,6.7-66.4,6.7s-56-2.2-66.4-6.7c-0.4-0.2-0.8-0.2-1.2-0.2
						c-1.6,0-3,1.3-3,3v30.3c0,9.4,35.3,14.1,70.6,14.1s70.6-4.7,70.6-14.1v-30.3C899.2,474.4,897.7,473.1,896.2,473.1L896.2,473.1z
						"/>
				</g>
			</g>
		</g>
		<g>
			<path style="fill:none;stroke:#C1272D;stroke-width:15;stroke-linecap:round;stroke-miterlimit:10;" d="M830.8,384.8"/>
			<g>
				<path style="fill:#C1272D;" d="M817.7,424.1c-16.3,6.1-37.1,1.2-45-20c-1.2-3.3-2.6-15.2,0.7-16.4s10.1,8.6,11.3,11.9
					c5.3,14,18.1,16.4,28.5,12.5s18.6-14.1,13.3-28.1c-9.2-24.6,3-43.9,19.8-50.2c16.8-6.3,38.7,0.2,47.9,24.8
					c1.2,3.3-0.4,7-3.7,8.2s-7-0.4-8.2-3.7c-3-8.1-8-13.9-14.2-16.8c-5.4-2.5-11.5-2.7-17.2-0.5c-10.9,4.1-18.9,16.1-12.3,33.7
					C846.4,400.7,834,418,817.7,424.1z"/>
			</g>
			<g>
				<path style="opacity:0.54;fill:#FFFFFF;enable-background:new    ;" d="M827.1,371.8c-0.7-4.6-0.3-9.4,1-14
					c0.6-2.3,1.7-4.5,2.8-6.6c1.2-2.1,2.6-4.1,4.2-5.8c1.6-1.8,3.4-3.4,5.3-4.8c1-0.7,2-1.4,3-1.9c0.5-0.3,1-0.6,1.6-0.9l1.6-0.7
					c4.3-2,9.1-2.9,13.8-2.6c-4.6,0.8-8.9,2.3-12.9,4.4c-3.9,2.2-7.5,4.9-10.5,8.3c-3,3.3-5.3,7.2-6.9,11.4
					C828.4,362.6,827.5,367.1,827.1,371.8z"/>
			</g>
			<g>
				<path style="opacity:0.54;fill:#FFFFFF;enable-background:new    ;" d="M820.6,413.1c2-1.6,3.8-3.2,5.4-5
					c1.6-1.8,2.9-3.7,3.9-5.8c1-2.1,1.7-4.4,2-6.7c0.3-2.4,0.3-4.8,0.1-7.4c1.2,2.3,1.8,4.8,1.9,7.5c0.1,2.6-0.5,5.3-1.7,7.7
					c-1.2,2.4-2.8,4.5-4.9,6.2C825.4,411.3,823,412.5,820.6,413.1z"/>
				<path style="fill:none;" d="M820.6,413.1"/>
			</g>
			<path style="fill:#7F121A;" d="M894.6,357.8c1.5,3.5,0,7.5-3.5,9s-7.5,0-9-3.5s0.9-5.6,4.3-7.2
				C889.8,354.7,893.1,354.3,894.6,357.8z"/>
		</g>
		<g>
			<path style="fill:#333333;" d="M767.5,485.3h3.8c1.9,0,3.1,0.3,3.7,1c0.6,0.7,0.9,2.1,0.9,4.3c0,1.6-0.2,2.7-0.5,3.2
				c-0.3,0.6-1,0.9-2,1.1c1.2,0.3,1.9,0.8,2.2,1.3s0.5,1.7,0.5,3.4c0,2.3-0.3,3.8-0.9,4.6c-0.6,0.8-1.8,1.1-3.6,1.1h-4.1V500h1v-9.5
				h-1L767.5,485.3L767.5,485.3z M771.3,490.4v3.5h0.5c0.8,0,1.2-0.6,1.2-1.8c0-1.1-0.4-1.7-1.2-1.7H771.3z M771.3,496.1v3.9h0.5
				c0.9,0,1.4-0.7,1.4-2.1c0-1.2-0.5-1.8-1.4-1.8H771.3z"/>
			<path style="fill:#333333;" d="M786.8,497.6v9.3h-8.3v-5.4h1V492h-1v-5.1h4.9v5.1h-1.1v9.5h2v-3.9H786.8z"/>
			<path style="fill:#333333;" d="M789.1,500.4V496c0-3.4,0.3-5.6,0.8-6.7s1.6-1.6,3.2-1.6c1.5,0,2.5,0.6,3,1.7s0.8,3.3,0.8,6.6v4.4
				c0,3-0.3,5.1-0.8,6.2s-1.6,1.7-3.1,1.7s-2.6-0.5-3.1-1.6C789.3,505.7,789.1,503.6,789.1,500.4z M792,496.1v3.7
				c0,1.9,0.3,2.9,1,2.9c0.6,0,0.9-1,0.9-2.9V496v-0.9v-0.6c0-0.8-0.3-1.3-0.9-1.3C792.3,493.2,792,494.2,792,496.1z"/>
			<path style="fill:#333333;" d="M799.5,501.4v-4.5c0-3.4,0.3-5.6,0.8-6.7s1.6-1.6,3.2-1.6c1.5,0,2.5,0.6,3,1.7s0.8,3.3,0.8,6.6
				v4.4c0,3-0.3,5.1-0.8,6.2s-1.6,1.7-3.1,1.7s-2.6-0.5-3.1-1.6C799.7,506.6,799.5,504.5,799.5,501.4z M802.4,497v3.7
				c0,1.9,0.3,2.9,1,2.9c0.6,0,0.9-1,0.9-2.9v-3.8V496v-0.6c0-0.8-0.3-1.3-0.9-1.3C802.7,494.1,802.4,495.1,802.4,497z"/>
			<path style="fill:#333333;" d="M809.8,490h3.8c2,0,3.3,0.4,3.9,1.3c0.6,0.9,0.9,2.8,0.9,5.8v4.6c0,3.5-0.3,5.8-0.8,6.8
				c-0.6,1-1.9,1.5-3.9,1.5h-3.8v-5.4h1v-9.5h-1V490H809.8z M813.5,495.1v9.5h0.4c0.6,0,1-0.1,1.2-0.4s0.2-1,0.2-2.1v-4
				c0-1.4-0.1-2.2-0.2-2.5c-0.2-0.3-0.6-0.5-1.2-0.5H813.5z"/>
			<path style="fill:#333333;" d="M843.6,490v5.1h-0.9l-1.9,14.9h-2.5l-1-8.3l-1,8.3h-2.5l-2-14.9h-1V490h4.3v5.1h-0.6l0.9,8l1-8
				h-0.7V490h4v5.1H839l0.9,7.7l0.9-7.7H840V490H843.6z"/>
			<path style="fill:#333333;" d="M845.7,501.4v-4.5c0-3.4,0.3-5.6,0.8-6.7s1.6-1.6,3.2-1.6c1.5,0,2.5,0.6,3,1.7s0.8,3.3,0.8,6.6
				v4.4c0,3-0.3,5.1-0.8,6.2s-1.6,1.7-3.1,1.7s-2.6-0.5-3.1-1.6C846,506.6,845.7,504.5,845.7,501.4z M848.7,497v3.7
				c0,1.9,0.3,2.9,1,2.9c0.6,0,0.9-1,0.9-2.9v-3.8V496v-0.6c0-0.8-0.3-1.3-0.9-1.3C849,494.1,848.7,495.1,848.7,497z"/>
			<path style="fill:#333333;" d="M866.1,500.6c0.1,1.1,0.2,2.1,0.2,2.9c0,3.2-0.8,4.7-2.3,4.7c-1.4,0-2.2-1.6-2.2-4.9V502v-1.3
				c0-1.2-0.6-1.8-1.7-1.8c0,0-0.1,0-0.3,0v3.9h1.1v5.4H856v-5.4h1v-9.5h-1V488h4.5c1.7,0,2.8,0.4,3.3,1.1c0.6,0.7,0.8,2.1,0.8,4.2
				c0,2.6-0.8,4-2.3,4.4c-0.1,0-0.2,0-0.3,0.1c1.3,0.2,2,0.8,2.1,1.8l0.1,1.4l0.1,1.1c0,0.6,0.2,0.8,0.5,0.8c0.4,0,0.6-0.7,0.6-2
				v-0.3H866.1z M859.8,496.8h0.3c1.3,0,1.9-0.6,1.9-1.7c0-1.3-0.6-2-1.8-2c-0.1,0-0.2,0-0.4,0V496.8z"/>
			<path style="fill:#333333;" d="M880.9,486.9v5.1h-1v9.5h1v5.4h-4.6v-5.4h0.9v-10.9l-2.3,16.3h-1.2l-2.5-16.1v10.8h1v5.4h-4v-5.4
				h1V492h-1v-5.1h5.1l1.3,9.2l1.3-9.2H880.9z"/>
			<path style="fill:#333333;" d="M890.4,485.3v7.1h-2.7v-0.5c-0.1-0.9-0.3-1.4-0.8-1.4s-0.8,0.3-0.8,1c0,0.8,0.5,1.5,1.4,2.1
				c1.5,0.9,2.4,1.8,2.9,2.6c0.4,0.8,0.6,2.1,0.6,4.1c0,3.6-0.9,5.4-2.8,5.4c-1,0-1.8-0.6-2.4-1.7v1.4h-2.5v-7.6h2.5v0.3
				c0,1.3,0.3,2,1,2c0.6,0,1-0.5,1-1.4c0-1-0.4-1.7-1.1-2.2l-1.5-1c-1.5-1-2.2-2.7-2.2-5c0-3.6,0.9-5.5,2.7-5.5
				c0.9,0,1.6,0.6,2.1,1.7v-1.4H890.4z"/>
		</g>
	</g>
	<g>

			<linearGradient id="highlight_5_" gradientUnits="userSpaceOnUse" x1="828.1777" y1="64.4" x2="828.1777" y2="590.8458" gradientTransform="matrix(1 0 0 -1 0 604)">
			<stop  offset="0" style="stop-color:#999999;stop-opacity:0"/>
			<stop  offset="1" style="stop-color:#E6E6E6;stop-opacity:0.8"/>
		</linearGradient>
		<path id="highlight" style="fill:url(#highlight_5_);" d="M914.1,512.6C914.1,512.5,914,512.5,914.1,512.6c0-0.2,0-0.4,0-0.5
			c0-0.2,0-479.3,0-487.9c0-9.6-38.5-11-85.9-11s-85.9,2.3-85.9,11c0,8.6,0,487.7,0,487.9c0,0.1,0,0.3,0,0.4v0.1
			c-0.3,0.7,0,3.7,0,4.5c0,12.4,38.5,22.5,85.9,22.5s85.9-10.1,85.9-22.5C914.1,516.4,914.3,513.2,914.1,512.6z"/>

			<linearGradient id="SVGID_2_" gradientUnits="userSpaceOnUse" x1="828.1" y1="454" x2="828.1" y2="488" gradientTransform="matrix(1 0 0 -1 0 604)">
			<stop  offset="0" style="stop-color:#999999;stop-opacity:0"/>
			<stop  offset="1" style="stop-color:#E6E6E6;stop-opacity:0.8"/>
		</linearGradient>
		<rect x="742.1" y="116" style="fill:url(#SVGID_2_);" width="172" height="34"/>
	</g>
</g>
<g id="pellets-group">
	<g id="pellets">
		<g>
			<path style="fill:#F2E0B8;" d="M724.8,555c0,10.5-30.1,18.9-67.3,18.9s-67.3-8.5-67.3-18.9c0-0.6-0.2-3.2,0-3.8
				c3.4-9.6,32.4-15.1,67.3-15.1c35.3,0,64.5,5.4,67.3,15.1C724.9,551.7,724.8,554.4,724.8,555z"/>
			<path style="fill:#CCBD9F;" d="M724.8,351.9c0,10.5-30.1,13.9-67.3,13.9s-67.3-3.4-67.3-13.9s30.1-18.9,67.3-18.9
				C694.6,333,724.8,341.5,724.8,351.9z"/>
			<ellipse style="fill:#736357;" cx="657.4" cy="355.3" rx="66.2" ry="15.6"/>
			<g>
				<path style="fill:#F2E0B8;" d="M657.4,377.4c-26.8,0-49.3-5.3-54.9-13c-1-1.3-1.4-2.7-1.4-4.1c0-0.1,0-0.3,0-0.6
					c-0.1-1.7-0.1-2.5,0.1-3c3.5-9.9,31.3-13.4,56.2-13.4c25.3,0,53.4,3.5,56.3,13.5c0.1,0.5,0.1,1.1,0.1,3c0,0.2,0,0.4,0,0.5
					C713.8,371.4,684.7,377.4,657.4,377.4z M604.4,357.7c0,0.4,0,1.4,0,1.8c0,0.3,0,0.6,0,0.8c0,0.7,0.3,1.4,0.8,2.1l0,0
					c4.1,5.6,23.8,11.6,52.2,11.6c31.2,0,53-7.2,53-13.7c0-0.1,0-0.3,0-0.6c0-0.5,0.1-1.7,0-2c-1.7-5.5-20.4-11-53-11
					C625.3,346.6,606.5,352.2,604.4,357.7z"/>
			</g>
			<path style="fill:#A67C52;" d="M657.4,365.8c-37.2,0-67.3-3.4-67.3-13.9c0,7.3,0,198.7,0,198.9c0,10.5,30.1,18.9,67.3,18.9
				s67.3-8.5,67.3-18.9c0-0.1,0-191.6,0-198.9C724.8,362.4,694.6,365.8,657.4,365.8z"/>
			<path style="fill:#C69C6D;" d="M657.4,365.8c-33.5-0.2-48.9-2.4-61.4-7c0,0-0.1,199.7,0,199.8c7.5,4.7,27.5,11.4,61.4,11.4
				s55-7.1,61.4-11.4c0.1-0.1,0-199.7,0-199.7C708.9,363.8,683.3,366,657.4,365.8z"/>
			<g>
				<path style="fill:#B3B3B3;" d="M657.4,479.1c-23.7,0-43-19.3-43-43s19.3-43,43-43s43,19.3,43,43S681.1,479.1,657.4,479.1z"/>
				<g>
					<path style="fill:#333333;" d="M657.4,398.1c20.9,0,38,17,38,38s-17,38-38,38s-38-17-38-38S636.5,398.1,657.4,398.1
						 M657.4,388.1c-26.5,0-48,21.5-48,48s21.5,48,48,48s48-21.5,48-48S683.9,388.1,657.4,388.1L657.4,388.1z"/>
				</g>
			</g>
			<g>
				<path style="fill:#999999;" d="M657.8,556.5c-35.7,0-57.9-5.4-57.9-10.4v-25.5c0-0.7,0.5-1.1,1-1.1c0.1,0,0.3,0,0.4,0.1
					c9.8,4.2,35.6,5.7,56.4,5.7c20.8,0,46.6-1.5,56.4-5.7c0.1-0.1,0.3-0.1,0.4-0.1c0.5,0,1,0.4,1,1.1v25.5
					C715.7,551.1,693.6,556.5,657.8,556.5z"/>
				<g>
					<path style="fill:#333333;" d="M714.2,521.2V546c0,0-0.9,3.3-16.1,5.9c-10.6,1.9-24.9,2.9-40.3,2.9s-29.7-1-40.3-2.9
						c-15.1-2.7-16.1-5.9-16.1-5.9v-24.8c10.5,4.1,35.8,5.6,56.4,5.6S703.7,525.4,714.2,521.2 M714.7,518c-0.3,0-0.7,0.1-1,0.2
						c-8.7,3.8-32.3,5.6-55.9,5.6s-47.1-1.9-55.9-5.6c-0.3-0.1-0.7-0.2-1-0.2c-1.3,0-2.5,1.1-2.5,2.6v25.5
						c0,7.9,29.7,11.9,59.4,11.9s59.4-4,59.4-11.9v-25.5C717.2,519.1,716,518,714.7,518L714.7,518z"/>
				</g>
			</g>
		</g>
		<g>

				<ellipse transform="matrix(0.866 -0.5 0.5 0.866 -122.0537 394.1218)" style="fill:#93587E;" cx="674.4" cy="424.8" rx="20.6" ry="10.7"/>
			<ellipse style="fill:#4E8768;" cx="635.7" cy="449.1" rx="20.6" ry="10.7"/>

				<ellipse transform="matrix(0.5831 -0.8124 0.8124 0.5831 -65.8437 738.1628)" style="fill:#87C3D8;" cx="686.3" cy="433.2" rx="20.6" ry="10.7"/>

				<ellipse transform="matrix(0.5831 -0.8124 0.8124 0.5831 -83.1692 747.5317)" style="fill:#A08C7A;" cx="686.8" cy="454.8" rx="16.8" ry="8.7"/>

				<ellipse transform="matrix(0.9903 -0.1387 0.1387 0.9903 -51.0694 95.3366)" style="fill:#4E8768;" cx="658.5" cy="414.1" rx="10.7" ry="20.6"/>

				<ellipse transform="matrix(0.811 -0.5851 0.5851 0.811 -131.2553 449.4226)" style="fill:#93587E;" cx="629.9" cy="427.8" rx="18.7" ry="9.7"/>

				<ellipse transform="matrix(0.2027 -0.9792 0.9792 0.2027 98.9422 1001.1365)" style="fill:#969696;" cx="664.3" cy="439.8" rx="10.7" ry="20.6"/>

				<ellipse transform="matrix(0.7742 -0.633 0.633 0.7742 -127.9851 503.489)" style="fill:#A08C7A;" cx="641.6" cy="431.1" rx="16.2" ry="8.4"/>

				<ellipse transform="matrix(0.4368 -0.8996 0.8996 0.4368 -35.7029 846.8257)" style="fill:#87C3D8;" cx="658.4" cy="451.9" rx="10.7" ry="20.6"/>
		</g>
		<g>
			<path style="fill:#333333;" d="M624.6,543.9v5.7h-5.1v-5.7h1v-10.1h-1v-5.4h4.2c1.8,0,3,0.4,3.6,1.3c0.6,0.9,0.9,2.6,0.9,5.2
				c0,2.3-0.3,3.7-0.8,4.5c-0.5,0.7-1.6,1.1-3.3,1.1h-0.7v3.5L624.6,543.9L624.6,543.9z M623.5,533.8v4.3h0.2h0.4
				c0.9,0,1.3-0.7,1.3-2c0-1.5-0.5-2.3-1.5-2.3H623.5z"/>
			<path style="fill:#333333;" d="M639,529.9v8.5h-2.4v-3.1h-2.1v3.8h2.6v2.2h-2.6v4.1h2.1v-3.1h2.6v8.7h-8.7v-5.7h1v-10.1h-1v-5.4
				L639,529.9L639,529.9z"/>
			<path style="fill:#333333;" d="M650.5,541.3v9.8h-8.7v-5.7h1.1v-10.1h-1.1v-5.4h5.1v5.4h-1.1v10.1h2.1v-4.1H650.5z"/>
			<path style="fill:#333333;" d="M661.5,541.3v9.8h-8.7v-5.7h1.1v-10.1h-1.1v-5.4h5.1v5.4h-1.1v10.1h2.1v-4.1H661.5z"/>
			<path style="fill:#333333;" d="M672.4,529.9v8.5H670v-3.1h-2.1v3.8h2.6v2.2h-2.6v4.1h2.1v-3.1h2.6v8.7h-8.7v-5.7h1v-10.1h-1v-5.4
				L672.4,529.9L672.4,529.9z"/>
			<path style="fill:#333333;" d="M684.1,529.9v9.3h-1.8v-3.9h-1.4v10.1h1v5.7h-5.1v-5.7h1.2v-10.1h-1.4v3.9h-1.8v-9.3H684.1z"/>
			<path style="fill:#333333;" d="M693.7,528.4v7.5h-2.8v-0.6c-0.1-1-0.3-1.4-0.8-1.4c-0.6,0-0.9,0.4-0.9,1.1c0,0.8,0.5,1.6,1.5,2.2
				c1.6,1,2.6,1.9,3,2.7s0.6,2.3,0.6,4.3c0,3.8-1,5.7-2.9,5.7c-1,0-1.9-0.6-2.5-1.8v1.5h-2.6v-8h2.6v0.3c0,1.4,0.4,2.1,1.1,2.1
				c0.7,0,1-0.5,1-1.5s-0.4-1.8-1.2-2.3l-1.5-1.1c-1.5-1.1-2.3-2.8-2.3-5.3c0-3.8,0.9-5.8,2.8-5.8c0.9,0,1.7,0.6,2.2,1.8v-1.5
				L693.7,528.4L693.7,528.4z"/>
		</g>
	</g>
	<g>

			<linearGradient id="highlight_6_" gradientUnits="userSpaceOnUse" x1="657.8" y1="24.2" x2="657.8" y2="586.8349" gradientTransform="matrix(1 0 0 -1 0 604)">
			<stop  offset="0" style="stop-color:#999999;stop-opacity:0"/>
			<stop  offset="1" style="stop-color:#E6E6E6;stop-opacity:0.8"/>
		</linearGradient>
		<path id="highlight_1_" style="fill:url(#highlight_6_);" d="M733.2,554.8L733.2,554.8c0-0.2,0-0.3,0-0.5c0-0.1,0-519.7,0-527.7
			c0-7.6-40.6-9.4-75.4-9.4c-37.9,0-75.4,1.6-75.4,10.7c0,8,0,526.2,0,526.4c0,0.1,0,0.3,0,0.4v0.1c-0.2,0.7,0,3.5,0,4.2
			c0,11.5,33.8,20.8,75.4,20.8c41.6,0,75.4-9.3,75.4-20.8C733.2,558.4,733.4,555.4,733.2,554.8z"/>

			<linearGradient id="SVGID_3_" gradientUnits="userSpaceOnUse" x1="657.6" y1="453.4" x2="657.6" y2="488" gradientTransform="matrix(1 0 0 -1 0 604)">
			<stop  offset="0" style="stop-color:#999999;stop-opacity:0"/>
			<stop  offset="1" style="stop-color:#E6E6E6;stop-opacity:0.8"/>
		</linearGradient>
		<rect x="582.4" y="116" style="fill:url(#SVGID_3_);" width="150.4" height="34.6"/>
	</g>
</g>
<g id="fish-flakes-group">
	<g id="fish-flakes">
		<path style="fill:#F2E0B8;" d="M1021,563.5c0,12.4-35.8,22.5-80,22.5s-80-10.1-80-22.5c0-0.8-0.3-3.8,0-4.5c4-11.4,38.5-18,80-18
			c42,0,76.7,6.4,80,18C1021.2,559.6,1021,562.9,1021,563.5z"/>
		<path style="fill:#CCBD9F;" d="M1021,428.5c0,12.4-35.8,16.5-80,16.5s-80-4.1-80-16.5s35.8-22.5,80-22.5S1021,416.1,1021,428.5z"
			/>
		<ellipse style="fill:#B27E3F;" cx="941" cy="432.5" rx="78.7" ry="18.5"/>
		<g>
			<path style="fill:#F2E0B8;" d="M941,458.8c-31.8,0-58.6-6.3-65.2-15.4c-1.1-1.6-1.7-3.2-1.7-4.9c0-0.1,0-0.4,0-0.7
				c-0.1-2-0.1-2.9,0.1-3.6c4.1-11.8,37.2-16,66.8-16c30.1,0,63.5,4.2,66.9,16.1c0.2,0.5,0.2,1.3,0.1,3.6c0,0.3,0,0.5,0,0.6
				C1007.9,451.7,973.4,458.8,941,458.8z M878,435.4c0,0.4,0,1.7,0,2.2c0,0.4,0,0.7,0,0.9c0,0.8,0.3,1.6,0.9,2.5l0,0
				c4.9,6.7,28.2,13.8,62,13.8c37.1,0,62.9-8.6,62.9-16.3c0-0.1,0-0.4,0-0.8c0-0.5,0.1-2,0-2.4c-2.1-6.5-24.3-13.1-63-13.1
				C902.8,422.2,880.5,428.8,878,435.4z"/>
		</g>
		<path style="fill:#E28305;" d="M941,445c-44.2,0-80-4.1-80-16.5c0,8.6,0,129.8,0,130c0,12.4,35.8,22.5,80,22.5s80-10.1,80-22.5
			c0-0.2,0-121.4,0-130C1021,440.9,985.2,445,941,445z"/>
		<path style="fill:#FBB03B;" d="M941,445c-39.9-0.3-58.1-2.8-73-8.3c0,0-0.1,131,0,131.1c8.9,5.6,32.7,13.6,73,13.6
			s65.4-8.4,73-13.6c0.1-0.1,0-131.1,0-131.1C1002.2,442.6,971.7,445.2,941,445z"/>
		<g>
			<circle style="fill:#7476B2;" cx="941" cy="514" r="52"/>
			<g>
				<path style="fill:#333333;" d="M941,467c25.9,0,47,21.1,47,47c0,25.9-21.1,47-47,47s-47-21.1-47-47S915.1,467,941,467 M941,457
					c-31.5,0-57,25.5-57,57s25.5,57,57,57s57-25.5,57-57S972.5,457,941,457L941,457z"/>
			</g>
		</g>
		<g>
			<g id="Ñëîé_2">
				<path style="fill:#F98705;" d="M974.4,496.5c0.8,3.7,3.9,4.9,5.4,5.3c0.1,0,0.3,0,0.3-0.2c0-0.1,0-0.2-0.1-0.3
					c-6-5.4-0.8-11.3-1.9-11.2C977,490.2,973.3,491.5,974.4,496.5z M915.9,484.7c1.5,0.3,3,0.4,4.5,0.4c1.6,0,3.2-0.1,4.7-0.4
					c8.1-1.6,25.3-5.3,37.7-6.1c2-0.1,3.8-0.2,5.4-0.2c2.1,1.8,4.5,4.6,4.3,8c-0.4,5.7,10.4,0,16.3,2.8c4.4,2.1,6.5,3,8.7,2.3
					c1.2,0.5,2.4,1,3.2,1.3c1.6,0.8-0.4,3.3-0.4,3.3l-0.2,0.3c0,0,1.1-0.1,1.2,0.6c0,0.7-0.8,1.4-1.2,1.8c-0.7,0.8-1.6,1.1-2.6,1.5
					c-0.1,0-0.2,0.1-0.3,0.1c-0.6-1.5-2.2-2.7-3.2-1.7c-1.4,1.5-4.9,2.9-6.8,1.9c-1.9-1-2.7-1.2-3.7,0.4c-0.1,0.2-0.3,0.4-0.5,0.6
					l0,0c-1.4,1.1-4.1,1.2-4.1,1.2c-1.7,0.2-3.4,0.2-5.1-0.1c-0.5-0.7-1.5-1.3-2.3-0.9c-0.1,0-0.2,0.1-0.2,0.2l-0.1,0.1
					c-6.2-2-11-7-9.9-12.2c1.5-7.2-10.5-3.7-20-2.9c-9.5,0.8-27.2,0-27.2,0C915,486.6,915.6,485.7,915.9,484.7z M989.8,496.9
					c1.6,0,2.9-1.3,2.9-2.8c0-1.6-1.3-2.9-2.8-2.9s-2.9,1.3-2.9,2.8l0,0C986.9,495.6,988.2,496.9,989.8,496.9L989.8,496.9z"/>
				<path style="fill:#EA700C;" d="M972.5,486.4c-0.4,5.7,10.4,0,16.3,2.8c4.4,2.1,6.5,3,8.7,2.3c-1.4-0.6-2.8-1.3-3.5-2
					c-1.1-1.2-10.9-7.9-20.4-10.5c-1.8-0.4-3.7-0.7-5.5-0.7C970.3,480.2,972.7,483,972.5,486.4z"/>
				<path style="fill:#F4B315;" d="M972.4,511.3c3.1-0.9,6.2-2,9.2-3.3c3.4-1.4,6.6-2.9,9.9-4.5c1.4-0.7,2.8-1.4,4.2-2.1l1.6-0.8
					c-0.6-1.5-2.2-2.7-3.2-1.7c-1.4,1.5-4.9,2.9-6.8,1.9c-1.9-1-2.7-1.2-3.7,0.4c-0.1,0.2-0.3,0.4-0.5,0.6l0,0c0,0-0.2,0.3-0.6,0.6
					l-0.3,0.3l-0.2,0.2l-0.2,0.2l-0.2,0.2l-0.2,0.2l-0.3,0.2c-0.2,0.1-0.4,0.3-0.6,0.4c-0.1,0.1-0.2,0.2-0.3,0.2l-0.3,0.2
					c-0.2,0.2-0.4,0.3-0.7,0.5s-0.7,0.4-1,0.6c-0.4,0.2-0.6,0.4-1,0.5c-0.2,0.1-0.5,0.3-0.7,0.4l-0.5,0.2c-0.4,0.2-0.8,0.4-1.1,0.5
					s-0.6,0.3-1,0.4C973.4,509,972.9,510.2,972.4,511.3z"/>
				<path style="fill:#F7A107;" d="M979.1,505.1c0.2-0.2,0.5-0.3,0.7-0.5C979.5,504.8,979.3,504.9,979.1,505.1z"/>
				<path style="fill:#F7A107;" d="M973.8,507.8c0.3-0.1,0.6-0.3,1-0.4c0.4-0.2,0.8-0.3,1.1-0.5l0.5-0.2c0.3-0.1,0.5-0.3,0.7-0.4
					c0.3-0.2,0.7-0.4,1-0.5s0.7-0.4,1-0.6c0.2-0.2,0.5-0.3,0.7-0.5l0.3-0.2c0.1-0.1,0.2-0.2,0.3-0.2c0.2-0.2,0.4-0.3,0.6-0.4
					l0.3-0.2l0.2-0.2l0.2-0.2l0.2-0.2l0.2-0.2l0.3-0.3c0.3-0.3,0.5-0.5,0.6-0.6c-1.4,1.1-4.1,1.3-4.1,1.3c-1.7,0.2-3.4,0.2-5-0.1
					l0.1,0.1c0.1,0.3,0.3,0.5,0.3,0.8C974.5,504.7,974.3,506.2,973.8,507.8z"/>
				<path style="fill:#F7A107;" d="M979.1,505.1c0.2-0.2,0.5-0.3,0.7-0.5C979.5,504.8,979.3,504.9,979.1,505.1z"/>
				<path style="fill:#F7A107;" d="M912.3,488.1c0.7-0.1,1.3-0.4,1.8-0.8c0,0,17.6,0.8,27.2,0c9.5-0.8,21.5-4.3,20.1,2.8
					c-1.1,5.2,3.7,10.2,9.9,12.2c-0.6,0.6-0.7,1.7-0.9,2.5c-0.4,1.4-0.6,2.9-0.8,4.3l0,0c-4.1,1-9.1,1.3-15.1,0.2
					c-19.1-3.5-23.3-9.8-33-10.3h-1.8c-0.5,0-0.9-0.1-1.4-0.1c-0.9,0-1.8,0-2.6,0.1c-0.2-0.6-0.9-1.4-2.7-1.7
					c-3.1-0.5-2-3.2-2.8-4.6C909.3,491.4,910.4,488.2,912.3,488.1z M917.1,492.8c1.1,1.5,3.3,1.4,9.2,2.5s7.4,3.3,18.6,7.9
					c11.2,4.6,22.2,2.4,17.8-1.3c-1.9-1.5-3.4-3.4-4.5-5.5c-0.9-1.8-0.9-4.3-2.6-5.6c-1.7-1.3-4.3-1.2-6.4-1.4
					c-2.4-0.2-4.8-0.2-7.2-0.2c-6.1,0-12.2,0.3-18.3,0.9C918.2,490.5,916,491.3,917.1,492.8z"/>
				<path style="fill:#F4B315;" d="M919.6,499h0.5c0.2,0,0.3,0,0.5,0.1h0.2l0,0l0.4,0.1l0.5,0.1c0.1,0,0.3,0,0.4,0.1l0.4,0.1
					c0.3,0.1,0.5,0.1,0.8,0.2l0,0c2.5,0.7,4.8,2,6.8,3.7c0.3,0.3,0.6,0.6,1,0.9c0.3,0.2,0.5,0.4,0.8,0.6l0.1,0.1l0.5,0.4
					c3.4,2.4,7.1,4.2,11.1,5.4c0.1-0.1,0.2-0.3,0.3-0.4c0.2-0.6,0-1.3,0.1-2c0.1-0.4,1.4-0.3,3.1,0.1c2.6,0.6,6.1,1.8,8.2,2.5
					c3.6,1.3,2,2.3,2,2.3c0.8,0,1.7,0.1,2.6,0.1c3,0,6.1-0.4,9-1.1c0.1-0.4,0.1-0.8,0.2-1.2c0.1-0.6,0.2-1.3,0.3-1.9
					c-4.1,1-9.1,1.3-15.1,0.2c-19.1-3.5-23.3-9.8-33-10.3L919.6,499z"/>
				<path style="fill:#EA700C;" d="M906.5,502.3L906.5,502.3c1.1-0.7,2.3-1.2,3.5-1.8c1.8-0.7,3.7-1.2,5.6-1.4
					c-0.2-0.6-0.9-1.4-2.7-1.7c-3.1-0.5-2-3.2-2.8-4.6s0.3-4.6,2.2-4.7c0.7-0.1,1.3-0.4,1.8-0.8c0.8-0.7,1.4-1.6,1.7-2.6
					c-2-0.4-4-0.9-6-1.6l0,0c-3.1-0.5-6-1.4-8.7-2.8c-7.7-4,4.4,4.3,7.8,5.4c3.4,1.1-2.1,0.6-7-2c-5-2.5,1.8,2.8,5.4,3.4
					s3.2,1.8-0.6,0.9s-8.8-2.6-5-0.8c3.8,1.8,10.4,2.3,6.1,2.3c-4.3,0-7.8,0.3-4,0.6c3.8,0.3,6.6,0.9,3.3,1.1s-3.4,0.9-4.9,1.6
					c-1.4,0.6,1.6,0.4,4.2,0c2.6-0.4-1.5,1.3-5,2.3c-3.5,1.1,3.3,0.3,5.7-0.4s-8.3,3.6-9.5,4.6s6.6-2,10.4-2.2
					c3.8-0.2-9.1,3.3-11.8,5c-2.6,1.6,9.6-3,11.4-2.8c1.8,0.2-9.7,3.6-11.8,5.4C894.3,506.2,901.7,503.3,906.5,502.3z"/>
				<path style="fill:#F7A107;" d="M902.3,504.8L902.3,504.8c1.5-0.9,2.9-1.8,4.2-2.5c-4.8,1-12.2,3.9-10.5,2.5
					c2.1-1.8,13.6-5.2,11.8-5.4c-1.8-0.2-14,4.5-11.4,2.8s15.5-5.1,11.8-5c-3.8,0.2-11.6,3.1-10.4,2.2c1.2-0.9,11.9-5.3,9.5-4.6
					s-9.2,1.5-5.7,0.4s7.6-2.8,5-2.3s-5.6,0.6-4.2,0s1.6-1.3,4.9-1.6c3.3-0.2,0.5-0.8-3.3-1.1c-3.8-0.3-0.3-0.6,4-0.6
					s-2.3-0.6-6.1-2.3c-3.8-1.8,1.2-0.1,5,0.8s4.3-0.2,0.6-0.9c-3.6-0.6-10.4-6-5.4-3.4c5,2.5,10.4,3.1,7,2s-15.5-9.4-7.8-5.4
					c2.7,1.4,5.7,2.4,8.7,2.8c-4.2-1.5-8.1-3.5-11.8-6c-2.5-1.6-5.2-2.7-8.1-3.4c-0.4,0.9-0.7,2.2,0.7,2.8c2.4,1.1-0.1,1.5,1.6,2.4
					c1.7,0.9,0.3,2.5,1.7,3.1s-0.4,2.1,1.1,2.7s0.9,1.9,2,2.6s0.2,1.5,1.5,2.4s1.5,3.1,0,3.5c-1.5,0.5-1.5,2.6-2.3,2.9
					s-0.3,2.6-1.7,2.7s-1.3,2.8-2.4,2.9c-1.1,0.1-0.5,2.3-1.7,2.6s0.3,1.9-1,2.5C888.4,507.3,891.3,509.3,902.3,504.8z"/>
				<path style="fill:#DBD3CE;" d="M878.2,478.7L878.2,478.7c2.1-1.6,5.7-4,8.1-3.7c3.6,0.4-2.3,0.2-5.6,4.2c0,0,4.8-2.4,7.3-2.3
					s-4.1,1.1-5.7,2.9c-1.6,1.9,4.7-2.6,8-1.2s-1.5-0.7-4.9,2c0,0,4-0.8,5.6,0c0,0-2.2,0.3-3.3,1.2c0,0,3.9-0.6,4.6,0
					c0,0-2.4,0.4-2.9,1.1c0,0,3.7-0.1,4.1,0.4c0.5,0.4-1.3,0-2.3,0.9s2.9,1,3.3,0.9s0.1,0.5-1.1,0.6h-0.3c-1.5-0.1,1.6,1.4,2.6,1.4
					s-0.4,0.6-0.9,0.4c-0.6-0.1,2.3,1.4,2.8,2.3s-0.3,0.1-1.1,0.3c-0.8,0.2,1.3,1.5,2,1.3s-0.6,0.6-1.8,0.8s-0.7,1.4,0.2,1
					c0.8-0.3,0.5,0.9-1.4,1.7c-1.9,0.8-0.6,1.1,0.3,0.7c0.9-0.4-0.3,1-2.1,1.2s0.4,0.9,1.4,0.7c0.9-0.2-0.7,1.2-3.8,1.2s1,1.4,1.9,1
					s-1.4,1.5-4.5,0.8s1,1.5,3.1,0.7s-2.3,1.7-5.9,1.3c-3.6-0.4,1.3,1.9,3.7,1.5s-2.2,1.8-6.1,0.2c-3.9-1.6,1.1,3,4.7,2.4
					s-2.1,2.2-7.5-0.8c-0.3-0.1-0.7-0.2-1-0.1c-0.4,0.1,4.1,4.8,14.1,3.2l0,0c3.1-1,6-2.6,8.7-4.2c-10.9,4.5-13.9,2.4-12.6,1.9
					s-0.2-2.1,1-2.5c1.1-0.4,0.6-2.5,1.7-2.6c1.1-0.1,1-2.8,2.4-2.9s0.9-2.5,1.7-2.7c0.8-0.3,0.8-2.4,2.3-2.9s1.3-2.7,0-3.5
					s-0.3-1.7-1.5-2.4s-0.5-2-2-2.6s0.3-2.1-1.1-2.7c-1.4-0.6,0-2.2-1.7-3.1s0.8-1.3-1.6-2.4c-1.4-0.6-1.1-1.9-0.7-2.8
					c-1.5-0.4-3-0.6-4.6-0.6l0,0c-4.4,1.3-7.5,4.5-7.6,5.1C877.5,479,878.1,478.7,878.2,478.7z"/>
				<path style="fill:#EAE3DD;" d="M884.7,509.8c3,0.4,6,0.2,8.9-0.8c-10,1.6-14.5-3.1-14.1-3.2c0.3-0.1,0.7,0,1,0.1
					c5.4,3,11.2,0.2,7.5,0.8c-3.7,0.6-8.6-4-4.7-2.4c3.9,1.6,8.5-0.6,6.1-0.2s-7.2-1.9-3.7-1.5s8-2.1,5.9-1.3
					c-2.1,0.8-6.2-1.5-3.1-0.7s5.4-1.3,4.5-0.8s-5-0.9-1.9-1c3.1,0,4.7-1.4,3.8-1.2c-0.9,0.2-3.2-0.5-1.4-0.7s3-1.6,2.1-1.2
					s-2.2,0.1-0.3-0.7c1.9-0.8,2.3-2.1,1.4-1.7c-0.8,0.3-1.4-0.8-0.2-1s2.5-1,1.8-0.8s-2.8-1-2-1.3c0.8-0.2,1.6,0.6,1.1-0.3
					s-3.3-2.4-2.8-2.3c0.6,0.1,2-0.5,0.9-0.4c-1,0-4.1-1.5-2.6-1.4h0.3c1.2-0.1,1.4-0.7,1.1-0.6c-0.3,0.1-4.2,0-3.3-0.9
					c1-0.9,2.8-0.5,2.3-0.9s-4.1-0.4-4.1-0.4c0.5-0.7,2.9-1.1,2.9-1.1c-0.7-0.6-4.6,0-4.6,0c1.1-0.9,3.3-1.2,3.3-1.2
					c-1.5-0.8-5.6,0-5.6,0c3.5-2.6,8.3-0.5,4.9-2c-3.3-1.5-9.7,3-8,1.2c1.6-1.9,8.2-2.8,5.7-2.9s-7.3,2.3-7.3,2.3
					c3.3-4,9.2-3.8,5.6-4.2c-2.5-0.3-6.1,2.1-8.1,3.7l0,0c-0.1,0-0.7,0.3-0.5-0.5c0.2-0.7,3.3-3.8,7.6-5.1c-2.7,0-5.2,0.7-7,2.5
					c-2.2,2.2-2.1,3.3-1.2,4c1.1,0.8,3.4,0.8,4.3,1.2c1.5,0.6,2.3,1.6,3.4,1.3c1.1-0.3,1.3,1,3,1.1c1.7,0.2,1.4,1.9,3.1,2.2
					c1.7,0.3,4.7,3.8,5.1,5.4c0.3,1.7-3.3,6.2-4.4,6.2c-1.1,0-1.4,2-3.6,2.5c-2.2,0.5-3,2.5-4.2,2.5s-3.5,1.9-5.2,1.9
					C877,504,874,508.3,884.7,509.8z"/>
				<path style="fill:#EA700C;" d="M920.3,485.1c1.6,0,3.2-0.1,4.7-0.4c8.1-1.6,25.3-5.3,37.7-6.1c0,0-6.7-2.5-10.3-5.5
					c-3.3-2.8-9.5-6-12.8-5c3,0.9,8.2,3,12.5,7c-0.4-0.3-7.4-4.4-10.2-4.4c0,0,5.7,3.3,6.8,5.4s-4.2-3.2-7.3-3.6s3.5,1.8,5,4.6
					c1.5,2.8-2.5-2-5.8-2.7c-3.2-0.7,1.8,1.4,2.7,3.6s-1.3-1.1-4.9-1.5c-3.6-0.4,1,0.5,2.1,2.3s-1.7-0.8-4.6-0.8s0.7,0.1,1.9,1.8
					c1.1,1.7-1.4-0.5-4.3-0.6c-3-0.1,0.1,0.2,1,1.3s-1.9-0.4-4.1-0.4c-2.1,0,0.9,0.5,1.4,1.8s-0.9-0.7-3.8-0.5
					c-2.9,0.2,0.5,0.3,0.8,1.5s-2.3-1.1-4.4-0.8s0.6,0.4,0.9,1.4c0.3,0.8-2-0.8-4.3-1.3C920.7,483,920.4,484,920.3,485.1z"/>
				<path style="fill:#F58704;" d="M921.2,482.2c2.3,0.5,4.6,2.1,4.3,1.3c-0.3-1-3-1.2-0.9-1.4c2.1-0.2,4.7,2,4.4,0.8
					s-3.7-1.4-0.8-1.5s4.3,1.8,3.8,0.5s-3.6-1.8-1.4-1.8c2.2,0,5,1.5,4.1,0.4s-4-1.4-1-1.3s5.5,2.4,4.3,0.7s-4.8-1.8-1.9-1.8
					s5.7,2.5,4.6,0.7c-1.1-1.8-5.7-2.7-2.1-2.3c3.6,0.4,5.7,3.7,4.9,1.5c-0.9-2.2-6-4.2-2.7-3.5c3.2,0.7,7.3,5.5,5.8,2.7
					s-8.1-5.1-5-4.6c3.1,0.4,8.4,5.7,7.3,3.6c-1.1-2.1-6.8-5.4-6.8-5.4c2.7,0,9.7,4.1,10.2,4.4c-4.3-4-9.5-6.1-12.5-7
					c-0.3,0.1-0.5,0.2-0.7,0.3c-0.3,0.2-0.5,0.3-0.7,0.6c0.8,0.2,1.5,0.6,1.6,1.3c0.1,1.3-0.8,2.5-1.2,3.7s-0.9,1.5-5.1,3
					c-3.8,1.4-9.4,3.1-11,4.2l0,0c-0.1,0.1-0.3,0.2-0.4,0.3l0,0c-0.2,0.1-0.3,0.3-0.5,0.4C921.5,481.8,921.4,482,921.2,482.2z"/>
				<path style="fill:#EAE3DD;" d="M922.5,481c1.7-1,7.3-2.8,11-4.2c4.2-1.5,4.7-1.8,5.1-3c0.4-1.2,1.3-2.4,1.2-3.7
					c0-0.7-0.8-1.1-1.6-1.3c-1.5,1.8,1.1,4.4-3.5,6.2C930.4,476.8,924.8,479.3,922.5,481z"/>
				<path style="fill:#F7A107;" d="M917.6,514.1c5.7-1.4,14.7-8.6,14.9-8.7L932,505l-0.1-0.1c-2.3,1.7-8.8,6.2-12,6.6
					c-3.9,0.6,5.5-2.9,7-4.9s-2.4,1.4-5.4,2.1c-3,0.6,2.1-1.7,3.4-3s-0.5-0.4-2.5,0.3c-1.9,0.6,0.4-1,1.6-2.4
					c1.2-1.5-0.7-0.4-2.6,0.3c-1.9,0.7,0.7-1.4,1.3-2.5c0.5-1.1-0.5,0-1.3,0.3c-0.7,0.2,0.1-1.5,0.3-2.3l-0.5-0.1l-0.4-0.1l0,0h-0.2
					c-0.2,0-0.3,0-0.5-0.1h-0.5c-0.3,0.6,0.1,2.4,0.5,2.9s-0.8,1.8-0.6,2.3c0.3,0.5-1,1.2-0.6,1.8c0.4,0.6-0.9,1.3-0.5,2.1
					c0.4,0.8-0.4,2.1-1.1,3.9C916.9,513.1,917.3,513.8,917.6,514.1z"/>
				<path style="fill:#EA700C;" d="M919.9,511.6c3.2-0.5,9.7-5,12-6.6c-0.3-0.2-0.6-0.4-0.8-0.6c0,0-2.6,2.7-3.9,1.1
					c-1.3-1.6-1.9-4.5-3.8-5.7l0,0c-0.3-0.1-0.5-0.1-0.8-0.2l-0.4-0.1l-0.4-0.1c-0.2,0.8-1,2.5-0.3,2.3c0.8-0.2,1.8-1.4,1.3-0.3
					s-3.2,3.2-1.3,2.5s3.8-1.7,2.6-0.3c-1.2,1.4-3.6,3-1.6,2.4c1.9-0.6,3.8-1.5,2.5-0.3s-6.5,3.6-3.4,3s6.9-4.1,5.4-2.1
					C925.3,508.7,916,512.2,919.9,511.6z"/>
				<path style="fill:#EAE3DD;" d="M916.9,514.2c0.2,0,0.5-0.1,0.7-0.1c-0.3-0.3-0.7-1-0.3-2.1c0.7-1.8,1.4-3,1.1-3.9
					s0.9-1.5,0.5-2.1s0.9-1.3,0.6-1.8s1-1.8,0.6-2.3s-0.9-2.3-0.5-3c-0.5,0-0.9-0.1-1.4-0.1c-0.2,1,0.6,2.6,0,3.1
					c-0.8,0.6,0.2,1.7-0.9,2.5c-1.1,0.9,0.5,1.3-0.4,1.9c-1,0.6,0.2,1.8-0.8,2.3c-1,0.4-0.8,1.8-0.4,2.6
					C916.2,512.4,911.2,515.1,916.9,514.2z"/>
				<path style="fill:#EA700C;" d="M943.6,518.5c4.2,0.3,11.2-3.3,11.7-3.6l0,0l0,0c0.7-0.5,1.4-1,2-1.6c0,0,1.6-1-2-2.3
					c-2.1-0.8-5.7-1.9-8.2-2.5c-0.2,1.3-2.2,2.3-0.6,1.9s3.4-2,2.5-0.4c-0.4,0.7-1.3,1.3-2.1,1.8c-1.1,0.6-1.8,0.9,0,0.6
					c0.4-0.1,0.9-0.2,1.3-0.3l0,0c2.1-0.7,2.9-1.8,2.4-0.4c-0.1,0.3-0.4,0.6-0.7,0.8c-1.8,1.3-6.4,2.3-2.8,2
					c1.5-0.2,3.1-0.9,4.3-1.7c2.2-1.4,3.5-2.9,2.3-0.8c-0.2,0.4-0.5,0.7-0.9,1c-3.1,2.6-11.3,3.7-5.7,3.1c4.1-0.4,7.1-2.4,7.9-2.9
					c0.2-0.1,0.3-0.2,0.2,0s-0.3,0.4-0.7,0.8C952,516.7,939.3,518.3,943.6,518.5z"/>
				<path style="fill:#EAE3DD;" d="M937.9,520.1c0,0,0.4,0.1,1.1,0.1c0-0.8,0.2-2,0.7-2.5c0.8-0.9,1.6-0.7,1.2-1.3s0.9-0.4,0.7-0.9
					s0.8-1,0.7-1.3s1.1-0.7,0.9-1.1c-0.2-0.4,0.7-0.8,0.7-2.2c0-0.2,0-0.4,0-0.5c-0.1,0.2-0.2,0.3-0.3,0.4c-0.2,0.2-0.4,0.3-0.6,0.4
					c-1.5,0.5-1.8,0.9-1.7,1.3c0.2,0.4-1.1,1.3-1,1.6s-1.2,0.5-1.1,1.2c0.2,0.7-1.3,0.7-1,1.5C938.5,517.6,934.6,519.6,937.9,520.1z
					"/>
				<path style="fill:#F7A107;" d="M939,520.1c5.9,0.1,11.6-1.7,16.3-5.2c-0.5,0.3-7.5,3.8-11.7,3.6c-4.3-0.3,8.4-1.8,10.9-4.6
					c0.4-0.4,0.6-0.7,0.7-0.8c0.1-0.1,0.1-0.1-0.2,0c-0.8,0.5-3.8,2.4-7.9,2.9c-5.5,0.6,2.6-0.5,5.7-3.1c0.3-0.3,0.6-0.6,0.9-1
					c1.2-2.1-0.1-0.7-2.3,0.8c-1.2,0.8-2.7,1.6-4.3,1.7c-3.7,0.4,0.9-0.6,2.8-2c0.3-0.2,0.5-0.4,0.7-0.8c0.4-1.4-0.3-0.3-2.4,0.4
					l0,0c-0.4,0.1-0.8,0.2-1.3,0.3c-1.8,0.3-1.1,0,0-0.6c0.8-0.5,1.8-1.1,2.1-1.8c0.9-1.6-0.9-0.1-2.5,0.4s0.4-0.6,0.6-1.9
					c-1.8-0.4-3.1-0.6-3.1-0.1c-0.1,0.7,0.1,1.4-0.1,2c0,0.2,0,0.4,0,0.5c0,1.4-0.9,1.8-0.7,2.2s-1,0.7-0.9,1.1
					c0.1,0.3-1,0.8-0.7,1.3c0.2,0.5-1,0.3-0.7,0.9c0.4,0.6-0.4,0.4-1.2,1.3C939.2,518.2,939,519.3,939,520.1z"/>
				<path style="fill:#EA700C;" d="M969,512.2c0.1-0.4,0.1-0.8,0.2-1.2c0.1-0.6,0.2-1.3,0.3-1.9l0,0c0.2-1.4,0.5-2.9,0.8-4.3
					c0.2-0.8,0.3-1.9,0.9-2.5l0.1-0.1c0.1-0.1,0.2-0.1,0.2-0.2c0.8-0.5,1.8,0.2,2.3,0.9l0.1,0.1c0.1,0.3,0.3,0.5,0.3,0.8
					c0.2,0.9,0,2.3-0.5,4c-0.4,1.2-0.8,2.4-1.4,3.5c-0.6,1.4-1.4,2.7-2.4,3.9C968.1,517.3,968.5,514.9,969,512.2z M969.9,512.5
					c0.3,0,0.7-0.3,1.1-0.8c0.8-1.1,1.5-2.3,1.9-3.6l0,0c0.3-0.8,0.5-1.7,0.6-2.6c0-0.7-0.2-1.3-0.6-1.8c-0.5-0.5-0.8-0.6-1.1-0.4
					c-0.4,0.3-0.7,1.2-0.8,1.8c-0.3,1.1-0.4,2.3-0.6,3.4l-0.1,0.5c-0.1,0.8-0.4,2.3-0.4,3C969.8,512.3,969.8,512.5,969.9,512.5z"/>
				<path style="fill:#F8BF06;" d="M923.8,490.1c6.1-0.5,12.2-0.8,18.3-0.9c2.4,0,4.8,0,7.2,0.2c2,0.2,4.6,0.1,6.4,1.4
					c1.8,1.3,1.7,3.8,2.6,5.6c1.1,2.1,2.6,4,4.5,5.5c4.4,3.7-6.6,5.9-17.8,1.3s-12.7-6.9-18.6-7.9c-5.9-1.1-8.1-1-9.2-2.5
					S918.2,490.5,923.8,490.1z M941,499.4c1.9,1.1,14,5.7,13.5,0.5s-5-7.5-11.3-7.8s-5.5,3.8-5.5,3.8
					C937.5,497.5,939.1,498.3,941,499.4z"/>
				<path style="fill:#EA700C;" d="M974.4,496.5c0.8,3.7,3.9,4.9,5.4,5.3c0.1,0,0.3,0,0.3-0.2c0-0.1,0-0.2-0.1-0.3
					c-6-5.4-0.8-11.3-1.9-11.2C977,490.2,973.3,491.5,974.4,496.5z"/>
				<path style="fill:#F8CB09;" d="M937.6,495.9c-0.2,1.6,1.5,2.4,3.3,3.5c1.9,1.1,14,5.7,13.5,0.5s-5-7.5-11.3-7.8
					S937.6,495.9,937.6,495.9z"/>
				<path style="fill:#F8BF06;" d="M923.3,499.7c1.9,1.1,2.5,4,3.8,5.7c1.3,1.6,3.9-1.1,3.9-1.1c-0.4-0.3-0.7-0.6-1-0.9
					C928.2,501.6,925.8,500.4,923.3,499.7z"/>
				<path style="fill:#F7A107;" d="M969.9,512.5c0.3,0,0.7-0.3,1.1-0.8c0.8-1.1,1.5-2.3,1.9-3.6l0,0c0.3-0.8,0.5-1.7,0.6-2.6
					c0-0.7-0.2-1.3-0.6-1.8c-0.5-0.5-0.8-0.6-1.1-0.4c-0.4,0.3-0.7,1.2-0.8,1.8c-0.3,1.1-0.4,2.3-0.6,3.4l-0.1,0.5
					c-0.1,0.8-0.4,2.3-0.4,3C969.8,512.3,969.8,512.5,969.9,512.5z"/>
			</g>
			<g>
				<path style="fill:#8E5436;" d="M989.8,491.2c1.6,0,2.9,1.3,2.9,2.8c0,1.6-1.3,2.9-2.8,2.9c-1.6,0-2.9-1.3-2.9-2.8l0,0
					C986.9,492.5,988.2,491.2,989.8,491.2L989.8,491.2z M989.8,496.3c1.2,0,2.3-1,2.3-2.3c0-1.2-1-2.3-2.3-2.3s-2.3,1-2.3,2.3l0,0
					C987.5,495.3,988.5,496.3,989.8,496.3L989.8,496.3z"/>
				<path style="fill:#2B2B2B;" d="M988.7,494.2c0,0.2,0,0.3,0.1,0.5c0,0,0,0,0,0.1c0.1,0.3,0.3,0.6,0.6,0.8l0.1,0.1
					c0,0,0.1,0,0.1,0.1l0.1,0.1l0,0h0.1c0.1,0,0.2,0,0.3,0c0.2,0,0.3,0,0.5-0.1c0.1,0,0.1,0,0.2-0.1c0.1,0,0.1-0.1,0.2-0.1
					c0.2-0.1,0.3-0.3,0.4-0.4c0.1-0.1,0.2-0.3,0.2-0.4c0.1-0.3,0.1-0.5,0-0.8c0-0.1,0-0.2-0.1-0.3c0-0.1-0.1-0.2-0.2-0.3l-0.1-0.1
					l-0.1-0.1l-0.1-0.1c-0.1-0.1-0.2-0.2-0.3-0.2h-0.1h-0.1h-0.1h-0.1c-0.1,0-0.1,0-0.2,0c-0.2,0-0.3,0-0.5,0.1h-0.1
					c-0.1,0-0.1,0-0.2,0.1l-0.1,0.1c-0.2,0.1-0.4,0.3-0.5,0.6v0.1C988.7,494,988.6,494.1,988.7,494.2l-0.1,0.1
					C988.7,494.1,988.7,494.1,988.7,494.2z"/>
				<path style="fill:#A86142;" d="M989.8,491.8c1.2,0,2.3,1,2.3,2.3c0,1.2-1,2.3-2.3,2.3s-2.3-1-2.3-2.3l0,0
					C987.5,492.8,988.5,491.8,989.8,491.8L989.8,491.8z M988.8,494.6C988.8,494.7,988.8,494.7,988.8,494.6c0.1,0.4,0.3,0.7,0.6,0.9
					l0.1,0.1c0,0,0.1,0,0.1,0.1l0.1,0.1l0,0h0.1c0.1,0,0.2,0,0.3,0c0.2,0,0.3,0,0.5-0.1c0.1,0,0.1,0,0.2-0.1c0.1,0,0.1-0.1,0.2-0.1
					c0.2-0.1,0.3-0.3,0.4-0.4c0.1-0.1,0.2-0.3,0.2-0.4c0.1-0.3,0.1-0.5,0-0.8c0-0.1,0-0.2-0.1-0.3c0-0.1-0.1-0.2-0.2-0.3l-0.1-0.1
					l-0.1-0.1c0,0,0-0.1-0.1-0.1c-0.1-0.1-0.2-0.2-0.3-0.2h-0.1h-0.1h-0.1h-0.1c-0.1,0-0.1,0-0.2,0c-0.2,0-0.3,0-0.5,0.1h-0.1
					c-0.1,0-0.1,0-0.2,0.1l-0.1,0.1c-0.2,0.1-0.4,0.3-0.5,0.6v0.1c0,0.1-0.1,0.2-0.1,0.3v0.1c0,0.1,0,0.1,0,0.2
					C988.7,494.4,988.7,494.5,988.8,494.6z"/>
				<circle style="fill:#EAE3DD;" cx="989" cy="493.7" r="0.9"/>
			</g>
		</g>
		<g>
			<path style="fill:#7476B2;" d="M941.4,563.2c-38.7,0-69.1-5.5-69.1-12.6v-30.3c0-0.9,0.8-1.5,1.5-1.5c0.2,0,0.4,0,0.6,0.1
				c11.7,5,42.2,6.8,67,6.8c24.7,0,55.3-1.8,67-6.8c0.2-0.1,0.4-0.1,0.6-0.1c0.7,0,1.5,0.6,1.5,1.5v30.3
				C1010.5,557.7,980.2,563.2,941.4,563.2z"/>
			<g>
				<path style="fill:#333333;" d="M1009,520.3L1009,520.3v30.4c0,1.2-3.5,4.8-19.6,7.6c-12.6,2.2-29.7,3.5-48,3.5s-35.4-1.2-48-3.5
					c-16.1-2.9-19.6-6.5-19.6-7.6v-30.4c11.9,5.1,42.7,6.9,67.6,6.9S997.1,525.4,1009,520.3 M1009,517.3c-0.4,0-0.8,0.1-1.2,0.2
					c-10.4,4.5-38.4,6.7-66.4,6.7s-56-2.2-66.4-6.7c-0.4-0.2-0.8-0.2-1.2-0.2c-1.6,0-3,1.3-3,3v30.3c0,9.4,35.3,14.1,70.6,14.1
					s70.6-4.7,70.6-14.1v-30.3C1012,518.6,1010.6,517.3,1009,517.3L1009,517.3z"/>
			</g>
		</g>
		<g>
			<path style="fill:#333333;" d="M886.2,527.8v7.6h-2.7v-2.9h-1.9v3.7h2.6v1.9h-2.6v3.2h1.2v4.9h-5.1v-4.9h1v-8.8h-1v-4.7H886.2z"
				/>
			<path style="fill:#333333;" d="M893.9,531.2v4.7h-1.1v8.8h1.1v4.9h-5.1v-4.9h1.1v-8.8h-1.1v-4.7H893.9z"/>
			<path style="fill:#333333;" d="M905.2,533.3v6.5h-2.8v-0.5c-0.1-0.8-0.3-1.3-0.8-1.3c-0.6,0-0.9,0.3-0.9,1s0.5,1.4,1.5,1.9
				c1.6,0.9,2.6,1.7,3,2.4s0.6,2,0.6,3.8c0,3.3-1,5-2.9,5c-1,0-1.9-0.5-2.5-1.6v1.3h-2.7v-7h2.7v0.3c0,1.2,0.4,1.8,1.1,1.8
				c0.7,0,1-0.4,1-1.3c0-0.9-0.4-1.6-1.2-2l-1.6-0.9c-1.6-0.9-2.3-2.5-2.3-4.6c0-3.4,0.9-5,2.8-5c0.9,0,1.7,0.5,2.2,1.6v-1.3h2.8
				V533.3z"/>
			<path style="fill:#333333;" d="M918.8,534.1v4.7h-1v8.8h1v4.9h-4.5v-4.9h0.5V544H913v3.6h0.5v4.9H909v-4.9h1v-8.8h-1v-4.7h4.5
				v4.7H913v3.3h1.9v-3.3h-0.5v-4.7H918.8z"/>
			<path style="fill:#333333;" d="M950.3,534.2v7.6h-2.7v-2.9h-1.9v3.7h2.6v1.9h-2.6v3.2h1.2v4.9h-5.1v-4.9h1v-8.8h-1v-4.7H950.3z"
				/>
			<path style="fill:#333333;" d="M960.7,544.1v8.5h-8.8v-4.9h1.1v-8.8h-1.1v-4.7h5.1v4.7h-1v8.8h2.1v-3.6H960.7z"/>
			<path style="fill:#333333;" d="M972.8,547.7v4.9h-5.1v-4.9h1.1l-0.3-2.5h-2.3l-0.3,2.5h1.2v4.9h-4.3v-4.9h1l2.1-13.5h3.9
				l2.2,13.5H972.8z M968.1,543.3l-0.9-5.7l-0.9,5.7H968.1z"/>
			<path style="fill:#333333;" d="M984.5,533.3v4.7h-1.1l-2,2.9l2.6,5.9h0.9v4.9h-4.6v-4.9h0.8l-1.6-3.7l-0.7,1.3v2.4h0.7v4.9h-4.7
				v-4.9h1V538h-1v-4.7h4.7v4.7h-0.7v3.4l2.5-3.4h-1v-4.7H984.5z"/>
			<path style="fill:#333333;" d="M995,531.2v7.4h-2.5v-2.7h-2.1v3.3h2.6v1.9h-2.6v3.6h2.1V542h2.7v7.6h-8.7v-4.9h1v-8.8h-1v-4.7
				L995,531.2L995,531.2z"/>
			<path style="fill:#333333;" d="M1004.9,528.4v6.5h-2.8v-0.5c-0.1-0.8-0.3-1.3-0.8-1.3c-0.6,0-0.9,0.3-0.9,1s0.5,1.4,1.5,1.9
				c1.6,0.9,2.6,1.7,3,2.4s0.6,2,0.6,3.8c0,3.3-1,5-2.9,5c-1,0-1.9-0.5-2.5-1.6v1.3h-2.7v-7h2.7v0.3c0,1.2,0.4,1.8,1.1,1.8
				c0.7,0,1-0.4,1-1.3c0-0.9-0.4-1.6-1.2-2l-1.6-0.9c-1.6-0.9-2.3-2.5-2.3-4.6c0-3.4,0.9-5,2.8-5c0.9,0,1.7,0.5,2.2,1.6v-1.3h2.8
				V528.4z"/>
		</g>
	</g>
	<g>

			<linearGradient id="highlight_7_" gradientUnits="userSpaceOnUse" x1="941.0333" y1="18" x2="941.0333" y2="591.3081" gradientTransform="matrix(1 0 0 -1 0 604)">
			<stop  offset="0" style="stop-color:#999999;stop-opacity:0"/>
			<stop  offset="1" style="stop-color:#E6E6E6;stop-opacity:0.8"/>
		</linearGradient>
		<path id="highlight_2_" style="fill:url(#highlight_7_);" d="M1026.9,559C1026.9,559,1026.8,558.9,1026.9,559c0-0.2,0-0.4,0-0.5
			c0-0.2,0.2-525,0.2-533.6c0-9.4-38.5-12.2-86-12.2c-47.4,0-85.9,2.6-85.9,12.2c0,8.6-0.1,533.5-0.1,533.6s0,0.3,0,0.4v0.1
			c-0.3,0.7,0,3.7,0,4.5c0,12.4,38.4,22.5,85.9,22.5c47.4,0,85.9-10.1,85.9-22.5C1026.9,562.9,1027.1,559.6,1026.9,559z"/>

			<linearGradient id="SVGID_4_" gradientUnits="userSpaceOnUse" x1="940.95" y1="454" x2="940.95" y2="488" gradientTransform="matrix(1 0 0 -1 0 604)">
			<stop  offset="0" style="stop-color:#999999;stop-opacity:0"/>
			<stop  offset="1" style="stop-color:#E6E6E6;stop-opacity:0.8"/>
		</linearGradient>
		<rect x="855.1" y="116" style="fill:url(#SVGID_4_);" width="171.7" height="34"/>
	</g>
</g>
<g id="algae-wafers-group">
	<g id="algae-wafers">
		<g>
			<path style="fill:#F2E0B8;" d="M807.7,575c0,8-23,14.5-51.4,14.5s-51.4-6.5-51.4-14.5c0-0.5-0.2-2.4,0-2.9
				c2.6-7.3,24.7-11.6,51.4-11.6c27,0,49.3,4.1,51.4,11.6C807.8,572.5,807.7,574.6,807.7,575z"/>
			<path style="fill:#CCBD9F;" d="M807.7,491.1c0,8-23,10.6-51.4,10.6s-51.4-2.6-51.4-10.6s23-14.5,51.4-14.5
				S807.7,483.1,807.7,491.1z"/>
			<ellipse style="fill:#2B5E45;" cx="756.3" cy="493.7" rx="50.6" ry="11.9"/>
			<g>
				<path style="fill:#F2E0B8;" d="M756.3,510.6c-20.4,0-37.7-4.1-41.9-9.9c-0.7-1-1.1-2-1.1-3.1c0-0.1,0-0.3,0-0.5
					c-0.1-1.3-0.1-1.9,0.1-2.3c2.6-7.6,23.9-10.2,42.9-10.2c19.3,0,40.8,2.7,43,10.3c0.1,0.3,0.1,0.8,0.1,2.3c0,0.2,0,0.3,0,0.4
					C799.3,506,777.1,510.6,756.3,510.6z M715.8,495.6c0,0.3,0,1.1,0,1.4s0,0.5,0,0.6c0,0.5,0.2,1.1,0.6,1.6l0,0
					c3.1,4.3,18.1,8.8,39.8,8.8c23.8,0,40.4-5.5,40.4-10.4c0-0.1,0-0.3,0-0.5c0-0.4,0-1.3,0-1.6c-1.3-4.2-15.6-8.4-40.5-8.4
					C731.8,487.1,717.4,491.3,715.8,495.6z"/>
			</g>
			<path style="fill:#009245;" d="M756.3,501.7c-28.4,0-51.4-2.6-51.4-10.6c0,5.5,0,80.5,0,80.6c0,8,23,14.5,51.4,14.5
				s51.4-6.5,51.4-14.5c0-0.1,0-75.1,0-80.6C807.7,499.1,784.7,501.7,756.3,501.7z"/>
			<path style="fill:#006837;" d="M756.3,501.7c-25.6-0.2-37.3-1.8-46.9-5.4c0,0-0.1,81.3,0,81.3c5.7,3.6,21,8.7,46.9,8.7
				s42-5.4,46.9-8.7c0.1-0.1,0-81.3,0-81.3C795.6,500.2,776,501.9,756.3,501.7z"/>
			<g>
				<ellipse style="fill:#90673F;" cx="756.3" cy="536.5" rx="26.3" ry="26.3"/>
				<g>
					<path style="fill:#333333;" d="M756.3,512.8c13.1,0,23.7,10.7,23.7,23.7s-10.7,23.7-23.7,23.7c-13.1,0-23.7-10.7-23.7-23.7
						S743.2,512.8,756.3,512.8 M756.3,507.7c-15.9,0-28.8,12.9-28.8,28.8c0,15.9,12.9,28.8,28.8,28.8c15.9,0,28.8-12.9,28.8-28.8
						C785.1,520.6,772.2,507.7,756.3,507.7L756.3,507.7z"/>
				</g>
			</g>
			<g>
				<path style="fill:#90673F;" d="M756.6,576.3c-24.9,0-44.4-3.6-44.4-8.1v-19.5c0-0.6,0.5-1,1-1c0.1,0,0.3,0,0.4,0.1
					c7.5,3.2,27.1,4.4,43,4.4s35.5-1.1,43-4.4c0.1-0.1,0.2-0.1,0.4-0.1c0.5,0,1,0.4,1,1v19.5C801,572.7,781.5,576.3,756.6,576.3z"/>
				<g>
					<path style="fill:#333333;" d="M800,548.7L800,548.7v19.5c0,0.7-2.3,3.1-12.6,4.9c-8.1,1.4-19.1,2.2-30.8,2.2
						s-22.7-0.8-30.8-2.2c-10.3-1.8-12.6-4.2-12.6-4.9v-19.5c7.6,3.3,27.4,4.5,43.4,4.5C772.6,553.1,792.4,552,800,548.7 M800,546.8
						c-0.2,0-0.5,0-0.8,0.2c-6.7,2.9-24.7,4.3-42.6,4.3c-18,0-36-1.4-42.6-4.3c-0.3-0.1-0.5-0.2-0.8-0.2c-1,0-1.9,0.8-1.9,1.9v19.5
						c0,6,22.7,9.1,45.3,9.1c22.7,0,45.3-3,45.3-9.1v-19.5C801.9,547.6,801,546.8,800,546.8L800,546.8z"/>
				</g>
			</g>
		</g>
		<g>

				<ellipse transform="matrix(0.866 -0.5 0.5 0.866 -159.935 453.5304)" style="fill:#009245;" cx="766.3" cy="525.2" rx="11.6" ry="6.1"/>
			<ellipse style="fill:#009245;" cx="744.5" cy="538.9" rx="11.6" ry="6.1"/>

				<ellipse transform="matrix(0.5831 -0.8124 0.8124 0.5831 -108.2364 848.8662)" style="fill:#39B54A;" cx="773" cy="529.9" rx="11.6" ry="6.1"/>

				<ellipse transform="matrix(0.5831 -0.8124 0.8124 0.5831 -117.9986 854.2216)" style="fill:#009245;" cx="773.3" cy="542.1" rx="9.5" ry="4.9"/>

				<ellipse transform="matrix(0.9903 -0.1387 0.1387 0.9903 -64.6757 110.0687)" style="fill:#006837;" cx="757.4" cy="519.1" rx="6.1" ry="11.6"/>

				<ellipse transform="matrix(0.811 -0.5851 0.5851 0.811 -168.1911 533.301)" style="fill:#22B573;" cx="741.3" cy="526.9" rx="10.5" ry="5.5"/>

				<ellipse transform="matrix(0.2027 -0.9792 0.9792 0.2027 83.8286 1170.2413)" style="fill:#22B573;" cx="760.6" cy="533.6" rx="6.1" ry="11.6"/>

				<ellipse transform="matrix(0.7742 -0.633 0.633 0.7742 -165.795 592.7621)" style="fill:#39B54A;" cx="747.8" cy="528.7" rx="9.1" ry="4.8"/>

				<ellipse transform="matrix(0.4368 -0.8996 0.8996 0.4368 -59.6207 985.7224)" style="fill:#006837;" cx="757.4" cy="540.5" rx="6.1" ry="11.6"/>
		</g>
		<g>
			<path style="fill:#333333;" d="M721.6,563.7v3.2h-2.9v-3.2h0.6l-0.2-1.6h-1.3l-0.2,1.6h0.7v3.2h-2.4v-3.2h0.6l1.2-8.8h2.2
				l1.2,8.8H721.6z M719,560.9l-0.5-3.7l-0.5,3.7H719z"/>
			<path style="fill:#333333;" d="M727.8,562.4v5.5h-5v-3.2h0.6V559h-0.6v-3h2.9v3.1h-0.6v5.7h1.2v-2.3L727.8,562.4L727.8,562.4z"/>
			<path style="fill:#333333;" d="M733.7,557.4v4.8h-1.6v-1c0-0.5-0.2-0.7-0.5-0.7c-0.5,0-0.7,1-0.7,3.1c0,1.7,0.2,2.5,0.7,2.5
				c0.4,0,0.5-0.4,0.5-1.2v-0.4h-0.6v-1.7h2.8v1.7h-0.7v4.9h-0.8l-0.3-1c0,0.1,0,0.1-0.1,0.1c-0.3,0.7-0.8,1.1-1.5,1.1
				c-0.8,0-1.3-0.3-1.5-0.8s-0.4-1.7-0.4-3.4v-0.8V562c0-1.8,0.1-3.1,0.4-3.7s0.7-1,1.4-1c0.6,0,1,0.3,1.2,0.8v-0.6L733.7,557.4
				L733.7,557.4z"/>
			<path style="fill:#333333;" d="M741.1,567v3.2h-2.9V567h0.6l-0.2-1.6h-1.3l-0.2,1.6h0.7v3.2h-2.4V567h0.6l1.2-8.8h2.2l1.2,8.8
				H741.1z M738.4,564.1l-0.5-3.7l-0.5,3.7H738.4z"/>
			<path style="fill:#333333;" d="M747.2,558.2v4.8h-1.4v-1.7h-1.2v2.2h1.5v1.2h-1.5v2.3h1.2v-1.7h1.5v5h-4.9V567h0.6v-5.7h-0.6
				v-3.1H747.2z"/>
			<path style="fill:#333333;" d="M762.4,558.2v3.1h-0.6l-1.2,8.9h-1.5l-0.6-5l-0.6,5h-1.5l-1.2-8.9h-0.6v-3.1h2.5v3.1h-0.4l0.6,4.8
				l0.6-4.8h-0.4v-3.1h2.4v3.1h-0.4l0.6,4.6l0.5-4.6h-0.4v-3.1H762.4z"/>
			<path style="fill:#333333;" d="M769.1,567v3.2h-2.9V567h0.6l-0.2-1.6h-1.3l-0.2,1.6h0.7v3.2h-2.4V567h0.6l1.2-8.8h2.2l1.2,8.8
				H769.1z M766.5,564.1l-0.5-3.7l-0.5,3.7H766.5z"/>
			<path style="fill:#333333;" d="M775.2,558.2v4.9h-1.5v-1.9h-1.1v2.4h1.5v1.2h-1.5v2.1h0.7v3.2h-2.9V567h0.6v-5.7h-0.6v-3.1H775.2
				z"/>
			<path style="fill:#333333;" d="M781.3,557.4v4.8h-1.4v-1.7h-1.2v2.2h1.5v1.2h-1.5v2.3h1.2v-1.7h1.5v5h-4.9v-3.2h0.6v-5.7h-0.6
				v-3.1L781.3,557.4L781.3,557.4z"/>
			<path style="fill:#333333;" d="M788.8,563.5c0.1,0.7,0.1,1.2,0.1,1.7c0,1.9-0.5,2.8-1.4,2.8s-1.3-1-1.3-3v-0.8v-0.8
				c0-0.7-0.3-1.1-1-1.1c0,0-0.1,0-0.2,0v2.3h0.6v3.2h-2.9v-3.2h0.6V559h-0.6v-3h2.7c1,0,1.7,0.2,2,0.6s0.5,1.3,0.5,2.5
				c0,1.5-0.5,2.4-1.4,2.6c0,0-0.1,0-0.2,0c0.8,0.1,1.2,0.5,1.3,1.1v0.8v0.7c0,0.3,0.1,0.5,0.3,0.5s0.4-0.4,0.4-1.2v-0.2h0.5V563.5z
				 M785.1,561.2h0.2c0.8,0,1.1-0.3,1.1-1c0-0.8-0.4-1.2-1.1-1.2c0,0-0.1,0-0.2,0V561.2z"/>
			<path style="fill:#333333;" d="M794.3,554.9v4.2h-1.6v-0.3c0-0.5-0.2-0.8-0.5-0.8s-0.5,0.2-0.5,0.6c0,0.5,0.3,0.9,0.9,1.2
				c0.9,0.6,1.5,1.1,1.7,1.5c0.2,0.5,0.4,1.3,0.4,2.4c0,2.2-0.6,3.2-1.7,3.2c-0.6,0-1.1-0.3-1.4-1v0.9h-1.5v-4.6h1.5v0.2
				c0,0.8,0.2,1.2,0.6,1.2c0.4,0,0.6-0.3,0.6-0.8c0-0.6-0.2-1-0.7-1.3l-0.9-0.6c-0.9-0.6-1.3-1.6-1.3-3c0-2.2,0.5-3.3,1.6-3.3
				c0.5,0,1,0.3,1.3,1v-0.8L794.3,554.9L794.3,554.9z"/>
		</g>
	</g>
	<g>

			<linearGradient id="SVGID_5_" gradientUnits="userSpaceOnUse" x1="756.3" y1="454" x2="756.3" y2="488" gradientTransform="matrix(1 0 0 -1 0 604)">
			<stop  offset="0" style="stop-color:#999999;stop-opacity:0"/>
			<stop  offset="1" style="stop-color:#E6E6E6;stop-opacity:0.8"/>
		</linearGradient>
		<rect x="699.1" y="116" style="fill:url(#SVGID_5_);" width="114.4" height="34"/>

			<linearGradient id="highlight_8_" gradientUnits="userSpaceOnUse" x1="756.2778" y1="14.4" x2="756.2778" y2="593.8738" gradientTransform="matrix(1 0 0 -1 0 604)">
			<stop  offset="0" style="stop-color:#999999;stop-opacity:0"/>
			<stop  offset="1" style="stop-color:#E6E6E6;stop-opacity:0.8"/>
		</linearGradient>
		<path id="highlight_3_" style="fill:url(#highlight_8_);" d="M813.5,572.1C813.5,572.1,813.5,572,813.5,572.1c0-0.1,0-0.2,0-0.3
			s0-548.1,0-553.6c0-6.2-25.6-8.1-57.2-8.1s-57.2,1.8-57.2,8.1c0,5.5,0,553.5,0,553.6s0,0.2,0,0.3c0,0,0,0,0,0.1
			c-0.2,0.5,0,2.4,0,2.9c0,8,25.6,14.5,57.2,14.5s57.2-6.5,57.2-14.5C813.5,574.6,813.6,572.5,813.5,572.1z"/>
	</g>
</g>
<g id="medal-group">
	<g>
		<path style="fill:#BC4A53;" d="M385.9,150L385.9,150c0,42-57.4,76.2-127.9,76.2S130.2,192,130.2,150l0,0H82l0,0
			c0,31,19,59.9,53.4,81.3c33,20.6,76.5,31.9,122.6,31.9s89.7-11.3,122.6-31.9C415,209.8,434,180.9,434,150l0,0L385.9,150L385.9,150
			z"/>
		<path style="fill:#BA0E15;" d="M259.9,351.8l29.2,18.8c1.8,1.2,4.3,0.7,5.5-1.2L444.1,138c1.2-1.8,13.1-20.6,8.7-23.7l-39.1-0.7
			c-1.8-1.2-5.8,1.6-7,3.5l-148,229.2C257.5,348.2,258,350.6,259.9,351.8z"/>
		<path style="fill:#BA0E15;" d="M256.2,351.8L227,370.6c-1.8,1.2-4.3,0.7-5.5-1.2L72,138c-1.2-1.8-13.1-20.6-8.7-23.7l39.1-0.7
			c1.8-1.2,5.8,1.6,7,3.5l148,229.2C258.6,348.2,258.1,350.6,256.2,351.8z"/>
		<g id="rating-badge">
			<g>
				<path style="fill:#F6BC27;" d="M331.9,388.1c4.1-0.6,7.2-4.1,7.2-8.3c0-4.2-3-7.8-7.1-8.5c3.8-1.5,6.1-5.6,5.2-9.7
					s-4.7-6.9-8.8-6.6c3.4-2.3,4.7-6.8,2.9-10.7c-1.8-3.8-6.1-5.7-10.1-4.5c2.8-3,3.1-7.7,0.4-11c-2.6-3.3-7.2-4.2-10.8-2.1
					c2.1-3.6,1.3-8.2-2-10.8c-3.3-2.7-8-2.4-11,0.3c1.2-3.9-0.6-8.3-4.4-10.1s-8.3-0.6-10.7,2.8c0.3-4.1-2.4-7.9-6.6-8.9
					c-4.1-1-8.3,1.3-9.8,5.1c-0.6-4.1-4.1-7.2-8.4-7.2c-3.1,0-5.8,1.6-7.3,4.1c-1.9-2.1-4.9-3.3-7.9-2.7c-4.2,0.8-7,4.5-6.9,8.6
					c-2.2-3.5-6.7-4.9-10.6-3.2c-3.9,1.7-5.9,6-4.8,9.9c-2.9-2.9-7.6-3.3-11-0.8s-4.4,7.1-2.4,10.8c-3.5-2.2-8.1-1.5-10.9,1.7
					c-2.8,3.2-2.7,7.9,0,11c-3.9-1.3-8.3,0.4-10.2,4.1c-2,3.8-0.8,8.3,2.5,10.7c-4.1-0.4-8,2.2-9,6.3c-1.1,4.1,1.1,8.3,4.8,9.9
					c-4.1,0.5-7.3,3.9-7.4,8.2c-0.1,4.2,2.9,7.8,6.9,8.6c-3.9,1.4-6.2,5.5-5.4,9.6s4.6,7,8.7,6.8c-3.4,2.2-4.8,6.7-3.1,10.6
					s6,5.8,10,4.7c-2.9,3-3.2,7.6-0.7,11c2.6,3.4,7.2,4.3,10.8,2.3c-2.1,3.5-1.4,8.2,1.8,10.9c3.3,2.7,7.9,2.6,11-0.1
					c-1.3,3.9,0.4,8.3,4.2,10.2c3.8,1.9,8.3,0.7,10.7-2.6c-0.4,4.1,2.3,8,6.4,9c4.1,1,8.3-1.1,9.9-4.9c0.6,4.1,4,7.2,8.2,7.3
					c4.2,0.1,7.8-3,8.5-7c1.5,3.8,5.5,6.2,9.7,5.3s6.9-4.6,6.7-8.7c2.3,3.4,6.8,4.8,10.6,3c3.9-1.8,5.7-6.1,4.6-10
					c3,2.8,7.7,3.1,11,0.6c3.3-2.6,4.2-7.2,2.2-10.8c3.5,2.1,8.2,1.3,10.9-1.9c2.7-3.3,2.5-8-0.2-11c3.9,1.2,8.3-0.5,10.2-4.3
					c1.9-3.8,0.7-8.3-2.7-10.7c4.1,0.3,7.9-2.4,8.9-6.5C337.9,393.8,335.7,389.7,331.9,388.1z"/>

					<radialGradient id="SVGID_6_" cx="258.1" cy="804.9" r="72.6" gradientTransform="matrix(1 0 0 -1 0 1184)" gradientUnits="userSpaceOnUse">
					<stop  offset="0" style="stop-color:#F7B828"/>
					<stop  offset="1" style="stop-color:#FFD03A"/>
				</radialGradient>
				<circle style="fill:url(#SVGID_6_);" cx="258.1" cy="379.1" r="72.6"/>
				<path style="fill:#FFFFFF;" d="M258.1,441.8c-8.4,0-16.5-1.6-24.2-4.9c-7.4-3.1-14-7.6-19.7-13.3s-10.2-12.3-13.3-19.7
					c-3.2-7.6-4.9-15.8-4.9-24.2s1.6-16.5,4.9-24.2c3.1-7.4,7.6-14,13.3-19.7s12.3-10.2,19.7-13.3c7.6-3.2,15.8-4.9,24.2-4.9
					s16.5,1.6,24.2,4.9c7.4,3.1,14,7.6,19.7,13.3c5.7,5.7,10.2,12.3,13.3,19.7c3.2,7.6,4.9,15.8,4.9,24.2s-1.6,16.5-4.9,24.2
					c-3.1,7.4-7.6,14-13.3,19.7c-5.7,5.7-12.3,10.2-19.7,13.3C274.6,440.2,266.4,441.8,258.1,441.8z M258.1,320.4
					c-32.7,0-59.3,26.6-59.3,59.3s26.6,59.3,59.3,59.3s59.3-26.6,59.3-59.3S290.8,320.4,258.1,320.4z"/>
			</g>
			<g id="rating-B">
				<path style="fill:#FFFFFF;" d="M239,342.7c4.2-0.9,10.8-1.5,17.6-1.5c9.6,0,15.8,1.7,20.5,5.4c3.9,2.9,6.2,7.3,6.2,13.2
					c0,7.2-4.8,13.5-12.6,16.4v0.2c7.1,1.8,15.4,7.6,15.4,18.7c0,6.4-2.5,11.3-6.3,14.9c-5.2,4.8-13.6,7-25.8,7
					c-6.6,0-11.7-0.4-14.9-0.9L239,342.7L239,342.7z M248.6,373.3h8.7c10.2,0,16.2-5.3,16.2-12.5c0-8.7-6.6-12.2-16.4-12.2
					c-4.4,0-7,0.3-8.5,0.7L248.6,373.3L248.6,373.3z M248.6,409c1.9,0.3,4.6,0.4,8.1,0.4c10,0,19.1-3.7,19.1-14.5
					c0-10.2-8.7-14.4-19.3-14.4h-8L248.6,409L248.6,409z"/>
			</g>
			<g id="rating-A">
				<path style="fill:#FFFFFF;" d="M244.7,390.7l-7.7,23.5h-10l25.3-74.6h11.6l25.5,74.6h-10.3l-8-23.5H244.7z M269.1,383.1
					l-7.3-21.5c-1.7-4.9-2.8-9.3-3.9-13.6h-0.2c-1.1,4.4-2.3,9-3.8,13.5l-7.3,21.6H269.1z"/>
			</g>
		</g>
	</g>
	<g>

			<linearGradient id="SVGID_7_" gradientUnits="userSpaceOnUse" x1="258.05" y1="454" x2="258.05" y2="488" gradientTransform="matrix(1 0 0 -1 0 604)">
			<stop  offset="0" style="stop-color:#999999;stop-opacity:0"/>
			<stop  offset="1" style="stop-color:#E6E6E6;stop-opacity:0.8"/>
		</linearGradient>
		<rect x="160.2" y="116" style="fill:url(#SVGID_7_);" width="195.7" height="34"/>

			<linearGradient id="highlight_9_" gradientUnits="userSpaceOnUse" x1="258.0778" y1="24" x2="258.0778" y2="594.3872" gradientTransform="matrix(1 0 0 -1 0 604)">
			<stop  offset="0" style="stop-color:#999999;stop-opacity:0"/>
			<stop  offset="1" style="stop-color:#E6E6E6;stop-opacity:0.8"/>
		</linearGradient>
		<path id="highlight_4_" style="fill:url(#highlight_9_);" d="M356.1,555C356,555,356,554.9,356.1,555c0-0.2,0-0.3,0-0.5
			c0-0.1,0-523,0-531c0-11.5-43.9-13.9-98-13.9S160,12,160,23.5c0,8,0.1,530.8,0.1,531c0,0.1,0,0.3,0,0.4v0.1c-0.3,0.7,0,3.5,0,4.2
			c0,11.5,43.9,20.8,98,20.8s98-9.3,98-20.8C356.1,558.6,356.3,555.6,356.1,555z"/>
	</g>
	<path id="floor-light" style="opacity:0.18;fill:#FFFFFF;enable-background:new    ;" d="M356.1,557.2c0,10.5-43.9,13.9-98,13.9
		s-98-3.4-98-13.9s43.9-18.9,98-18.9S356.1,546.8,356.1,557.2z"/>
</g>
</svg>
