<?xml version="1.0" encoding="utf-8"?>
<!-- Generator: Adobe Illustrator 23.0.1, SVG Export Plug-In . SVG Version: 6.00 Build 0)  -->
<svg version="1.1" id="Layer_1" xmlns="http://www.w3.org/2000/svg" xmlns:xlink="http://www.w3.org/1999/xlink" x="0px" y="0px"
	 viewBox="0 0 1280 1024" style="enable-background:new 0 0 1280 1024;" xml:space="preserve">
<style type="text/css">
	.st0{fill:#E7DFDA;}
	.st1{fill:#E21A2C;}
	.st2{fill:#C20E14;}
	.st3{fill:#E9E0DB;}
	.st4{fill:#C40E15;}
	.st5{fill:#C40F15;}
	.st6{fill:#B20B17;}
	.st7{fill:#DF1A27;}
	.st8{fill:#EBE3DE;}
	.st9{fill:#F2EBE8;}
	.st10{fill:#DCD3CE;}
	.st11{fill:#DAD4CE;}
	.st12{fill:#C30F15;}
	.st13{fill:#F3EAE7;}
	.st14{fill:#C40F16;}
	.st15{fill:#E21B2B;}
	.st16{fill:#C41015;}
	.st17{fill:#DAD4CF;}
	.st18{fill:#EAE3DC;}
	.st19{fill:#C31117;}
	.st20{fill:#C21117;}
	.st21{fill:#E8DED8;}
	.st22{fill:#DF666A;}
	.st23{fill:#D9D3CD;}
	.st24{fill:#EAE1DB;}
	.st25{fill:#EDE8E4;}
	.st26{fill:#F0EFEB;}
	.st27{fill:#DD1D30;}
	.st28{fill:#C8232A;}
	.st29{fill:#E6DCD7;}
	.st30{fill:#E6E3DE;}
	.st31{fill:#C20E13;}
	.st32{fill:#E11B2B;}
	.st33{fill:#EA646D;}
	.st34{fill:#E9DFDA;}
	.st35{fill:#E01928;}
	.st36{fill:#C30F14;}
	.st37{fill:#DBD0C9;}
	.st38{fill:#C4121C;}
	.st39{fill:#DFB1AC;}
	.st40{fill:#E11E2C;}
	.st41{fill:#DBC8C0;}
	.st42{fill:#E05361;}
	.st43{fill:#E2192A;}
	.st44{fill:#DC6D7B;}
	.st45{fill:#DFD7D1;}
	.st46{fill:#E11A28;}
	.st47{fill:#C30E14;}
	.st48{fill:#E01A27;}
	.st49{fill:#E8E0DA;}
	.st50{fill:#E01A28;}
	.st51{fill:#B50C17;}
	.st52{fill:#DF1928;}
	.st53{fill:#E8DDD5;}
	.st54{fill:#EAE1DC;}
	.st55{fill:#E21A2A;}
	.st56{fill:#C30E13;}
	.st57{fill:#DB3C49;}
	.st58{fill:#DBD3CB;}
	.st59{fill:#DF1B2A;}
	.st60{fill:#DB1C2E;}
	.st61{fill:#E11B29;}
	.st62{fill:#DF1A28;}
	.st63{fill:#C40F14;}
	.st64{fill:#C41318;}
	.st65{fill:#C41417;}
	.st66{fill:#DE383F;}
	.st67{fill:#B10B16;}
	.st68{fill:#EEEAE5;}
	.st69{fill:#353839;}
	.st70{fill:#C60F17;}
	.st71{fill:#E0C8CD;}
	.st72{fill:#D86367;}
	.st73{fill:#DCD2CD;}
	.st74{fill:#DF1B29;}
	.st75{fill:#DD3740;}
	.st76{fill:#E11A2A;}
	.st77{fill:#C50E16;}
	.st78{fill:#C31118;}
	.st79{fill:#C1141B;}
	.st80{fill:#EAE0DB;}
	.st81{fill:#E7DBD5;}
	.st82{fill:#E01B29;}
	.st83{fill:#C5121D;}
	.st84{fill:#C50F16;}
	.st85{fill:#C50E15;}
	.st86{fill:#E01B2A;}
	.st87{fill:#C50F17;}
</style>
<g>
	<path class="st0" d="M607.9,136.3c20.5-18.3,45.2-28.1,71.5-34.3c14.4-3.4,26.1-16.7,42.8-11.8c-9.6,19.8-28.6,24.4-45.1,29.4
		c11.5-1.3,25.6-3.1,34.7,11.5c5.5,8.9,13.6,4.4,20.9,3.3c20.6-3.1,22.7-1.6,20.1,19c-1.2,9.8,4.6,10.6,10.9,11.3
		c10.9,1.3,18.8,5.3,19.4,17.7c0.3,6.2,6.8,8.7,9.2,13c10.7,19.4,31.6,34.6,26.4,60.9c-0.4,2.1-1.2,4-2.2,5.9
		c-27.2,32.3-63.3,35-101.5,30.3c-7.9-1-14.5-4.9-18-12.7c-7.8-16.4-11.8-36.6-36.9-34.8c-1.3,0.1-3.6-0.6-3.7-1.5
		c-3.7-17.8-20.2-20.4-31.9-29.2c-6.8-5.1-10.9-11.7-20.9-13.1c-10.6-1.5-5.6-12.6-7.8-19.3c-0.6-1.8-1.2-3.6-1.9-5.3
		c-4.9-6.8-3.8-13.1,1.9-18.7C601.8,151.9,604.2,143.7,607.9,136.3z"/>
	<path class="st1" d="M815.3,258.5c-2.8-12,8-31.2-17-31.7c-3.6-0.1-6.1-4.9-3.7-8.1c9.8-13.5,3-17.9-9.9-21
		c-6.4-1.5-11.7-6.9-8.3-14.3c6.1-13.2-3.8-12-10.9-13.1c-26.5-3.7-27.8-6.8-11-29c-9.1-8.7-18.3,0.2-27.1-0.2
		c-8.6-0.5-23.9,10.8-21.5-11.7c0.4-3.7-6.6-4.2-10.7-4.3c-10.9-0.1-21.8,0-33.1-1.9c20.8-10.3,43.1-16.9,60.1-33
		c9-0.6,18.1-0.8,27-1.9c38.9-4.7,74.4,10.8,111.1,18.6c-6.4,13.8-14.1,16.5-38.7,13.6c14.5,8.5,14.5,8.3,42.9,10.6
		c10.3,0.8,22.5-0.3,18,17.3c-2.3,9,6.3,7.6,11.2,7.6c14.2,0,26,1.8,30,19.1c1.7,7.4,10.5,11,17.7,13.7
		c16.9,6.2,26.8,19.1,34.5,34.3c-4.5,9.7-13.8,8.4-21.7,8.7c-9.8,0.4-19.4,1.8-28.9,4c-33.1,1.4-66,3.1-95,22.1
		C825.7,261.2,820.6,263.5,815.3,258.5z"/>
	<path class="st2" d="M139.3,377c-35-11.3-55.6-41.4-82-63.7c-12.3-10.4-8.8-16.8,7.8-26.2c1.5-0.8,3.2-3.5,2.9-4.7
		c-6.4-22.6,11.9-17.7,23.2-22c25.5-9.7,50.3-21.3,75.7-31.3c20.2-7.9,40.8-14.6,61.2-21.9c5.5-1.1,10.5-4.1,16-5.1
		c14.6-2.7,24.9,1.7,26.9,18.2c0.9,7.7,1.7,15.4,3.9,22.8c3.3,11.1,3.8,20.9-9.7,25.8c-7,2.5-8,9.3-10.2,15.1
		c-18.3,8-23.7,22.2-21.7,41.5c1.8,16.9-8.4,29.1-20.7,38.7c-11.7,9.1-20.4,4.7-23.3-10.5c0.7-2.7,1.7-5.3,3.3-7.6
		c3.3-5.1,8.2-8.9,12.9-14.4c-12.7,12.7-24.5,24.6-35.6,37.1c-9.2,10.5-16.2,10.2-25.5-0.1c-18.1-20-38.3-37.8-49.7-49.2
		c10.1,8.9,26.6,26.7,44.4,43.2c4,3.7,8.1,8.2,3.8,14.5c-0.3,0.4-1.1,0.6-1.7,0.5C140.6,377.7,140,377.3,139.3,377z"/>
	<path class="st3" d="M252.5,284.2c-2.4-8.2-5.9-19.5,5.8-20.3c20.9-1.3,13.6-11.6,9.8-22c-0.7-2-1.5-4-1.9-6
		c-6.6-33.2-6.6-33.2-38.1-28.7c26.7-14,56.3-7,84.3-11.9c4.7-1.8,7.6,0.7,10.2,4.2c-0.3,2.2,7,50.5,7.3,53.4
		c1.4,11.7,8.8,7.8,15.4,6.2c1.9-0.4,3.9-0.6,5.9-0.6c14,0.8,25.5,3.8,19.5,21.9c17.2-9.6,27.9-18.3,31.7-26.8
		c8.3,3.7,8.2,12.1,10.9,18.6c0.8,3.1,1.3,6.2,1.5,9.3c0.2,6.5,0.2,13-3.3,18.9c-7.4,7-14.9,3.9-22.6,0.6c-9.4-4-18.8-8.3-29.3-4.5
		c-10.1,7.3-24.7,10.1-26.4,26c0,2.9-0.6,5.6-1.6,8.3c-3.5,14.8,4.8,20.9,17.6,23.6c5,0.7,10.2,1,14.3,4.6c0.9,2,0.9,3.9,0,5.9
		c-5.9,5-13.3,3.9-20.1,4.8c-4.7,0.3-8.5,2.6-11.8,5.9c-5.1,7-12.9,12.2-13.2,22c3.5,6.7,9.8,10.7,14.8,16
		c6.8,7.4,15.5,13.5,17.1,24.6c-6.5,16.3-14,19.2-29.7,9.7c-13.1-7.9-25-17.7-38.5-25.1c-6.8-3.7-14.2-7.4-21.5-1.9
		c-6.5,4.9-5.2,12.4-4.2,19.3c1.5,9.6,4.4,19.2-1.2,28.5c-6.8,5-12.4,1.4-18-2.5c1.9-8.6,3.6-17.3,5.6-25.9
		c3.1-13.3-3.5-15.6-14.5-13c-7.7-2.7-14.5-6.5-18.3-14.3c5.9-19.8,23.8-26.4,39.2-35.5c26.2-15.5,32.9-53.3,12.9-75.7
		C257.5,296.8,251.4,292.4,252.5,284.2z"/>
	<path class="st4" d="M759.7,900c-6.5,10.9-20.4,13.5-26.8,25.6c-3.4,6.5-10.9,0.5-14.8-4.9c-9.7-17.9-7.9-41-24.7-55.8
		c-3-8.6-6.5-17.2-12.1-24.3c-33.5-42.2-32.8-91.2-26-140.2c5.5-39.8,7.3-79.3,3.5-119.1c-0.4-7.3,1.7-13.9,6.1-19.7
		c9.2-3.9,9.1-22.8,25.2-15.7c9.1,11.9,8.5,26.6,9.7,40.2c3.8,41,6.9,82.4-3.3,122.9c-9.8,38.9-7.8,73.9,21.9,105.2
		c13.7,14.4,24.5,32.2,32.4,51.1C757.7,875.8,764.3,886.5,759.7,900z"/>
	<path class="st5" d="M928.4,233.2c13.4-13.1,31-2,45.6-8.1c17.5,7.6,36.4,12.6,50.7,26.3c33.6,20.8,67.3,41.6,100.9,62.4
		c5.7,11.5-2.4,11-9.3,9.9c-12.7-2.1-22.6-10.2-30.8-15.1c17.3,12.7,35.4,28.7,48.1,50c13.2,13.9,22.9,30,30.1,47.6
		c2.6,6.3,6.8,12.6,2.7,19.9c-8.3,5.5-11-2.8-14.8-6.7c-11.8-11.9-23.7-23.8-35.6-35.6c-7.5-7.8-15.3-15.3-20.4-25
		c-34.1-35.1-71-66.4-117.7-84c-33.1-12.5-67.5-11-101.8-9c-11.1-6.7-8.6-12.9,1.2-17.9c8.9-4.5,18.6-5.6,28.5-5.1
		C914.9,243.3,921.2,237.1,928.4,233.2z"/>
	<path class="st2" d="M329.4,832c-7.3-3.2-7.1-11.9-12.5-16.5c-20.8-29.4-36.5-60.9-39.5-97.4c-1.3-16-10.3-30.5-8.7-47
		c2.7-29.3-6.4-56.9-12.6-84.8c-5.9-26.5-3-53,0.1-79.5c2.1-18.2,4.8-19.3,22.5-9.9c1.9,1.1,3.6,2.4,5.2,3.9
		c14,21.1,36.7,34.5,49.8,56.5c1.8,4.5,4.6,8.7,5.9,13.4c2.4,8.3-0.8,15.1-7,20.5c-6.6,5.7-12.6,1.1-19.3-0.8
		c-6.7-1.9-9.4-17.1-19.8-6.3c-6.8,11.4-1,23.2-0.3,34.5c1.5,24,2.5,48.2,9.9,71.5c7.2,29.6,13.4,59.4,21,88.8
		c6,14.7,17.4,26.8,20.4,42.9C343.7,831.4,336,830.9,329.4,832z"/>
	<path class="st6" d="M252.5,284.2c4.2,4.7,8,9.8,12.8,13.9c13.4,11.5,26,22.6,10.4,41.6c-2.5,3.1-1.5,9.6-1,14.4
		c1.6,12.5-4.1,19.4-15.3,24.1c-19,8-35.7,19.3-47.7,36.6c-16,4.3-24.9-6.5-34.3-16.1c-8.1-1.2-11.2-9-17.3-12.9
		c9.1-13.8,15.8-30,34.3-34.4c0.8,3.9-3.9,8.8,0.5,11.5c4.2,2.6,10.7,2.8,13.7-1c8.8-11,23.1-19.5,19.7-37.2
		c-0.8-4.1,0.4-8.5-0.2-12.6C225.4,293.1,231.8,282.4,252.5,284.2z"/>
	<path class="st7" d="M747.6,870c-13.5-27.8-34.1-50.8-51.5-76c-16.3-23.6-14.2-50.6-7.6-76.7c14.4-57.5,8.8-114.7-0.5-172
		c-1.3-10.9,3.5-18.7,13.4-22.4c6.7-2.5,11.7,1,14.1,7.8c4.2,56.7,8.3,113.3,1.8,170.1c-0.6,5.6-0.1,11.3-2.5,16.5
		c-8.6,26.4-6.5,51.5,9.4,74.9c6.9,10.2,16.3,19,18.3,32c3.1,6.9,8.5,11.7,14.2,16.3C767.8,854.9,757.7,862.5,747.6,870z"/>
	<path class="st8" d="M1024.8,251.4c-17.3-7.9-38-9.4-50.7-26.3c-11.2-14.9-21.6-29.8-41.9-35.1c-5.8-1.5-23.2-4.2-15-21.4
		c2.8-5.8-5.9-5.7-10.1-6.6c-12.2-2.4-25.1,0.7-36.9-4.6c-1.4-9.6,10.2-8.9,11.9-19.6c-21.8-5.1-48.6,5.2-66.3-17.1
		c3.8-0.9,8.6-2.2,13.4-3.1c5.5-1,11-1.9,16.5-2.4c6.3-0.5,13,0.4,14.7-8.2c20.4,1.6,45,11.8,50.3,25c14.6,37.1,51.9,36.3,76,56
		c8,6.5,17.8,6.7,31.6,9.9c-20.1,6.5-17.1,15.5-8,25.7C1017.4,231.6,1027.7,238.1,1024.8,251.4z"/>
	<path class="st9" d="M607.9,136.3c3.4,8.6,0.4,15-6,21.4c-4.6,4.6-10.3,10.5-2.9,17.7c-9.9,8.5-19.4-5.6-29.2-0.5
		c-11.5,11.8-26.4,21.6-22.1,41.7c-0.1,2-0.4,3.9-1,5.8c-14.7,33.5-14.6,33.3,14.6,57.3c12,9.9,23.6,20.3,23.8,37.8
		c-0.6,3.2-2.3,5.7-5,7.5c-15.7,5-27.6-6.6-41.4-9.8c-16.2-3.8-30.9-12.6-46.3-19.2c-5.4-2.3-10.2-4.8-10-11.7
		c1.8-11.2,11.2-16.7,18.2-24.1c13.4-14.2,15-30.4,4.8-45.9c-3-4.6-9.4-7.7-7-14.9c7.9-2,14.1-8.5,23.9,0.5
		c7.2,6.6,11.9-6.2,11.1-11.2c-2.8-16.6,13.8-22.9,20-24.8C573.7,158.1,590.4,146.8,607.9,136.3z"/>
	<path class="st10" d="M1033.9,790c-10.7,4.3-22.6,6.4-29.8,16.8c-14.3,6.4-24.5-1-32.7-11.2c-12.3-15.3-26.3-29.2-38.7-44.5
		c-3.5-4.4-7.1-8.6-11.9-11.8c-16.5-11.3-16.4-11.4,0.3-24c12.6-11,24.7-6.4,35.5,2.5c10.5,8.7,19.4,18,34,6.6
		c4.4-3.4,10.6,0.2,15.3,3.5c8.5,8.8,22.4,10.4,29,21.7c2,8.2,5.7,15.9,9.5,23.2C1051.5,786.2,1043.3,788,1033.9,790z"/>
	<path class="st11" d="M1122.5,726.9c-15.4,7.7-21.9,20.3-21,37.3c0.3,6.1,1.4,12.8-4.4,17.5c-13.9,6.5-23.1-0.9-29.2-11.8
		c-4.5-8-9.9-15-15.7-21.9c-4.7-9.4-10.2-18.2-16.4-26.7c-13.8-19.2-13.1-23,4.6-37.5c13-32.6,13-32.7,40.7-8
		c6.3,5.6,13.2,10.1,20.9,13.3c5.6,2.8,12.2,3.2,17.3,7.2C1124,706.1,1136.9,715.1,1122.5,726.9z"/>
	<path class="st12" d="M388.1,831.3c-2.7,0.4-5.3,0.8-8,1.1c-21.6,7.1-20.9-13.9-29.3-23.4c-13.9-34.3-33.5-66.2-42.2-102.6
		c-7.4-28.7-9-57.7-3.1-86.8c2.3-3.5,5.5-4.5,8.3-1.2c6.3,7.6,13.7,12.5,23.5,15c14.7,3.7,8.1,10.3,1.1,16.2
		c-1.4,7.3,4.7,13.2,3.6,20.3c-5.3,27.6,11,50,18.4,74.4c3.4,11.2,9,22,14.8,32.4c4.5,15.6,12.3,30.1,15.8,46.1
		C391.3,826.1,390.7,829.1,388.1,831.3z"/>
	<path class="st13" d="M409.1,271.3c-2-4.1-4-8.3-6.7-14c-1,8.6-1.8,15.7-2.7,22.8c-12.3-11.2-21.1,7.2-32.5,3.8
		c-1.8-0.5-5.9,1.5-2.7-3.8c12.1-19.8-6.4-14.5-14.7-17.5c-2.4-6.5-0.2-12.6,3.2-17.6c9-13.6,7.6-25.7-3.2-37.3
		c-8.5-4.9-19.6-0.1-27.5-7.4c-3.3-1.7-6.6-3.3-9.8-5c20.8-4.9,40.9-13.5,63.5-6.6c13.7,4.2,28.2,0.1,41.8-3.6
		c5-1.4,9.1-3.4,13.1,1.3c-13.6,15.4-11.8,34.1-11.1,52.5C418.9,250.6,421.2,263.3,409.1,271.3z"/>
	<path class="st14" d="M708.3,720.3c3.9-29.1,6.9-58.3,6.6-87.8c-0.4-34.6-5.9-69.1-1.7-103.8c4.3-16.4,13.2-13.6,23.4-5.7
		c6.6,21.6,21.6,42.4,6.3,66.1c-7.1,5.3-3.2,12.7-3.4,19.3c-0.4,11.6,3.2,23.7-4.9,34.2c-9.8,49.3-21,98.6,2.8,147.3
		c1.1,2.3,0.7,5.4,0.9,8.1c-11,2.5-14.6-6.3-18.7-13.2C708,764.8,704.3,743.2,708.3,720.3z"/>
	<path class="st15" d="M282.9,503.3c-8,1-11.4-7.3-19.9-9.8c-2,39.1-9,76.8,5.4,115.7c7.1,19.1,8.9,42.1,5.8,63.8
		c-0.7-0.1-1.9,0-2-0.3c-9.3-23-28.5-40.6-35.1-65c-10.3-47.1-3.7-94.3,0.1-141.4c6.3-2.5,10.8,3,16.4,3.5
		C266.2,478.4,285,481.7,282.9,503.3z"/>
	<path class="st16" d="M531.8,896.1c-13.6-9.3-13.6-9.3-17,4.9c-1.4,5.7-1.5,5.7-16.2-1.4c-20.3-11.4-22.2-33.9-31.3-52
		c-4.8-19.6-9.2-39.2,3.7-57.7c22.5-2.8,39.7,6.3,52.8,24.1c2.8,23,1,46.8,13,68.2C539.3,886.9,542.2,894.7,531.8,896.1z"/>
	<path class="st17" d="M1100.5,357.1c2.9,10.4,13,15.1,18.4,23.6c12.7,25.6,34.6,45.4,45.6,72.1c17.7,35.9,49.1,63.4,65.5,106.3
		c-28-16.6-43.2-38.2-58.5-59.5c-9.3-12.9-15.4-28.1-27.8-38.7c-5.6-19.1-17.8-34.6-28.9-50.4c-2.6-3.6-8.3-15.5-16.9-4.1
		c-7.4-12.4-13.5-25.5-19.4-38.6C1083.8,360,1088.2,350.2,1100.5,357.1z"/>
	<path class="st11" d="M1093.6,490.7c10.1,16.8,21.3,35.4,32.6,48.4c17.2,19.7,28.6,44,48.2,60.9c10.5,9.1,2.4,22.2,11.4,29.9
		c5.9,16.8,17.2,33.7,0.1,50.6c-23.9-6.6-35-21.3-33-44.2c16.5-22.3-0.4-37.1-13.1-50.9c-17.7-19.3-33.9-39.4-45.9-62.6
		C1088.4,512.7,1080.8,501.3,1093.6,490.7z"/>
	<path class="st18" d="M237.1,607.7c13.5,21.1,32.8,39,37.1,65.3c8.6,49.2,16.4,98.6,42.7,142.5c-7,0.2-10.2-5.4-12.1-10.2
		c-13-31.3-35.8-57.1-46-90.7C248,679.4,236.1,645.1,237.1,607.7z"/>
	<path class="st19" d="M810.9,679.6c-5-7.4-9.6-15.1-17.1-20.3c-14.1-10.7-23-25.2-29.5-41.5c4.1-20.3,10-22.3,35.7-12.4
		c16.8,24.1,29.6,50.7,46.5,74.8c4.1,5.9,12.6,12-0.9,17.1c-6.1,1.2-12.3,1.4-18.3-0.3c-1.5-1.2-3-2.4-4.6-3.7
		C816.5,690.8,812.1,686.6,810.9,679.6z"/>
	<path class="st20" d="M637.6,920.9c-5.4-19.4-7.4-39.8-17.9-57.6c-4.8-8-14.9-14-9.6-25.7c10.5-8.5,15.2,2.2,20.5,7.1
		c12.7,12,23.1,26.4,37.8,36.2c14,14.4,9.4,29.7,2,45.1c0.3,5.7,3.8,14.5-8,8.4C654.1,930.1,645.9,925.4,637.6,920.9z"/>
	<path class="st21" d="M387.1,824.2c-6-16.7-12-33.3-18-50c1.8-2.2,6.4,1.8,5.4,0c-5.1-10.1-7.2-21.1-10.8-31.7
		c-1.4-4.2-3.9-10.2,2.8-12.5c5.4-1.8,9.5,1.9,12.2,6.1c8.9,14.4,13.2,30.7,19.7,46.2c4,11.3,13.2,19.6,17.5,30.5
		c6.9,17.4,13.4,35.1,2.1,53.3c-2.8-1.5-5.6-2.9-8.4-4.4c-13.8-2.6-19.2-11.4-19.1-24.9C390.5,832.6,392.9,827.2,387.1,824.2z"/>
	<path class="st22" d="M414.1,237.7c0.1-10.4,0.3-20.8,0.4-31.2c0.1-11,4.2-18.8,16.3-20.2c22.6,4.1,46.5,1.4,67.6,13.2
		c3.1,3.9,6.1,7.9,9.2,11.8c-17.1,5.1-34.9,8.2-52.4,9.5C438.8,222.1,423.9,222.4,414.1,237.7z"/>
	<path class="st23" d="M827.3,697c5.3-1.1,10.7-2.2,16-3.3c15.6,2.2,19.4,16.7,27.8,26.5c6.3,7.4,9.3,20.5,23.9,15.2
		c10.1,9.9,0.6,14.7-8.4,21.8c19.8,0.6,20.7,17.8,34.2,27.5c-8.4,0.6-13,0.9-17.6,1.3c-28.3-19.9-42.5-51.8-65.2-76.5
		C834.2,705.5,830.8,701.2,827.3,697z"/>
	<path class="st2" d="M194.3,351.3c-14.6,8.3-19.8,26-34.3,34.4c-7.4-1.6-14.8-3.4-20.7-8.7c1.4-17-15.1-20.9-23.4-30.5
		c-12.8-15-28.2-27.9-40.9-43.2c28.9,13.2,47.4,38.2,69,59.5c9.7,9.6,14.4,12.4,24.9,0.3c14-16.1,28.7-32.3,49.4-46.9
		C215.8,334.7,199.7,339.3,194.3,351.3z"/>
	<path class="st24" d="M531.8,896.1c6.6-1.5,4.8-6.2,2.6-9.4c-14.9-21.8-14.4-46.5-14.6-71.3c2-1.3,4-1.5,6.2-0.5
		c6.4,3.4,11.6,8.5,13.6,15.2c6.7,22.9,20.4,43.9,18.5,69.1c-0.6,0.5-1.1,1.1-1.5,1.7C548,900.2,537.7,909.2,531.8,896.1z"/>
	<path class="st25" d="M747.6,870c1.5-10.2,16.6-16.3,9.1-29.3c14.8,15.6,19.4,35.7,23.7,55.7c1.3,5.9-3.1,11.4-8.6,13.1
		c-7.4,2.3-6.9-7.6-12.1-9.5C754.3,890.6,756.3,878.2,747.6,870z"/>
	<path class="st26" d="M1131.1,359.8c-17.8-17.9-33-38.5-56.5-54.3c17.6-0.8,28.3,9.7,41.3,13.3c5.1,1.4,11.4,6.2,9.8-5
		c5.4,2.8,18,4.7,9.8,12.5c-12.4,11.6-1.8,19.7-0.2,29.3C1136.9,359.9,1135,360.8,1131.1,359.8z"/>
	<path class="st25" d="M708.3,720.3c0.2,29.7,5.5,57.5,30,77.8c4.8,8.2,21.4,14.6,4.2,26.4C715.4,794.9,693.4,763.6,708.3,720.3z"/>
	<path class="st27" d="M418,866.2c4.5-25.4-1-48-18.2-67.9c-3.7-4.3-8.6-9.5-6.4-16.7c0.9-3.3,2.8-5.7,6.3-6.6
		c3.4-0.4,6.5,0.5,9.2,2.7c12.8,16.6,18.1,35.8,18.7,56.4c0.4,11.8,0.3,23.6,1.9,35.4c-0.3,2.3-1.2,4.3-2.7,6
		C421.6,874.6,421.3,869,418,866.2z"/>
	<path class="st28" d="M342.4,823.2c7.9,10.9,18.8,20,20.7,34.5c-15.5-2.9-22.4-17.3-33.7-25.7C330.4,824.2,339.5,828.3,342.4,823.2
		z"/>
	<path class="st29" d="M434.3,835.7c1.8,15.7-1.5,32,4.7,47.3c-4.1-2.5-8.2-4.9-12.3-7.4c-0.5-0.6-0.7-1.3-0.6-2.1
		c4.8-7.1-1.2-14.3,0.2-21.5C427.7,845.7,424.9,837.9,434.3,835.7z"/>
	<path class="st30" d="M810.9,679.6c5.3,3.4,9.3,7.9,11.8,13.7c-4.2,1.7-8.2,5.3-12.8,0.8C804.5,688.9,808.9,684.3,810.9,679.6z"/>
	<path class="st31" d="M578.5,322c1.2-1.4,2.4-2.9,3.6-4.3c10.9-1.9,25.2,10,32.4-4.1c7.3-14.3-4.7-26.2-13.8-34.5
		c-14.2-12.8-24.7-33.8-49.8-29.2c-4.9,0.9-5.7-5.3-6.5-9.3c-1.3-6.9-0.8-13.9-1.1-20.9c-0.3-1.4,0-2.5,1-3.5
		c6.4-5.1,12.6-8.1,20.9-2.8c24.8,15.9,51.3,28.9,76.9,43.5c7,4,16,7.2,14.4,18.3c-6.5,9.1-7.2,19.4-6.2,30.1
		c0.5,5.9-2.9,14.4,7.4,13.7c9.2-0.6,18.8-2.8,18.6-15.5c-0.2-10-4.2-19.1-6.5-28.7c10.6-15.6,20.9-3.1,31.3,0.3
		c1.1,5.8,3.3,10.9,10.2,11.1c30.3,1.1,61.4,7,87.5-15.7c5.2-4.5,11.1-8.2,16.7-12.2c16.9-8.5,33-19.4,52.2-21.9
		c20.2-2.6,40.1-11.8,60.9-3.4c-4.9,12.3-11.4,18.1-27,15.6c-8.3-1.3-25.7-5.5-27.8,13.4c-17.1,16.2-41.2,18.2-60.5,30.1
		c-10.3,6.4-16.3,12.3-11,24.6c1.9,12.2,1.4,24.5,0.8,36.8c-0.7,4.4-2,8.5-5.6,11.4c-8.9,3.2-14.6-1.8-19.9-7.8
		c-10.1-11.7-21.7-22-28.1-28.8c12.1,11.4,27.1,28.3,42.9,44.7c1.1,6.7-1.5,12.4-4.9,17.8c-4.4,4.9-8.8,10-16.6,7.4
		c-40-24.9-78.7-18.7-113.4,8.9c-29.1,23.1-63,19.3-95.7,23.9c-8.7,1.2-17.2,1.1-22.2-8.1c12.1-19.2,16.3-40.5,16.8-62.8
		C556.6,343.4,567.8,332.8,578.5,322z"/>
	<path class="st32" d="M654.2,274.1c-7.7-12.7-22.3-14.9-33.4-22.5c-19.4-13.1-42.4-20.2-60.1-35.8c-6.1-5.4-10.9,7.5-16.4,0.4
		c-8-7.9-4.5-15,1.4-21.9c6.8-8,13.5-16,20.3-24c8.9,11.4,22.2,5.4,33.2,8.4c9.5,6-1.5,12.4,0.6,19.1c7.8,1.5,15.5-4.7,23.7-1.2
		c11.7,5,1,13,2.8,20.3c5.5-0.3,10.9-0.5,16.4-0.8c11.1-0.7,19.9-1.3,12.9,15.2c-6.2,14.7,6.4,12.1,14,10.5c9.4-2,18.6-9.2,16,10.2
		c-1.1,8,19.5,8.9,15.5,23.4c-4.7,2.2-8.9,5.4-14.1-0.4c-4.6-5.1-10.6-4.9-15.7,0.4C665.2,279.2,659.5,279.1,654.2,274.1z"/>
	<path class="st33" d="M599.2,178.6c-2.8,0.2-6.6-0.6-8.2,0.9c-14.8,13.7-21.2,5.9-25.1-9.2c13.3-12.9,21.1,9.4,33.1,5.2
		C599.2,176.5,599.2,177.6,599.2,178.6z"/>
	<path class="st34" d="M141.1,261.4c16.8,0.1,30.7,13.7,30.9,30.3c0.2,17.3-14.7,31.7-32.3,31.1c-16.5-0.6-30-14.9-29.5-31.4
		C110.7,274.2,124,261.3,141.1,261.4z"/>
	<path class="st35" d="M347.1,435.8c-6.1-6.9-12.2-13.8-18.3-20.7c-1.3-4,1.1-5.4,4.4-6.2c10.1,1.1,17.9,7.7,27.1,10.6
		c-6.5-4.7-14.4-7.7-20.5-13.4c-3.5-3.3-8.4-6.7-5.5-12.2c2.6-5,8.4-4.8,13.3-3.8c13.1,2.6,25.5,7.8,39,12.1
		c-10.6-5.3-21.2-8.5-31.5-12.3c-4.6-1.6-12.1-2.4-7.8-10.9c3.5-2.5,7.4-3.3,11.5-3.6c12.3,0.4,24.6-1.2,37,1.9
		c4.7,1.2-1.9-2.8,0.2-4.2c4.1-6.6-1.7-6.3-5.2-7c-9.2-2-19.5,0.8-27.7-5.9c-5.2-0.3-10.4-0.6-15.6-1c8.8-17.4,25.3-10.1,38.7-12.1
		c1.3,0,2.8,0.4,4,0c1.8-0.5,1.4-0.1-0.8-0.2c-12.3-0.4-24.7,1.4-37,0.4c-4.4-0.4-10.9-1.3-9.7-7.7c0.8-4.7,7.1-2.3,10.5-4.3
		c9-1.3,17.8-5.3,27-2c-9.7-3-19,0.4-28.5,2.1c-2.7,0.9-5.5,0.9-8.2,1.3c-4.3,0.7-9.1,0.8-9.8-4.5c-0.5-3.9,3.7-5.8,7.1-6.3
		c9.7-1.7,18.2-6.6,26.9-10.2c-0.1,0-0.6-0.3-1-0.2c-8,2.4-17,13.3-23.7,4.8c-5.8-7.4,8.7-12.4,10.5-20.5c-0.1-2.6-0.2-5.2,1.2-7.5
		c12.9-10.2,25.4-2.5,35.9,3.4c6.5,3.7,12,4.6,18.6,4.6c12.8,8.3,30,13.7,21.9,35c17,23.3,6.4,50.3,10,75.4
		c-0.7,5.7-4.6,8.9-9.2,11.6c-9.6,7.2-15.8,15.6-11,28.6c2.2,6,1,12.4-0.7,18.6c-6.2,22.6-6.4,45.5-3.7,68.6
		c1,8.4,2.3,17.6-10.5,18.5c-14.8-7.3-18.8-22.3-25.3-35.5c1.9-22.1,12.8-42.7,12.9-68.4c-15.6,14.1-11.4,35.5-25.5,46.7
		c-12.9-0.5-15.9-11.3-21-20C342.5,465,358.7,450.4,347.1,435.8z"/>
	<path class="st2" d="M347.1,435.8c6.8,4.2,19.9,4.4,8.7,18.5c-4.5,5.7-3.7,15.7-5.3,23.7c-6.4,2-8.1-4.2-13.2-7.8
		c8.8,14.6,17.6,27.1,27,39.4c5.1,6.7,15.2,15.2,6.2,23.6c-8.8,8.1-16.3-1.8-23.8-7.1c7.2,11.8,10.8,22.8-8.3,26.3
		c-23.6-10.5-36.3-33.5-55.4-49.1c0,0-0.1,0-0.1,0c-2.5-17.6-23.9-18.5-29.4-33.4c2.4-10.6-1.7-20.6-3.1-30.9
		c-1.2-8.7-4.3-18.1,5.3-24.7c9.1-6.2,17.4-2,25.6,1.9c14,6.5,25.7,16.5,38,25.6C329.4,449.3,341.9,456.5,347.1,435.8z"/>
	<path class="st1" d="M414.1,237.7c2-18.9,12.2-25.2,30.6-21.4c11.9,2.4,23.6-1.9,34.7-5.7c9.8-3.3,18.9-3,28.2,0.8
		c14.5,8.1,13.8,39.2-1.7,52.2c-7.5,6.3-15.9,11.5-20.3,20.7c-3.2,3.3-2.5,10.7-10,9.7c-21.4-7.3-45.5-2-65.8-14.3
		c-0.2-2.8-0.5-5.6-0.7-8.4C410.8,260.1,412.4,248.9,414.1,237.7z"/>
	<path class="st36" d="M409.8,279.7c22.7,3.8,47-0.8,67.7,12.9c8.9,15.3,7.9,29.7-6.1,40.9c-10.7,8.5-9,19.6-9.5,30.5
		c-0.8,19.5-4,37.7-24.5,46.8c-5-10.7-3.2-22.2-1.8-33c1.8-13,2.1-24.6-8.2-34.4c-1.4-1.3-3.2-4.2-2.7-5
		c13.2-20.4-10.3-25.5-15.6-38C407.9,293.5,407.3,286.5,409.8,279.7z"/>
	<path class="st37" d="M347.3,381.4c10.3,7.7,23.8,6.8,34.5,12.9c5.3,3,17.6,1.5,14,11c-2.6,6.9-12.5,1.6-18.8-0.2
		c-13.8-3.9-27.5-8.7-46.4-14.8c15.3,18.1,33.1,22.3,51.7,35.9c-23,3.2-35.7-7-49-15.4c-7.3-3.5-13.2-9.2-20.4-12.9
		c-0.2-12.2,8.8-18.4,16.5-25.4C335.7,374.7,343.9,373.3,347.3,381.4z"/>
	<path class="st38" d="M322.3,200.2c10.9,0.5,23-7.6,32.5,4.1c2.9,3.3,2.1,7.2-0.4,9.4c-16.5,14.1-15.1,30.9-8.2,48.8
		c-6.2,3-12.4,5.9-21.1,10.1c1.4-17.8-2.7-30.4-13.9-42.5C299.3,217.2,321.9,211.7,322.3,200.2z"/>
	<path class="st39" d="M359,296.7c5.1,14.5-13.3,13.1-15.1,23.9c12.5-1.4,22.6-12.2,38.4-10.8c-13.7,13.2-30.5,15-44.6,22.5
		c3.8,4.2,8.5,1.4,12.7,1.7c4.1-1.3,5.1,0.3,3.6,4c-2,0.5-5.1,0.3-5.9,1.6c-3.2,5,1.9,3.3,3.6,3.4c17.9,1.2,36.3-2.3,54.3,5.7
		c-5.8,4.8-11.8,2.9-17.6,2.5c-11.5-4.4-23-0.4-34.5,0.1c-14.7,0.7-25.3-3.8-24.7-21.1c0-2.6,0.1-5.2,0.1-7.8
		C334.2,308.1,346.4,302.2,359,296.7z"/>
	<path class="st40" d="M346.2,262.5c-16-18.6-16.3-28.6-1.3-46c3.4-4,9.8-5.5,9.9-12.2c21.2,21.4,2.5,39.4-5,58.3c0,0-1.8,0-1.8,0
		L346.2,262.5z"/>
	<path class="st41" d="M329,330.1c4,13.5,13.7,17.2,27,17.3c10.7,0.1,22.3-4,32.3,3.7c-13.6,2.7-28.7-1.8-40.8,8.3
		c-14.1-0.2-18.2-11.9-24-21.2C320,332.6,324.8,331.2,329,330.1z"/>
	<path class="st41" d="M363,360.4c16.8-1.3,33.2,0.9,49.9,5.3c-3.9,8.7-12,3.2-16.8,6.7c-10,7.1-20.7,4.5-31.4,2.4
		c-3.7-2.5-4-5.8-1.9-9.5C362.9,363.7,362.9,362,363,360.4z"/>
	<path class="st41" d="M347.3,381.4c-4.4-6.1-17.1,4.4-17.9-8.9c1.9-4.2,4.3-7.8,9.6-7.9c6,6.2,17.6,0.5,21.8,10.3
		c0.2,2-0.4,3.7-1.9,5C355.1,380.5,351.2,381,347.3,381.4z"/>
	<path class="st42" d="M359,296.7c-9.9,8.6-19.9,17.1-29.8,25.7c-3.7-20.5,17.4-19.7,25.6-29.8C356.2,293.9,357.6,295.3,359,296.7z"
		/>
	<path class="st43" d="M359.1,376.5c-4.4-7.9-17.3-1.2-20.1-11.8c7.9,0.2,15.8,0.5,23.7,0.7c0.5,2.4,1,4.8,1.6,7.2
		C364.2,376,363.3,378.4,359.1,376.5z"/>
	<path class="st44" d="M312.9,398c10.4-1.4,16,4.9,20.4,12.9c-1.5,1.4-3,2.9-4.5,4.3C321.4,411.4,316.5,405.3,312.9,398z"/>
	<path class="st45" d="M772.8,398.8c3.9-3.4,7.8-6.9,11.7-10.3c12.8,7.7,15.9,22,17.9,34c7.9,47.6,30.6,86.4,64.7,119.4
		c2.9,6.9,0.7,12.9-2.8,18.8c-4.7,7.2-5.8,15.3-6.6,23.7c-0.9,9.5-3.9,17.7-15.4,18.9c-13.9-1.2-29.1-13.2-40.6,5.2
		c-6.6,2.6-11.4-3.3-17.2-3.8c-11.9-1.1-20.6,1.5-16.1,16.6c-2.7-1.4-5.4-2.7-8.1-4.1c-12.5-23.3-9.7-49.6-14.7-74.4
		c-1.6-7.9,0.4-17.6-11.4-19.4c-8.5-4-16.2-5.1-21,5.3c-21.1-13.6-16,12.4-25.2,16.7c-11.2,1.1-6.8,19.7-20.3,18.2
		c-12.6-4-15.2-14.9-18.2-25.9c-6.6-23.9-6.6-48.1-3.8-72.5c0.8-7,1.6-13.9-1-20.7c29.5-18.3,53.3-52.4,96-35.1
		C754.2,415,761,399.2,772.8,398.8z"/>
	<path class="st46" d="M696.6,865.9c-8.7-0.8-17.6-2.7-24.6,4.9c-6.3,3.1-12,3.1-17-2.6c-32.7-33.5-37.1-74.5-32.5-118.5
		c5.4-51.4,10.9-102.8,15.1-154.3c5.6-9.4,12.9-16.4,24.5-17.3c9.2,31.7,7.3,64.3,2.5,95.7c-6.1,40.5-9,80.4-1.7,120.7
		c3.7,20.5,19.6,35.1,29.9,52.4C697.1,853.7,698.1,859,696.6,865.9z"/>
	<path class="st34" d="M662.2,578.1c-7,4.7-8.6,17.1-20.6,14.6c-3.5-1.2-5.8-3.5-7.1-6.9c-4.3-24.9-9.5-49.6-16.1-74
		c-5.7-21.2-6.1-43,1.3-64.2c7.9-5.4,15.9-9.9,25.4-3.7c12.5,3.6,6.8,12.3,6.1,20.1c-3,34.6-4.8,69,16.4,99.6
		C665.8,568.4,664,573.3,662.2,578.1z"/>
	<path class="st47" d="M1156.3,634.3c-1.9,1.5-3.8,3-5.7,4.5c-4.5,9-8.8,6.3-13.9,0.3c-46.8-54.6-93.8-109-139.9-164.1
		c-15.6-18.6-33.7-35.1-45.9-56.5c-0.5-3-0.1-5.9,1.5-8.6c8.3-9,29.8-7.4,22.8-28.6c1.1-9.8,6.7-11.4,14.8-7.9
		c5.8,2.5,11.4,5.8,16,10c29.7,26.9,57.7,55.3,77.9,90.4c1.4,6.7,5.3,11.9,9.8,16.8c-5.9,26.8,12.8,44.3,25.7,63
		c12.5,18.3,29.8,33.1,42,51.9C1169.1,617.5,1170.3,626.9,1156.3,634.3z"/>
	<path class="st4" d="M1080.6,368.7c13.1,9.2,17.4,22.4,17.2,37.7c-2.6,8.4-1.2,16.8-0.4,25.2c2.9,5.8,2.6,9.9-5.4,7.9
		c-4.1-1-6.9-4.6-9.7-7.7c-28.6-31.6-57.9-62.2-95.9-82.8c-2.5-1.3-4.1-3.8-5.5-6.2c-3-7.7,0.1-14.6,2.5-21.6c1-3.3,2.3-6.5,2.8-10
		c1.7-13.1,3.6-19.2,18.5-7.9c19.7,15,41,28.2,60.5,43.8C1072.5,352.9,1078,359.7,1080.6,368.7z"/>
	<path class="st48" d="M982.4,342.8c42.5,17.7,72,51.2,102,84.1c6,6.5,5.8,6.7,12.9,4.7c9.8,25.4,7.7,32.1-13.6,42.3
		c-3.2,1.3-5.3,2.3-8-2.2c-21.5-36.1-49.8-66.3-83.4-91.4c-3.3-2.5-9.8-12-13.7,0.6c-12.8-3.4-8.1-13.7-8.7-21.9
		c0.9-5.5,2.8-10.6,6.5-14.9C978.3,342.2,980.2,341.8,982.4,342.8z"/>
	<path class="st49" d="M796.5,314c-6-10.4-3.9-16.8,7.2-23.1c22.2-12.7,46.1-20.2,69.9-28.7c37.2-5.5,74.1-6.4,109.5,9.3
		c13.5,11.5,5.6,26.4,6.3,40c-0.7,1.4-2.3,2.9-2.7,2.5c-16-17.2-55.9-27.3-83-23.5c-11.9,1.7-23.6,2.7-35.6,0.9
		c-23.1-3.3-41.5,9.1-60.6,18.9C804,312.1,801.5,316.4,796.5,314z"/>
	<path class="st50" d="M987.3,313.3c3.8-14.5-3.4-27.9-4.2-41.9c47.1,17.6,83.4,50,117.4,85.6c-7.6,2.2-14.2,6.2-19.9,11.6
		c-25.8-26.9-57.9-45.7-87.7-67.5c-3.6,5.8,2,14.8-4.7,20.7C985.4,319.3,984.9,316.5,987.3,313.3z"/>
	<path class="st51" d="M329.8,647.8c2-6.1,7.8-4.8,17.1-6.7c-18.2-4.8-34.1-6.4-38.4-23.9c-10.6-10.4-19.4-21.5-17.1-37.7
		c0.6-6.7-0.8-16.8,10.1-5.8c2.9,3,5.6,7.1,9.1,8.4c6.5,2.2,10.9,13.9,19.7,5.9c7.9-7.2,8-15.6,0.5-23.8c-1.2-1.3-0.9-4-1.3-6
		c10.4-2.4,14.7,6.3,20.4,11.7c16.8,15.6,33,31.8,50.4,46.7c1.6,1.2,3.1,2.5,4.5,3.8c7.6,9,18.6,15.4,21.3,28.1
		c-0.2,23.2-8.7,46.1-2.8,69.6c-12.5,4.1-18.1-6.2-23.1-13.2C381.8,679.3,357.8,661.3,329.8,647.8z"/>
	<path class="st52" d="M291.4,579.4c5.7,12.6,11.4,25.2,17.1,37.7c-0.6,29.7-1.5,59.4,2.8,88.9c-9.5,0.3-9-8.1-11.7-13.6
		c-12.9-23.3-10.1-49.4-11.8-74.3C287,605.6,276.1,590.8,291.4,579.4z"/>
	<path class="st53" d="M299.6,692.5c7.1,1.8,6.5,10.2,11.7,13.6c14.3,33.7,28.6,67.3,42.9,101c-13.5-4.7-16.8-19-25.9-27.8
		c-4.8-4.7-6.4-3.2-7.4,2.3C310.9,752.6,303.9,722.8,299.6,692.5z"/>
	<path class="st6" d="M401.1,621.4c-20.6-12.1-35.5-30.9-53-46.6c-6.2-5.6-12.5-11.1-18.7-16.7c-11.4-12.1-23-24-34.3-36.3
		c-5-5.5-12.4-9.5-12.2-18.5c17.3,4.8,24.9,21.2,37.6,31.5c5.9,4.8,11.4,10,17.1,15c25.2,14.7,42.2,38.1,62.2,58.4
		C403.4,611.7,405.1,616.6,401.1,621.4z"/>
	<path class="st54" d="M437.5,410.8c16.9-15.8,19.1-35.7,17-57.4c-1.1-10.9-1.4-20.4,13.9-25.6c16.1-5.4,6.9-23.1,9.2-35.3
		c2.7-2.8,5.4-5.6,8.1-8.4c17.5,14.8,39.3,21.5,60.4,28c10.7,3.3,20.1,12.1,32.5,9.8c-15.7,20.8-19.8,45.2-20.4,70.2
		c-0.4,14.4-7.4,23.3-18.4,30.7c-2.7,8.1-9.8,9.4-16.8,10.2c-23.7,2.5-47.2,6.4-71.2,4.5c-22.6-2.1-22.9-2.4-20.1-17.4
		C433.6,417.1,435.5,414,437.5,410.8z"/>
	<path class="st55" d="M543.3,219.7c6.4,7.6,5.4,17,6.1,26.5c4.6-3.1,6.6-10.6,14.6-4.5c19.4,14.7,40.3,27.2,52.4,49.9
		c5.1,9.6,11.5,17.7,2.9,28.2c-9.3,11.4-20.4,4.7-30.9,3.1c-2.3-0.4-4.2-3.4-6.3-5.2c-3.5-16.9-15.1-27.7-28.1-37.5
		C527.4,260.2,525.7,250.5,543.3,219.7z"/>
	<path class="st31" d="M841,599.5c12.4-2.4,10.8-12.2,11.5-21.1c0.6-7.8-2.7-17.2,8.2-21c10.4-5.4,17.3,0.3,23.4,7.7
		c39.2,47.2,78.7,94.2,111,146.5c3.8,6.2,16.6,8.6,9.2,20c-5.4-1.9-12.2-9.9-16.4-2.5c-11.9,21.1-19.3,4.5-27.9-2.1
		c-10.7-8.2-20.1-20.9-35.7-8.9c-15-8.5-25.8-22-38.3-33.4c-21.7-17.8-36-41.3-49.3-65.5C832.8,612.4,826.4,603.2,841,599.5z"/>
	<path class="st46" d="M1004.3,731.7c-21.4-33-44.9-64.5-69.2-95.3c-17.7-22.4-36.1-44.4-53.5-67c-5.6-7.3-11.7-11.8-20.8-11.9
		c4.8-4.4,4.4-10.3,4.6-16.1c0.8-0.8,1.6-1.6,2.3-2.4c8.4-4.1,17.1-3.3,25.8-1.2c14.5,4.5,21.1,17.8,30.6,27.7
		c33.3,34.8,63,72.6,91.2,111.7c7.4,10.2,6.8,10.5,17.2,8.1c5-1.1,9.7-0.2,13.3,3.9c-20,6.7-20.7,9.8-7.3,28.4
		c6.7,9.3,18.8,15.7,16,30.1c-6,3.1-12.2,4.9-19.1,3.7C1025.1,744.7,1011.9,742.7,1004.3,731.7z"/>
	<path class="st56" d="M1045.7,689.1c-30.6,15-36.8-13.2-48.9-28.7c-32.3-41.3-65.7-81.5-102-119.2c6.8-9,10.6-18.1,10.7-30.3
		c0.1-11.5,13.9-19.7,13.5-32.9c12.2-2.2,20,7.5,30,11.1c3.6,3.2-5.4,4.5,0.8,11.9c52,61.4,106.2,120.8,158.7,181.8
		c-0.1,5.3,1.1,11.4-7.6,10.5c-14.1-3.9-23.9-13.9-33.6-24c-3.7-3.8-6.5-10.9-12.9-8.9c-6.7,2.1-3.3,9.7-4.9,14.7
		C1048.1,679.7,1047,684.4,1045.7,689.1z"/>
	<path class="st57" d="M1101,693.3c4.9-3.1,4.6-8,4.7-12.9c4-3.4,7.9-3.6,11.9-0.1c-0.4,5.9,8.1,11.4,0.7,17.5
		C1112.5,696.8,1105.8,698.7,1101,693.3z"/>
	<path class="st58" d="M329.8,647.8c28.7,2.7,47.5,20.8,64,41.9c8.5,10.9,16.6,22.2,27.9,30.5c12.5,2,17.4,14.1,26.9,20.1
		c3.8,3.8,8.2,7,12.8,9.9c6.4,4.8,11.5,11.2,18.6,15.3c5.3,3.6,10.8,7,16.3,10.3c12.1,9.8,27.5,15.4,37.4,28.1
		c1.1,8.5-3.9,11.2-11.2,11.6l-1.4,0.1c0,0-1.4-0.1-1.4-0.1c-11.5-16-31.9-16.5-46.6-27.1c-4.1,0.8-7.1-1.4-10.2-3.5
		c-4.4-3.1-9-6-13.5-9c-6.9-4.2-12.8-9.9-20-13.5c-3.5-1.1-7-2-10.4-3.5c-1.7-0.9-3-2.2-4.2-3.7c-4.7-8.1-9.5-16.1-16.8-22.2
		c-23.2-19.2-46.6-38.2-59.5-66.6C335.6,660.2,332.7,654,329.8,647.8z"/>
	<path class="st59" d="M338.5,666.5c20.8,21.5,41.6,43.1,62.5,64.6c-1.2,11.3,3.5,20.8,9.7,29.7c-0.1,9.3-9.5,11-13.7,17
		c-1.2,1.3-2.4,2.6-3.6,3.9c-9.5-16.4-11.9-36.7-28.6-49.2c6.1,17.8,12.1,35.7,19.7,57.8c-7.3-7.5-11.3-11.7-15.4-15.9
		c-16.6-27.3-24.6-58.1-34.6-87.9C332.5,680.8,337,673.1,338.5,666.5z"/>
	<path class="st60" d="M734.2,523.4c2.3-4.2,4.5-9.8,10.2-8.5c4.9,1.1,3.6,7.1,4.2,10.9c4.1,30.5,7.9,61,11.7,91.4
		c-2.2,10.6-4,21.4-13,33.4c0.2-23.4-1.4-43.5-9.8-62.3c6.9-5.1,9.2-11,6.7-20C740.1,553.6,737.5,538.4,734.2,523.4z"/>
	<path class="st61" d="M841,599.5c-8.8,5.9-3.6,11.2,0.1,17.4c12.4,20.5,24,41.5,41.4,58.5c2.1,2.1,2.3,6.2,3.4,9.4
		c-10.9-4.1-14.8,0.7-10.8,10.4c5.7,13.8,13.1,26.9,19.8,40.3c0.2,7.9,2.2,18.3-10.7,7.3c-10.2-8.7-17.9-19.4-24.6-30.7
		c-4.3-7.2-8.6-14.3-16.3-18.4c2-1.1,7.5-1.7,4.9-3.8c-22.7-18.4-24.8-50.5-46.3-69.7c-2-1.8-0.3-7.8-0.3-11.8
		c-1.3-15.2,5.7-20.3,19.9-15.9C828.2,594.5,834.6,597.2,841,599.5z"/>
	<path class="st62" d="M464.3,782.2c3,2.1,5.9,4.1,8.9,6.2c-6.2,20.4-6.4,40.9-0.4,61.4c-2.4-1.2-4.9-2.3-7.3-3.5
		C450.4,825.2,457.2,803.7,464.3,782.2z"/>
	<path class="st55" d="M1117.6,680.4c-4,0-7.9,0-11.9,0.1c-26.5-13.4-40.1-39.3-58.6-60.5c-30-34.6-60.4-68.8-90.6-103.3
		c-3.6-4.1-6.6-9.1-9.9-12.8c-6.7-7.6-1.4-10.2,2.5-14.3c-17.1-29.1-15.9-51.7,3.8-71.1c12.5,4.7,15.2,18.2,23.3,27
		c55.1,59.6,104.3,124.6,160.6,183.1c3.3,3.5,0.7,19.2,13.8,10.2c1.2,5.7,1.4,13.6-4,14.6C1130.8,656.6,1127.9,672.2,1117.6,680.4z"
		/>
	<path class="st63" d="M522.6,815.5c-1.1-7.1,13.4-2.8,9-12.3c-10.8-15.5-6.8-31.1-0.7-46.9c22,3.9,32.7,20,41.4,38.4
		c1,22.6,13.1,43.6,9.8,66.8c3.7,8.4,4.5,17.3,4.3,26.3c-0.1,8.3,0.6,19.5-6.2,22.9c-8.9,4.3-16-5-22.2-11.5
		c-7.2-21.9-14.1-43.8-21.6-65.6C533.8,826.4,528.5,820.6,522.6,815.5z"/>
	<path class="st7" d="M582,861.6c-4.1-22.4-17-43.2-12.5-67.3c21.6,6.2,34.8,21.2,42.5,41.6c-3.1,10.8,9.6,17,7.8,27.4
		c-9.1-0.3-18.1-0.6-26.1-6C588.3,853.7,583.1,852.5,582,861.6z"/>
	<path class="st64" d="M419.1,755.5c3.8,0.6,7.5,1.3,11.3,1.9c8.1,17.4,4,36.8,9,54.7c0.5,5.9,0,11.5-4.6,16c-0.2,2.5-0.3,5-0.5,7.5
		c-7.4,11.6,2.4,26.9-8.2,37.8c-8.3-23,1.4-48.6-10.5-71.1c-4.2-7.9-6.9-16.5-10.4-24.8C401.3,764.8,415.3,763.3,419.1,755.5z"/>
	<path class="st65" d="M464.3,782.2c2.4,21.3-6.2,42.8,1.1,64.1c0.3,14.7-0.6,29.5,6,48.5c-10.7-9-17.4-14.6-24.1-20.2
		c-5.2-17.6,1.6-35.2-0.5-52.8c-0.2-11.1-2.7-22.1-2.3-33.2c0.2-5.7-3.7-14.4,7.3-15.3C456,776.2,460.1,779.2,464.3,782.2z"/>
	<path class="st29" d="M451.3,820.8c5.2,18.4-5.6,35.6-4,53.8c-11-13.7-3.7-32.2-12.4-46.5c0.1-5.5,0.2-11,0.2-16.5
		C445.8,805.3,447.7,814.5,451.3,820.8z"/>
	<path class="st66" d="M419.1,755.5c0.1,10.3-13.2,12.2-13.8,22c-2.8,0.1-5.6,0.1-8.4,0.2c-1.3-9.7,8.3-11.2,12.5-16.8
		c-0.1-7.8,4.3-6.9,9.4-5L419.1,755.5z"/>
	<path class="st10" d="M987.3,313.3c0.3,2.9,0.6,5.7,0.9,8.6c-1.9,7-3.9,14-5.8,20.9c-1.1,0-2.1,0.3-3.1,0.7
		c-53.2-16.2-106.6-30.7-163.9-11.2c20.8,3.6,39.9-3.8,59.6-1.2c26,3.5,50.9,9.5,75.1,19c8,3.1,16.3,3.5,24.4,5.6
		c-0.3,8.7-2.2,17.6,4.4,25c11,25.3-8.9,26.4-24.3,30.9c-9.4,3.2-17.9,1-25.4-5c-38.8-30.4-83.5-45.3-131.8-51.2
		c-0.2-13.9-0.5-27.7-0.7-41.6c20.6-21.1,46.2-30.2,75-28.2c9.1,0.6,17.3,0.9,26.4-0.5c25.8-4,50.4,1,74.9,11
		C982.5,300.3,982.9,307.5,987.3,313.3z"/>
	<path class="st54" d="M797.2,355.6c9.1-4.6,18.8-6,28.4-2.5c37.2,13.1,76.7,21.6,106.6,50.3c6.3,6.1,15.3,4.4,22.3,8.3
		c-0.5,2.3-1,4.5-1.5,6.8c-12.6,23.1-10.5,47-3.8,71.1c-12,3.2-19.4-6.1-28.6-10.5c-34.7-24.9-61.2-58.4-92.7-86.8
		c-5.6-5-11.8-13.1-19.6-8.3c-8,4.9-3.1,14.2-0.9,21.2c11.7,36,32.6,66.3,58.4,93.5c11,11.5,20.7,23.9,30.9,36.6
		c-10.9,8-22.5-0.1-31.5,6.2c0,0,0.1-0.1,0.1-0.1c-39.3-21.8-52.6-61.4-64-100.3c-5.2-17.7-11.6-35-16.9-52.6
		c1.8-5.1,3.6-10.1,5.4-15.2c1.6-2.9,0.2-7,3.6-9.2C794.7,361.2,796,358.4,797.2,355.6z"/>
	<path class="st67" d="M451.3,432.9c22.2-1.6,44.3-3.6,66.5-4.6c7.8-0.4,15-1.6,21.8-5.3c22.4,9.4,44.3-2.5,66.6-1.4
		c26.7,1.3,44.8-17.1,64.7-30.1c30.5-19.9,61.2-15.2,92.7-5.6c6.3,1.9,8.4,7,9,12.9c-11.7,14.3-23.5,23.8-43.7,12.3
		c-12-6.8-26-2.6-37,6.6c-14,11.8-29.6,20.4-46.9,26.2c-8.2,1.5-16.4,3.1-24.6,4.6c-18.2,11.3-38.2,3.8-57.3,5.5
		c-2.6-0.3-5.2-0.8-7.7-1.4c-32-5.4-64.2-0.8-96.3-2.5c-10.4-0.6-21.1,1.7-31-3.3c-6.6-7.6-4.4-12,5.1-13
		C439.3,433.2,445.4,434.4,451.3,432.9z"/>
	<path class="st68" d="M654.2,274.1c5.7,0.4,11.4,0.8,17,1.2c16.1,10.7,13.4,27.2,8.3,40.5c-4.8,12.5-20.7,7.5-31.8,9.8
		c-1.5,0.3-4.6-1.5-4.9-2.9c-0.6-2.5-0.8-6.1,0.6-7.9C652.7,302.7,633.5,283.1,654.2,274.1z"/>
	<path class="st31" d="M793.4,364c0.1,3.6-0.6,6.9-3.6,9.2c-21.2-17.1-38.9-37.4-55.5-58.9C758.7,325.9,771.5,350.2,793.4,364z"/>
	<path class="st69" d="M144.3,296.3c0.5,7.3-3.9,8.8-8.9,9.3c-9.3,0.9-15-4.1-15.7-12.7c-0.6-7.4,3.5-14.2,11.9-14.3
		C144.1,278.4,135.4,293.9,144.3,296.3z"/>
	<path class="st6" d="M401.1,621.4c-4.9-18.4-22.3-26.2-33.3-39.4c-9.4-11.2-20-21.5-30.1-32.2c10.9-3.9,14.3-9.1,5.7-19.5
		c-3.4-4.1-9.8-8.4-7.2-17.1c10.2,1.1,14,10.5,20.8,15.5c3.5,2.6,7.3,5.6,11.2,2.4c4.8-4,0-7.4-2.2-10.5c-10.4-14.7-21-29.3-31.5-44
		c-3-4.3-9.7-9.6-4.5-13.9c6.1-5.1,11.1,0.9,14.4,6.9c1.6,3,4.1,5.5,6.1,8.2c5.6,7,11.2,14,16.8,21c11.7,2.2,13.4,12.5,16.9,21.2
		c7,11.3,14,22.5,21,33.8c31.9,20.1,33.5,59.4,19.7,92C411.1,652.1,410.6,624,401.1,621.4L401.1,621.4z"/>
	<path class="st70" d="M423,638c-0.6-1.3,1.5-6.9,1.8-7.7c13.2-30.5-0.5-54.1-19.5-76.3c7.6-0.9,8.3-5.2,6.9-11.9
		c-5.3-24.9-3.9-49.8,2.8-74.3c1.9-6.8,3.2-12.1-0.9-19.5c-8.7-15.7,6.7-22.1,14.7-31.2c0.9,1,1.9,2,2.8,3
		c-5.3,22.6,13.7,7.5,19.7,12.7c-6,8.3-23.5-5.2-24.3,12.9c5.9,6.4,4.4,14.6,5,22.2c-0.2,6.5,1.9,12.9,1.7,19.4
		c-5.8,36.9-1.7,72.3,16.1,105.5c10.9,20.4,19.6,41.7,22.8,64.8c1.1,7.9,10.1,22.2,0.1,27.1c-8.6,4.2-17.7-9.2-23.5-13.8
		c-2.7-2.2-5.1-4.8-7.5-7.3C435.1,654.7,419.7,652.3,423,638z"/>
	<path class="st2" d="M384.3,520.2c-5.6-7.1-11.3-14.1-16.9-21.2c5.3-15,10.8-29.9,15.8-44.9c1.9-5.8,4.2-10.9,11.4-9.2
		c8.8,2.1,7.2,9.6,5.8,15.3C395.4,480.3,389.7,500.2,384.3,520.2z"/>
	<path class="st71" d="M359.1,376.5c1.8-1.3,3.5-2.6,5.3-4c10.6,0,21.2,0,31.7-0.1c1.3,5.1,8,3.8,13.8,10.2
		c-19.7-1-35.3-1.8-50.9-2.7C359,378.8,359.1,377.6,359.1,376.5z"/>
	<path class="st72" d="M353.9,338c-1.2-1.3-2.4-2.7-3.6-4c10.9-6.7,22.4-3.1,33.9-1C374.1,334.7,364,336.3,353.9,338z"/>
	<path class="st5" d="M675.3,895.7c-21.5-18.5-59.1-29.5-76.9-89.2c-0.9-2.8-3-5.1-3.2-8.1c-3.3-47.2-4.4-94.4,8.5-140.6
		c4.9-17.5,2.9-35.4,4.5-53c0.4-4.3,2.7-8.2,6.4-10.4c0.1-0.1,0.2-0.1,0.4-0.2c11.8,7.3,14.7,9.2,26.5,16.5
		c-1.6,53.2-12.5,105.6-14,158.7c-0.7,25.8-3.4,54.1,18.1,76.1C651,851.1,675.6,886,675.3,895.7z"/>
	<path class="st73" d="M637.3,587.9c-6.1,9.5-13.8,14.3-25.2,9.1c-2.1,0.7-3.8,0.2-5.2-1.5c-1.1-14.9-7.3-28.4-11.2-42.5
		c-7-25.2-8.4-51.2-3-77.2c1.1-5.2,2.6-12.5-4.6-14.3c-6.6-1.6-9.7,4.6-11.7,9.9c-7.5,19.7-8.6,40.7-2.1,60
		c7.1,21.2,12.5,43,22,63.4c-2.3,5.4-7.6,6.5-12.1,8.7c-5.6,2.2-11.2,4.8-17.5,3c-9.1-4.2-19.4-2.5-28.6-6.1
		c-4.1-1.6-7.4-3.9-7.7-8.9c-7.9-30-12.3-60.3-3.8-90.9c5.8-21.1,14.5-40.8,35-52.4c19.7,0.1,39.4,0.2,59,0.3
		c-4.4,41,8.3,79.6,17,118.8C639.1,574.4,638.7,581,637.3,587.9z"/>
	<path class="st3" d="M974.4,355.8c-4.4,4.3-7.4,8.9-15.6,4.8c-46.3-23.2-95.3-28.6-146.1-20.4c-4.2,0.7-8.5,2.9-9.9-3.3
		c-1.3-5.7,1-8.8,6.9-10.6c55.2-16.6,108.9-7.7,162.4,8.2c4.8,1.4,6.6,4.7,7.2,9.1C977.7,347.6,976.1,351.7,974.4,355.8z"/>
	<path class="st74" d="M443.7,659.2c7.7,6.6,15.4,13.2,26.1,22.5c-1.2-31.9-9-57.7-22.8-81.4c-18.2-31.3-21.5-65.5-22-100.4
		c-0.1-4.4,3.8-8.8,5.9-13.2c15.7,8,15.3,26.8,25.9,38.2c3.6,8.2,14.3,11.9,14,22.5c-1.5,10.7,0.7,20.8,3.8,31
		c9,30.1,18.1,60.3,25.4,90.9c0.2,2,0,4-0.5,6c-1.6,3.2,0.4,7.1,2.9,9.5c4.2,4.2,0,8.4,0,12.7c0,2.7-10.6,14.5-10.6,17.3
		c-5.6,17.7-8.6,36-14.6,53.6c-7-3.5-13-8-17.5-14.5c-3.4-9.7,7.7-17.1,4.1-27c-8.5,2.7-9.3,12.9-16.4,16.9
		c-9.6-6.6-19.1-13.4-25.5-23.4c-12.4-24.6-0.6-56.7,1.2-81.2C434.1,636.3,433.5,660.4,443.7,659.2z"/>
	<path class="st75" d="M443.7,659.2c-14.9,9.2-30.9-26-19.7-27.2C427.5,642,437.8,650.9,443.7,659.2z"/>
	<path class="st45" d="M865.2,541.5c6.9-8.8,17.4-1.6,25.6-5.8c-30.2-37.7-68.2-69.9-84-117.8c-0.6-1.9-3-3.4-3.3-5.3
		c-1.7-12.5-13.5-28.4,0.9-36.3c10.6-5.8,21.3,7.5,30.9,15.7c28.8,24.6,49.8,57.5,83.2,77.2c1.9,1.1,1.4,6.5,2,9.9
		c-1.8,8.8,12.2,22.4-8.4,25.6c-4.8,0.8-2.5,7.1-1.4,11c4.1,14.4-1.5,22.7-15.9,25.6C885,541.3,875.1,541.4,865.2,541.5z"/>
	<path class="st76" d="M523.5,748c2.8,2.7,5.5,5.5,8.3,8.2c0.5,15.7-3.4,31.4-0.3,47.1c-14.2-6.2-26.7-15.1-38.8-24.7
		c3.3-9.6,7.6-18.8,5.7-29.7c-1.2-6.9,1.6-13.5,7.3-18.4C517.6,730.4,524,735.7,523.5,748z"/>
	<path class="st77" d="M506.6,731.2c-1.1,8.7-6.3,16.6-2,26.3c5,11.1-4.2,16.1-11.8,21.2c-5.2-3.4-10.5-6.9-15.7-10.3
		c-3.8-20,3.7-37.4,12.7-54.4C501.2,714.1,507.4,719.2,506.6,731.2z"/>
	<path class="st62" d="M451.3,820.8c-5.3-3.3-8.1-10.9-16.2-9.2c-6.7-17.6-5.7-35.9-4.7-54.2c7.1,5.3,14.3,10.5,21.4,15.8
		C443.7,789,454,805,451.3,820.8z"/>
	<path class="st78" d="M447.3,743.6c0.5-15.1,10.3-22.4,24.9-29.5c-2.7,15.6-1.4,29.5-12.6,39.7C455.5,750.4,451.4,747,447.3,743.6z
		"/>
	<path class="st79" d="M418.9,755.9c-3.7,0.6-7.4,1.2-9.4,5c-12.3-7.3-20.3-15.7-8.6-29.8C410.2,737,417.7,744.1,418.9,755.9z"/>
	<path class="st76" d="M582,598.9c3.5-6.1,8.4-2.8,13-2c4.5-0.8,8.9-0.6,13.2,0.6c1.3-0.3,2.5-0.5,3.8-0.5c7.3,31.6-3.5,61.7-8.9,92
		c-5.6,32.1-2.7,64.1-3.9,96.2c-0.2,6.1,9.8,42.3,4.3,47.3c-11.9-7.9-38-21.1-38-59c-9.8-15.4-8.1-32.9-5.3-49
		c6.2-34.4,9.1-69.2,14.5-103.7C576.1,613,577.6,605.5,582,598.9z"/>
	<path class="st47" d="M582,598.9c1.1,32.2-5.1,64-10.2,95.3c-4.4,26.5-1.6,77.9-1.9,104.3c-14.3-4.4-26.3-34.4-38-42.2
		c-4.3-3.9-7.2-16.9-6.4-23.2c7.4-31,12.9-62.3,14.7-94.2c3.7-13,17.2-19.1,21.8-31.5c1.1-1.7,2.6-2.9,4.5-3.6
		C572.8,605.7,576.5,599.4,582,598.9z"/>
	<path class="st80" d="M561.5,448.2c-24.5,28.9-36.9,61.7-34.1,100.1c0.8,10.1,3.2,19,6.8,28.2c1.9,4.8,9.5,13.4-3.5,16
		c-12.3-3.7-19.7-15.4-31.8-19.5c-3.7-2.5-7-5.4-8.4-9.9c-5.6-36.1-1.8-71,11.7-105.1c3.4-8.6,7-12.7,16.3-11.8
		c13.2,1.2,26.5-1.8,39.6,1.7C559.4,447.4,560.4,447.4,561.5,448.2z"/>
	<path class="st10" d="M558.2,448.1c-16,0.7-43.6-3-45.9,3c-10.2,26.7-24.2,54.3-18,84.6c2.2,10.7,0.4,20.6-0.5,30.8
		c-20.4,8-22.3-7.7-26.3-20.6c-1.6-8.6-13.4-8.7-14.6-17.6c0.1-28,10.6-52.9,23.5-77.1c-4.9,2.4-10.3,2.7-15.5,2.4
		c-10.4-0.6-19-0.2-21.4,13.4c-1.2,7.1-6.9,11-13.2,2.6c0.2-7.9,0.5-15.9,0.7-23.8C470.8,445.4,514.6,442,558.2,448.1z"/>
	<path class="st81" d="M426.3,469.6c4.1,1.9,9.8,3,9.4-2.9c-1.6-22.5,13.9-18.1,26.8-18.2c7.5,0,15,0,23.4,0
		c-20.3,23.7-21.8,53.8-33,79.8c-7.3-13.9-14.6-27.8-21.9-41.8C429,481,423.2,476.5,426.3,469.6z"/>
	<path class="st3" d="M608.3,597.5c-4.8,8.6-9.1,5.5-13.2-0.6c-13-4.8-10.1-17.5-13.4-27.1c-8.6-24.9-19.8-49-16.3-76.7
		c1.4-10.6,4.1-20.5,8-30.2c3.5-8.6,10.1-11.4,18.6-9.7c10.4,2,8.3,11,7,17c-5.1,25-4.2,49.6-0.2,74.8c2.4,14.9,15.4,25.7,13.3,42.2
		C611.6,591.6,607.5,593.4,608.3,597.5z"/>
	<path class="st82" d="M502.4,570.3c14.2,1.4,19.4,14.1,28.3,22.3c3.2,1.1,6.4,2.2,9.7,3.3c5.1,9.4,3.5,19.7,3.7,29.8
		c0.5,16.9-13.2,44.3-29,46.4c-12.6-21.2-19.1-64.1-20.7-88.5C493.9,577.8,496.1,572.5,502.4,570.3z"/>
	<path class="st83" d="M544.6,638.3c-0.2-10-9.4-32.4-4.2-42.4c6.8,0,12.8,5.5,20.6,0.4c4.5-2.9,5.6,3.4,5.5,7.5
		c0,0-0.8,0.8-0.8,0.8C558.7,613.4,559.5,638.9,544.6,638.3z"/>
	<path class="st84" d="M502.4,570.3c-7.2,11.2-3.2,22.7-0.5,33.8c3.9,15.8,8.7,31.3,13.2,46.9c4.1,25.3-6.4,22.2-17,25.3
		c-15.2-35.6-22.4-77.7-33.4-114.5c-1.5-4.9-1.9-11.2,2.8-15.8c10.7,4.5,9.3,24.3,26.3,20.6C496.7,567.8,499.6,569.1,502.4,570.3z"
		/>
	<path class="st85" d="M448.3,724.1c-2.4-15-4.3-22.9-4.7-30.9c-0.2-5-3.2-12.9,3.8-14.6c6.3-1.6,11.3,4.9,15.5,9.1
		c3.7,3.7,7.2,9,2.3,14.9C460.4,708.4,455.9,714.4,448.3,724.1z"/>
	<path class="st86" d="M515,667.8c9.9-11.2,19.8-22.3,29.6-33.5c-0.2,34.6,1.7,89.9-12.8,122.2c-7.1-5.5-18.2-19.8-25.3-25.3
		C508.3,713.9,506,683.7,515,667.8z"/>
	<path class="st87" d="M515,667.8c-0.8,17.3,3.7,47.9-8.4,63.4c-5.3-3.1-18.9-12.7-16.9-16.9c8.4-16.9,12.7-29.5,8.4-38
		C504,673.9,507.7,667.2,515,667.8z"/>
</g>
</svg>
