<?xml version="1.0" encoding="utf-8"?>
<!-- Generator: Adobe Illustrator 23.0.1, SVG Export Plug-In . SVG Version: 6.00 Build 0)  -->
<svg version="1.1" id="Layer_1" xmlns="http://www.w3.org/2000/svg" xmlns:xlink="http://www.w3.org/1999/xlink" x="0px" y="0px"
	 viewBox="0 0 1280 1024" style="enable-background:new 0 0 1280 1024;" xml:space="preserve">
<style type="text/css">
	.st0{fill:#F7A008;}
	.st1{fill:#F98506;}
	.st2{fill:#F88605;}
	.st3{fill:#F79F08;}
	.st4{fill:#E4DBD6;}
	.st5{fill:#E9710C;}
	.st6{fill:#EA710D;}
	.st7{fill:#F2B216;}
	.st8{fill:#F58406;}
	.st9{fill:#E8E0DB;}
	.st10{fill:#F3B215;}
	.st11{fill:#F69E09;}
	.st12{fill:#F4B117;}
	.st13{fill:#DCD4CE;}
	.st14{fill:#F78606;}
	.st15{fill:#E9750C;}
	.st16{fill:#ED780A;}
	.st17{fill:#E8E2DC;}
	.st18{fill:#E6770B;}
	.st19{fill:#EBE2D8;}
	.st20{fill:#EAE2D8;}
	.st21{fill:#F08020;}
	.st22{fill:#F4972D;}
	.st23{fill:#F8BE06;}
	.st24{fill:#F7C909;}
	.st25{fill:#E9730A;}
	.st26{opacity:0.94;fill:#F8BD07;enable-background:new    ;}
	.st27{fill:#F7BB09;}
	.st28{fill:#EA710A;}
	.st29{fill:#9E5B36;}
	.st30{fill:#F7A209;}
	.st31{fill:#F89F07;}
	.st32{fill:#E57B0D;}
	.st33{fill:#2D2A28;}
	.st34{fill:#DCD4CC;}
</style>
<g>
	<path class="st0" d="M869.7,565.9c-10.2,0.1-20.4,0.2-30.6,0.3c-11.3,15.4-15.6,31.7-7.8,50.2c11,26,10.6,55,21.3,81.4
		c5.1,12.6-2,17.2-21,16.1c-45.3-22.8-89.9-47-128.2-81c-1.2-1.6-1.3-3.2-0.4-5c12.4-3.2,20.6,5.4,29.4,11.1
		c25.7,16.7,51.1,33.7,83.5,46c-19.2-10.1-35.8-17-50.7-27c-4.6-3.1-11.4-6.3-7.6-13.3c3.4-6.5,10.1-4.4,15.5-2.3
		c9.6,3.7,18.6,8.7,28.5,15.7c-6.4-5.9-12.8-8.8-18.6-12.5c-5.4-3.4-12.9-6.9-10.4-14.3c2.8-8.6,11.1-2.5,17-3.7
		c0.8-0.5,0.3-1.2-0.7-2.6c-4.6-6.2-17.5-10-11.3-19.4c6.2-9.3,16.3-1,25.9,1c-13.2-8.4-7.8-17.8-2.1-26.7c-7.8-6.2-14.3,1.4-20.9,0
		c-7.5-1-15-1.1-22.6-0.8c-31.6,7.1-59.9,22.9-89.3,35.5C655,651,592.4,688,550,699c-19.7-0.4-61.6-47.1-64-66
		c1.5-1.5,23-11.9,24.9-12.7c44.4-9.3,85.7-27,126-47.1c22.5-11.1,45.1-22,67.5-33c20.1-9.9,41.2-17.5,64.2-19.2
		c18.5-1.4,36.8-6,54.8-10.8c7.2-1.9,17.3-3,16.9-12.7c-0.4-9.6-10.2-9.9-17.8-11.2c-21.6-3.6-43.4-5.9-65.1-6.9
		c-33.3-1.6-66.5-7-100-4.7c-4.2,0-8.4,0.3-12.6,0.1C605,475,565.1,475,525.3,475c-13,0-25.6,1.4-37.8,6.1
		c-15.9,6.1-27.4,15.9-32.1,33.1c-3.4,12.4-8.5,24.2-13.7,36c-2.4,6.9-14.9,5.5-13.1,16c-4.9,12.7-16.8,19.1-25.4,28.3
		c-12.7,13.6-10.7,23.3,6.9,29.5c9.9,3.5,20.3,2.4,30.5,2.9c13.4,0.6,27-2.2,40.1,2.7c1.6,1.2,3.5,2.7,3.1,4.5
		c-4,17.6-36.5,44-54.7,45.5c-29.6,2.4-58.7-4-88.1-4.3c-7.6-0.1-10.8-6-14.5-11.2c-6.6-21.3-12.9-42.6-16.2-64.8
		c0.9-6.9,6.1-9.6,11.7-11.4c31.4-10.1,53.3-32.7,74.4-56.4c8.1-2.3,4.9-9,5.4-14.3c2.6-16,2.9-32.1,2.6-48.2
		c-0.4-20.3,10-32.6,28.3-39.1c20.7-7.3,41.9-5.9,63-2.7c57.2,8.7,114.4,17.2,172.5,17.1c4.7,0.5,9.4,0.2,14.1,0.3
		c47-1,94-0.7,141-0.2c18.6,0.2,37-7.3,55.6-1c9,3.4,17.8,7.7,27.3,9.9c15.6,7.1,20.8,19.6,19.5,36.1c-0.7,9-2.5,17.8-3.6,26.7
		c-2.4,19.2-11.3,32.1-30.5,37.7C883.6,556.2,876.7,561.3,869.7,565.9z"/>
	<path class="st1" d="M398.3,531.4c-17.6,31.5-44.8,50.8-78.5,62c-2.3,0.8-4.3,2.4-6.4,3.7c-12.4,1.7-22.2,10.3-34.3,12.8
		c-24.1-0.1-48.4,3.9-72.1-3.6c-24.8-13.1-39.7-16.4-72-15.8c-15.7,0.3-31.2-2.9-43.6-11.9c-12.2-8.9-22.2-10.9-34-0.8
		c-2.9,2.4-7.1,2.6-10.8,0.4c-13.4-3.2-23.3-11.4-31.2-22.3c-3.8-5.3-8.5-11,2.7-13.4c-4.7-22.3,11.3-33.6,24.5-46.5
		c3.4-3.3,7.3-5.6,12.1-6.1c17.2-2.3,35.1-2.9,50.1-12.5c39-25,82-22.7,125.2-19.3c7.7,0.6,15.3,1.7,23,2.4
		c18.8,1.6,38.7-26.3,48.9-43.3c5.7-5.3,6.7,20.9,10.9,25c28.6,28.1,58.2,55.3,84.4,85.8C398.1,528.6,398.2,530.1,398.3,531.4z"/>
	<path class="st2" d="M685,450c-40.3,0.4-96.2-5.4-136.2-9.6c-30.3-3.3-60.2-11.7-91.3-9.8c-34.9,2.1-43.9,13.4-47.3,47.3
		C406,518,406,524,398,533c-5.1,2.2-6.8-0.1-10-3c-30.6-28-47.4-57-76-87c-3.5-3.7-12.5-18.9-13.6-24.1c2.2-22.9,9.9-41.9,34.7-49
		c0.4-0.1-0.4-6.9,3.7-8.9c21.3-0.1,42.5-0.1,63.8-0.2c27.8-5.2,55.5,0.5,82.4,4c65.6,8.4,131,19.1,195.7,33.6
		c7.5,1.7,42.2,10.2,48.3,15.5c7.2,12.3-30,10.9-36.4,18.3C684.4,439.6,693.8,445.9,685,450z"/>
	<path class="st3" d="M954,395.7c52.8-25.5,99-63.5,155.8-81.3c6.8-2.9,12.7-1.9,16.6,4.7c3.3,5.6,1.8,11.9-2.2,16.1
		c-23.3,24.7-34.2,56.1-49.1,85.5c-9.6,19-24.5,35.7-36.9,53.5c-8.5,12.2-10.1,21.5,1.7,31.6c10.4,8.8,17,20.7,25.1,31.4
		c8.4,24.7,29.9,40.2,43.1,61.6c1.1,1.7,2,3.4,2.7,5.3c6.1,9.1,11.6,18.2,13.5,29.4c2.7,16.6,0.1,21.1-16.6,22.4
		c-29.9,2.4-56.2-10.4-83-20.8c-21.2-10.6-44.1-18.1-62.2-34.3c5.6-5.6,12.1-3.2,18.1-1.6c19.2,5.1,38.5,10.2,58.4,16.1
		c-23.7-12.1-48.4-19.7-72.6-28.3c-8-2.8-21.5-5.5-17.7-15.8c3.7-10.2,15.7-3.6,23.9-1c22,6.9,44.2,13.2,65.6,22
		c-25.1-10.6-51.5-17.5-77.2-26.3c-9.2-3.1-24.4-4.7-21.2-17c3.1-11.7,16.7-5,25.4-2.8c18,4.5,36.6,7.4,55.7,15.8
		c-15.8-7.8-31-12.1-44.6-19.6c-5.9-3.3-15.8-5.8-12.7-14.2c2.8-7.5,11.9-5.4,18.9-3.4c1.8,0.5,3.6,1.4,2.1,0.4
		c-5.1-2.8-14.3-5.3-23.1-8.9c-4.8-1.9-10.8-4-9.9-10.1c1-6.5,7.5-5.8,12.5-5.9c4.5-0.2,8.9,1.6,15.1,1.7
		c-10.1-7.3-20.7-7.4-30.8-9.1c-4.5-0.8-9.4-2.1-9.8-7.6c-0.4-5.7,4.4-7.7,8.9-8.4c10.6-1.7,21.2-5.7,27.5-3.7
		c-7.6-1.9-19.7,1.9-31.9,2.8c-5.2,0.4-11.4,0.8-12.1-6c-0.8-7,5.4-7.4,10.6-8.3c14.9-2.5,28.9-8.7,41.9-9.9
		c-14.7,0-29.5,9.5-46.4,9.7c-5.1,0.1-11.7,0.6-12.5-5.8c-0.8-5.8,5-8.9,10.1-10c22.3-4.7,41.8-16,55.5-22.6
		c-8.3,4.7-23.9,10.8-40.2,14.6c-6.2,1.4-14.5,3-17-4.2c-2.3-6.5,5.6-9.2,10.5-11.7c22.8-11.7,43.7-26.4,64-36.8
		C991.3,389.7,975.6,406,954,395.7z"/>
	<path class="st4" d="M1062.8,539.8c-15.1-10.1-18.8-30.1-35.6-39.5c-5.7-3.2-4.8-14.5,1-20.9c13.7-15.2,19.8-36.1,34.5-49.6
		c13.6-12.5,13.5-30.3,23.3-44.2c11-15.6,14.1-36.5,31.7-48.3c4.9-3.3,7.2-9,5.9-15.4c-1.6-8-8.3-6.6-13.8-7.4
		c45.9-10.8,91.1-17.3,129.5,20c20.4,19.8,14.1,38-11.4,44c-31.3,7.3-64,15.4-91.2,31.4c-23.8,14-51.2,26.5-66.7,53
		c-7.9,13.5-13.1,26.2-6.5,41.4c-6.7,12.7,6.8,10.9,11.2,15.6l0,0c1.8,7.1,8.4,12.7,6.4,20.9
		C1074.5,550.2,1068.8,541.8,1062.8,539.8z"/>
	<path class="st5" d="M954,395.7c24.9,0.2,45.7-12.9,68.8-20.1c-26.5,22.9-56.5,40-86.9,57.2c27-0.8,50.8-12,75.3-22
		c-24.6,21.1-52.5,36-84.4,44c25.1,6.6,46.8-10,76.2-7.7c-24.8,12.5-48.1,12.9-68.9,23c18.7,0.7,38-4.3,57,6.3
		c-17.6,0.5-33.5,3.1-49.5,8.3c16.9,5.9,36.2,5,50.8,19.4c-12.4,11-25.7-3.9-41,3.1c18.6,7.4,34.8,13.8,52.8,20.9
		c-14.1,8.5-26.4-4.6-40.2,1.7c22.5,15.6,49.7,20.2,69.3,38.4c-30.4-7.5-60.2-16.8-91.6-18.6c35.5,20.7,76.9,26.7,111.2,50.2
		c-33.8-10.3-67.6-20.6-101.4-30.9c-0.6,1.7-1.3,3.4-1.9,5.2c33.6,17.7,73.3,22.4,103.8,47.4c-31.3-2.6-60.1-16.6-91-20.4
		c-29.2-16.1-59.6-29.1-92.6-35.2c3.4-12.2,13.8-16.2,24.2-18.5c14-3.2,20.8-12.3,21.8-25.2c1.5-19.9,14.4-40.5-2.8-59.6
		c-2.3-2.5-4.5-4.3-7.8-4.8c-7.6-6.9-15.6-13.5-22.3-21.4c-3.9-4.6-10.2-8.9-5-16.5C903.2,411.8,928.6,403.8,954,395.7z"/>
	<path class="st6" d="M719,411c-31.4-12.4-83.9-15.6-116.6-22.2c-35.5-7.1-71.7-10.1-107.2-17.1c-22.1-4.3-44.5-1.1-66.5-6.1
		c-9-2.1-18.8-3-28.1-4.8c50.6-21.1,94-54.3,140.3-82.7c25.3-15.6,53.2-29.1,85.2-20c-0.2,5.2-4.3,6-8,6.6
		c-13.4,2.2-27,4.8-38.7,11.2c-16.2,8.9-31.5,19.5-47.6,28.9c13.8-7.6,28.1-14.1,43.4-18.1c4.2-1.1,9.6-3,12.1,2.1
		c2.4,5-2.4,8.2-5.7,11c-10.3,8.7-21.5,16.4-31.5,25.5c12.3-8.1,24.2-16.9,38-22.4c5.1-2,10.3-3,13.9,2.3c4.1,6.2-1.3,9.4-5.1,12.5
		c-7.9,6.6-17.3,11.2-26.9,20c13.3-7.1,22.8-16.3,35.8-18.2c4.5-0.7,9.6-1,12.2,3.4c2.8,4.8-1.2,8.4-4.3,11.6
		c-4.8,4.8-10.9,8.3-16,15.3c10-3.6,16.6-10.6,25.8-11.5c5.8-0.6,12.2-1.3,15.2,5.1s-3.6,8.6-7.3,12.7c7.9-0.8,14.7-4.9,22.3-4.6
		c14,0.4,4.1,9.8,5.3,15.2c10.1,0.4,22-7.3,28.5,7.6c1.9,4.3,7,1.4,10.5,0.7c13.3-2.7,22.4-1.5,16.5,15.9c-0.7,2,27.6,0.6,28.3,3.1
		C741.8,404.5,731.7,415.3,719,411z"/>
	<path class="st6" d="M301.8,438.6c-12,30.5-19.2,30.2-64.8,25.9c-47.8-4.5-93.6-6.7-136.5,21.2c-12.7,8.3-29.8,11.4-45.9,4.2
		c48.4-34.4,96.7-69.1,151.3-93.4c14.5-6.5,28.5-14.5,44.6-16.8c1.7,0.6,3.2,1.5,4.6,2.8c11.7,14.5,27.1,25.5,38.7,40.1
		C297.7,427.2,304.4,430.7,301.8,438.6z"/>
	<path class="st7" d="M46.6,578c17.7-15.5,33.3-16.4,53.9-1.1c16.2,12,38,12.6,58.8,3.1c11.1-5.1,23.5-5.5,31.3,8.8
		c2.8,5.1,9.6,8.1,14.6,12c24.5,18.6,50.4,34.5,79.8,44.3c8.3,12.3,18.9,23.9,12.4,40.7c-39.6-8.5-76.7-24.4-113.4-40.7
		C137.5,624.4,91.1,603.1,46.6,578z"/>
	<path class="st8" d="M715.5,396c-26.1-1.6,3-12.4-3.6-18c-6.5-2.8-12.6,4-19.7,2.6c-4.2-0.8-11.7,5.7-9.7-6.6
		c1.2-7.5-7.4-4.8-11.9-4.6c-7.3,0.4-13.8,6.8-22,3.8c-1.6-8.9,9.5-10.2,10-19.2c-8.8,2.7-17.1,5-25.3,7.7c-4.1,1.4-9.3,5.6-12,0.7
		c-3.1-5.7,3.3-8.7,7.4-11.5c2.4-1.7,5.3-2.6,10.1-4.9c-20.8-11.7-30.9,11.4-47.8,10.6c0.5-17.2,17.9-20.2,26.2-31
		c-16.3-2.4-21.9,0-43.8,17.2c-3.1,2.5-6.1,8.8-10.8,3.6c-3.7-4.2,0.1-8.8,3.6-11.5c11.5-8.9,23.3-17.4,36.4-27.1
		c-12-6.6-18.9,3-26.3,6.3c-9.8,4.3-18.2,11.8-27,18.3c-3.2,2.3-6.2,5.6-9.4,0.8c-2.4-3.6,0.9-5.5,3.4-7.6
		c14.1-11.6,28.1-23.4,43.9-36.6c-25.1,4-44.6,16.3-66,23.8c29.4-29.2,63.4-49.1,105-54.6c1.1-0.5,2.3-0.8,3.6-0.9
		c6.8,2.6,5.1,7.1,3.4,12.5c-7,21.9,2.8,45.3,22.8,56.6c20.2,11.5,43.2,15.8,64,25.5c7,3.3,14,6,18.9,12.4
		c2.5,0.5,42.8,14.3,45.2,14.7C782.5,391,729.5,392.7,715.5,396z"/>
	<path class="st9" d="M1078.6,542.9c-1.3-7.7-2.6-15.4-3.9-23.1c19.6,23,45.2,38.1,70.4,54c29.8,18.8,60.7,34.5,94.6,44.5
		c6.3,1.9,9.1,8.4,9,15.7c-0.2,10.6-7.2,16.4-15.2,20.6c-22.2,11.7-46.2,18.7-71.2,19.3c-15,0.3-30.6,4.4-45.1-3.3
		c4.6-8.2,12.1-12.1,20.9-10.8c23.7,3.6,44.4-4.2,64.5-15.6c-19.8,10.4-41,8.3-62,7.5c-5.6-0.2-13-0.7-12.9-8.5
		c0.1-7.3,7.5-8.4,13-8.8c14.1-1.1,28.5,0,42.1-8.5c-11,3.3-21.3,4-31.6,2.3c-7-1.2-15.6-3-15.6-11.6c0-9.7,9.9-7.1,16.7-8.9
		c-6.4-0.4-11.8-2-17.3-2.9c-7.4-1.2-15-9.1-22.4,1.2c-1.4,2-5.1-2.6-7.2-5l0.1,0.1c-2.2-3.3-3.4-7.6-2.8-10.9
		c2.5-13.9,1.2-23.7-16-27.1C1079.1,561.5,1073.8,552.8,1078.6,542.9z"/>
	<path class="st10" d="M703.8,628c-0.2,1.6-0.3,3.2-0.5,4.8c-4.3-1.2-8.3-2.1-12.7,1c-30.3,21.7-65.3,34-99,49.1
		c-2.6,1.1-5.2,1.8-8,0.6c-2.6-1.9-4.7-4.5-5.1-7.6c-1.3-12.1-7.8-15.9-19.3-13.3c-4.9,1.1-10,0.6-14.3-2.7
		c-1.1-1.7-1.1-3.3,0.2-4.9c27.7-10.8,56.7-17.7,84-29.9c37-16.4,74.7-31.3,112-47c5.4-2.3,10.5-4.9,16.5-4.2
		c4.3,14.2-8.9,16.4-16,21.7c-9.7,7.2-20.5,12.8-25.3,24.9C713.4,624.7,707.2,623.9,703.8,628z"/>
	<path class="st11" d="M591.7,774.8c-35.5-8.1-71.3-15.3-101.2-38.4c6.9-5.9,13.8-1.6,19.9,0.9c22.1,9.2,45,15.1,57.7,17
		c-19.9-2.5-48.2-15.1-77.6-24.3c-3.1-1-6-2.4-8.4-4.6c-4.1-3.7-6.7-8.3-3.7-13.6c3-5.5,8-2.8,12-1.4c16.1,5.9,30.5,16.3,48.1,18.5
		c-15.5-3.5-30.4-8.6-42.7-19.1c-5.6-4.9-14.2-10.9-8.1-18.9c5.6-7.5,13.1-0.5,18.5,3.3c11.4,8.2,23.1,15.4,36.4,18.9
		c0.3-0.3-0.9,0.1-2.2-0.6c-9.1-4.9-25.9-6.5-22.3-19.3c3.8-13.5,17.3-3.3,26.6-1.8c5.1,0.9,10.3,0.8,15.3,1.7
		c20.8,10.1,33.7,29.6,51.2,43.7c5.7,4.6,11.1,10.1,17,14.8c10.2,20.7,7.8,25.2-13.9,25.1C606.8,776.5,599,778.6,591.7,774.8z"/>
	<path class="st12" d="M329.1,662.8c5.7,3.5,9.6,8.1,18.5,7.5c21.5-1.5,42.9,3.6,64.6,4.7c22.6,1.1,39.5-5.1,53.1-22.8
		c5.1-6.6,12.4-11.7,14.4-20.4c-1.1-5.8,3.1-6.1,7-6.6c4.1,0.4,7.3,2.4,9.5,5.8c0.6,1.8,0.7,3.6,0.2,5.5c-3.8,9-13.7,13.2-18.2,24
		c13,4.2,27.3-5.1,38.9,3.8c1.5,1.2,2.1,2.8,2.1,4.7c-13.5,12.8-31.7,14.3-48.1,20c-10.4,3.6-17.5,8.9-19.2,20.2
		c-35.7-1.3-71.6-0.7-106.5-9.8c-10.2-2.7-8.4,3.8-9.7,8.8C323,694.6,323.7,679,329.1,662.8z"/>
	<path class="st13" d="M1105.5,601c1.8,0.8,5,2.4,5.1,2.1c9.1-15.4,20.5-3.5,30.2-1.7c8,1.4,15.9,0.9,24.4,0.2
		c-4.7,15-18.1,8.5-29.6,14.4c21.5,15.2,41.1,6.4,60.8,1.7c-16.2,24.4-42.7,19.9-65.8,26c20,3.3,39.7,6.9,59.4,0.1
		c6.1-2.1,11.9-4.7,18-6.8c3-1,6.9-1.8,7.8,2.4c0.4,1.8-1.5,5.2-3.3,6c-22.9,10.6-45.1,26.3-72.2,18.7c-10.2-2.8-14.8,7-23.1,6.5
		c-33.8-3.9-66.1-11.9-92.6-35.2c24.7,2.7,47.3,15.8,72.5,15.6c8.5-0.1,21.9,4.7,24.3-4.2c2.3-8.5-3.4-20.4-8.4-29.2
		C1109.9,612.1,1105.1,607.9,1105.5,601z"/>
	<path class="st14" d="M881.5,450.1c-6.3-3.8-13.4-4.6-20.5-3.7c-60,8-120.3,1.8-180.4,3.7c6.8-20.2,21.7-30.4,40.4-39.1
		c27.7,4.8,55.2,7.8,83.3,9.2c6.3,0.3,10.5,4,15.4,6.9c16.7-1.5,33.3-3,50-4.5c3,5,2.1,8.9-3.9,9.8c-5.7,0.9-11.5,0.2-17.3,0.3
		c7.6,0.3,15.3-0.7,22.8,0.5C880.6,434.8,887.6,438.8,881.5,450.1z"/>
	<path class="st15" d="M451.8,709.2c-12.4-13.2,0.1-17.4,8.6-21c18.9-8.1,39.6-11.5,57.9-21.6c1.9-1.8,4.7-3.8,6.7-2.4
		c13.4,9.4,28.6,17,35.6,33.2c-14,2.7-26.6-6.8-42.5-7.3c8.5,20.3,30.9,14.2,43.5,28.9c-29.7,0.1-50.1-14.8-72.5-30.9
		c6.3,19.7,6.3,19.7,59.5,41.6c-17.8,3.6-25.4,1.5-67.6-18.4c-2.4,10.1,4.4,11.8,11.2,13.9c25.7,7.9,50.3,19.3,77.2,23.5
		c6.6,1,12.7,4.7,18.6,8.5c-35.3,5.5-65.3-12.6-97.5-20.9C475.3,730.7,463.9,719.4,451.8,709.2z"/>
	<path class="st16" d="M819.7,427.1c-33.8-3.5-67.9-4.6-100.5-15.5c8.3-26.8,31.1-40.4,58-34.9C803.1,383.7,816,401.5,819.7,427.1z"
		/>
	<path class="st17" d="M831.5,713.8c18.2,1.7,21.3-6.5,14.5-21.7c-12.6-28.5-11.3-60.7-24.6-89.3c-5.2-11.2,8.3-34.9,17.6-36.6
		c-4.2,25.7,6.2,48.8,13.7,72.2c3.4,10.4,0.4,24.7,14.8,30.4c2.9,1.1,2,5.8,0.7,8.8c-4.6,10.7-1.4,19.9,4.9,28.8
		c7.5,10.8,0.3,15.8-8.3,13.4C853.8,716.6,841.7,720.3,831.5,713.8z"/>
	<path class="st18" d="M329.1,662.8c2.2,15.1,4.4,30.3,6.6,45.4c0.7,8.4,7.1,20.5-1.5,24.3c-9.3,4.1-13.4-9.2-18.3-15.7
		c-7.2-9.6-12.4-20.5-18.5-30.9c-2.5-13.8-8.1-26.5-14.9-38.6c-8.5-14.1-8.4-28.3-0.1-42.5c9.5-5.7,18.8-12.7,31-7.7
		C318.5,619,326.4,640.3,329.1,662.8z"/>
	<path class="st6" d="M336.8,361.1c-2.7,4.3,0.2,9.5-7.8,13.8c-16.2,8.7-25.8,40.5-26.9,60.1c-5.4,4.4-10.2-14.2-13.5-18.1
		c-11.1-13.3-26-22.7-36.8-36.2l-1-1.1C277.7,365.5,306.4,359.3,336.8,361.1z"/>
	<path class="st19" d="M738.8,364.3c-26.5-10.2-53.4-19.7-79.5-30.9c-31.1-13.4-39.8-38.6-26.2-69.6c0.6-1.4-2.2-4.3-3.4-6.4
		c17.1,2.8,15.6,16.8,15.6,28.2c0,27.7,10.5,35.8,29.2,41.9c19.8,6.5,39.6,12.6,56.7,25.4C735.9,356.2,739.1,358.5,738.8,364.3z"/>
	<path class="st20" d="M591.7,774.8c6.3,0.1,12.6,0.6,18.8,0c6.5-0.6,15.1,4.2,19-3.5c3.7-7.3-0.3-14.5-6.2-20.1
		c-18.2-14.7-35.1-31.4-49.3-49.3c-2.9-6-1-16.7,10-19.8c2.6,0.2,5.1,0.4,7.7,0.6c-0.1,2.7-6.3,8.4,0.9,7.5
		c12.9-1.6,15.8,5.7,21.1,14.9c9.2,15.9,21.9,29.8,32.4,45c12,17.5,10.4,20.8-9.9,25.7C621.3,779.6,606.3,781.9,591.7,774.8z"/>
	<path class="st21" d="M881.5,450.1c-3.2-22.6-23.3-11.1-34.7-17.2c6.1-6.8,20.7,5.1,23-10.4c1.8-3.5,4.9-3.2,8-2.8
		c3.3,16.8,24.1,21,27.3,37.9C897.2,455.2,889.4,452.7,881.5,450.1z"/>
	<path class="st22" d="M42.6,495.8c-0.5,1.8-0.5,4.1-1.6,5.4c-10.4,12.2-20.2,24.6-22.8,41.1c-0.2-2.5-0.1-5.1-0.8-7.5
		C8.6,505.4,11.7,500.6,42.6,495.8z"/>
	<path class="st9" d="M1074.7,519.8c-6.8-1.2-15.9,3.5-19.7-6c-2.8-7.1,4.9-6.9,8.4-9.6C1067.2,509.4,1070.9,514.6,1074.7,519.8z"/>
	<path class="st23" d="M657.4,469.6c57.8-1,114.9,6.7,172.3,11.5c10.3,0.9,17.8,6.7,19.7,15.6c2.2,10.2-6.8,13.9-15.3,16.2
		c-24.7,6.7-49.5,13-75.2,14.6c-19.2,1.1-36.6,9.2-52.6,17.4c-44.9,23.1-90,45.6-137,64c-18.7,7.3-37.8,15.8-58.9,15.3
		c0.5-26,11.9-23.1,23.3-30.5c29.2-7.5,57-19,84.2-31.6c19.8-9.1,27-27.9,20.3-46.1c-9.3-25-8.7-26.9,13.1-41.6
		C653.5,472.9,655.6,471.4,657.4,469.6z"/>
	<path class="st24" d="M643.1,513.3c10.8,13.1,2.2,40.1-16.6,49.6c-29.3,14.9-59.5,29.3-92.8,34.1c-5.7,5-7.7,12.7-25.8,9.1
		c-47.4-16.5-39.4-46-16.7-73.7c20.4-24.8,47.7-36.6,77.3-38.8C597,491.5,629.3,496.4,643.1,513.3z"/>
	<path class="st23" d="M658,470c-16.8,19.8,3.7,42.8-23,43c-39.1,0.3-126.9-0.4-148.9,34.1c-15.2,23.9-11.5,42.3,14.3,49.7
		c4.7,1.3,8.2,3.5,10.2,7.9c0.2,12.8-8,16.9-17.3,11.8c-24-13-39.6-35.6-57.7-55.2c-1.7-1.9-0.3-4.9,1.6-6.9
		c1.4-20.2,10.1-39,18.3-56.2c10.6-22,35.4-28.1,59.2-28.5C558.3,469,614.3,470,658,470z"/>
	<path class="st25" d="M703.8,628c-1.3-10.3,6.5-6.9,11.5-7.6c29.2,9.4,28.7,9.2,45.4-19.2c5.2-8.8,7.2-21.1,19.9-23.8
		c4.7-2.1,9.3-4.4,14.1-6.2c4.4-1.6,9.4-2.3,12,2.5c2.1,3.9,3.3,10.5-0.4,12.6c-14.3,7.9-6.4,13,1.4,18.5c2.9,2,4.5,4.4,2.7,8.4
		c-6.1,1.9-10.2-4-15.8-4.4c-4.9-0.4-9.1-5.5-17.8-0.3c10.2,7.1,19.7,13.8,29.1,20.4c-13.6,7.9-22-0.6-32.4,3.6
		c10.6,13.1,29.8,14.7,40,31.7c-21.4-1-34.2-19.9-58.9-20.1c24.2,20.1,49.5,27.5,70.2,42.8c-15.5,2.7-28.2-3.4-40.5-10.6
		C757.5,660.3,730.7,644.1,703.8,628z"/>
	<path class="st26" d="M487.3,627.9c-3.2,0.1-6,0.8-7.7,3.9c-18.7,0-37.3,0-56,0c-9.9,0-19.3-2.1-27.1-8.1
		c-11.3-8.6-13.4-18.1-1.8-28.8c11-10.1,23.9-18.6,30.9-32.6c1.2-0.6,2.8-1.3,3.6-0.6c21.6,16.7,40.7,35.9,57.8,57.2
		C488.9,621.3,489.1,624.8,487.3,627.9z"/>
	<path class="st27" d="M780.7,577.4c-7.1,12.1-14.7,23.9-21.3,36.3c-12.5,23.5-24.2,25.5-44.1,6.7c-3.6-14.2,8.3-18.1,16.5-23.4
		c10-6.4,20.6-11.6,26-23C765.5,575.1,773.9,570.8,780.7,577.4z"/>
	<path class="st23" d="M506.8,624.2c-3.9,2.5-7.8,5-11.8,7.6c-2.6-1.3-5.2-2.6-7.7-3.9c-15.6-26.6-40.9-43.9-61.7-65.6
		c1.4-4.3,7.4-9.2,11.5-7.9c15.4,23.4,36.1,41.7,57.7,58.9c8.2,6.5,11.7-3.3,15.7-8.6c7.5,2.3,7.7,10.3,0,19.3
		C509.3,624.1,508,624.1,506.8,624.2z"/>
	<path class="st28" d="M282.5,527c-2.2,31.2-19.6,52.7-46.9,64.2c-2.6,1.1-4.9,1.3-7-0.7c-3.4-3.2-1.1-5.8,1.2-8.1
		c26.6-27.2,27.9-58.4,15.3-92.2c-3.4-9-0.2-13.3,10.6-9.6C271.7,485.9,282.7,504.1,282.5,527z"/>
	<path class="st3" d="M282.4,604.8c0,14.2,0.1,28.3,0.1,42.5c-30.4-7.7-57.5-20.9-77.3-46.4C230.7,608.2,256.7,603.3,282.4,604.8z"
		/>
	<path class="st29" d="M126.9,488.3c17.7-0.1,28.5,10.9,28.1,28.6c-0.4,16.1-10.2,25.9-26.4,26.1c-17,0.3-31-11.6-31.3-26.5
		C97,500.7,109.9,488.4,126.9,488.3z"/>
	<path class="st13" d="M1078.6,542.9c2.8,11.2,7.2,20.5,21.4,19.4c9.8-0.8,14.7,0.5,8.6,12.6c-3.7,7.4-2.2,17.3-3,26.1
		c-15.7-11-19.3-32.5-37.3-42c-6.2-3.3-6.2-12.1-5.5-19.3C1069.5,533.6,1072.6,545.7,1078.6,542.9z"/>
	<path class="st30" d="M480,632c12,7.1,43.6,14.5,38.3,34.6c-13-4-26,0.5-39,0c-3.6-0.2-52.5,9.3-53.2,4.4c-0.4-2.4,2.9-25.9,5-28
		C437.7,636.4,473,638.4,480,632z"/>
	<path class="st31" d="M289.9,635.4c0.3-6.7-0.6-11,0.9-14.3c2.7-6,4.9-15.1,13.1-14.1c6.5,0.8,8.7,7.9,9.7,15
		c3,20.8,6.9,41.5,10.4,62.2c0.7,4.3,2.7,9.4-2.8,11.8c-5.9,2.6-7.8-3-10-6.5C300,672.2,292.6,653.3,289.9,635.4z"/>
	<path class="st32" d="M545.2,662.4c9,1.5,14.6,6.4,15.6,15.8c-7.3-0.6-13.2-4-18.3-8.9C538,665.1,540.4,663.2,545.2,662.4z"/>
	<path class="st33" d="M132.4,520.8c0.2,13.4-9.6,11.5-16.8,9.5c-6.8-1.9-12.3-7.9-9.2-16.2c3.8-10.2,10.9-14.5,21.7-9.3
		C130.4,509.9,131.8,515.3,132.4,520.8z"/>
	<path class="st34" d="M132.4,520.8c-8.4-3.5-7.5-9.4-4.4-16c6.1-1.2,13.2-3.5,15.4,5.1C145.7,518.6,139,520.1,132.4,520.8z"/>
</g>
</svg>
