<?xml version="1.0" encoding="utf-8"?>
<!-- Generator: Adobe Illustrator 23.0.1, SVG Export Plug-In . SVG Version: 6.00 Build 0)  -->
<svg version="1.1" id="Layer_1" xmlns="http://www.w3.org/2000/svg" xmlns:xlink="http://www.w3.org/1999/xlink" x="0px" y="0px"
	 viewBox="0 0 1280 1024" style="enable-background:new 0 0 1280 1024;" xml:space="preserve">
<style type="text/css">
	.st0{fill:#D72908;}
	.st1{fill:#ED3A0B;}
	.st2{fill:#EE3810;}
	.st3{fill:#F93A14;}
	.st4{fill:#D5301F;}
	.st5{fill:#F06632;}
	.st6{fill:#F75D19;}
	.st7{fill:#EF7655;}
	.st8{fill:#E63D14;}
	.st9{fill:#F47C5D;}
	.st10{fill:#EE3512;}
	.st11{fill:#35AACC;}
	.st12{fill:#73CFF0;}
	.st13{fill:#72CFEF;}
	.st14{fill:#70CEEF;}
	.st15{fill:#71CFEE;}
	.st16{fill:#70D0EE;}
	.st17{fill:#72CDE8;}
	.st18{fill:#EE3911;}
	.st19{fill:#72CCE5;}
	.st20{fill:#ED3916;}
	.st21{fill:#DB3014;}
	.st22{fill:#72CEE8;}
	.st23{fill:#77C3D9;}
	.st24{fill:#D4321B;}
	.st25{fill:#35A8C9;}
	.st26{fill:#74CCE3;}
	.st27{fill:#CA3721;}
	.st28{fill:#74C6D9;}
	.st29{fill:#D5332C;}
	.st30{fill:#7DBDCA;}
	.st31{fill:#70CDE9;}
	.st32{fill:#77C4D9;}
	.st33{fill:#79C1D1;}
	.st34{fill:#83B1C3;}
	.st35{fill:#7ABFD1;}
	.st36{fill:#5EE2F0;}
	.st37{fill:#78D0E5;}
	.st38{fill:#70D3DF;}
	.st39{fill:#7BB2AC;}
	.st40{fill:#75C5CB;}
	.st41{fill:#7DBDC1;}
	.st42{fill:#76CACC;}
	.st43{fill:#85B3C0;}
	.st44{fill:#BE5B44;}
	.st45{fill:#59F2FE;}
	.st46{fill:#5FE0E8;}
	.st47{fill:#34AACD;}
	.st48{fill:#72CDF3;}
	.st49{fill:#71CDF3;}
	.st50{fill:#ED3B0D;}
	.st51{fill:#FA621E;}
	.st52{fill:#35AACB;}
	.st53{fill:#9FDFF4;}
	.st54{fill:#70CEED;}
	.st55{fill:#6FCFEF;}
	.st56{fill:#FB761E;}
	.st57{fill:#75CBE6;}
	.st58{fill:#EF7E5F;}
	.st59{fill:#EE7E5F;}
	.st60{fill:#A1D9EE;}
	.st61{fill:#75CCEA;}
	.st62{fill:#7DC2CF;}
	.st63{fill:#F17457;}
	.st64{fill:#F27E5C;}
	.st65{fill:#73CDDC;}
	.st66{fill:#71CFEA;}
	.st67{fill:#6ECEF1;}
	.st68{fill:#E0431C;}
	.st69{fill:#7AC1D3;}
	.st70{fill:#7FBCC1;}
	.st71{fill:#6EC7CD;}
	.st72{fill:#71C8CC;}
	.st73{fill:#6DD7EB;}
	.st74{fill:#F87A60;}
	.st75{fill:#EA5638;}
	.st76{fill:#E25A22;}
	.st77{fill:#D9B0B5;}
	.st78{fill:#302A2A;}
	.st79{fill:#70CFEC;}
	.st80{fill:#9CDAF2;}
	.st81{fill:#75CADB;}
	.st82{fill:#6FCFF0;}
	.st83{fill:#ED3B10;}
	.st84{fill:#D82D13;}
	.st85{fill:#70CDF2;}
	.st86{fill:#D22E13;}
	.st87{fill:#6ECCF1;}
	.st88{fill:#6ACCEE;}
	.st89{fill:#A2DCF3;}
	.st90{fill:#F27B5D;}
	.st91{fill:#EC3A10;}
	.st92{fill:#ED3D13;}
	.st93{fill:#ED3A13;}
	.st94{fill:#EF7E62;}
	.st95{fill:#EA5737;}
	.st96{fill:#ED3C12;}
	.st97{fill:#F37A5F;}
	.st98{fill:#ED3812;}
	.st99{fill:#A0DEF3;}
	.st100{fill:#EF7C60;}
	.st101{fill:#9EDEF1;}
	.st102{fill:#ED7C62;}
	.st103{fill:#A1DEF2;}
	.st104{fill:#70CDF1;}
	.st105{fill:#70CEF2;}
	.st106{fill:#6FCDEF;}
	.st107{fill:#6FCDF2;}
	.st108{fill:#E83C13;}
	.st109{fill:#E33F1C;}
	.st110{fill:#71CCF2;}
	.st111{fill:#82E0FC;}
	.st112{fill:#E3D1C7;}
	.st113{fill:#C4B4C1;}
	.st114{fill:#EA3C11;}
	.st115{fill:#9FDEED;}
	.st116{fill:#E44A32;}
	.st117{fill:#DE613A;}
	.st118{fill:#F37C5C;}
	.st119{fill:#F27D60;}
	.st120{fill:#75CBE1;}
	.st121{fill:#72CFE5;}
	.st122{fill:#EC8464;}
	.st123{fill:#7BC0D8;}
	.st124{fill:#6FCDF0;}
	.st125{fill:#72CEF1;}
	.st126{fill:#EB3B18;}
	.st127{fill:#EA612A;}
	.st128{fill:#6C6E65;}
	.st129{fill:#A0E0F4;}
	.st130{fill:#9FDEF3;}
	.st131{fill:#EC3A12;}
	.st132{fill:#EA3C17;}
	.st133{fill:#D42E1B;}
	.st134{fill:#A7D5E1;}
	.st135{fill:#2F3031;}
	.st136{fill:#3A3530;}
	.st137{fill:#A6D4E3;}
</style>
<g>
	<path class="st0" d="M1143.3,277.7c12-3.2,23.8-7.6,36-9.2c29.1-3.9,44.1,7.3,45.4,36.4c0.9,22.5,2.6,43.1,16,62.7
		c12.1,17.7-4.7,35.1-5.9,53.1c-1.7,24.6-22.6,22.9-43,26.8c22.2,9.2,25.7,21,16.3,40.5c-9.1,19-13.3,40.5-19.3,61
		c-3.4,11.8-8.9,22-20.2,27.5c-17.7,8.6-36.3,15-50.2,30.4c-7.1,7.9-16.3,2.7-24.6-0.4c-3.8-1.4-7.6-5.8-11.7-1.1
		c-2.9,3.4-0.8,7,0.7,10.3c8.2,17.5,0.4,23.8-16.3,26.6c-27.6,4.7-52.3,20.1-74.1,34.7c-46.4,31.2-95.9,36.9-148.1,34.3
		c-17.1-0.9-32.8-1.9-48.8,6.1c-15.9,7.9-33,6.8-50.8,7c-34.6,0.4-69.2,6.9-103.7,11.7c-54.3,7.6-108.5,13-163,1.8
		c-5-1-10.4-2.5-15.1-1.5c-14.4,2.9-25-2.4-33.4-13.7c-6.2,1.9-12.3,3.4-19.3-1.9c3.9-8.3,11.2-10.3,18.8-11.9
		c11.3-1.7,20.9,6.9,32.3,5.1c3.4-0.1,6.8,0.4,10,1.3c32.8,8.1,65.5,10.7,99.4,5.7c36.3-5.4,72.1-19.1,109.9-8.4
		c9.4,2.7,18.4-3,26.9-7.4c20.8-11.5,44.5-3.2,69.4-9.7c-10.5-9.6-21.4-9.6-31.6-11.7c-7.5-1.5-16.7,0.2-20-10
		c0.2-3.8,2.3-6.4,5.4-8.1c5.3-2.4,11-2.5,16.7-2.7c20.4,1.4,42.5-4.5,59.2,14c3.6,4,9.6,5,12.5-1.6c2.4-5.5-2-7.7-6.2-9.5
		c-6.8-3-16.7-2.5-16.1-14.1c12.9-11.7,28.7-4.8,43.1-6.7c9.3,1.1,13.7-5.1,17.5-12.2c1.5-1.4,3.2-2.4,5.1-3.2
		c14.3-1.8,24.2-11.8,38.3-21.2c-18.1-2.7-37.5,2.4-46.1-17.3c-13-24.7-9.3-29.4,23.4-29.7c18.8,4.4,34.8,13.9,49.3,28.7
		c-3.5-15.2-22.3-32.4,7.2-40.5c15.4-4.2,24-0.7,25.6,16.2c0.6-15.4-4-24.2-21.6-20.8c-10,2-19.5,5.7-29.5,7.6
		c-11.1-0.6-15.5-4.7-6.7-14.4c4-4.4,9.7-6.2,15.4-7.4c15.3-1.4,27.8-9.9,41.1-16.5c24.4-7.6,31.9-2.2,32.5,23.2
		c0.1,5.1-0.6,10.2-0.8,15.3c-0.1,4.4-3.9,11.8,4.9,11.4c6.9-0.3,10.7-6.7,8.1-12.7c-7.4-16.5-8.3-35.9-22.1-49.5
		c-1.1-1.9-1.4-4-1-6.1c5.8-7.1,13.1-10.9,22.3-10.5c16.7,15.1,27.1,36.1,48.2,51.2c-17.8-19.2-33.9-36-49-53.6
		c-4.3-13.9-14.5-6.6-22.8-6.4c-15.6-9.6-3.9-15,3.1-21.2c17.6-10,31.5-4,44.7,9.4c6.8,6.9,11.5,17.4,25.4,18.4
		c-1.6-10-10.1-11.9-15.5-16.3c-5.6-4.6-12.3-8.2-14.6-15.8c-1.7-5.9-1.8-11.9,2.2-16.8c4.4-5.4,10.3-4.8,16-2.7
		c8.8,3.2,16.2,9,24.4,14.7c-24.8-17.8-2.4-35.1,1.9-52.4c-8.7-1.8-8.9,4.1-10.4,7.6c-10.9,24.7-12.9,25.5-36.2,13
		c-3.2-1.7-6.3-3.6-8.8-6.3c-8.3-19.8-0.5-40.1-1.4-60.1c-0.3-6.2,2.8-11.7,11-8.9c23.9,21.5,28.1,23.6,43.8,21.3
		c-2.9,0.1,1.3-1.5,1.1-1.4c-17.3,4.6-28.2-4.3-29.6-19.7c-1.4-15.8,13.3-16.8,25.1-17.1c15.2-0.5,29-2.7,35.9-18.9
		c1.7-5,3.1-10.2,6.8-14.3C1115.4,279,1130.3,281.4,1143.3,277.7z"/>
	<path class="st1" d="M275.5,202.6c2.8-1.5,5.7-2.9,8.5-4.4c15.8-11,34.1-14.8,52.5-18l0.1,0c13.6-13.9,33.7-4,48.5-13.3
		c1.2-1,1.6-2.3,1.2-3.8c-1.9-8,1.4-13.7,7.7-18.2c3.3-1.6,8.8-2.4,9.5-4.8c5.9-20.8,28.1-25.1,39.6-40.7c11.8-16,12.9,6.7,20.6,9.7
		c7.5-4.3,3-13.3,7-19.1c2.9-4.2,6.8-11.9,10.5-7.4c10.4,12.8,17.5,1.2,22.7-3.1c13.3-10.9,26.1-9.3,42.1-8.3
		c23.7,1.5,48.8,1,71.2-10.9c33.1,10.2,69.2-4,101.9,12.9c6.7,3.4,17.6,1.3,25.7-1.2c29.6-9.2,59.2,0,88.5-1.8
		c40-2.4,78.3,9,117.6,9.4c18.2,0.2,36.1-2.1,52.8,7.3c1.4,2.6,1,4.8-1.4,6.6c-4.6,2.7-9.7,3.1-14.8,2.3c-23.7-5-47.7-3.3-71.3-1
		c-15.1,1.5-30.1,3.2-45.3,2.7c-2.4-0.1-4.8-0.4-7.1-0.8c-40.9-13.8-82.3-17.9-124.5-5.9c-8.6,2.4-17.5,1.4-25.8-1.6
		c-18-6.4-36.8-7.5-55.4-10.5c-28.5-4.6-54.8,3.5-81.9,7.1c-4.3,0.6-8.8,3-12.8,2c-30.3-7.6-52.7,6.8-74.5,25.3
		c-17.1,14.6-41,18.5-57,35.4c-3.8,4-12.3,5.3-10.5,12.3c1.8,7,10,3.7,15.2,5.8c2.3,0.5,4.4,1.5,6.4,2.7c2.7,2.3,4.7,4.9,4.5,8.7
		c-4.6,8.4-11.8,6.2-19,5.2c-8.5-1.2-16.5,1.2-26.5,6.2c43.7-15,56.1-8.2,55.8,28.5c-0.4,4.4-1.9,8.5-3.5,12.5
		c-3.3,6.4-4.8,14.9-14.7,14.2c-4.1-0.1-11.9-15-11.4,3c-3.7,12.3-11,20.5-24,22.7c-2-0.7-3.6-2.1-4.7-3.9
		c-3.7-7.7-1.7-17.2-8.8-27.1c-0.5,16.6-0.2,30.6,0.1,44.7c-2.5,23.5,6.6,44.1,15.6,64.8c8.5,22.3,11.4,45.5,11.9,69.2
		c-1.3,10-4.4,18.6-15.6,21.1c-3.4-1.1-5.9-3.4-7.6-6.5c-14-44.9-23.7-91.2-43.1-134.4c-6.4-14.2,3.5-27.4,2.3-41.2
		c-0.4,3.8,0.5,8-1.3,11.3c-13.4,24.7-3,49.2-2.3,74.2c1,41.2,26,66.3,43.9,96.8c2.9,8.2-1.1,14.1-6.3,19.5c-3,3.1-6.5,5.8-9.6,8.8
		c-35.4,33.3-35.4,33.3,2.9,58.2c0.8,2,0.9,4.1,0.3,6.1c-10.3,14-26.8,16.1-43.2,22.5c10.4,5.7,19.8,10.9,29.8,14.5
		c20.4,7.3,37.4,18.9,49.7,37.3c4.9,7.4,11.9,12.7,19.1,17.7c5.7,4,10.4,8.8,3.6,16c-10.4,5.3-20.1,1.5-29.8-2
		c-12.6-5.1-26.2-5.6-39.1-8.9c-6.9-4.1-15.2,1.8-22-3c-8.4-7.4-22.1-1-29.3-11.4c-6-3.3-12.5-5.5-19-7.7c-7.2-5.4-18.6-3.4-23-13.6
		c-13-5.1-21.5-15.6-29.8-26.2c-11.2-13.8-26.8-19.7-42.9-24.7c-78.3-24.4-125-85-167.5-150.3c-2.2-3.4-2.2-8.4-3.3-12.6
		c21.8-5.1,10.1-26.7,17.9-37.1c9.8-13,26.8-19.1,42.3-25.1c2.6,19.4,4.8,38.8,19.6,53.8c2.9,3,2.2,8.4,0.7,12.7
		c-14.2,19.4-14,22.8,6.1,35.9c12.6,8.2,22.8,17.8,30.5,30.9c8.6,14.6,23.3,22,38.2,28.3c26.8,11.5,53.3,22.8,76.2,42.4
		c22.5,19.2,43.2,9.8,47.4-19.1c2.1-14.5,7.6-26.7,19.1-36.1c5-4.1,11.5-8.9,10-16.1c-5.3-25.8-9.2-52.3-22.7-75.4
		c-5.2-8.9-14.8-11.6-24.9-11.2c-15.3,0.6-29.2-4-40.8-13.3c-16.6-13.2-30.4-11.3-43.4,4.7c-2.3,2.9-5.6,4.6-9.4,5.3
		c-14.3-5.7-23.8-20.8-40.7-21.4c-15.8-8.6-29.7-18.8-32.1-38.8c2.9-5.1,7.6-7.5,13.2-8.4c13.9,0.6,21,12.1,30.5,19.6
		c5.7,4.5,10.8,10.9,18.5,3.3c13.9-8.8,28.5-1.2,42.8-1.8c35.2-1.4,38.9-4.5,35.6-39.1c-0.9-9.1,3.7-15.3,7.5-22.4
		c5.1-9.6,14-17.2,14.6-29c-1.3-11.1-16.1-4.7-18.3-14.5C273.1,205.6,273.8,203.9,275.5,202.6z"/>
	<path class="st2" d="M1003.1,93c0.2-2.1,0.5-4.1,0.7-6.2c8.7,3.1,17.3,6.1,26,9.2c19.5,6.3,30,23.5,43.5,37
		c21.5,18,46.8,29.6,71.4,42.2c9,4.6,20.3,8.1,12.3,22.4c-17.8,13-36.6,24.2-55.3,35.7c-24.7,16.6-49.1,33.4-72.9,51.2
		c-15.6,11.7-32.1,22.7-53.3,20.5c-14.2-3-20.6-13.6-22.3-26.5c-2.8-21.7-10.9-40.5-24.3-57.5c-5.8-7.4-10.2-16.2-6.6-26.5
		c4.7-6.9,9.7-13.4,19.4-11.9c8.8,4.6,12.1,12.7,13.5,22c-1.8,12.9,8.9,19,12.5,24.4c-6.8-6.5-14.1-17-12.9-31.4
		c-1.6-12.7-2.6-25.4,2-37.7c19.2-15.1,39.3-6,57.8,0.2c26.6,9,53.2,11.5,82.1,9.3c-25.9-20.7-55-34.6-79.1-55.8
		C1011.1,107.9,1003.1,103.3,1003.1,93z"/>
	<path class="st3" d="M296.8,220.1c5.1,16.5-10.4,24.3-16.5,35.3c-5.3,9.5-6.5,16.2-3.6,25.9c6.3,21.4-0.7,33.2-23,35.4
		c-20.5,2-41.3,1-62,1.3c-23.4-6.7-30.7-18-24.4-37.7c7.9-8,15.9-15.9,28.7-13.2c23.1,14.5,31.7,13.2,52.4-9.6
		c-9.4,0.7-14,7.1-20.3,9.1c-20.8-1.7-4.2-16.8-8.6-24.5c1.4-4.3,4.6-6.7,8.8-8c4-3.2,7.9-6.4,11.9-9.5c3-4.9,6.7-8.4,12.9-7.9
		C267.1,224.4,282.2,219.1,296.8,220.1z"/>
	<path class="st4" d="M370.5,625.4c14.3-1.3,27.7,2.1,40.8,7.6c-4.5,5.6-9.7,4.9-14.7,3c6.2,8,11,19,9.9,29.8
		c-1.9,20,6,32.3,23.3,39.9c2.8,1.2,4.3,3.8,4.6,7c-6.5,2.2-13,4.3-23.8,7.9c9.4,1,14.2,1.6,19.1,2.1c-19,12.6-30.1-6.8-41.5-13.9
		c-11.4-7.1,2.6-22.5,3.7-35.4c-26.7,6.7-13.1-10-8.5-20.6c-12.6-3.2-17.9,6.1-25.9,8.2c-5.7-12.8,5.6-18.3,10.7-26.3
		C369,631.6,368.9,628.3,370.5,625.4z"/>
	<path class="st5" d="M447.1,951.8c-31.4-28.2-63.2-56-88.3-90.5c-16.9-23.2-31.8-47.4-34.9-77c2.6-1.5,5.6-1.9,8.3-3.3
		c13.7,39.3,27.3,78.6,61.7,105.4c16.1,11.7,32.9,22.7,43.6,40.4c8.1,13.7,25.1,19.5,30.8,35.3C457.4,966.7,451.6,960.6,447.1,951.8
		z"/>
	<path class="st6" d="M332.1,781c-0.2,7.7-4.4,5.1-8.3,3.3c-11.5-45.3-4.8-91.2-4.4-136.9c2.7-11.8-1.5-24.2,3.2-35.8
		c6.3,11.5,20.4-2.4,26.9,8.5c-8.4,8.8-11.2,20.7-16.9,31C325.8,694.4,324.9,737.7,332.1,781z"/>
	<path class="st7" d="M112.9,384.2c-0.7-5.7-0.2-11.7-5.5-15.9c-16.9-13.7-19.2-31.2-12.2-50.9c1.6-3.6,4.9-4.2,8.2-4.6
		c11.5,1.6,14.5,8.9,11.8,19.1c-2.5,9.1-1.1,15.9,7.8,20.3c5.7,4.9,5.2,11.3,4.4,17.8c-1.1,7.7-1.6,15.7-9.6,20
		C113.9,389.9,111.1,389,112.9,384.2z"/>
	<path class="st8" d="M122,354c-18.3,3.2-17.6-8.8-12.8-19.2c4.9-10.5,0.7-15.9-5.8-21.9c1.9-4.1,5.8-3.7,9.3-4
		c19.3,0.6,26,13.5,28.9,30.1C137.7,347.4,132.9,354.8,122,354z"/>
	<path class="st9" d="M138.7,338.9c-4.3-13.9-13.1-23.7-25.9-30.1c1.5-1.4,3-2.8,4.6-4.2c4.5-1.3,8.9-2.7,13.4-4
		c7.7,13.9,17.8,25.6,31,34.4c-0.5,0.8-1.1,1.7-1.6,2.5c-1.6,1.1-3.4,2-5.3,2.6C149.5,340.4,143.7,344.9,138.7,338.9z"/>
	<path class="st10" d="M987.5,459c-12.6,5.3-13.5,7.2-6.6,14.5c2.4,12.6-5.8,18.6-15.5,19.1c-11.4,0.5-11.8-10.3-13.5-19.2
		c-5.4-28.2,6.7-54.9,6.4-82.6c-0.1-8.6,3.6-17.2-1.6-27.1c-12.4,4.9-16,14.6-13.8,26.2c7.4,38.2,0.5,78.6,16.4,115.6
		c-0.1,3.6-1,6.9-3.3,9.8c-14,9.7-22.5,5.3-23.4-11.1c-1.8-32.9-7.7-64.4-23-93.9c-5-9.7-2.1-20.2,0.7-30.3
		c8.2-30,2.4-56.9-17.8-80.5c-1.3-1.9-2.4-4-3.3-6.2c-9.1-29.8-22.4-58.6-20.8-91c0.4-7.4-5.4-13.3-8.1-20
		c-2.9-7.2-7.9-14.7,0.8-21.6c3.1-1.4,6.3-1.5,9.5-0.4c9.8,5.8,10.5,19.2,21.8,26.2c3.2-11-9.6-19.2-4.1-29.1
		c5.5-6.4,11-5.6,16.6-0.1c11.5,20.2,18,40.4,1.8,61.6c-5.6,7.2-5.7,14.9-0.2,22.4c5.5,7.5,8.8,15.9,8.5,27.6
		c5.7-10.5,0.4-18-0.1-25.9c-0.3-4.5-0.7-9.2,4.5-11.1c4.5-1.6,8.9-0.5,11.9,3.2c14.5,17.9,16,40.6,21.1,61.8
		c0.9,3.7-3.8,5.5-7.2,7.2c-4.4,2.1-14-2.3-12,8c1.4,7.1,5.6,13.7,11,18.8c4.4,4.1,7.8,0.4,10.6-3.3c6-8,7-24.4,22.5-17.4
		c14,6.4,7.5,20.4,7.8,31.7c0,1.5,0.3,2.9,2.2,6.7c6.1-9.4,8.4-21,19-24.9c2.7-1.1,5.4-1.9,8.2-2.3c5.4-0.8,12.2-3.8,15.3,2.7
		c2.8,5.7-1.8,10.7-5.5,15.1c-0.9,0.6-1.8,1.2-2.8,1.8c-10.4,4.6-10.2,16.8-8,22.5c5.8,15.4-4.2,29-1.3,43.4c3.4,3.4,4,7.3,2.4,11.7
		c-9.5,8.6-8.3-8.3-15-6.5c-7.1-6.7-3.8-14.8-3-22.6c0.4-4.3,1.2-9.8-5.2-9.7c-5.3,0.1-12.1,4.1-8.6,9.2c9.7,13.8,0.9,24.7-2.5,36.8
		C977,437.7,987.5,447.3,987.5,459z"/>
	<path class="st11" d="M434.4,712.7c-10.4-2.4-18.1-9.6-26.8-14.6c-16.3-9.5-3.4-19.2-4.6-28.3c-0.7-5.8-5.9-23.5-11.8-34.4
		c5.9-7,13.7,0.8,20-2.4c10.7,3.6,21.6,5.5,33,4.6c5-5.1,11.1-4.5,17.3-3.5c19.9,5.1,40.6-1.2,60.5,4.2
		c10.6,6.5,17.3,17.2,26.6,25.1c0.7,1.3,1.2,2.7,1.7,4c4.2,10.2-5.6,25.5,4.5,30.7c10,5.2,24.1,1.1,36.2-0.7
		c1.9-13.9-23-10-15.7-26.3c12.3-3.8,23.8,0.6,35.5,3.2c8.6,15.1,26.3,16.3,39.5,22.8c9,4.4,22.9-8.4,29.2-20.9
		c6.7-2.9,12.1-0.3,17.1,4.2c-1.9,11.6-1.8,22,13.7,23.1c1.1,1.9,1,3.7-0.5,5.4c-8.5,7.7-18.8,13.5-29.8,10.2
		c-40.6-12-78.7,7-118.1,9.1c-32.5,1.7-64.6,2.3-95.6-9.7c0.6-4.3,4.1-9.4,1.9-12.7c-12.2-18.7-2.6-32.8,12.3-49.3
		c-20.4,4.8-29,17.4-37.9,29.5c-4.7,6.4,0.8,8.5,4.5,11.9c6.1,5.7,14.7,10,13.7,20.6C450.3,723.8,443.2,714,434.4,712.7z"/>
	<path class="st12" d="M709.6,704.8c-7.6,0-15.1,0-22.3,0c-2.4-11.3,6.1-15.5,9.2-22.3c-3.3-10.7-4.9-21.4,1.2-31.7
		c6.6-11.1-4.6-23,1.4-34.1c5.5-11.8,6.8-25.4,16.8-35.2c5-4.8,5-12.1,3.6-18.7c-8.8-42.1-6.2-86.3-23.1-126.9
		c-1.2-5.6-2.4-11.3-4-16.9c-1.8-7.9-1.9-16-1.8-24.1c0.2-5.5,0.4-10.9,2.5-16.1c10.3-5.6,22.1-0.1,32.6-4.4c5.5,2.6,8.1,7.5,9.9,13
		c2.3,8.6,2.5,17.5,1.8,26.1c-1.9,23.7,4,44.6,18.2,63.6c8.4,11.2,14.6,23.7,10.4,38.7c-9.7,16.3-16.9,32.8-12.6,53.2
		c2.3,10.6-4,21.1-8,31.1c-7.5,13.7,13.3,18.1,9.9,30.5c-1.1,2.8-3,5.3-5.9,6c-13,3.2-20.7,9.2-14.9,24.3c1,2.6-0.9,5.6-3,7.8
		c-2.6,2.4-5.2,4.7-7.8,7.1C728,690,729.9,703,709.6,704.8z"/>
	<path class="st13" d="M857.6,633.7c-1.5,7.2,4.4,19.5-11.3,17.1c-14.1-4.4-28.5-1.3-42.8-1.9c-18.3-0.8-29.2-12.8-26.4-31.2
		c1.2-7.8,5.5-15.3-1.3-22.5c-2.7-4.5-6.1-9.9-4.2-14.4c9.9-24.2,0.2-47.6-1.9-71.2c0.3-12.7-1.4-24.9-7-36.4
		c-2.6-5.3-4.6-11.2-3.4-17.1c4.9-24.8-1.9-48.1-8.7-71.5c-0.2-2.3,0-4.5,0.8-6.7c6.1-7.1,13.7-5.3,21.3-3.6c3,1.8,5.3,4.2,7.2,7.2
		c10.9,23.4,19,48,30.9,70.9c6.4,12.3,7.2,25.8,4.2,38.9c-4.1,18.3-4.9,36.5-3,55c-0.1,8.9-0.7,17.8-5.2,25.7
		c-5.8,10.1-6.3,17.3,7,21.4c7.6,2.3,9.3,8.6,5,15.9c-7.6,13,0,15.1,10.7,15.4C839.7,625,851.8,619.4,857.6,633.7z"/>
	<path class="st14" d="M910.1,548.7c10.5-9.4,24.3-7.4,36.5-11c8.6-2.5,13.1,4.1,16.8,11c4.2,7.9,9,15.9,4.1,24.9
		c-1.5,2.7-6.5,5.9-8.6,5.2c-6.3-2.2-7.7-8.2-6.9-14.6c0.6-4.6,5.7-11.8-2.1-12.7c-9.2-1.1-19.4,2.3-25.9,8.8
		c-4.3,4.3-2.6,13.6,4.1,16.9c11.1,5.4,12.8,13.4,4.6,20.5c-8.8,7.7-12.1-3.6-15.9-8.8c-9.9-13.7-26.3-15-39.3-22.7
		c-7.9-6.5-11.4-14.9-11.6-25.2c-1.4-57.8-18.4-113.4-23.4-170.6c-0.6-3.7-0.5-7.4,0.8-11c6.1-8.6,14.4-12.4,24.7-11.9
		c3.4,1.3,6.2,3.5,8.5,6.4c5.6,8.2,9.7,18,7.9,27.1c-4.8,24.6,2.9,46.6,9.8,69.2c8.5,28.2,6.8,57,3.2,85.8
		C896.2,546,895.6,554.9,910.1,548.7z"/>
	<path class="st15" d="M859,588.5c5.7,15.4,18.2,15.2,30.6,12.5c12.1-2.6,19.6,0.1,22.1,15.7c-21.8-10.5-26.1,24.5-47.2,16.1
		c-12.7-12.7-21.7-28.9-38-38.5c-9.6-5.7-8.3-18-8.7-28.3c-0.7-30.6-4.8-61.2,7.1-91.2c6.1-15.3-2.2-29.7-10.8-43.3
		c-10.3-16.4-25.7-30.7-24.5-52.7c5.4-12.7,15.2-12,25.9-8.7c3.6,2.9,5.9,6.8,8.1,10.7c19,39.1,30.7,80.5,37.6,123.5
		c1.1,7.1-0.2,13-3.9,18.8c-10,15.6-4.3,34.5-10.4,51.2C844.5,581.4,856,582.7,859,588.5z"/>
	<path class="st16" d="M893.9,295.7c23.7,17.9,34.9,57.3,22.7,84.5c-5.3,11.8-6.2,21.5,0.5,33c15.9,27.3,21.5,57.8,20.4,88.9
		c-0.7,18.7,5.3,18.4,17.7,10.4c2-0.9,3.8-0.6,5.5,0.7c1,2,0.7,3.8-0.7,5.5c-11,8.9-23.6,14-37.5,16.3
		c-13.4-2.8-16.5-12.8-17.1-24.7c-0.6-11,2.5-23.1-2-32.9c-20.7-45.1-19.9-92.5-17.2-140.2C888.8,323.4,893.6,310,893.9,295.7z"/>
	<path class="st17" d="M987.5,459c-15-14.1-20.7-30-7.7-48.4c4.4-6.2,7.5-10.5-1.3-15.6c-7.1-4.1-7.4-13.2-2.1-16.7
		c6.6-4.4,14.9-10.8,23.5-8c6.5,2.2,3.9,10.3,3.4,15.8c-0.7,8.5-6.2,16.9-0.1,25.5c4.4,5,3.3,12,6.1,17.6c1.9-2.8,2.4-6.2,3.3-9.4
		c-0.1-4.5-0.2-9-0.3-13.5c2.1,0.7,4.2,1.2,6.2,2.1c25.4,11.9,25.1,11.8,35.9-14.7c1.8-4.5-2-16,10.1-12c9,2.9,12.1,12.1,7.4,17.5
		c-19.9,22.4-16,40.6,12.6,56.8c-2.6,1.1-5.2,2.3-7.8,3.4c-11-7.3-21.8-15-33.1-21.7c-4.7-2.8-10.6-11-16.1-0.8
		c-3.8,7.1-4.5,13.8,3.7,19c8,5.1,16,10.3,23.2,16.4c4.1,3.5,14.9,6.1,7.8,13.9c-5,5.5-14.5,8.5-21.9,1.8
		c-7.6-6.9-14.6-14.5-21.1-22.4C1010.2,454.9,1000.2,451.4,987.5,459z"/>
	<path class="st18" d="M859,588.5c-12.1-4.2-18.4-10.1-14.6-25.4c4.1-16.4,3.8-32.9,11.1-49.9c5.9-13.6-3.8-35-8.9-52.2
		c-8.2-27.2-18.3-53.9-27.6-80.7c-0.6-20.8,7.4-25.1,27-14.7c11.1,24.1,7.9,50.7,12.2,75.9c2.5,14.5,3.9,28.9,10.1,42.7
		c5.8,12.9,5.8,27.1,4,41.3c-1.7,13.9-3.2,28,5.2,40.6c-7.9-5.5-16.7,0.3-21.8,2.7C841.1,575.9,862.1,580.9,859,588.5z"/>
	<path class="st19" d="M955.1,505c-10-23.2-15.1-47.2-12.5-72.8c0.8-7.8-2-15.9-3.3-23.9c-1.1-7.3-2.5-14.5-3.6-21.8
		c-2.1-14.7,6.3-23.3,17.4-30.3c3.2-2,9.1-4.6,9.6-2.4c2.3,10.9,6.8,23.7,3.2,32.9c-4.7,11.9-7.1,21.6-2,33.3
		c1.1,2.5,1.4,7.4,0.1,8.5c-19.1,14.7,0.6,34.8-7,51.2c-1.1,2.3,3.4,7.3,5.3,11c3-1.8,6.5-3.1,9-5.5c3.6-3.5,6.5-7.8,9.6-11.8
		c11.6-8.6,23.7-18.8,23,8.1c2,2.2,1.7,4.3-0.7,6c-7.1,3-14.1,6-21.2,9C975,505.7,967.1,512,955.1,505z"/>
	<path class="st20" d="M889.5,331.8c7.2,12.3,7.9,25.8,3.5,38.6c-8.3,24-4.6,46.3,4.7,68.8c10.1,24.5,20.6,49.2,12.9,76.9
		c-2.8,10.3,6.2,13.8,12,18.9c-5.8,2-11.7,3.8-17.4,6.2c-2.1,0.9-5.8,3.1-3,6.1c1.4,1.5,5.1,1,7.7,1.4c-14.8,5.1-21.6,1.7-19.1-12
		c7.4-39.5,1.6-77.2-11.1-114.7c-7.5-22.1,5.5-47.3-8.3-68.9c-6-13.1,1.8-19.1,11.9-23.9C886,328.9,888,329.8,889.5,331.8z"/>
	<path class="st21" d="M822,566.5c-0.7,16.1,3.5,27.4,21.2,32.7c14.8,4.4,16,21.1,21.3,33.6c-2.3,0.3-4.6,0.6-6.9,0.9
		c-8.2-10.3-18.7-5.7-28.2-3.5c-10,2.4-17.1-0.7-22.4-8.9c-5.9-9.2,3.8-10.1,7.5-14.7c8.6-10.6-1.7-10.6-7.3-10.8
		c-17.2-0.7-15.5-10.5-9-20.3c5.5-8.4,7.6-17.2,9.4-26.6C821.7,547,816.5,561.2,822,566.5z"/>
	<path class="st22" d="M797.5,655.3c5.8,3.5,12.3,4.1,18.8,3.9c6.3-0.2,11.8,0.7,12.4,8.6c0.5,7.6-0.8,14.6-7.2,19.6
		c-6.6,5.2-14.1,3-17.2-2.4c-13.1-23.2-34.3-16.7-53.9-16.7c-14.8-2.9-14.6-11.3-8.3-22.3c3.8-6.6,10.9-9.5,15.9-14.8
		C778.6,626.5,783.6,648.6,797.5,655.3z"/>
	<path class="st13" d="M460.6,718.6c-9.3-8.1-15.2-20.1-28.5-23c18.8-36.6,31.3-45.8,56.7-41.5c-6,7.8-11.1,15.6-17.3,22.3
		c-6.7,7.2-8,12.9-0.1,20.4c10,9.5,5.9,16.8-5.3,21.8C464.3,718.6,462.5,718.6,460.6,718.6z"/>
	<path class="st23" d="M1101.9,304.4c-1.1,12.9-19.2,26.3-33.4,24.5c-3.6-0.4-7.2-2.4-10.6-2.1c-8.8,0.8-19.9,2.4-17.9,13.9
		c1.5,9,8.6,17,20.9,14.2c6-1.4,11.4-8,18.1-2.5c0.9,0.8,1,4.5,0,5.5c-6.4,6.5-16.8,13.9-22.6,10.9c-13-6.6-31.4-8.7-34.6-28.3
		c0,0,0.1,0.2,0.1,0.2c4.4-6.8,10.8-12.7,10.3-21.9c0.9-2,2.2-3.6,3.9-5c18.3-1.9,36.4-4.3,52.9-13.8
		C1093.3,297.5,1100.2,294.9,1101.9,304.4z"/>
	<path class="st24" d="M797.5,655.3c-8.3-4.1-22.6,1.7-22.7-16.4c0-6-10.9-3.8-16.8-5.3c-2.6-0.4-3-2.9-4.4-4.5
		c-1.3-10.7-25.3-9.7-13.7-27.1c12.6-7,27.9-1.8,40.4-9.4c7.4,5.6,8.7,11.6,4.3,20.6c-9.1,18.6,3.4,36.5,24.1,34.5
		c12.9-1.3,25.5-3.2,37.7,3C830.1,653.5,813.1,646.6,797.5,655.3z"/>
	<path class="st25" d="M709.6,704.8c15-4.5,10.7-18.7,14.3-28.9c16.9,4.4,34.9,2.1,51.4,8.8c6.3,2.5,13.4,6.2,12,13.6
		c-1.2,6.2-8.9,6.3-14.7,7c-20.9,2.5-42.3-3.5-63,3.7C709.7,707.6,709.7,706.2,709.6,704.8z"/>
	<path class="st26" d="M960.1,518.7c-0.1-1.8-0.2-3.6-0.3-5.4c5.2-8,13.5-10.3,22-12.2c9.2-2.3,13.9,1.7,15.1,10.8
		c1.9,13.3,6.3,25.6,13.3,37.2c3.6,6,4.7,12.8-2.6,17.5c-7.4,4.7-16.2,11-24,7.2c-6.5-3.2-0.4-11.9,0.9-18.2c1-5,2.1-10.1,2.4-15.2
		C988.3,514.3,985.6,512.1,960.1,518.7z"/>
	<path class="st27" d="M1101.9,304.4c-2-3.3-5.3-6.8-8.5-3.9c-16.8,14.8-36.3,19.6-57.9,18.2c-5.7-1.6-14.3,1.1-14.2-9.4
		c27.8-5.7,55.5-11.4,83.3-17.1C1104.3,296.4,1105.6,301,1101.9,304.4z"/>
	<path class="st28" d="M1003.3,487.7c0.2-2,0.4-4,0.7-6c16.9,17.1,34,34.1,50.7,51.4c3.1,3.2,9,8.1,3.3,12.9
		c-5.6,4.7-8.9-2.3-12.3-5.4C1029,525.1,1013.4,508.6,1003.3,487.7z"/>
	<path class="st29" d="M753.6,629c1.5,1.5,2.9,3,4.4,4.5c-4.4,5.7-8.3,11.9-13.3,16.9c-10.1,10.2-3.9,14.4,5.7,17.9
		c-6.2,0.2-12.4,0.3-18.6,0.5C714.9,642,732.5,634.6,753.6,629z"/>
	<path class="st30" d="M1165.4,432.1c-0.5,7.7-4.6,13.2-11.8,13.4c-7.3,0.2-12.3-4.8-12-12.8c0.2-6.7,3.8-11.4,10.5-12.1
		C1160,419.9,1164.1,424.5,1165.4,432.1z"/>
	<path class="st31" d="M1108.2,354.8c-6.5-1.3-14.3-2.4-12.8-11.3c1.3-7.4,7.9-10.3,15.2-9.2c6.4,1,14.9,1.6,14.4,10.2
		C1124.5,354.1,1115.5,354,1108.2,354.8z"/>
	<path class="st32" d="M1215.9,336.6c0.3,6.5-3.2,9.2-9.3,9.5c-6,0.3-12.7,0.7-14.3-6.6c-1.6-7.4,4.5-10.8,10.4-11.4
		C1208.4,327.4,1214.6,328.8,1215.9,336.6z"/>
	<path class="st33" d="M1091.5,387.6c0.5-6.1,3.7-10,9.7-9.6c6,0.4,8.7,4.6,8.5,10.7c-0.3,6.1-3.1,10.1-9.4,9.6
		C1094.4,397.8,1091.7,393.5,1091.5,387.6z"/>
	<path class="st34" d="M1125.4,466.9c0.1,6.8-4.7,9-9.7,9.5c-6.2,0.6-11.5-2.5-12.3-9.2c-0.6-5.1,4-7.1,8.4-7.9
		C1118.2,458.2,1122.8,460.9,1125.4,466.9z"/>
	<path class="st35" d="M994,659.9c-5.2,0.1-9.2-2.5-9-8.6c0.2-5.9,4.1-9,9.9-8.7c4.5,0.2,8.3,2.4,8.7,7.6
		C1004.1,656.3,1000.5,659.2,994,659.9z"/>
	<path class="st36" d="M1053.9,588.2c-8.1-0.5-11.1-3.6-11.5-8.5c-0.6-7,4.6-8.8,9.9-8.4c4.7,0.4,7.8,3.8,7.2,9
		C1059,585.4,1056.1,588.1,1053.9,588.2z"/>
	<path class="st37" d="M1103.6,557.4c-0.8,5.3-3.3,8.6-8.5,8.4c-6-0.3-9.5-4.3-8.6-10c0.7-4.4,4.6-7.6,9.5-6.8
		C1100.7,549.5,1103.4,552.7,1103.6,557.4z"/>
	<path class="st38" d="M940.4,671.7c4.2,0.6,9.8,0.5,9.6,6.3c-0.2,6.5-5.8,7.7-11.1,7.7c-4.9,0-8.8-2.4-8.4-7.7
		C931,672.4,935.9,672,940.4,671.7z"/>
	<path class="st39" d="M908.7,642.5c0.7-4.6,2.3-8.8,7.9-8.4c4.1,0.3,6.3,3.8,6.3,7.7c0,4.8-2.2,8.9-7.7,8.5
		C911.1,650.1,909.5,646.5,908.7,642.5z"/>
	<path class="st40" d="M1065.7,615.6c0.2,4.7-0.6,8.6-6.5,8.9c-5.5,0.3-7.6-2.9-7.9-7.8c-0.3-4.7,1-8.7,6.5-9.1
		C1063.4,607.3,1065.3,610.8,1065.7,615.6z"/>
	<path class="st41" d="M1161.2,531c5.6,2,9.7,3.9,9.2,9.4c-0.5,5.2-4.2,7.7-9,7.4c-4.8-0.3-8.4-3.2-7.9-8.5
		C1153.9,534.3,1158.3,532.7,1161.2,531z"/>
	<path class="st42" d="M1139.3,397.9c-5.4,0-9.9-1.8-10.1-6.9c-0.2-5.1,4-7.3,8.9-7.3c4.1,0,7.4,1.8,8.1,5.8
		C1147.2,395.1,1143.5,397.2,1139.3,397.9z"/>
	<path class="st43" d="M1144,499c-0.4,4.2-3,6.2-7,6.3c-3.9,0.2-7.3-1.2-7.7-5.5c-0.5-5.4,3.1-7.5,7.9-7.4
		C1141.3,492.5,1143.6,494.9,1144,499z"/>
	<path class="st44" d="M981.7,501.1c-7.3,4.1-14.6,8.1-22,12.2c-1.5-0.3-3-0.6-4.5-0.8c-0.1-2.5-0.1-4.9-0.2-7.4
		c10.2,1.2,17.5-7.3,27-8.4C982,498.2,981.9,499.6,981.7,501.1z"/>
	<path class="st45" d="M1098.4,500.2c7.2-0.1,10.3,2,10.3,6.1c0,4.1-3.2,6.2-7.2,6.3c-4.7,0.1-8.8-1.7-8.2-7.1
		C1093.7,501.4,1097.6,500.3,1098.4,500.2z"/>
	<path class="st46" d="M907.8,693.2c-1,4.1-3.9,5.9-7.7,6.1c-4.5,0.2-9.4-1.1-9.8-6.1c-0.3-3.6,3.8-5.7,7.6-6.2
		C902.8,686.3,906,688.6,907.8,693.2z"/>
	<path class="st47" d="M446.3,175.8c-1.8-1.3-3.6-2.6-5.5-3.9c11.8-12.6,37-12.2,34.2-39.2c-9.7,14.9-33.2,16.3-33.7,39.4
		c-4.3,0.3-8.8,1.5-13,0.8c-7.3-1.2-19.1,5-20.9-4.5c-1.6-8.6,7.4-16.3,15.2-22.2c29.9-22.7,67.7-33.3,93.5-62.5
		c3.9-4.4,10.3-7.5,16-5.1c20.5,8.5,40.5,2.5,60.2-1.6c42.2-8.7,83.3-4.5,124.2,7.3c9.4,2.7,19.1,2.6,28.1-0.5
		c41-13.9,80.4-5.5,119.7,7.4c0.5,9.9-6.4,13.3-13.8,12.9c-27.6-1.2-34.2,19.2-41.2,39.5c-3,8.9-0.5,19.1-6.2,27.4
		c-10.1,5.2-21.2,0-31.5,3.2c-11.5-0.4-13-7.3-6-13.9c14.5-13.7,15.5-34.7,27.8-49.3c2.5-3,5.5-7.9,0-11.2c-3.4-2-6.9,0.4-9.9,2.6
		c-5,3.6-7,9.2-9.2,14.6c-8.6,22-20.3,42.2-34.3,61.1c-12,5.5-23.6,12.6-37.7,8.9c-7.1-6-3.9-12,1-16.9
		c20.1-19.7,33.7-43.4,42.1-69.6c-36.2,18-32.4,25.9-50.8,81.2c-1.6,4.8-1.6,10-6.2,13.4c-13.8,7.4-28.6,5-43.1,4.1
		c-60.5-4-120.3-15.7-181-17.1C457.9,182,451.2,181.4,446.3,175.8z"/>
	<path class="st48" d="M112.9,384.2c1.5,1.6,2.9,3.3,4.4,4.9c1.7,1.1,3.2,2.6,4.4,4.3c20.1,29.2,36.6,33.2,62.5,15.1
		c13.7-12.3,11.5-29.3,13.2-45.2c0.7-2,1.8-3.6,3.4-5c4.4-4.9,8.6-10.1,13.1-14.8c10.4-10.8,21.4-14.8,34.5-3.8
		c15.6,13.1,32.4,19.9,54.1,18.4c21.7-1.5,26.9,19.3,33,35.7c3.3,8.9,3.6,18.9,6.9,27.8c7.5,20.3,13.8,38.8-11.2,52.9
		c-10.3,5.9-11.4,20-13,31.7c-3.9,28.7-29.7,42.5-51,23.5c-24.9-22.2-54.2-33.9-83.1-47.6c-18-8.6-34.3-19.2-43.3-38.7
		c-5.9-12.9-20.7-15.6-30.6-24.2C91.6,402.8,91.7,397.7,112.9,384.2z"/>
	<path class="st49" d="M457.1,637.6c-4.3,0-8.6,0-12.9,0c-35.4-35.3-71.6-69.4-121.3-85.9c22.1-3.2,40.5-10.4,57.9-20.5
		c9.8-8.6,19.3-2.6,28.5,0.9c16.8,6.4,33.8,8.7,51.3,4c9.1-2.5,17.3-7.3,12.8-18.7c-8.7-22.2-10-45.7-13.5-68.9
		c-2.5-16.9-10.2-32.1-21.3-45.3c-5.5-10-8.1-20.5-4.8-31.9c3.9-8.5,10.8-9.8,18.9-7.8c2.3,0.9,4.3,2.4,6,4.3
		c12.3,26.7,22.1,54.2,24.5,83.8c1.5,18.6,5.7,34.6,26.4,40.8c8.9,2.7,13.6,11,15.4,20c4.4,21.6,9.2,43.2,4.4,65.4
		c-3.7,11.4-10.7,21.5-12.9,33.5C506.8,641.7,499.2,645.1,457.1,637.6z"/>
	<path class="st50" d="M446.3,175.8c57-3.1,112.7,9.6,169.2,13.7c25.3,1.8,50.5,6.9,75.8,0.6c17.6,11.3,17.6,14,0.3,37.6
		c-1.4,1.7-3.1,3-5,4c-4.1,1.7-8.3,2-12.6,1c-2-0.6-3.9-1.5-5.5-2.7c-4.9-5-8.6-11.1-14-15.7c-2.1-1.8-3.8-4-7-4.6
		c-2.1,4.6,1.7,9.2-0.1,13.8c-4.6,11.9-13,9.9-22,6.4c-13.6-7.2-19.9-21.5-29.9-30.5c0.8,9.8,7.4,20.8,1.5,32.6
		c-15.4,6.9-30.9,3-46.4,0.7c-9-4.6-15.7-12.4-23.7-18.5c-15.1-11.5-19-9.8-23.2,9.5c-0.6,2.8-1.3,5.6-2.6,8.3
		c-3.7,5.3-9.3,6.5-15.1,7c-14.4,0-26.9-3.1-31-19.8c-1-1.9-1.8-4.1-3.2-5.8c-6.1-7.4,8.4-19.9-3-23c-11.8-3.2-25.1-7.2-38.1-0.9
		c-5.6,2.7-11.7,6.6-18.7,1.2C407,173.1,430,186.6,446.3,175.8z"/>
	<path class="st51" d="M441.6,402.3c25.2,17.3,23.8,45.7,27.7,71.2c2.5,16.7,4.1,33.3,13.7,47.6c5.8,8.7,0.4,11.3-6.1,14.6
		c-22,10.9-44.6,13.2-66.9,2.7c-9.6-4.5-18.7-7.4-29-7.1c-0.1-1.5-0.1-3-0.2-4.5c8.4-8,19-5.1,26.7-6.6c-7.8-1.7-17.6-2.9-11.2-18.7
		c3.9-9.8-7-8.2-12.6-9.7c-4.2-1.1-9.4-1.1-11-5.8c-1.8-5.5,3.6-7.4,7-9.5c14.3-8.9,16.9-24.9,23.2-38.6c4.4-5.7,8.8-11.4,13.1-17.1
		c2.7-6.5,9-9.1,13.9-13.2C433.5,405.4,436,400.4,441.6,402.3z"/>
	<path class="st52" d="M1003.1,93c32.7,31.7,72.3,53.5,109.2,81.5c-29.4-2-59.1,7.1-88-5.1c-20.4-8.6-41.5-12.9-63.7-11.5
		c4.7-20,22-19.2,36.7-22.6c6.8-1.6,14.8,0.8,20.2-5.7c1.5-1.8,0.7-4.4-1.1-5.8c-7.5-5.7-15.2-2.7-22.7-0.2
		c-21.2,7.2-39,18.9-50.3,39.2c-8.7,3.4-17,0.7-25.3-1.7c-1.9-1.1-3.3-2.7-4.3-4.7c-0.5-19.5,13.2-27.3,27.6-34.9
		c14.5-7.7,31.7-10.1,43.4-23c1.4-2.8,3.5-5,5.8-7.1C994.7,92,998.9,92.5,1003.1,93z"/>
	<path class="st53" d="M455.1,219.3c9.4,6,16.6,16.2,29.5,15.2c15.9,35.1,36.7,69.3,23.6,110.5c-3.4,10.7,4.8,20.2,1,30.4
		c-6.6,6.8-15.1,6.6-23.6,7.1c-8.3-1.6-12-7.4-13.6-15.1c-3.8-25-11-48.9-23.1-71.1c-9.7-17.7-16-34.9-1.7-53.3
		c2.7-3.5,0.7-8.7,2.7-12.8C450.5,226,449.9,221.2,455.1,219.3z"/>
	<path class="st54" d="M393.9,442.5c-20.6-13.5-23.4-42.8-46.8-54.1c-3.7-1.8-3.8-8.2-1.3-12.2c9.7-15.6,3.5-29.9-3-44.1
		c-8.8-19.3-10.8-37.9,1.9-56.7c7.8-11.6,4.5-26.5,8.5-43.9c8.1,14.6,9.3,26.7,5.6,37.3c-6,17.1-0.2,31.2,5.7,46.5
		c14.9,38.5,26.6,78.1,34.9,118.7C400,438.4,401.4,443.4,393.9,442.5z"/>
	<path class="st47" d="M990.5,91.5c0,3,0,6,0,8.9c-23.9,1.8-45.2,9.5-65.6,23.2c-11.7,7.8-18.5,15.2-18.7,28.9c-0.8,2-2,3.6-3.7,4.9
		c-4.3,0.2-8.6,0.3-12.9,0.5c-5,4.9-9.9,10.3-17.6,4.7c-3,0-6-0.1-9.1-0.1c3.2-19.5,18.1-30.5,30.9-43c5.5-5.3,14-7.4,17.7-17.8
		c-17.5,6-32.2,13.5-41.6,27.7c-8.9,13.4-19.6,25.3-28.5,38.7c-6.9,1.6-13-0.2-18.5-4.5c-7.4-15.3,3.2-24.7,11.3-34.8
		c10.4-13,26.5-20.8,32.8-37.5c32-1.6,64-3.3,96-4.7C972.4,86.2,982.1,85.8,990.5,91.5z"/>
	<path class="st55" d="M867,91.4c2.4,11.9-4.9,18.3-12.5,25.7c-13.2,12.9-30.9,23-31.2,45.2c0.6,1.3,2.1,2.8,1.9,3.9
		c-4.5,26.8,4.8,51.9,8.6,77.7c-4.8,6.1-10.7,8.1-18,5.2c-5-3.3-6.5-9.1-10-13.5c-19.9-30.2-20.9-43.6-5-64
		c0.5-16.9-0.2-34.8,10.1-48.8c9.3-12.7,16.4-32.2,39.5-23c5.6,2.2,10.7-3.2,14-8.5C865.3,90.6,866.2,90.6,867,91.4z"/>
	<path class="st56" d="M393.9,442.5c1.8-2.8,3.7-5.7,5.5-8.5c1.1,1.3,2.2,2.6,3.3,3.8c3.4,18.6-5.8,35.3-26.4,47.8
		c9.1,4.3,22-4.6,28.3,5.5c3.7,6.1-0.4,15.4-8.4,20.9c8.9,2.8,16.4,5.1,25.1,7.9c-14,5.5-27,7.9-40.7,6.8
		c-14.5-4.3-33.5-4.6-37.8-21.8c-3.9-15.6,14.2-21.9,22.8-32.2C374.5,462,388.4,456.3,393.9,442.5z"/>
	<path class="st57" d="M320.6,345.2c-15.6-16.6-23.5-38.9-35-58.2c-7.3-12.3,5.2-26.7,14.2-33.7c10-7.8,20.2,9,18.6,13.5
		c-8.8,24.5,5.5,45.2,7.4,67.6C326.1,337.3,326.8,341.8,320.6,345.2z"/>
	<path class="st58" d="M449.9,230.2c-11.6,34.2,3,62.9,16.8,92.7c6.2,13.3,12.2,28.4,10.3,44.4c-7.2,9.7-14.3,5-21.4-0.3l-1.1,0.4
		l-1.2-0.3c-1.8-2.3-4.8-4.2-5.3-6.9c-6.4-37.3-19.1-73.8-14.4-112.5c1.1-2.5,2.8-4.4,5.1-5.6C447.8,243.2,445.3,233.4,449.9,230.2z
		"/>
	<path class="st59" d="M403,268.8c8.2-6.6,18.2-11.5,22.1-22.5c4.1,0.2,6.1,2.9,7.3,6.5c-9.8,34.4,1.6,68.1,3.2,102.2
		c-8.4-0.1-6.8,10.5-13.1,12.7c-6.6-2.5-7.5-8.5-8.7-14.4c-4-17.6-7-35.3-14-52.2C395.5,290.8,393.3,278.7,403,268.8z"/>
	<path class="st60" d="M403,268.8c-7.5,27.8,15.5,49.5,14.9,75.9c-0.1,2.9,0.6,5.8,0.9,8.6c-7,4.1-12.3,1.8-16.7-4.3
		c-12.8-20.3-21.3-41.7-17.4-66.5c5.6-4.7,3.6-19.1,17.1-13.5L403,268.8z"/>
	<path class="st61" d="M402.1,349.1c5.6,1.4,11.1,2.9,16.7,4.3c1.6,4.4,3.2,8.8,4.8,13.2c12.9,12.7,13.7,28.2,9.9,44.7
		c-5.4,4.1-10.4,9-17.7,9.4C411.3,396.9,406.7,373,402.1,349.1z"/>
	<path class="st62" d="M401.8,269.2c-9.1,0.1-9.4,11.5-17.1,13.5c0-17.6,0-35.2,0-55C405.4,237.3,402.1,253.8,401.8,269.2z"/>
	<path class="st63" d="M142.8,295c9-4.2,18-8.5,27-12.7c-7.9,21.4,13.7,24.4,21.9,35.8c-3.5,14.2-10.4,8.6-17,2.8
		C164.3,311.8,156.4,299.8,142.8,295z"/>
	<path class="st64" d="M252.7,219.4c6.8-5,12.4-12.1,21.4-13.5c4.5,9.8,23.9-4.8,22.8,14.2C282,229.3,267.2,231.3,252.7,219.4z"/>
	<path class="st9" d="M200.7,358.4c-0.2,1.5-0.5,2.9-0.7,4.4c-1.5,2.6-2.6,5.6-6.4,5.3c-9.4-5.5-16.9-13.5-25.6-19.9
		c-3.3-3.4-8.5-5.7-7.3-12c0,0,0.9-1.2,0.9-1.2C180.2,333.4,190.7,345.5,200.7,358.4z"/>
	<path class="st65" d="M428.1,251.6c-1-1.7-2-3.5-3-5.2c-0.3-2.1-0.9-4.2-0.9-6.3c-0.1-4.4-7-9.6-0.3-12.9c5.7-2.8,8,4.3,11.3,7.5
		c1.9,1.8,2.4,5,3.6,7.6c-0.5,1.6-0.9,3.2-1.4,4.8C435,250,433.4,254.6,428.1,251.6z"/>
	<path class="st66" d="M902.5,157.4c0.1-1.3,0.3-2.5,0.6-3.8c5.5-3,8.4,0.8,11.5,4.3c0.8,0.4,1.7,0.9,2.5,1.3
		c13.4,8.8,15.6,20.4,8.4,34.4c12.1,35.4,35.1,66.3,42.9,103.7c0.4,2.2,6,3.2,9.2,4.8c9.3,2.6,18.6,5.3,27.9,7.9
		c3.1,2.3,5.6,4.9,5.9,9c0.1,2.9-0.9,5.5-3,7.5c-15,6.4-9.6,25.5-21.3,35.1c-11.6-10.2-8.8-22.5-6.2-34.6c1.3-6.1,1.9-11.4-5.5-14.6
		c-9.4-4.1-8.9,4-11.4,8.6c-4.8,8.8-6.3,23.3-17,23.6c-10.1,0.3-8.7-15.1-14.4-22.4c-3.1-4-5.2-8.9-7.3-13.6
		c-3.5-7.8-3-14.6,7.6-10.8c21.8,7.9,15.4,1,10.2-13.8c-4.5-12.7-4.7-27.4-11.1-40c-2.5-4.8-4.4-11.5-14.2-10.2
		c1.8,13.5,12.3,27.3,1.4,40.7c-2.1,2.6-2.9,7.6-7.8,5.9c-4.3-1.4-5-6-3.6-9.2c5.5-13.4-0.6-22.3-9.7-31.2c-4.1-4-7.1-11.5-1.9-16.1
		C919.1,203.6,911,180.6,902.5,157.4z"/>
	<path class="st67" d="M941.6,162.4c5.8-22.8,48.3-52.3,70.2-47.7c7.2,1.5,17.9,3.5,16.3,13.8c-1.3,8.2-9.5,12.5-18.4,12
		c-18.7-1-35.8,2.6-49,17.4c-0.6,14.8-1.2,29.7-1.8,44.5c-1.2,3.4-3.1,5.6-7.1,4.3c-3.4-7.3-6.8-14.7-10.2-22
		C932.5,177.3,931.2,169.8,941.6,162.4z"/>
	<path class="st68" d="M941.6,162.4c-4.5,7.4-4.7,14.9-0.1,22.3c-5.4,3-10.7,5.9-16,8.9c0.3-12.2-2.5-23.7-8.4-34.4
		C925.5,158.3,934,156.2,941.6,162.4z"/>
	<path class="st69" d="M951.7,206.7c2.4-1.4,4.7-2.8,7.1-4.3c-1.5,15.5,12.2,19.9,20.1,28.6c3.4,3.7,11.7,7.6,5.2,13.7
		c-4.8,4.5-12.2-0.6-14.8-4.5C962.2,229.9,950.3,221.7,951.7,206.7z"/>
	<path class="st70" d="M986,189.1c-6.1-0.2-9.1-3.9-9.3-9.6c-0.2-5.5,2.4-10.5,7.8-11.5c6.8-1.3,8,4.9,9,9.8
		C994.7,183.7,991.5,187.3,986,189.1z"/>
	<path class="st71" d="M1021.1,271c-1.7,4.7-4.7,7.6-9.5,7.4c-5-0.2-7.9-3.2-7.5-8.3c0.4-5.8,3.8-9.7,9.7-8.5
		C1017.9,262.6,1020.5,266.6,1021.1,271z"/>
	<path class="st72" d="M1009.7,234.6c0.3,5.9-2.2,10.7-8,11c-4.7,0.2-7.2-4.3-7.9-9c-1.1-6.5,3-10.1,8.2-10.7
		C1006.9,225.3,1009.2,229.7,1009.7,234.6z"/>
	<path class="st73" d="M1034.8,226.4c6.4,0.1,8.7,3.5,9.2,8.1c0.6,4.8-1.4,8.9-6.1,9.8c-5.5,1.1-7.1-3.4-7.6-7.8
		C1029.7,231.9,1031.5,228.3,1034.8,226.4z"/>
	<path class="st74" d="M196.2,267.9c1.7-4.8,4.3-8.9,8.9-11.5c7.5,2.1,11.1,15.2,21.9,8.3c6.8-8.7,14.8-15.8,26.1-17
		c3.2-0.3,5.1,3.6,4,6.4c-4.4,11.4-12.9,20-23.6,24.4C219.3,284.3,203.9,288.3,196.2,267.9z"/>
	<path class="st75" d="M227,264.7c-11.1,7.6-19.1,6.5-21.9-8.3c5.9-4.5,11.8-9,17.6-13.6C231.9,248.6,213.3,259.9,227,264.7z"/>
	<path class="st10" d="M1009.6,318.2c-1.4-2.7-2.8-5.4-4.1-8.1c5.3-0.3,10.5-0.5,15.8-0.8c4.7,3.1,9.5,6.3,14.2,9.4c0,0-0.1,0-0.1,0
		C1026.7,319.8,1018.1,324.2,1009.6,318.2z"/>
	<path class="st76" d="M117.6,392.6c-0.3-1.1-0.4-2.3-0.3-3.5c3.7-6.3,5.5-13,4.3-20.4c3.3-4.5,7-8.2,13.2-6.1
		c5.8,13,5.9,27,6.5,40.9C126.2,416,124,399.6,117.6,392.6z"/>
	<path class="st77" d="M135.8,361.7c-4.8,2.3-9.5,4.7-14.3,7c2.2-4.8,3.6-9.7,0.4-14.7c5.6-5,11.1-10,16.7-15.1
		c6.1-1.7,12-4.5,18.5-2.7c1,1.9,1,3.8-0.3,5.6c-5.5,5.5-13.7,7.9-17.4,15.5C138.6,359,137.3,360.5,135.8,361.7z"/>
	<path class="st78" d="M156.3,339.7c0.7-1,1-2.2,0.9-3.5c1.2,0.3,2.4,0.3,3.6-0.1c3.3,3.4,6.7,6.8,10,10.2c2.2,6-1.1,8.7-6.2,10.2
		c-3.7,0.3-7-0.6-9.6-3.4C152.5,348.4,153.4,344,156.3,339.7z"/>
	<path class="st79" d="M841.6,165.7c9.2-36.7,50.8-71.8,84.2-67.1c-22.6,21.9-47,38.9-62.9,63.9c-3.3,4.1-2.2,8.7-0.1,12.4
		c18.9,33.3,10.9,74,29,107.6c1.2,2.2,0.1,5.7,0.1,8.6c-11.8-1.4-19.4-9.7-27.3-17.5c-2.5-3.6-4.5-7.3-6.4-11.2
		c-5.9-19.5-8.1-39.7-19.2-58.1C832.7,193.8,837.2,178.4,841.6,165.7z"/>
	<path class="st80" d="M867.6,273.4c9.5,3.9,17.1,10.5,24.2,17.7c0.7,1.5,1.4,3.1,2.1,4.6c2.1,12.5,10.9,25.8-4.4,36
		c-1.3-0.1-2.5-0.3-3.7-0.8C860.9,312.2,856.6,298.6,867.6,273.4z"/>
	<path class="st81" d="M871.9,162.6c5.9-1.6,11.7-3.1,17.6-4.7c12.6,24.8,12.6,24.8,1.7,40.6C884.7,186.3,875,176.4,871.9,162.6z"/>
	<path class="st0" d="M1012.7,419.9c10.1,11.9-3.1,16.9-9.4,24.7c0-11,0-22,0-32.9C1011.8,408.1,1006.7,420.5,1012.7,419.9z"/>
	<path class="st27" d="M1009.6,318.2c8.6,0.2,17.2,0.4,25.8,0.6c-2.5,8.7-2.3,19-13.7,22.1c-1.7-6.4,4.3-10.3,5.3-16.5
		c-6.4,0.8-12.6,1.5-18.7,2.3C1008.7,323.8,1009.1,321,1009.6,318.2z"/>
	<path class="st82" d="M679.2,678.2c2.7,5.6,5.2,12.6-3.3,13.7c-12.7,1.6-24.6,30.9-38.9,1.9c-0.5-1-5.2-0.5-7.7,0.3
		c-14.4,4.2-15.7-5.3-16.5-15.7C598,666.1,591,649.7,588.2,631c0.3-8.7,5.9-15,10.3-21.6c18.4-27.7,15.6-59.2,16.1-89.9
		c0.2-10.2-9.2-16.5-13-25.2c-3.9-9-3.1-18.7-3.4-28.2c-1.3,13.1-1.1,25.9,6.3,37.5c2.8,4.4,4.3,9.5,4.3,14.7
		c0.1,10-1.1,21.5-12.4,23c-12.6,1.7-14.8-10.2-15.1-19.9c-0.6-24.2-7.9-46.3-17.2-68.2c-8.6-20.2-4.4-42.3-7.5-63.4
		c0.4-2.4,1.4-4.5,2.8-6.4c5.9-4.6,12.9-4.5,19.7-4.7c4.2,0,8.4,0,12.6-0.2c9.5,2.2,18.5-7.3,28.2-1.4c4.9,8.5,7.3,18,10.3,27.3
		c0.1,34,17.2,66.5,9.3,101.2c14.5,39.5,9.6,78.3-3.5,116.9c-3.2,7.5-17.6,8.9-14.8,16.6c4.1,11.1,12.9,20.7,22,29
		c2.2,2,5.5,3,7.8,0.6c3.8-4.1,1.8-8.8-1.5-11.4c-13.5-10.5-11.5-23.5-6.9-37.2c1.6-10.1,7.8-17.2,15.4-23.2
		c8.2-6.5,12.7-15.9,10-25.3c-7.2-25-2.4-50.9-7.1-76c-0.5-17.3-4.9-33.1-14-48.2c-10.5-17.6-9.9-38.2-11-58.1
		c0.6-2.3,1.7-4.2,3.4-5.8c4.9-1.7,10.2-1.5,14.5,0.9c6,3.3,11.4,7.5,17.4,0.3c6,7.4,3.3,17.3,7.4,25.3c4.8,12.6,8.6,25.6,13.5,38.1
		c4.5,11.9,7.2,24.4,5.6,36.9c-4,29.9,5.6,58.1,10.1,86.8c2.3,14.3,1.2,26.1-9,36.5c-24.1,14.5-24.9,16.4-19.2,44.3
		C681.4,661.2,685.7,669.9,679.2,678.2z"/>
	<path class="st83" d="M559.9,388.3c-0.3,46.9,25.8,88.4,27.4,135c0.2,6.2-0.6,15.6,8.6,14.6c7.3-0.8,8.2-9.3,7.9-16.1
		c-0.2-4.9-0.3-9.3-3.6-14.3c-12.2-18.3-11.1-38.3-5-58.6c1.1-3.7,1.4-7.4,6.4-6.5c3.7,0.7,3.7,4,3.6,6.8
		c-0.2,8.8-0.6,17.6-0.7,26.4c0,5.1-1.5,11.5,0.9,15.2c31.7,49.4,15.9,94-12.7,137.5c-0.7,1.1-0.6,2.9-0.9,4.3
		c1.3,2.7,2.2,7.5,0.2,8.1c-22.2,5.9-44.5,15.5-67.2,1.7c-22.5-2.8-45.5,2.2-67.7-4.8c11.4,0.1,22.9,0.8,34.3,0.3
		c20.2-0.8,13.2-21.3,21.3-30.9c8.2-4.9,12.2-16.6,24.2-15.1c4.1,2.2,5.4,6.1,6,10.3c1.1,2.5-0.3,9.7,5.2,5.2
		c8.7-7.1,13.2-17.6,14.8-28.9c5.5-38.8,10-76.8-7.1-115.2c-10.3-23.2-12.1-50-17.6-75.3c1-5.5,0.4-12.8,8.7-12.3
		C554.2,376.2,558.3,381.2,559.9,388.3z"/>
	<path class="st84" d="M679.2,678.2c-2.5-10.5-4.5-21.1-7.5-31.5c-6.2-22,1.1-34.8,24.3-41.1c7.6,3.3,8.1,9.3,5.8,16.2
		c10.3,21.3-4.1,40.4-5.2,60.7C690.7,681.1,684.9,679.6,679.2,678.2z"/>
	<path class="st85" d="M573.5,673.1c7,10.9,30.4,9.6,26.6,24.4c-3.8,14.7-23,3.5-34.5,7.4c-21.8,7.4-25.7-0.2-19.1-20.2
		c1.9-5.8,0.6-12.8,0.7-19.2c-3-8.8,0.4-16.4,8.9-15.8C568.5,650.7,574.6,659.9,573.5,673.1z"/>
	<path class="st86" d="M573.5,673.1c-2.2-2.8-5.2-5.2-6.4-8.3c-7.5-19.7-13.7-13-19.9,0.7c-12.9-2.3-19-11.3-22.4-23
		c22.8,0.1,46.3,5,67-9.8c7,15.2,14,30.4,21,45.6C599.2,680.5,586.7,673.6,573.5,673.1z"/>
	<path class="st87" d="M490.2,683.7c0.7-14,11.7-24.9,22.8-30.5c10-5,10.9,11.3,14.3,17.6c6,11.6-0.4,24.3-6.7,34.6
		c-3.6,5.9-12.2,4.6-18.1,1.9C493.7,703.3,491.3,694.6,490.2,683.7z"/>
	<path class="st88" d="M449.8,656.4c-9.7,8.3-18.2,17.8-28.6,23.6c-5.1,2.9-5.8-6.8-7.5-11.1c-3.8-9.3,3.7-13.1,9.7-17.1
		c7-4.6,14.6-6.9,22.2-1C447,652.1,448,654.1,449.8,656.4z"/>
	<path class="st89" d="M671.3,228.2c1.1,0,2.2,0.2,3.2,0.9c10.3,7.6,9.8,20.9,16.8,32.2c2.1-12.3-9-21.4-4.2-32.3l1.3,0.1
		c4.1-3.6,8.4-3.8,13-1.2c7.5,13.2,12,27.6,17.3,41.7c-4,35.7,6.9,70.8,4.1,106.5c-8.9,9.8-18,7.8-27.1,0.3
		c-12.9-5.2-9.3-17-9.3-26.4c-0.1-17.5-4.6-32.3-15.2-46.8c-15.9-21.7-21.3-47.5-21.9-74.3C656.3,216.7,663.8,224.1,671.3,228.2z"/>
	<path class="st90" d="M651.7,229.6c10.2,28.6,10.6,60.9,34.7,84.5c8.6,8.4,5.3,23.8,5.7,36.4c0.2,8.7-1.3,17.8,3.6,25.9
		c0,5.6,0,11.2,0.1,16.8c-7.7,0.2-16.9-2.2-16.8,10.7c-0.8,3.1-2.2,5.8-5,7.4c-7.1-8.1-1.8-18.1-4.2-27
		c-17.8-40.1-37.7-79.5-36.5-125.2c0.3-10.1-5.5-18.1-8.9-26.9c-0.4-2.5,0.1-4.7,1.5-6.8c6.8,0.5,15.5,8.5,18.8-4.9
		C652.3,219.3,649.9,226.1,651.7,229.6z"/>
	<path class="st91" d="M701.7,621.8c-1.9-5.4-3.8-10.8-5.8-16.2c9-7.9,10.5-16.1,7.5-28.8c-6.4-27.3-16.7-54.3-11.5-83.5
		c2.8-15.5-0.7-30.8-5.2-45.7c-2-7.5-0.8-14.3,5.9-18.5c3.5-2.2,6.2,1.3,8.1,4.5c10.3,28.5,18.8,57.4,18.6,88.3
		c-0.1,11.9,1.6,23.7,6,34.8c5.4,13.8,5.8,25.9-9.5,33.8C703,597,717.3,616.4,701.7,621.8z"/>
	<path class="st92" d="M753.2,380.2c10,23.7,19.6,47.4,11.3,74c-3.7,12,6.9,20.3,8.7,30.8c1.3,7.9,1.1,16,1.5,24
		c-4.2,3.3-4.7,12.3-13.3,8.7c2.4-9,2.2-18.8-3.7-25.2c-28.3-31-27.6-68.9-26.4-107.1c-2.7-5.7-2.9-10.9,5.2-9.5
		C742.2,376.8,748.5,375.8,753.2,380.2z"/>
	<path class="st93" d="M761.5,517.6c5.2-1.7,6.7-9.2,13.3-8.7c1.9,9.4,3.5,18.9,5.8,28.1c3.1,12.2,7.1,23.8-3.3,35.2
		c-5.8,6.4-0.6,13.8,2.9,20.3c-2.8,3.3,8.6,18.5-8.2,10c-6.1-3.1-10.9-5.2-16.2,2.6c-6.1,9-10.5-2.6-16-3.3
		c5.2-16.3,11.7-31.4,6-50.4C742.5,540,751.9,527,761.5,517.6z"/>
	<path class="st94" d="M753.2,380.2c-5.8,8.3-17.2-8.3-21.8,5.1c-2.9-3.1-5.7-6.2-8.6-9.2c-9.2-35.1-12.8-70.6-7.8-106.7
		c8.9,0.8,8.8,8.9,11.6,14.6c-0.1,20.8,12,37.4,18.6,55.9c4.1,11.6,10.4,22.9,8.7,36C753.9,377.4,753.7,378.8,753.2,380.2z"/>
	<path class="st95" d="M700.8,433.5c-14.3-5.1-10.1,8.6-14,14c-4.3-12.1-8.5-24.2-12.8-36.3c0.3-3.1,0.6-6.1,0.9-9.2
		c16.2-5.4,16,10.2,22.1,17.7C698.3,424.4,699.5,429,700.8,433.5z"/>
	<path class="st96" d="M697,419.8c-8.3-4.7-11.8-15.6-22.1-17.7c0.5-6-3.4-13.4,5.2-16.7c7.9-3,11.6,2.9,15.7,7.8
		C696.2,402.1,696.6,410.9,697,419.8z"/>
	<path class="st97" d="M721.9,282.4c-2.3-4.3-4.6-8.7-6.9-13c-6.9-12.6-15.7-24.5-15.2-40c-0.5-3.8,1.5-5.4,4.9-5.9
		c13.8,3.2,28.2,0.5,41.9,4.6c2,1,3.8,2.3,5.5,3.8c21,21.3,29.8,48.5,34.9,76.9c3.9,21.6,6,43.6,3.6,65.7c-3.6,6.4-9.6,6.3-15.7,5.6
		c-1.3-1.5-2.6-3-3.9-4.5c-11.9-19.9-18.1-41.6-18.7-64.8c-0.4-18.2-4.5-34.7-15.3-50.1C728.9,266.9,731.8,279.2,721.9,282.4z"/>
	<path class="st98" d="M774.9,380c3.5-5,8.8-4.2,13.8-4.5c1.6-1.4,2.4-1,2.7,1c1.6,13.8,9.1,24.8,17.2,35.3
		c21.3,27.8,35.4,56.5,14.8,91.3c-7.7,12.9,1.3,26,0.7,39.1c-0.4,8.1-1.3,16.2-2,24.3c-11-0.6-6.5-14.3-14.4-17.5
		c-4.7-19.6-4.1-38.9,2.4-58.2c4.1-12.3,2-24.2-4.1-36C793.5,430.8,781.8,406.4,774.9,380z"/>
	<path class="st99" d="M721.9,282.4c1.8-6.3,3.8-12.6,5.5-19c1.2-4.6-2.8-11.9,3.6-13.5c7.7-2,11.5,5.1,14.2,11
		c4.2,9.3,10.6,19.1,10.6,28.7c0,29.8,12,57,15.2,85.9c-5.7,0.4-11.3,4.5-17.1,0.4C744.3,344.4,720.9,317.7,721.9,282.4z"/>
	<path class="st100" d="M810.8,234.4c4.6,3.1,4,8.3,5.2,12.8c5.1,8,9.1,16.6,15.5,23.9c8,9.1,12.6,20.8,10.5,32.7
		c-3.3,18.6-0.6,36.3,3.1,54.2c0.3,2.6,0.6,5.1,0.9,7.7c-13.1-2.9-25.4-4.2-27,14.7c-1.7-3.2-3.4-6.3-5.2-9.5
		c-5.2-4.8-7.6-11.3-7.3-17.8c2-40.9-10.2-77.8-29.2-113.1c-0.1-2.2,0.5-4.3,1.5-6.3c8.5-3.7,17,0.3,22,5.1
		C810.3,248,807.3,234.9,810.8,234.4z"/>
	<path class="st101" d="M845.2,357.9c-11.2-13.3-13.3-28.2-9.6-45.1c3.9-17.5,1.2-33.6-15.2-44.4c-8.6-5.7-7.3-13.3-4.3-21.3
		c6-1.6,12.1-3.3,18.1-4.9c11.5,1.2,13.2,11.2,17.1,19.3c8.5,28.5,21.1,56.3,16.1,87.3C860.2,352.4,853.7,357.7,845.2,357.9z"/>
	<path class="st102" d="M867.4,348.8c-4.9-30.1-12.3-59.5-21.8-88.4c7.8-6.9,12.2,1.9,18,3.9c1.3,3,2.7,6,4,9.1
		c-3.1,22.2,4.5,40.8,18.2,57.6c-5.9,6.7-14.8,11.3-14.2,22.2C870.2,351.7,868.8,350.3,867.4,348.8z"/>
	<path class="st103" d="M778.8,238c25.8,29.2,31,65.6,33.3,102.4c0.6,10.1,2.9,20.3,1.8,30.5c-6.7,5.3-16.3-1.3-22.5,5.7
		c-1,0.1-1.9-0.3-2.7-1c-7.8-42-3.7-86.4-28.1-125c-4.3-6.8-9.5-11.4-14.4-16.9C758.4,224.6,768.9,229,778.8,238z"/>
	<path class="st104" d="M778.8,238c-11.1-0.2-21.3-6.7-32.7-4.3c-0.7-1.5-1.3-3-2-4.5c-3.5-3.2-4.7-8-3.2-11.8
		c5.6-14.2,0.9-27.8-1.3-41.6c10.1-25.6,27.4-47.7,35.7-74.3c1.3-4.2,9-7.1,14.3-9c4.6-1.7,10.7-2.5,14.4,1.9
		c4.1,4.8,1.1,10.7-2.1,14c-16.2,16.6-14.2,44.4-35.5,58c-3.4,2.2,0.8,4.5,3.7,5.1c21.6,14.6,24.1,21.3,14.5,43.8
		c-2.6,6.1-0.7,13.2-4.8,18.8C779.3,235.3,779,236.6,778.8,238z"/>
	<path class="st105" d="M643.1,185.1c-5.6-0.7-14,2.3-17.3-4.7c-3.7-8,5-11.4,9.7-15c19.6-14.8,16.3-38.1,21.2-58.1
		c4.2-17.2,23.7-26.8,37.3-15.5c8.5,7.1,2.9,16.5-1.5,23.1c-8.4,12.5-13.1,25-14.2,40.5C676.4,179.1,667.4,185.3,643.1,185.1z"/>
	<path class="st67" d="M576.7,179.5c0.9-13.1,8.1-21.1,15.5-29.3c10.6-11.7,17.1-24.9,16.7-41.7c-0.5-16.8,21-30.9,36.8-25.7
		c6.7,2.2,7.6,6.2,5,11.7c-12,24.8-23.1,50.2-36.7,74.1C606.1,182.3,591.1,181.4,576.7,179.5z"/>
	<path class="st106" d="M704.4,224.3c-1.5,1.7-3.1,3.4-4.6,5.1c-3.8-0.1-7.6-0.2-11.4-0.3c-1.1-4.8,0.7-8.8,4.3-11.7
		c11.9-9.8,8.1-18.6-1.3-27.2c-9.7-13.4,3.7-23.2,5.9-34.6c4.7-25.3,17.4-45.8,40.2-59.2c5.2-3.1,9.7-6.1,15.9-4.3
		c-3.2,27.8-21.9,47.7-33.4,71.1c-4.4,9-22.4,7-17.9,23C721.1,206,721.5,212.6,704.4,224.3z"/>
	<path class="st107" d="M591.5,88.5c-3.3,62.7-11.7,77.3-49,85.5C540.4,135.1,563.5,94.7,591.5,88.5z"/>
	<path class="st108" d="M704.4,224.3c17.1-13.9,0.7-25.6-2.5-38.2c12.6-3.5,25.1-6.9,37.7-10.4c19.1,16.3,6.7,35.3,4.5,53.4
		C730.4,231.8,716.7,233.8,704.4,224.3z"/>
	<path class="st105" d="M500,157.3c0-25.9,9.1-46.1,32.7-57.8c4-2,7.9-5,11.9-1.5c4.2,3.6,2.3,8.4-0.3,12
		c-11,15.6-20.8,31.3-21.4,51.7c-0.3,8.8-8.9,10.8-16.9,9.2C497.9,169.2,499.6,162.3,500,157.3z"/>
	<path class="st109" d="M779.7,234c-4.9-10-11.2-19.8,4.3-26.8c8.3-3.7,3.6-9.7,0.6-14.4c-4.6-7.3-9.8-14.3-14.7-21.5
		c10.3-6.3,20.6-9.1,30.8,0.1c-10,23.1-4.3,43.6,9.9,62.8c-0.8,6,4.2,17-10.5,9.1C793.9,240.1,786.3,238,779.7,234z"/>
	<path class="st110" d="M441.4,172.1c-6.1-7-7.2-16.2,0.8-20c14.9-7.1,23.2-23.1,39.1-29.1c-0.3,35.4-3.1,38.7-40.4,48.9
		C440.9,171.9,441.4,172.1,441.4,172.1z"/>
	<path class="st111" d="M288.2,517.8c-13.7,2-24.3-4.6-33.6-13c-11-9.9-22.4-18.6-37-22.1c-5.9-1.4-12.4-3.4-10.7-11
		c1.3-5.9,6.5-9.8,12.6-11c4.2-0.8,8.8,0,13-0.7c24.7-4,50.7-4.3,68.2-27.6c7.2-9.5,16.8-18.8,29.2-7.4c10.6,9.8,11,25.3,3.3,34.2
		c-13.2,15.3-24.2,30.2-27.3,50.7C304.3,520.4,294.9,517,288.2,517.8z"/>
	<path class="st112" d="M156.9,353.1c3.6,0.6,7.1,1.2,10.7,1.9c8.3,0.2,13,6,17.3,12c3.5,4.9,6.7,4.8,10-0.1
		c1.7-1.4,3.4-2.8,5.2-4.2c3.4,17.9,4.2,35.1-12.4,47.7c-1.8-0.4-3.5-0.8-5.3-1.2c-6.7-0.6-13,2.5-19.6,2.6c-8.9,0-17.3-1-22.8-9.3
		c-5.5-13.2-12.4-26.2-4.1-40.7c0,0-0.3,0-0.3,0C141.4,355.9,146.3,347.3,156.9,353.1z"/>
	<path class="st113" d="M139.9,402.5c8.8,1.7,17.6,3.3,26.5,5c-1.6,9.1-9,6.2-13.4,7.7c11.8,2.3,21.8-10,34.7-7.8
		c0.1,1,0.1,2.1-0.1,3.1c-24.2,25.5-57.4,17-70-17.9C125.6,394.5,127.5,410.7,139.9,402.5z"/>
	<path class="st114" d="M539.3,603.8c-0.6-4-1.1-8-5-10.4c-6.7-2.3-13.9-4.3-9.6-14.2c3.3-20.7-0.8-41.1-3.8-61.2
		c-1.7-11.5-4-24.1-22.8-22.6c-12.7,1-16.8-14.3-17.2-24.2c-1.6-36.6-17.4-69.3-25.2-104.1c7.1-1.4,14.2,4.6,21.4,0.3
		c-0.2,6.3,5,9.4,7.9,13.9c16.5,21,19.4,46.8,24.1,71.8c1.3,7.1-0.2,13,10.8,7.7c9.6-4.7,16.2,5,16.7,12.4
		c2.4,36.8,20.1,71.1,16.5,108.7C552,591.3,551.9,601.6,539.3,603.8z"/>
	<path class="st115" d="M428.1,251.6c3.1-1.5,6.2-3.1,9.2-4.6c-1.8,41.1,13.4,79.8,16,120.3c-5.9-0.2-12.1-1.9-16.6,3.9
		c-8.9-1.6-7.1-7.2-4.7-13C426.9,322.8,415.1,287.6,428.1,251.6z"/>
	<path class="st116" d="M432.1,358.1c1.6,4.3,3.1,8.7,4.7,13c1.6,10.4,3.2,20.8,4.8,31.2c-2.7,3-5.4,6-8,9
		c0.3-15.7-7.4-29.6-9.9-44.7C425.5,362.8,421.1,352.5,432.1,358.1z"/>
	<path class="st117" d="M524.7,579.2c0,7,6.3,9.6,9.6,14.2c-7.8,3.6-9.2,17.6-21.7,13.6C513.2,596.2,521.3,588.7,524.7,579.2z"/>
	<path class="st118" d="M559.9,388.3c-5.7-2.1-8.9-15.1-17.5-4c-5.6,1-6.8-3.3-8.5-7c-2.1-4.5-1.6-10.1-5.4-14.4
		c-5.5,3.6-5,12-11.6,14.5c-3.2,0.9-6,0.5-8.3-2.1c-6.8-13.2-12.5-25.3-2.8-41.1c6.5-10.6,3-24.3-2.5-36.3
		c-9.2-20.2-13.8-41.9-18.7-63.5c5.3-1.3,11.3-0.7,14.8-6.3c2.5-0.6,4.5,0,6.2,2c4.8,12.6,9.6,24,27.1,22.7
		c8.8-0.6,13.9,8.8,14.3,17c1.6,32.7,12.1,63.5,17.7,95.3c1.2,6.6,1.3,13.2-3.5,18.8C560.7,385.4,560.3,386.9,559.9,388.3z"/>
	<path class="st119" d="M625.2,402.2c-2.2-8.8-8.8-16.2-8.5-25.8c-5.2-4.1-6.6-10.6-9.7-18.3c-3.1,10.8-6.4,18.9-10.9,26.4
		c-4.5-0.2-9-0.5-13.4-0.7c-8.7-9.4-4.3-19.4-0.4-28.7c6-14.1,7.7-28,2.3-42.7c-3.8-10.2-1.5-20.2,2.3-30c3.6-9.1,5.6-18.3-1.4-26.7
		c-2.2-1-2.9-0.3-3.2,1.7c-1.4,9.9,0,23.9-12,25.5c-12.7,1.6-13-13.5-17-22.2c-4.2-9.2-8.4-18.8-7.1-29.5c0.7-0.8,1.4-1.6,2.1-2.4
		c15.7,0.1,31.4,0.2,47.1,0.3c2.2-1.6,4.3-1.4,6.3,0.3c16.3,23.2,26.3,48.1,25,77.7c-0.8,18.4,8.8,35.3,13.6,52.9
		c2.3,8.4,6.3,16.7,0.6,25.2l-1.1,0.2l-1-0.5C632.3,389.1,632.6,398.7,625.2,402.2z"/>
	<path class="st120" d="M502.9,229.3c-1.2-0.3-2.4-0.7-3.5-1.1c0.8-9.6-5.6-21.5,6.9-27.4c11.7-5.5,18.7,4.3,26.2,10.7
		c6,5,13.5,8.9,15.7,17.5c0,0-1.8,0-1.8,0C532,235.6,517.5,238.5,502.9,229.3z"/>
	<path class="st121" d="M598.8,229.9c-1.1-0.3-2.2-0.5-3.3-0.8c1.4-11.1-11.8-27.1-1.8-31.5c11.7-5.1,17.3,13.7,25.7,21.9
		c2.1,2,4.3,3.8,6.5,5.7c-0.2,1.2-0.4,2.5-0.6,3.8C616.7,237.1,607.8,235.1,598.8,229.9z"/>
	<path class="st122" d="M687.1,229c4,9.5,8.1,18.9,11.9,28.4c2.5,6.3,1.1,12.5-5.4,14.7c-6.6,2.2-8.2-4.2-9.6-9
		c-3.3-11.3-6.4-22.6-9.6-33.9C678.7,229.1,682.9,229,687.1,229z"/>
	<path class="st123" d="M651.7,229.6c-2.3-3.1-4.7-6.1-7-9.2c-2.9-6.5-5.9-13.1-9.9-22c19.5,3.6,30.1,14,36.5,29.8
		C664.9,231,657.7,221,651.7,229.6z"/>
	<path class="st124" d="M914.5,158c-3.8-1.4-7.6-2.9-11.5-4.3c-6-18.4,2.1-28.8,19-34.1c5.6-1.7,10-4.9,14.3-9
		c15.8-14.5,34.3-15.9,54-10.2c-9.8,17.3-29.7,17.4-44.7,25C930.5,133.2,919.7,141.9,914.5,158z"/>
	<path class="st125" d="M538.3,375.9c1.4,2.8,2.7,5.6,4.1,8.4c9.1,37.1,19.7,74,28.6,111.1c9.6,39.8,6.6,81.8-19.2,117.4
		c-3.5,4.8-9.6,14.7-17.2,8.4c-6.4-5.4,4.9-10.9,4.7-17.4c14.6-22.7,9.3-47.2,2.8-69.9c-4.9-17.1-8.5-33.7-8.7-51.5
		c-0.1-7.8-0.8-19.1-9-20.8c-8.2-1.8-7.4,10.6-12,15.7c-1.4,1.5-2.6,3.2-8.3,10.4c3.9-41.2-11-73.1-19.3-106.5
		c6.2-9,15.7-4.3,23.7-5.9c2.8,0.1,5.6,0.3,8.4,0.4C524.1,374.1,531.2,369.7,538.3,375.9z"/>
	<path class="st126" d="M863.6,264.3c-7.4,5.3-11-7.3-18-3.9c-5.1-5.2-4.1-14.4-11.4-18.2c-18.1-24.6-18.1-51.8-10.9-80
		c6.1,1.2,12.2,2.3,18.3,3.5c-5.9,31.3,20.2,55.9,17.9,86.6C859.2,256.2,862.2,260.3,863.6,264.3z"/>
	<path class="st127" d="M194.9,366.9c0.5,4.3,1.1,8.5,1.8,14.4c-15.1-4.5-18.1-20-29-26.3c1.1-2.9,2.1-5.8,3.2-8.6
		C180.5,351.2,189.5,357,194.9,366.9z"/>
	<path class="st128" d="M156.9,353.1c-7.1,2.9-14.3,5.8-21.4,8.7c-3.1-17.1,9.1-19.3,20.8-22.1C156.5,344.2,156.7,348.7,156.9,353.1
		z"/>
	<path class="st129" d="M502.9,229.3c14.5-0.1,29-0.2,43.6-0.4c6.9,17.5,13.7,35.1,21.5,55c7.8-10.3,10.1-19.3,7.4-29.8
		c-1.1-4.3-1.9-9.3,3.6-11.2c5.2-1.8,7.8,2.5,10.5,6c7.9,10.1,10.1,20.9,4.7,33.1c-2.7,6-7.8,13.8-5.9,18.4
		c10.7,26.3,2.9,50.3-5.8,74.7c-0.9,2.6,0.1,5.9,0.2,8.8c-7.2,0.1-14.4,0.1-21.6,0.2c-3.3-37.9-19.5-73.4-18.7-112.2
		c0.2-8-5.5-21.6-15.3-15.8c-22.1,13.1-19.3-5.7-23.4-15.9C502.4,237,503.1,232.9,502.9,229.3z"/>
	<path class="st130" d="M598.8,229.9c8.8-0.3,17.7-0.5,26.5-0.8c10.6,6.1,14,15.9,14.2,27.6c0.5,35.6,6.3,69.7,25.9,100.3
		c5.2,8.1,7.5,17.4,4.5,27.3c-9,18-19.2,0.2-28.8,1C618.5,335.8,626.7,277.9,598.8,229.9z"/>
	<path class="st131" d="M630.6,624.9c11.5-39.2,18.4-78.6,3.9-118.6c-1.1-6.2-5-14.3,4.5-16.1c7.4-1.4,6.4,5.2,6.7,10.1
		c2.6-0.4,0.4-3.4,0.1-5.2c-1.4-10.1-1.4-22.2,10.7-22.5c11.8-0.3,4.9,12.6,7.2,19.4c0.4,1.3,1.2,2.6,2.2,3.7c0.6,1.3,1.6,2.7,1.7,4
		c1.6,24.8,1.4,49.7,6.3,74.4c2.4,12-0.9,23.5-14.3,28.7c-10,3.8-10.3,13.1-11.8,21.7c-3.6,5.1-6.3,12.1-14.3,10.2
		C628.3,633.5,627.8,629.4,630.6,624.9z"/>
	<path class="st132" d="M666,495.7c-7.7-4.5-1.8-14.3-7.9-20.2c-13.1,5.7-8.1,18.5-10.7,28.4c-6.7,0-1.1-13.1-9.3-9.5
		c-2.4,1.1-2.4,7.7-3.5,11.8c-0.8-1.2-2.5-2.8-2.2-3.6c12.3-34.5-11.3-66.5-7.1-100.4c1.4-8.3-0.5-19.3,13.7-17.3
		c6.3,28,6.1,57.7,23.5,82.8C667.8,475.5,666.9,486.1,666,495.7z"/>
	<path class="st133" d="M630.6,624.9c6.1,17.3,11.5-1,17.2-0.4c-3.5,11.2-11,22.1,7.4,29.3c6.2,2.4,9.6,16.7,1.1,22.6
		c-6.6,4.6-16.9,4.9-21.8-6.6c-2.6-6-6.1-11.9-10.3-16.9C607.6,633.5,607.4,633.7,630.6,624.9z"/>
	<path class="st134" d="M596.1,384.5c0.2-2.9-0.4-6.2,0.8-8.5c4.7-9.5-0.2-28.4,9.7-28.2c11.3,0.3,5.8,18.8,10.1,28.6
		C612.4,385.9,602.8,381.4,596.1,384.5z"/>
	<path class="st135" d="M175.2,374.3c-13.8,1.5-1.6,22.3-16.9,22.8c-9.7,0.3-17-5.9-17.6-16c-0.6-11,6.1-17.8,16.9-19.2
		C165.7,361,171.4,365.2,175.2,374.3z"/>
	<path class="st136" d="M187.7,407.4c-23.4,13.1-28.8,13.9-47.8,5.7c9.7-4.7,20,1.5,26.6-5.7C173.5,408.7,180.5,394.5,187.7,407.4z"
		/>
	<path class="st137" d="M538.3,375.9c-7.1,0.3-14.2,6.1-21.3-0.1c0.2-0.7,0.3-1.5,0.8-2c5.5-6.9,0.3-23,11.4-22.1
		C537.7,352.4,536.1,367.1,538.3,375.9z"/>
</g>
</svg>
