<?xml version="1.0" encoding="utf-8"?>
<!-- Generator: Adobe Illustrator 23.0.1, SVG Export Plug-In . SVG Version: 6.00 Build 0)  -->
<svg version="1.1" id="neon-tetra" xmlns="http://www.w3.org/2000/svg" xmlns:xlink="http://www.w3.org/1999/xlink" x="0px" y="0px"
	 viewBox="0 0 1280 1024" style="enable-background:new 0 0 1280 1024;" xml:space="preserve">
<style type="text/css">
	.st0{fill:#E2E0EA;}
	.st1{fill:#F65725;}
	.st2{fill:#E1DFE9;}
	.st3{fill:#7F784A;}
	.st4{fill:#564D20;}
	.st5{fill:#E3E1E9;}
	.st6{fill:#F7662A;}
	.st7{fill:#414141;}
	.st8{fill:#EF6524;}
	.st9{fill:#D1D0DC;}
	.st10{fill:#D0CFDB;}
	.st11{fill:#DFDEE7;}
	.st12{fill:#D2D0DD;}
	.st13{fill:#564D21;}
	.st14{fill:#CED0DC;}
	.st15{fill:#5D5326;}
	.st16{fill:#32D1DD;}
	.st17{fill:#F46528;}
	.st18{fill:#F15727;}
	.st19{fill:#30C0C5;}
	.st20{fill:#E65E33;}
	.st21{fill:#93D6CF;}
	.st22{fill:#EE8963;}
	.st23{fill:#84F4EC;}
	.st24{fill:#EA9F92;}
	.st25{fill:#CA3B18;}
	.st26{fill:#414140;}
	.st27{fill:#D9C7C9;}
	.st28{fill:#E2DEE2;}
	.st29{fill:#D1C7CD;}
	.st30{fill:#F47839;}
	.st31{fill:#F18B5A;}
	.st32{fill:#F06D43;}
	.st33{fill:#F37547;}
	.st34{fill:#D1C1BB;}
	.st35{fill:#22979A;}
	.st36{fill:#64E9E8;}
	.st37{fill:#5EFDF4;}
	.st38{fill:#3F4747;}
	.st39{fill:#5BF4F0;}
	.st40{fill:#E4EBF0;}
</style>
<g>
	<path class="st0" d="M512.8,687.8c-15.6-5.3-31.2-4.5-47.5-2.1c-35.9,5.3-71.7,0-107.4-3.8c-52-5.5-102.5-17.4-150.6-37.3
		c-44.4-18.4-86.1-42.4-121.8-75.2c-10.8-9.9-20.2-21.3-30.8-31.4c-7.8-7.5-11.2-15.4-6.8-25.8c17.6,3.8,24.6,20.4,37.2,30.3
		c10.3,17.1,25.4,27,45.2,29.6c22.9,6.9,39.6-1.7,52.3-20.8c22.3-3.8,44.6-7.9,66.6,1.3c7.9,20.8,3.3,38-17.3,64.6
		c19.1-3.5,32.8-16.9,38.7-37.7c1.8-6.4-0.2-14.7,8.6-17.8c23.8,3,45.9,12.1,68.9,17.9c62.8,15.8,125.1,8.9,187.5-1.6
		c8.2-1.4,16.2-4.7,24.6-2c7.6,4.7,4.4,11.3,0,14.2c-12.7,8.2-23.2,20-40.3,21.4c-15.6,1.2-31.6,1.9-50.9,7.2
		c18.4,7.3,29.4,20.2,45.8,23.2c2.9,2.5,3.6,1.8,6.5-6.4c6.3-5.3,13.9-8,21.6-6.7c23.5,4,47.7,0.2,70.9,7.8
		c13.8,4.5,27.9,3.2,41.7-2.2c16.5-6.4,33.6-9.1,51.1-4.9c10.1,5.8,6.5,11.2-1.1,15.4c-8.5,4.7-18,7.1-27.6,8.6
		c-12.3,1.9-13.4,7.2-6.4,16.8c15.1,20.7,28.2,42.8,44.3,58.3c-11.2-13.9-27.3-28.8-35.1-49.4c-2.4-6.3-7.4-14.5,0.5-19.2
		c7.6-4.7,13.5,2.5,17.4,8.1c12.2,17.4,26.1,33.6,36.9,51.9c1.1,1.3,2.3,2.7,3.3,4c-0.5-2.3-2.7-3.4-3.7-5.4
		c-8.5-15.7-19.2-30.2-27.2-46.2c-2.4-4.8-6.6-11.3-0.2-15.3c5-3.2,9.5,2.1,13.1,5.5c8.8,8.1,17.6,16.3,25.4,26.9
		c-4.4-7.4-8.9-13.6-7-21.8c1.2-2.8,3.1-4.5,6.3-4.5c7.7,2.5,11.2,10,17.2,14.8c1-4.7-2.5-8.1-3.6-12.2c-1.7-6.3-8.9-13.9,0.6-18.2
		c9.3-4.3,13.3,4.1,16.8,11.4c0.7-4.4-1.4-8.3-1.8-12.5c-0.6-6.2-4.1-13.9,2.8-17.5c8.7-4.4,11.6,4.9,16,9.6c0.6,0.9,1.2,2,1.6,3.1
		c2.1-1,0.1-2.2-0.1-2.9c-0.7-2.3-1.7-4.4-2.2-6.8c4.8-16.5,6.1-16.6,25.3,0.7c-7.9-21.7,13.5-21.1,20-31.6
		c10.8,1.8,20.6,5.7,30.1-6.6c5.4-6.9,18.2-9.5,25.2,3.2c7,12.9,3.8,23.9-9.8,27.9c-38.2,11.2-63.7,40.7-93.3,63.7
		c-19,14.8-22.7,40.5-29.3,63c-1.1,3.6-0.2,8-1.8,11.3c-3.2,7,0.3,18.1-11.3,20.3c-10.2,1.9-15-6.2-20.7-12
		c-30.4-31.4-57.7-65.3-78.3-104.1c-6.8-12.8-17.5-8.6-24.8-5.7c-6.3,2.5-23.4-5-18.4,13.6c-1.3,1.4-2.9,2.2-4.7,2.7
		c-13.5-5.3-27.5-4.7-40.5,0.3C545.3,684.9,527.8,679.6,512.8,687.8z"/>
	<path class="st1" d="M893.8,597.8c-12.3-2.8-26.5-10.3-29.2,11.3c-0.7,5.4-3.9,3.9-6.6,2.7c-6.4-2.7-12.6-5.8-18.9-8.8
		c-23.7,1.8-46.5,5.6-67.9,17.8c-18.5,10.6-38.6,20.1-61.4,12.8c-20.9,1.5-42.3-1.1-62,10.1c-7.2,4.1-16.9,4.3-24.5,0.9
		c-24.4-10.9-50.9-5.3-76-10.4c-9-1.8-19.3-0.7-26.7,7.3c-0.9,1.5-2.2,2.6-3.8,3.3c-24.5,2.6-36-21.5-57.2-26.9
		c20.1-10,41.6-7.8,61.8-12.3c17.7-3.9,30.8-13.4,41.6-27.1c15.3-23.8,37.5-38.4,64.9-42.7c39.9-6.3,80.6-4.6,120.6-11.1
		c60.1,6.1,119.9,14.2,176.5,24.1c-30.9-7.8-64.5-16.4-98.4-24c-8.1-1.8-16.4-3.9-22.4-10.4c-1.8-10.4,4.4-8,9.7-7.1
		c-10.3-7.7-23.7-7.7-36-11.3c-6.9-2-16-0.7-18.2-10.8c9.4-18.5,26.8-13.6,42.3-14.6c47.9,13,94.4,30.2,139.8,49.8
		c22.6,9.7,44.4,11.5,67.4,4.4c1.4,1.2,2.7,2.6,3.9,4c12.6,22.6,3.8,44.4-1.8,66.7c-3.6,14.2-14.3,27-8.9,43.6c1.1,3.3-5.1,4.4-9,2
		C963.9,618.4,932.2,600.4,893.8,597.8z"/>
	<path class="st2" d="M1009.8,527.7c0-1-0.3-2-0.7-2.9c68.6-7.1,137.3-14,206.4-12c19.2,0.6,21.9,4.7,15,23.1
		c-5.9-4.1-12.1-7.2-19.7-6.8c-28.3,1.5-56.7-0.5-85,1.6c17,0.3,34.1-0.1,51.1,0.4c7.3,0.3,18.7-1.5,19.2,8
		c0.6,11.8-11.8,9.1-19.4,10c-7.7,0.9-15.2,3.2-18.3,2.9c0,0,4.7-1.1,9.4-0.6c6.8,0.7,13.3,3.3,13.5,11.1c0.3,7.8-6.8,8.8-12.4,9.1
		c-5.9,0.3-7.7,0.8-9.4,8.1c-2.3,9.5-13.8,10.7-22.7,11.3c-26,1.9-40.7,39.5-22.9,59c7.4,8,15,16,18,27c1.5,12.3-4.7,14.5-15.1,11.8
		c0.6,3.7,5.1,4.6,6.9,7.7c3.6,6.3,13.7,11.1,8.6,19.4c-6.4,10.6-14.2-0.8-21.8-1.4c6.9,6.3,13.7,12.3,18,20.5
		c1.8,3.4,3.6,7.6,0.4,10.8c-3.2,3.1-7.4,1.7-10.7-0.4c-11.4-7.2-23-14.1-34-22c-2.8-2-5.5-3.3-8.7-1.2
		c-20.7-20.6-41.4-41.2-62.1-61.8c6-9.4-6.3-10-7.6-16c-5.3-14.2,2.8-16.1,13.5-13.7c8,1.8,13.7,8.4,20,13
		c-3.9-5.2-12.8-11.1-6.4-17.4c9-8.9,17.1,2.5,24.6,4.1c-2.4-3.4-13.2-6.7-7.3-12.9c7.6-8,17.5,0.8,27.4,2.7
		c-13-9.3-26.9-14.4-39.8-21.6c-4.2-2.3-10.5-5.4-8-11.4c2.4-5.8,8.9-3.6,13.9-2.9c8.4,1.1,15.7,5.3,23.5,7.4
		c-1.1-3-9.4-2.8-6.7-7.8c4.5-8.4,11.9-4.6,21-2c-7.5-3.7-13.5-2.5-18.9-4.1c-4.9-1.5-11-3.3-9.9-9.7c1-5.7,7-8.4,12-7.6
		c9.2,1.4,18.5,2.7,24.3,3.8c-9.1,1.1-20.4-6-33.1-4.6c-4.9,0.6-2.8-1.7-7.6-10.3c-2.1-3.7-3.4-15.7-15.3-13.1
		C1024.6,538.3,1014.6,538.5,1009.8,527.7z"/>
	<path class="st3" d="M508.9,407.5c5.2,0.1,10.4,0.3,15.6,0.4c2.7-1.9,5.6-2.7,8.9-2.5c41.1,4.6,82.3,8.4,121.6,22.7
		c29.4,12.4,62,13.7,91.3,26.3c-8.5,14.1-23.3,15.5-37.2,16.8c-35.1,3.5-69.4-1.9-102.9-12.3c-50.6-15.7-101.5-30.3-155.3-25.6
		c-55,4.9-110.3,5.5-165,12.8c-13.6,5.2-22.3-4.8-23.9-13.9c-1.4-8.1-7.7-4.7-9.3-8.7c61.3-12.7,123.4-17.5,185.9-18.6
		c10.3-0.2,20.6-0.1,31-0.1C482.6,408.7,496,404.1,508.9,407.5z"/>
	<path class="st4" d="M284.3,447.6c-1.6-4.6-3.2-9.3-4.4-13c30.5,8.1,61.4,0.7,92.1-1.2c67.3-4.3,134.1-13.1,200.5,9.9
		c35.5,12.3,72.1,22.9,110.6,23.4c22.2,0.3,43.6-1.5,63.4-12.4c4.1,0.4,8.3,0.2,11.5,3.5c-4.5,13.4-14.4,21.7-26.5,27.9
		c-21.6,2.9-42.5-4.1-63.9-3.9c-67.6-11-134.5-28.5-204.1-21.3c-42.2,4.3-84.4,10.3-127.1,7.9c-7.7-0.4-15.5,0-23.2-0.6
		c-4.3-0.1-8.7-0.3-13-1.3c-2-0.5-3.9-1.3-5.7-2.3C289.1,459.9,282.7,456.1,284.3,447.6z"/>
	<path class="st5" d="M625.4,307c0.1-4.5-0.5-10.6,3.8-12.4c26.6-11.6,39.9-39.6,66-52.2c12.6-6.1,16-1.7,15.4,8.8
		c-1.3,24.6,5.2,49.8-9.1,73.6c-4.9,8.2-3.8,21.5-1.8,31.9c3.4,18.2-8.2,33.6-6.3,52.1c1.3,12.7-15.3,13.6-26.7,14.2
		c0-5.4,0.6-10.7-7.9-6.7c-4.4,2-10.7,4.4-13.7-1.6c-2.2-4.4,2-8.3,4.8-11.8c8.3-8.6,17.6-16.4,24.1-26.6c4-4,8.6-8.1-0.5-11.5
		c-14.8,4.9-20.3,23.1-36.7,25.5c-3.1-0.5-4.8-2.3-5.4-5.3c4.2-15.6,16.5-25.4,27-36.4c2.4-2.5,5-4.9,7.2-7.6
		c-2.5,2.3-4.8,4.9-7.3,7.2c-6.9,5.9-11.4,14.7-21.5,16.3c-8.1-0.4-9.3-5-7.3-11.7c5.6-16.7,21.9-26,28.9-41.8
		c7.6-3.7,1.6-7.8,0.3-11.9c0-1.3,0.2-2.5,1-3.5c1.4-1.8,1.9-3.1-0.8-0.9c-4.3,3.5-7.9,7.7-12,11.4c-4.3,3.8-8.6,7.6-14.7,7.9
		C628.2,313.3,623.9,312.9,625.4,307z"/>
	<path class="st6" d="M1009.8,527.7c2.1,1.4,4.6,4.4,6.3,4c19.6-4.4,33.3,9.1,49.7,15.7c-4.8,6.2-12.9-0.1-18.4,6.4
		c18.8,5.5,39,2.9,57.6,12.2c-17.9,5-35.2-5.6-55.6,3.4c15.4,4.4,27,7.7,38.5,11c0,0.6-0.1,1.1-0.1,1.7c-8.4,0-16.8,0-26.1,0
		c4.3,9.3,14.4,5.6,21.5,13.9c-19.6,1.3-35.5-7.6-56.9-10.3c22.5,17.5,47.7,21.4,67,39.7c-16.6,5.6-27.6-7.6-42.3-7.8
		c4.5,11.4,20.6,12.1,21.1,27.4c-13.1-8.2-23.8-17.1-38.9-18.4c2.6,14.1,17.4,16.9,22.7,33.8c-14.4-10-25.2-17.8-36.3-25.1
		c-3.8-2.5-8.5-4.8-12.4-1c-3.5,3.4,0.9,7,1.6,10.6c-1.8,2.5-4.1,3.7-7.2,3.7c-4.1-1-6.3-4.2-8.4-7.5c2.2-1,4.4-2,6.6-3
		c-16.5-7.4-2.5-14-0.4-22.1C1007.4,587.3,1022.9,559,1009.8,527.7z"/>
	<path class="st7" d="M198.8,435.8c4.9-2.3,9.8-4.9,15.6-4c24.5,17.2,55.2,17.8,81.3,30.6l0.1,0.3c9.2,4.6,16.9,10.9,23.2,18.9
		c7.1,9,5.7,14.8-6.2,16.7c-14.8,0.8-29.5,1-44.2-2.2c-36.7-7.8-72.3,1-108,8.2c-5.9,2.3-11.8,3.9-16.9-1.7
		c-3.4-6.2-0.6-11.4,3.5-15.6C164.2,469.7,180,451.3,198.8,435.8z"/>
	<path class="st8" d="M637,361.6c6.3-5.3,12.5-10.7,18.8-16c4.4-0.9,6.2,0.9,5.3,5.3c-9.5,11.1-19,22.2-28.5,33.2
		c-0.9,4.8-4.4,7.7-6.3,9.4c1.9-1.9,6.3-3,10.3-5c13.4-9.3,22.7-23.7,38.2-30.4c4.6,8.9-3.8,12.2-7.9,16.8
		c-8.9,9.9-18.5,19.2-26.4,26c0.7-1.1,4.2-2.2,8.2-2.4c2.9,0.8,5,2.1,4,5.6c-2.2,3-4.4,6-7.5,10.3c12.4,1.7,19.4-7.6,30.3-10
		c0.6,8.8-5.9,12.9-8.7,18.6c-3.1,3.4-7.2,4.6-11.6,5c-12.5,6-23.2-3.4-34.8-4.7c-29.5-3.4-58.7-9.7-88-14.8
		c-2.1-7.8,4.1-12.3,8.3-16c28.6-24.1,53.2-52.5,82.7-75.5c3.1-2.4,7-3.2,10.1-5.6c3.6-2.8,7.2-5.6,10.9-8.4c3.4-1.5,5,0.5,6.2,3.2
		c0.8,7.5-4.4,11.8-8.8,16.4c-19.9,20.3-40.5,39.9-61,59.6c-2.1,1.6,2.4,2.3,0.2,1c-0.4-0.2-0.2-0.9,0.8-1.6
		c15.3-11.7,25-30,44.4-36.7c4.7,0.8,5.6,3.9,4.9,8c-5.5,16.8-19.5,26.7-30.9,38.4C613.7,383.4,622.2,368.6,637,361.6z"/>
	<path class="st7" d="M81.6,543.2c-11.2-10.4-22.4-20.7-33.7-31.1c-5.6-18.6,3.3-29.1,19.5-36.1c37.2-16.1,75.6-28.5,115.3-37
		c9.6-3,13.3-0.5,5,7.3c-19.1,18.1-36,38.5-56.7,54.9c-7.9,5-17.5,3.5-25.8,7c-5.4,2.8-9.4,7.1-12.8,12
		C86.5,526.8,89.4,537.5,81.6,543.2z"/>
	<path class="st9" d="M1129.8,679.8c-6.7-10-12.1-20.8-19.9-30.3c-11.4-13.9-8.4-30.9,0.4-46.1c7.4-12.8,15.1-18.6,29.8-17.6
		c5.6,0.4,12.6-1.8,17.8-7.2c-2.8-6.7-11.3-0.8-14.5-7.1c1-1.1,2-3.4,3.2-3.5c6.4-0.6,12.9-0.2,19.3-0.9c4.5-0.4,12.3,2.5,11.9-5.3
		c-0.3-6-7.3-6.1-12.5-6.2c-11,0-22.1,0-33.1,0c0-2-0.1-4-0.1-6c20.4-2.4,40.7-4.8,61.1-7.2c0.1-1.8,0.2-3.5,0.3-5.3
		c-28.2,0-56.4,0-84.6,0c-0.1-2-0.2-4.1-0.3-6.1c8.4-3.3,16.8-6.3,26.3-6.6c27-0.8,54.1,1.7,81.2-1.4c7.6-0.9,16.1,1.5,14.5,12.9
		c-19.7,33.3-52.3,49.3-86.8,60.3c-37.8,12.1-44.8,30.5-18.8,60.7c5.8,6.8,13.8,12.1,12.9,22.6
		C1135.3,682,1132.5,680.2,1129.8,679.8z"/>
	<path class="st10" d="M1129.8,679.8c2.7-4.4,5.4-0.1,8.2-0.1c14.5,25.2,25,50.8,16.3,81.2c-3.6,12.5-7.5,13.3-18.6,8.4
		c-24.2-10.6-40.2-31.2-60-47.1c1.2-8.6,4.9-6.9,10.3-3.1c13,8.9,26.4,17.2,42.7,27.8c-4.9-19.5-22.7-25.8-29.9-41.7
		c13-0.7,20.1,11.3,32.7,11.7c-5.6-15.6-19.1-23.2-26.7-34.3C1113.1,673.3,1123.1,699.6,1129.8,679.8z"/>
	<path class="st11" d="M602.1,675.9c1.3,0,2.7-0.1,4-0.1c5.5,0.4,11.5,2.6,10.7,8.3c-2.9,20.9,10.1,38.1,12.3,57.8
		c-20.3,1.7-35.6-10.9-52.8-18c-6.5-2.7-11.6-11.3-20.5-5.7c-10-8.2-24.6-10.1-31.2-22.9c5.6-8.1,12.8-6.5,20.7-3.9
		c17.2,5.5,32.4,15.6,51.7,21.4c-11.8-6.4-22.8-9.6-32.6-15.1c-4.1-2.3-7.6-5.8-6-10.9c2-6.4,7.3-3.6,11.4-2.7
		c7.6,1.7,14.4,5.6,21.8,8.4c1.9,1.4,2.3-2.8,1.1-0.5c-0.2,0.4-0.6,0-1.6-0.4c-5.1-2.1-10.2-5.1-7.8-11.1c1.9-4.9,7.5-3.8,12-2.3
		C598,679,600.2,677.8,602.1,675.9z"/>
	<path class="st12" d="M602.1,675.9c-1.2,13.9-12,0-16.4,6.1c3.6,9.5,15.3,7,25.4,17.2c-20.6-0.6-34.4-9.6-54.1-14
		c17,17,40.8,15.2,54.2,39.2c-17.6-7.6-30.6-13.7-43.9-18.9c-13.7-5.3-26.4-15.6-42.7-10.3c-3.9-2.5-7.9-5-11.8-7.5
		c-4.3-11.5,8-10.9,10.5-10.1c17.5,5.6,32.9-3.5,48.7-6.6C583.8,668.8,592.8,670,602.1,675.9z"/>
	<path class="st13" d="M295.6,462.3c-28.9-5.3-59.9-5.4-81.3-30.6c12.8-2.7,25.7-5.4,38.5-8.2c5.6,1.9,14.9-3.3,14.1,10.3
		c-0.2,4.2,11.3,9.1,17.4,13.7C288.1,452.5,291.9,457.4,295.6,462.3z"/>
	<path class="st14" d="M633.4,311.4c-28.5,26.8-57.1,53.5-85.5,80.3c-5.5,5.2-10.5,11.1-15.7,16.8c-2.6-0.2-5.1-0.4-7.7-0.6
		c28.9-38.3,62.9-71.5,100.8-100.8C626.9,310.6,630.1,311.1,633.4,311.4z"/>
	<path class="st12" d="M555.8,718.2c4.8-13.7,14.2-3.7,17.8-1.2c17.1,11.7,37.6,15.4,55.5,25c-2.5,14.6-10.9,13.5-20.8,7.7
		C590.8,739.2,573.3,728.7,555.8,718.2z"/>
	<path class="st7" d="M128.6,497.8c19.5-18.4,39.3-36.6,58.4-55.4c2.6-2.6-2.9-2.1-4.3-3.4c4.9-3.2,10.3-4.2,16-3.2
		c-8.4,17.9-25.1,28.5-37.5,42.9c-6.1,7.1-15.5,11.6-17.3,22.1C137.7,505.6,132.1,507.1,128.6,497.8z"/>
	<path class="st15" d="M801.9,470.7c-13.6,6.4-30,4.7-42.1,15.2c-3.5,3.3-7.3,3.1-11.3,0.9c-3.9-16.6,5.1-25.5,25.2-24.6
		C783.4,463.8,793,466.1,801.9,470.7z"/>
	<path class="st15" d="M773.6,462.1c-14.3,1-22.3,8.6-24,22.9c-6.5,5.7-11.2,2.2-15.6-2.9c6.7-9.3,14.6-17.5,23.9-24.3
		C763.4,458.2,769.1,458.1,773.6,462.1z"/>
	<path class="st1" d="M1001.8,648.7c1.5-3,4.2-3.7,7.2-3.7c3.5,2.6,7.8,4.6,10.5,7.8c9.2,10.9-2.4,6.4-6.1,7.7
		C1009.6,656.6,1005.7,652.6,1001.8,648.7z"/>
	<path class="st14" d="M508.9,407.5c-13.2,0.4-26.4,2-39.2-2.6C482.9,404.6,496.2,401.3,508.9,407.5z"/>
	<path class="st16" d="M734,482.1c5.2,1,10.4,1.9,15.6,2.9c3.4,0.3,6.7,0.6,10.1,0.9c18.7,7.6,40.8,5.7,58,18.7
		c-3.4,7.7-10.8,4.4-15.1,7.7c-16.8,8.5-34.3,14.4-53.1,16.3c-36.5,8.6-74,8.6-111.1,11.1c-20,1.4-37.3,7.7-51.8,22.1
		c-6.7,6.7-15.6,11.2-23.6,16.7c-44.2,9.2-88.7,15.3-134,15.8c-52.6,0.6-102-12.5-150.8-30.3c-8.5-8.1-7-16.7-1.3-25.5
		c12-3.7,23,1.5,34,4.6c52.4,14.7,105.3,18.8,159.2,10.4c21.1-3.3,41.9-7.6,61.5-16.7c34.5-16.1,70.7-24.1,109.1-21.9
		c29.2,1.7,58-2.4,86.6-7.8c4.6-0.9,12.1-0.7,11.4-7.5c-0.7-6.1-7.6-5.8-12.7-6.3c-30.3-3.1-60.7-3.3-91-1.2
		c-106.2,7.3-212,22-318.8,19.5c-23.5-0.5-46.3-5.2-69-9.8c-18.7-3.8-34,5.4-50.7,9.4c-4.4,1.1-6.1,4.6-4.9,9
		c1.7,6.7,5.4,11.7,12.7,13.1c13.6,2.6,25.4-2.2,36.5-9.4c14.3,7.2,14.6,17.8,7.4,30.3c-21.7-2.2-43.4-1.8-65,0.6
		c-3.1-2.5-4-6-4.5-9.6c-1.3-14.5-12.7-22.9-20.3-33.6c-2.1-3-4-6.1-2.5-10c3.2-2.1,6.5-5.9,9.7-5.9c34.4-0.1,68-14.7,102.9-5.3
		c15.1,4,30.7,3.7,46.2,3.6c21.3-3.1,43.1,0.3,64.3-4.9c69.6-0.9,138.6-10.1,207.8-16.6c26.9-2.5,53.6,5.5,80.7,4.4
		C689.8,478.7,711.9,480.4,734,482.1z"/>
	<path class="st17" d="M709.9,633.7c23.2-2.6,44.7-8.2,65.3-21c18.2-11.4,40.9-12.4,62.3-14.6c0.4,0,1.2,3.3,1.7,5.1
		c0.7,13.6-5.5,17.3-18,10.7c-0.3,10.5,4.8,18.9,1.6,29.2c-7-3.8-11.9-8.4-15.2-15.3c-1.6-3.4-5.1-6.9-9.2-4.9
		c-4,2-1.9,6.8-2.3,10.5c-0.1,3.5-0.6,6.8-4.2,8.6c-3.8-4.1-7.7-8.2-11.5-12.2c-1.2,0.4-2.5,0.8-3.7,1.2c2.7,13.8,5.4,27.5,8.6,43.6
		c-10.2-5.2-12.1-13.8-16.3-20.3c-2.3-3.6-5.1-7.2-9-5c-5.1,2.9-0.5,5.9,1.3,9.2c5.1,9.5,8.9,19.6,10.2,33.1
		c-12-7.8-19.6-16.8-26.3-26.7c-2-1.3-4.1-2.5-6.2-3.5c0.3,2.6,1.5,4.9,1.7,7.5c4.7,10.3,9.4,20.6,14.2,31
		c-16.2-13.6-29.8-28.6-46.5-41.1c5.9,21.9,22.2,38.5,30.6,59.1c0.6,4.1-1.2,5.8-5.2,5.1c-16.1-21.3-32.2-42.6-48.4-63.9
		c-1.5,1-3,2-4.5,3c3.1,34.5,33.5,53.7,50.2,81.4c-7.1,3.6-9.2-1.7-11.6-4.5c-21-23.6-40-48.7-58-74.6c-6-8.6-3.7-10.3,4.8-12.3
		c11.9-2.9,23.5-6.7,35.2-10.1C705.7,640.5,710.8,640.2,709.9,633.7z"/>
	<path class="st18" d="M248.3,554.2c1.1-10.5-2.3-20-6.4-29.4c-7.2-5.3-10.9-12.4-4-19.4c5.9-5.9,12.3,0,16.9,4
		c9.4,8.4,20.8,15.8,20.4,30.9c1,7.9,2.1,15.8,3.1,23.8c-2.7,25-12.3,45.6-36,57.2c-6.9,3.4-14.2,5.5-24.4,2.3
		C239.2,604.5,252.4,582.8,248.3,554.2z"/>
	<path class="st19" d="M160.1,509c10.4,10.1,22.6,19,22.6,35.7c-13.2,17.5-26.1,35.4-52.3,30.4c-22.7-0.8-40.2-9.6-48.8-32
		c1.1-9.4-0.6-19.6,8.4-26.5c6.1,3.1,12.1,6.4,16.7,11.7c0.8,3.9-0.9,6.9-3.1,9.8c-2.1,3-6.7,5.6-5,9.6
		c5.5,12.6,17.2,14.2,28.9,14.2c10.4,0,17.3-4.7,15.1-16.7c-0.2-1.7-0.2-3.4,0.2-5.1c2.9-6.8,9.9-11.2,11.1-19
		C155.2,516.9,154,511.1,160.1,509z"/>
	<path class="st20" d="M130.4,575.2c20.3-3.8,38.5-10.4,44.8-33.2c0.8-3,1.5-2.8,7.6,2.8c0.2,3.4,0.4,6.7,0.5,10.1
		C169,580.2,154.1,585.9,130.4,575.2z"/>
	<path class="st1" d="M791.9,641.8c0.5-3.3,0.8-6.7,4.2-8.6c5.7,6.3,4,14.6,8,23.1C795,653.5,792.9,648.1,791.9,641.8z"/>
	<path class="st21" d="M516.9,644.9c1.3-1.1,2.5-2.2,3.8-3.3c2.2,4.3,10.5,3.6,9,10.5c-0.4,1.7-3.8,3.6-5.9,3.7
		C515.9,656,517.4,649.7,516.9,644.9z"/>
	<path class="st22" d="M733.8,722.7c1.7-1.7,3.5-3.4,5.2-5.1c4.3,5.2,9.1,10.3,8.8,19C739.4,735,736.9,728.6,733.8,722.7z"/>
	<path class="st23" d="M308.2,596.7c-3.4,0-4.4-2.4-4.3-5c0.1-3.5,2.1-6.4,5.4-7.1c4.3-0.9,5.5,2.1,5.1,5.7
		C314,593.9,311.6,595.8,308.2,596.7z"/>
	<path class="st24" d="M740.8,668.7c-5.2-4.8-8.6-10.4-9-19.3c7.7,3.5,10.9,9.1,13.4,15.3C743.8,666.1,742.3,667.4,740.8,668.7z"/>
	<path class="st25" d="M749.5,528.6c17.2-7.1,33.3-17.7,53.1-16.3c47.4,12.3,94.9,24.5,142.3,36.8c-14.8,10-28.9,3.5-42.2,1.6
		c-48.8-7.1-97.3-15.9-146.6-18.7C753.9,531.8,751.7,529.8,749.5,528.6z"/>
	<path class="st1" d="M683.2,544.9c-24.5,25.8-49.2,51.6-73.6,77.6c-3.7,3.9-7.2,9.1-12.4,4.9c-5.6-4.5-0.9-9.3,2.7-12.9
		c18.5-18.7,39.1-35.9,55.1-56.6C663.5,546.6,670.1,541.1,683.2,544.9z"/>
	<path class="st26" d="M667.7,476.9c-87.5-3-173.5,15.4-260.7,17.1c-9.7,0.2-19.4,0.2-29.1,0.2c-11.9,2.5-24.3,2.3-36,0.8
		c-18.4-2.4-29.4-14.7-34.6-32.4c70.2,4.7,139.6-10.1,209.8-8.3c28.2,0.7,57-1.1,83.4,9.1C622.5,472,645.2,473,667.7,476.9z"/>
	<path class="st26" d="M307.3,462.6c15.7,28,41.1,34.4,70.6,31.6c-21,4.1-42,3.7-63-0.2c6.7-1.1,6.7-3.7,2.3-8.2
		c-7.3-7.6-14.3-15.5-21.5-23.2C299.6,462.6,303.5,462.6,307.3,462.6z"/>
	<path class="st27" d="M625.9,346.3c-18.1,15.6-33.2,34.7-54.8,45.9c-1.8-1.9-3.7-3.8-5.5-5.7c27.8-26.2,55.6-52.4,83.5-78.7
		c2.2-4.9,3.6-11,11.4-7.9c3.5,6,8.5-6.3,10.2,0.2c1,3.8-1.9,10-8.2,10.9C649.9,322.5,641.7,338.3,625.9,346.3z"/>
	<path class="st28" d="M648.4,400.1c-6.4,4-12.7,8.1-19.1,12.1c12-21.1,33-33.8,45.3-54.1c7.8,6.4,17.5,12.8,0.3,19.5
		C666.4,385.5,660.2,396.1,648.4,400.1z"/>
	<path class="st29" d="M637,361.6c-12,17.7-28.1,30.1-46.1,40.1c-1.1-1.3-2.2-2.6-3.3-3.8c13.9-14.8,27.8-29.7,41.7-44.5
		c0.9-1.2,2-1.5,3.3-0.8C632.7,356.2,629.2,361.6,637,361.6z"/>
	<path class="st30" d="M632.6,352.6c-1,0.5-2.2,0.8-3.3,0.8c-0.1-2.9-0.4-5.6-3.3-7.1c11.1-12.8,20.8-27.1,36.5-35.2
		C656.6,327.9,640.8,337.5,632.6,352.6z"/>
	<path class="st31" d="M648.4,400.1c8.2-8.3,13.9-19.6,26.6-22.5c-3.2,12.5-13.2,19.2-22.5,26.5
		C651.1,402.8,649.8,401.5,648.4,400.1z"/>
	<path class="st32" d="M660.5,299.9c-3.8,2.6-7.6,5.3-11.4,7.9c-1.6-1.6-3.2-3.2-4.8-4.8c8.2-7.5,16.4-15.1,26.6-24.5
		C671.5,290.1,662.1,293,660.5,299.9z"/>
	<path class="st33" d="M661.1,350.9c-1.8-1.8-3.5-3.5-5.3-5.3c5.5-5.8,11.1-11.7,19.4-20.4C673.4,338.5,667.4,344.8,661.1,350.9z"/>
	<path class="st34" d="M636.5,388.5c-6.4,6.9-12.8,13.8-27.6,15.1c9.8-8.1,16.7-13.8,23.6-19.5C633.9,385.6,635.2,387,636.5,388.5z"
		/>
	<path class="st35" d="M160.1,509c-4,3.1,0.8,9.6-4.6,12.2c-5.1,1.6-9.5-0.6-13.9-2.7c-6.5-4.9-14.3-4.1-21.8-4.8
		c-7-0.7-13.9-1.7-18.1-8.4c7.8-6.8,18.6-2.4,26.9-7.4c4.4,4.5,10,3.2,15.3,3c3.8,3.1,7.9,2.3,12.1,0.8
		C157.4,504.1,158.7,506.6,160.1,509z"/>
	<path class="st36" d="M101.8,505.3c13.5,7,31-2.5,43.2,10.3c-1,3.1-3.5,4.1-6.3,4.8c-13.1-3.7-23.2,5.3-34.7,8.3
		c-6.5-1.9-13.2-3.4-14-11.9C93.9,512.9,97.8,509.1,101.8,505.3z"/>
	<path class="st37" d="M275.2,540.3c-9.3-13.7-18.2-28-35-34.4c-4.6,7.6,3.1,12.7,1.7,18.9c-7.8,22.3-27.2,14.6-42,14.7
		c-15.6,0.1-12.1-17.3-17.6-26.6c-2.4-4.1,2.6-6.4,6.5-7.3c27.8-6.8,55.1-14.4,84.2-4.5c24.1,8.2,49.7,3.5,74.7,4.4
		c76.8,2.8,152.6-8.9,228.8-15c51.8-4.1,103.8-6.9,155.9-3.6c8,0.5,18.2,5.5,19.2,13.6c1.3,10.3-10.8,10.2-17.3,11.4
		c-31.6,6.2-63.5,10.8-95.8,8.7c-39.8-2.6-75.9,9.1-112.1,24c-48,19.8-98.5,21.2-149.7,17.1C341.8,558.9,309.1,546.9,275.2,540.3z"
		/>
	<path class="st38" d="M104,528.6c8.4-11.2,17.8-19.4,32.7-10.9c3.9,6.9,4.3,14.7,6.2,22.2c0.3,1.3,0.5,2.6,0.8,3.9
		c-4.3,13.5-14.5,17.6-26.7,13.9c-9.1-2.8-20.2-6.8-15.1-21C102.6,533.9,103.3,531.2,104,528.6z"/>
	<path class="st39" d="M101.9,536.5c11.3,22.3,22.8,24.3,41.8,7.2c14.1,12.1,2,19.4-6.5,22.1c-13.8,4.5-28,1.5-39.6-8.9
		C87.1,547.6,88.8,540.9,101.9,536.5z"/>
	<path class="st40" d="M142.8,539.8c-8.5-5.6-11.1-12.8-6.2-22.2c2.8-0.7,5.5-1.4,8.3-2.1c3.5,1.9,7.1,3.8,10.6,5.7
		C160.1,533.5,150.3,535.8,142.8,539.8z"/>
</g>
</svg>
